<?xml version="1.0" standalone="no"?>
<!DOCTYPE svg PUBLIC "-//W3C//DTD SVG 1.1//EN" "http://www.w3.org/Graphics/SVG/1.1/DTD/svg11.dtd" >
<svg xmlns="http://www.w3.org/2000/svg" xmlns:xlink="http://www.w3.org/1999/xlink" version="1.1">
<metadata>
Created by FontForge 20170731 at Wed Mar 18 17:19:20 2015
 By Aleksey,,,
</metadata>
<defs>
<font id="iCielSmoothy-Sans" horiz-adv-x="800" >
  <font-face 
    font-family="iCiel Smoothy Sans"
    font-weight="400"
    font-stretch="normal"
    units-per-em="1000"
    panose-1="0 0 5 0 0 0 0 0 0 0"
    ascent="800"
    descent="-200"
    x-height="699"
    cap-height="700"
    bbox="-273 -191 1400 1095.02"
    underline-thickness="50"
    underline-position="-150"
    unicode-range="U+001D-2265"
  />
<missing-glyph horiz-adv-x="600" 
 />
    <glyph glyph-name=".notdef" horiz-adv-x="600" 
 />
    <glyph glyph-name=".null" horiz-adv-x="0" 
 />
    <glyph glyph-name="nonmarkingreturn" unicode=" " horiz-adv-x="350" 
 />
    <glyph glyph-name="exclam" unicode="!" horiz-adv-x="300" 
d="M215 669l-17 -434q0 -19 -10.5 -29t-29.5 -10q-36 0 -38 39l-16 434q-2 41 39 41h33q41 0 39 -41zM117 17q-17 17 -17 41q0 23 17 40t41 17t41 -17t17 -40q0 -24 -17 -41t-41 -17t-41 17z" />
    <glyph glyph-name="quotedbl" unicode="&#x22;" horiz-adv-x="500" 
d="M201 693q17 -17 17 -40q0 -12 -5 -25l-29 -69l-2 -5q-7 -13 -17 -13q-8 0 -16.5 7t-13.5 19l-27 61q-6 12 -6 25q0 23 17 40t41 17t41 -17zM394 628l-29 -69l-2 -5q-7 -13 -17 -13q-8 0 -16.5 7t-13.5 19l-27 61q-6 12 -6 25q0 23 17 40t41 17t41 -17t17 -40
q0 -12 -5 -25z" />
    <glyph glyph-name="numbersign" unicode="#" horiz-adv-x="600" 
d="M481 294q40 0 40 -40q0 -35 -40 -35h-66l-33 -183q-6 -36 -43 -36q-31 0 -31 31q0 8 1 12l31 176h-123l-33 -183q-6 -36 -43 -36q-31 0 -31 31q0 8 1 12l31 176h-52q-40 0 -40 40q0 35 40 35h65l20 111h-55q-40 0 -40 40q0 35 40 35h68l33 184q6 36 43 36q31 0 31 -31
q0 -8 -1 -12l-31 -177h123l33 184q6 36 43 36q31 0 31 -31q0 -8 -1 -12l-31 -177h50q40 0 40 -40q0 -35 -40 -35h-63l-20 -111h53zM230 294h123l20 111h-123z" />
    <glyph glyph-name="dollar" unicode="$" horiz-adv-x="650" 
d="M563 109q-28 -45 -77.5 -75.5t-110.5 -39.5v-41q0 -40 -40 -40h-20q-40 0 -40 40v41q-79 12 -137 58.5t-74 111.5q-1 4 -1 10q0 15 10.5 23.5t27.5 8.5h38q17 0 26 -7.5t18 -25.5q11 -22 35.5 -38.5t56.5 -23.5v206q-85 27 -136 70t-51 121q0 48 24.5 89.5t67 70
t95.5 38.5v21q0 40 40 40h20q40 0 40 -40v-21q68 -13 118 -55.5t65 -100.5q1 -4 1 -10q0 -15 -10.5 -23.5t-27.5 -8.5h-39q-17 0 -25.5 7.5t-18.5 25.5q-9 15 -25.5 27t-37.5 19v-179q63 -19 108 -41t76.5 -61.5t31.5 -99.5q0 -52 -28 -97zM220 469.5q17 -15.5 55 -29.5v147
q-32 -11 -52 -32.5t-20 -46.5q0 -23 17 -38.5zM447.5 148q28.5 26 28.5 58q0 27 -22.5 45t-78.5 36v-176q44 11 72.5 37z" />
    <glyph glyph-name="percent" unicode="%" horiz-adv-x="700" 
d="M94 -58q-11 -6 -28 -6h-9q-16 0 -25 6.5t-9 17.5q0 12 10 25l552 757q10 13 21 19t28 6h9q16 0 25 -6.5t9 -17.5q0 -12 -10 -25l-552 -757q-10 -13 -21 -19zM211.5 700.5q27.5 -16.5 44 -43.5t16.5 -58v-133q0 -31 -16.5 -58.5t-44 -44t-58.5 -16.5t-58 16.5t-43.5 44
t-16.5 58.5v133q0 31 16.5 58t43.5 43.5t58 16.5t58.5 -16.5zM123.5 628.5q-12.5 -12.5 -12.5 -29.5v-133q0 -18 12.5 -30.5t29.5 -12.5t30 12.5t13 30.5v133q0 17 -13 29.5t-30 12.5t-29.5 -12.5zM598.5 342.5q27.5 -16.5 44 -43.5t16.5 -58v-133q0 -31 -16.5 -58.5
t-44 -44t-58.5 -16.5t-58 16.5t-43.5 44t-16.5 58.5v133q0 31 16.5 58t43.5 43.5t58 16.5t58.5 -16.5zM510.5 270.5q-12.5 -12.5 -12.5 -29.5v-133q0 -18 12.5 -30.5t29.5 -12.5t30 12.5t13 30.5v133q0 17 -13 29.5t-30 12.5t-29.5 -12.5z" />
    <glyph glyph-name="ampersand" unicode="&#x26;" horiz-adv-x="700" 
d="M486 21l-19 20q-20 21 -48 54q-38 -50 -80 -77.5t-98 -27.5q-58 0 -103.5 26t-71.5 71.5t-26 103.5q0 65 32 110.5t86 82.5v2l2 2q-55 65 -55 140q0 38 17 77q22 47 65 76t90 29q49 0 88 -22.5t61 -61.5t22 -87q0 -65 -30.5 -108.5t-82.5 -76.5q18 -19 68 -78
q34 55 68 90t80 48q8 2 12 2q15 0 23 -10.5t8 -28.5v-33q0 -16 -7.5 -25.5t-23.5 -19.5q-19 -12 -37.5 -37.5t-45.5 -71.5q15 -16 26 -28.5t19 -21.5q49 -54 86 -91q15 -15 15 -27q0 -10 -9.5 -16t-25.5 -6h-56q-29 0 -49 21zM215 527q0 -41 47 -88q41 24 58.5 46t17.5 54
q0 27 -16.5 44t-44.5 17q-14 0 -30 -11.5t-25 -30.5q-7 -14 -7 -31zM343 178q-17 21 -32.5 37.5t-27.5 30.5l-47 53q-45 -26 -65.5 -51.5t-20.5 -56.5q0 -46 27 -68.5t64 -22.5q49 0 102 78z" />
    <glyph glyph-name="quotesingle" unicode="'" horiz-adv-x="300" 
d="M211 628l-29 -69l-2 -5q-7 -13 -17 -13q-8 0 -16.5 7t-13.5 19l-27 61q-6 12 -6 25q0 23 17 40t41 17t41 -17t17 -40q0 -12 -5 -25z" />
    <glyph glyph-name="parenleft" unicode="(" horiz-adv-x="350" 
d="M267 766l1 4v-4h-1zM260 751l-2 -9q-64 -183 -64 -384q0 -132 22.5 -238.5t48.5 -176.5q2 -6 2 -9q0 -14 -18 -14h-53q-17 0 -23 16q-25 66 -48.5 175t-23.5 245q0 204 66 393q6 17 23 17h52q18 0 18 -15z" />
    <glyph glyph-name="parenright" unicode=")" horiz-adv-x="350" 
d="M57 766v4l1 -4h-1zM158 749q66 -187 66 -391q0 -137 -23.5 -247t-48.5 -175q-6 -16 -23 -16h-53q-18 0 -18 14q0 3 2 9q71 202 71 416q0 202 -64 383l-2 9q0 15 18 15h52q17 0 23 -17z" />
    <glyph glyph-name="asterisk" unicode="*" horiz-adv-x="600" 
d="M365 592q0 -8 9 -14l43 -30q9 -6 9 -15q0 -7 -4 -12l-12 -17q-6 -9 -15 -9q-7 0 -12 4l-27 19q-5 4 -12 4q-5 0 -8.5 -4.5t-3.5 -12.5v-32q0 -20 -20 -20h-20q-20 0 -20 20v32q0 8 -3.5 12.5t-8.5 4.5q-7 0 -12 -4l-27 -19q-5 -4 -12 -4q-9 0 -15 9l-12 17q-4 5 -4 12
q0 9 9 15l43 30q9 6 9 14t-9 14l-43 30q-9 6 -9 15q0 7 4 12l12 17q6 9 15 9q7 0 12 -4l27 -19q5 -4 12 -4q5 0 8.5 4.5t3.5 12.5v32q0 20 20 20h20q20 0 20 -20v-32q0 -8 3.5 -12.5t8.5 -4.5q7 0 12 4l27 19q5 4 12 4q9 0 15 -9l12 -17q4 -5 4 -12q0 -9 -9 -15l-43 -30
q-9 -6 -9 -14z" />
    <glyph glyph-name="plus" unicode="+" horiz-adv-x="600" 
d="M517 248h-173v-173q0 -40 -40 -40q-35 0 -35 40v173h-173q-40 0 -40 40q0 35 40 35h173v173q0 40 40 40q35 0 35 -40v-173h173q40 0 40 -37q0 -38 -40 -38z" />
    <glyph glyph-name="comma" unicode="," horiz-adv-x="300" 
d="M149 98q17 -17 17 -40q0 -19 -8 -42t-24 -45q-4 -4 -15 -4q-10 0 -16.5 3t-3.5 8v0.5t1 0.5l9 21h-1q-24 0 -41 17t-17 41q0 23 17 40t41 17t41 -17z" />
    <glyph glyph-name="hyphen" unicode="-" horiz-adv-x="500" 
d="M450 380v-60q0 -20 -20 -20h-360q-20 0 -20 20v60q0 20 20 20h360q20 0 20 -20z" />
    <glyph glyph-name="period" unicode="." horiz-adv-x="300" 
d="M67 17q-17 17 -17 41q0 23 17 40t41 17t41 -17t17 -40q0 -24 -17 -41t-41 -17t-41 17z" />
    <glyph glyph-name="slash" unicode="/" horiz-adv-x="600" 
d="M176 -54h-32q-17 0 -26 7.5t-9 20.5q0 7 3 18l266 733q12 32 46 32h32q17 0 26 -7.5t9 -20.5q0 -7 -3 -18l-266 -733q-12 -32 -46 -32z" />
    <glyph glyph-name="zero" unicode="0" horiz-adv-x="550" 
d="M384 29q50 29 79 79t29 109v266q0 59 -29 109t-79 79t-109 29t-109 -29t-79 -79t-29 -109v-266q0 -59 29 -109t79 -79t109 -29t109 29zM349.5 557.5q30.5 -30.5 30.5 -74.5v-266q0 -43 -30.5 -74t-74.5 -31q-43 0 -74 31t-31 74v266q0 44 31 74.5t74 30.5
q44 0 74.5 -30.5z" />
    <glyph glyph-name="one" unicode="1" horiz-adv-x="450" 
d="M357 660v-620q0 -40 -40 -40h-32q-40 0 -40 40v455q-50 -57 -100 -89q-13 -8 -23 -8q-19 0 -31 23l-14 26q-7 11 -7 22q0 18 21 33q48 34 87 78.5t55 85.5q7 17 17 25.5t27 8.5h40q40 0 40 -40z" />
    <glyph glyph-name="two" unicode="2" horiz-adv-x="550" 
d="M446.5 341.5q-51.5 -75.5 -103 -126t-109.5 -101.5h218q40 0 40 -40v-34q0 -40 -40 -40h-360q-40 0 -40 40v25q0 13 1 18q1 9 5.5 15t11 11t10.5 8q97 82 198 191t101 175q0 54 -25 83.5t-73 29.5q-33 0 -63 -19.5t-44 -46.5q-9 -18 -18 -25.5t-26 -7.5h-36
q-17 0 -27.5 8.5t-10.5 23.5q0 6 1 10q11 47 44.5 86t81 62t98.5 23q63 0 112.5 -29t77 -80.5t27.5 -117.5t-51.5 -141.5z" />
    <glyph glyph-name="three" unicode="3" horiz-adv-x="600" 
d="M490 307.5q27 -42.5 27 -90.5q0 -59 -29 -109t-79 -79t-109 -29q-52 0 -97.5 23t-76 62.5t-39.5 89.5q-1 3 -1 9q0 16 10.5 24.5t28.5 8.5h33q18 0 27.5 -8.5t15.5 -27.5q11 -30 38.5 -49.5t60.5 -19.5q44 0 74.5 31t30.5 74q0 40 -26.5 67.5t-80.5 34.5q-20 3 -30 13
t-10 29v34q0 19 10 29t30 13q41 6 60 26t19 48q0 32 -22.5 54.5t-54.5 22.5q-22 0 -40.5 -12t-28.5 -31q-9 -19 -17.5 -26.5t-25.5 -7.5h-35q-18 0 -28 8t-10 23q0 7 1 11q14 64 65.5 105.5t118.5 41.5q51 0 94.5 -25.5t69 -69t25.5 -94.5q0 -36 -19 -69.5t-52 -59.5
q45 -32 72 -74.5z" />
    <glyph glyph-name="four" unicode="4" horiz-adv-x="550" 
d="M438 660v-338q0 -40 34 -40q16 0 24.5 -10.5t8.5 -29.5v-28q0 -19 -8.5 -29.5t-24.5 -10.5q-34 0 -34 -40v-94q0 -40 -40 -40h-27q-40 0 -40 40v94q0 40 -40 40h-206q-40 0 -40 40v17q0 27 15 50l263 393q9 14 20.5 20t27.5 6h27q40 0 40 -40zM325 431q-6 9 -15 9
q-15 0 -28 -20l-60 -90q-9 -13 -9 -24t9.5 -17.5t25.5 -6.5h43q40 0 40 40v83q0 17 -6 26z" />
    <glyph glyph-name="five" unicode="5" horiz-adv-x="550" 
d="M385 441.5q55 -31.5 86.5 -87t31.5 -123.5t-31.5 -123t-86.5 -86.5t-123 -31.5q-61 0 -113 31t-81 84l-8 15q-6 12 -6 23q0 19 22 31l30 16q12 6 23 6q19 0 31 -22l8 -15q14 -25 39.5 -40t54.5 -15q51 0 89 33.5t38 93.5q0 57 -35.5 92.5t-91.5 35.5q-42 0 -82 -18
q-19 -7 -29 -7q-13 0 -26 7l-33 17q-29 15 -29 47v255q0 40 40 40h317q40 0 40 -40v-34q0 -40 -40 -40h-244v-125q43 12 86 12q68 0 123 -31.5z" />
    <glyph glyph-name="six" unicode="6" horiz-adv-x="550" 
d="M386.5 406q51.5 -30 81.5 -81.5t30 -111.5t-30 -111.5t-81.5 -81.5t-111.5 -30q-59 0 -109.5 29t-81 78.5t-32.5 108.5v281q0 60 30 111.5t81.5 81.5t111.5 30q54 0 100 -23.5t77.5 -65t41.5 -92.5q1 -3 1 -9q0 -16 -10.5 -24.5t-28.5 -8.5h-36q-18 0 -27.5 8.5
t-15.5 27.5q-11 32 -39 52t-63 20q-45 0 -76.5 -32t-31.5 -76v-79q50 28 108 28q60 0 111.5 -30zM351.5 137q31.5 32 31.5 76q0 45 -31.5 76.5t-76.5 31.5t-76.5 -31.5t-31.5 -76.5q0 -44 31.5 -76t76.5 -32t76.5 32z" />
    <glyph glyph-name="seven" unicode="7" horiz-adv-x="550" 
d="M58 628v32q0 40 40 40h343q17 0 26.5 -7t9.5 -20q0 -8 -5 -20l-267 -622q-13 -31 -46 -31h-37q-17 0 -26.5 7t-9.5 20q0 8 5 20l232 541h-225q-40 0 -40 40z" />
    <glyph glyph-name="eight" unicode="8" horiz-adv-x="500" 
d="M452 308.5q21 -44.5 21 -95.5q0 -60 -30 -111.5t-81.5 -81.5t-111.5 -30t-111.5 30t-81.5 81.5t-30 111.5q0 51 21 95.5t59 75.5q-24 27 -37.5 60.5t-13.5 71.5q0 53 26 97.5t70.5 70.5t97.5 26t97.5 -26t70.5 -70.5t26 -97.5q0 -38 -13.5 -71.5t-37.5 -60.5
q38 -31 59 -75.5zM194 459.5q23 -23.5 56 -23.5t56 23.5t23 56.5q0 32 -23 55.5t-56 23.5t-56 -23.5t-23 -55.5q0 -33 23 -56.5zM326.5 137q31.5 32 31.5 76q0 45 -31.5 76.5t-76.5 31.5t-76.5 -31.5t-31.5 -76.5q0 -44 31.5 -76t76.5 -32t76.5 32z" />
    <glyph glyph-name="nine" unicode="9" horiz-adv-x="550" 
d="M468 101.5q-30 -51.5 -81.5 -81.5t-111.5 -30q-54 0 -100 23.5t-77.5 65t-41.5 92.5q-1 3 -1 9q0 16 10.5 24.5t28.5 8.5h36q18 0 27.5 -8.5t15.5 -27.5q11 -32 39 -52t63 -20q45 0 76.5 32t31.5 76v79q-50 -28 -108 -28q-60 0 -111.5 30t-81.5 81.5t-30 111.5t30 111.5
t81.5 81.5t111.5 30q59 0 109.5 -29t81 -78.5t32.5 -108.5v-281q0 -60 -30 -111.5zM351.5 410.5q31.5 31.5 31.5 76.5q0 44 -31.5 76t-76.5 32t-76.5 -32t-31.5 -76q0 -45 31.5 -76.5t76.5 -31.5t76.5 31.5z" />
    <glyph glyph-name="colon" unicode=":" horiz-adv-x="300" 
d="M117 407q-17 17 -17 41q0 23 17 40t41 17t41 -17t17 -40q0 -24 -17 -41t-41 -17t-41 17zM117 17q-17 17 -17 41q0 23 17 40t41 17t41 -17t17 -40q0 -24 -17 -41t-41 -17t-41 17z" />
    <glyph glyph-name="semicolon" unicode=";" horiz-adv-x="300" 
d="M149 488q17 -17 17 -40q0 -24 -17 -41t-41 -17t-41 17t-17 41q0 23 17 40t41 17t41 -17zM149 98q17 -17 17 -40q0 -19 -8 -42t-24 -45q-4 -4 -15 -4q-10 0 -16.5 3t-3.5 8v0.5t1 0.5l9 21h-1q-24 0 -41 17t-17 41q0 23 17 40t41 17t41 -17z" />
    <glyph glyph-name="less" unicode="&#x3c;" horiz-adv-x="600" 
d="M551 162v-6q0 -17 -7 -26t-20 -9q-10 0 -19 4l-423 169q-31 12 -31 46v22q0 34 31 46l423 169q9 4 19 4q13 0 20 -9t7 -26v-6q0 -34 -31 -46l-357 -143l357 -143q31 -12 31 -46z" />
    <glyph glyph-name="equal" unicode="=" horiz-adv-x="600" 
d="M517 313h-421q-40 0 -40 40q0 35 40 35h421q40 0 40 -37q0 -38 -40 -38zM517 190h-421q-40 0 -40 40q0 35 40 35h421q40 0 40 -37q0 -38 -40 -38z" />
    <glyph glyph-name="greater" unicode="&#x3e;" horiz-adv-x="600" 
d="M58 574q7 8 19 8q7 0 20 -5l423 -169q31 -12 31 -46v-22q0 -34 -31 -46l-423 -169q-9 -4 -19 -4q-13 0 -20 9t-7 26v6q0 34 31 46l357 143l-357 143q-31 12 -31 46v11q0 15 7 23z" />
    <glyph glyph-name="question" unicode="?" horiz-adv-x="500" 
d="M245 219q9 9 15 28q8 23 25.5 42t52.5 46q37 29 60 52.5t40.5 59t17.5 83.5q0 76 -48 126q-54 54 -161 54q-79 0 -130.5 -37.5t-67.5 -92.5q-2 -8 -2 -11q0 -15 10.5 -23t28.5 -8h23q16 0 24 7t20 25q12 19 38 29.5t56 10.5q65 0 90 -25q18 -18 18 -55q0 -36 -17.5 -59.5
t-61.5 -56.5q-49 -37 -78.5 -72.5t-38.5 -89.5q-1 -3 -1 -9q0 -16 10.5 -24.5t28.5 -8.5h21q18 0 27 9zM166 17q-17 17 -17 41q0 23 17 40t41 17t41 -17t17 -40q0 -24 -17 -41t-41 -17t-41 17z" />
    <glyph glyph-name="at" unicode="@" 
d="M580.5 661.5q82.5 -48.5 131 -131t48.5 -180.5q0 -60 -16.5 -102.5t-40.5 -69.5q-26 -28 -59.5 -43.5t-69.5 -15.5q-50 0 -86.5 28.5t-44.5 73.5q-34 -23 -73 -23q-37 0 -68.5 20.5t-50 55.5t-18.5 76t18.5 76t50 55.5t68.5 20.5q38 0 71 -22q0 22 40 22h16q40 0 40 -40
v-216q0 -19 12.5 -25t24.5 -6q16 0 31 7t26 20q33 36 33 108t-35.5 132.5t-96 96t-132.5 35.5t-132.5 -35.5t-96 -96t-35.5 -132.5t35.5 -132.5t96 -96t132.5 -35.5h8q40 0 40 -40v-16q0 -40 -40 -40h-8q-98 0 -180.5 48.5t-131 131t-48.5 180.5t48.5 180.5t131 131
t180.5 48.5t180.5 -48.5zM398.5 310.5q12.5 16.5 12.5 39.5t-12.5 39.5t-28.5 16.5t-28.5 -16.5t-12.5 -39.5t12.5 -39.5t28.5 -16.5t28.5 16.5z" />
    <glyph glyph-name="A" unicode="A" 
d="M475 669l249 -623q4 -9 4 -19q0 -13 -9 -20t-26 -7h-42q-34 0 -46 31l-34 84q-12 31 -46 31h-250q-34 0 -46 -31l-34 -84q-12 -31 -46 -31h-42q-17 0 -26 7t-9 20q0 10 4 19l249 623q12 31 46 31h58q34 0 46 -31zM400 502q-17 0 -27 -25l-67 -168q-4 -9 -4 -18
q0 -13 9.5 -20.5t26.5 -7.5h124q17 0 26.5 7.5t9.5 20.5q0 9 -4 18l-67 168q-10 25 -27 25z" />
    <glyph glyph-name="B" unicode="B" horiz-adv-x="650" 
d="M547 374q0 -15 13 -29q49 -58 49 -135q0 -57 -28 -105.5t-76.5 -76.5t-105.5 -28h-268q-40 0 -40 40v620q0 40 40 40h259q53 0 98 -26.5t71.5 -71.5t26.5 -98q0 -55 -30 -104q-9 -15 -9 -26zM243 420h146q38 0 61.5 26t23.5 58q0 33 -23 58.5t-61 25.5h-147
q-40 0 -40 -40v-88q0 -40 40 -40zM468.5 141q28.5 29 28.5 69q0 41 -28.5 69.5t-70.5 28.5h-155q-40 0 -40 -40v-116q0 -40 40 -40h156q41 0 69.5 29z" />
    <glyph glyph-name="C" unicode="C" horiz-adv-x="750" 
d="M533.5 8.5q53.5 18.5 99.5 53.5l13 11q17 13 17 31q0 12 -9 25l-20 27q-16 21 -32 21q-8 0 -14 -5l-23 -18q-63 -49 -142 -49q-65 0 -119.5 33t-86.5 89.5t-32 122.5t32 122.5t86.5 89.5t119.5 33q79 0 142 -49l13 -10q13 -10 26 -10q17 0 30 18l20 27q11 15 11 29
q0 12 -10 21l-22 17q-46 35 -99.5 53.5t-110.5 18.5q-95 0 -175.5 -48.5t-127.5 -131t-47 -180.5t47 -180.5t127.5 -131t175.5 -48.5q57 0 110.5 18.5z" />
    <glyph glyph-name="D" unicode="D" horiz-adv-x="700" 
d="M539 89q95 90 95 261q0 169 -95 261q-94 89 -263 89h-170q-40 0 -40 -40v-620q0 -40 40 -40h170q171 0 263 89zM218 588h58q126 0 186 -58t60 -180t-60 -180t-186 -58h-58q-40 0 -40 40v396q0 40 40 40z" />
    <glyph glyph-name="E" unicode="E" horiz-adv-x="700" 
d="M215 545v-105q0 -40 40 -40h255q40 0 40 -40v-35q0 -40 -40 -40h-255q-40 0 -40 -40v-90q0 -40 40 -40h305q40 0 40 -40v-35q0 -40 -40 -40h-420q-40 0 -40 40v620q0 40 40 40h420q40 0 40 -40v-35q0 -40 -40 -40h-305q-40 0 -40 -40z" />
    <glyph glyph-name="F" unicode="F" horiz-adv-x="600" 
d="M163 545v-105q0 -40 40 -40h255q40 0 40 -40v-35q0 -40 -40 -40h-255q-40 0 -40 -40v-205q0 -40 -40 -40h-35q-40 0 -40 40v620q0 40 40 40h420q40 0 40 -40v-35q0 -40 -40 -40h-305q-40 0 -40 -40z" />
    <glyph glyph-name="G" unicode="G" horiz-adv-x="750" 
d="M541.5 9.5q56.5 19.5 104.5 56.5q12 10 17 21t5 27v246q0 40 -40 40h-194q-40 0 -40 -40v-35q0 -40 40 -40h78q40 0 40 -40v-71q0 -34 -28 -47q-49 -22 -100 -22q-66 0 -122.5 33t-89.5 89.5t-33 122.5t33 122.5t89.5 89.5t122.5 33q81 0 147 -49l14 -11q15 -10 26 -10
q17 0 30 18l21 28q12 17 12 29t-11 21l-23 17q-97 72 -216 72q-98 0 -180.5 -48.5t-131 -131t-48.5 -180.5t48.5 -180.5t131 -131t180.5 -48.5q61 0 117.5 19.5z" />
    <glyph glyph-name="H" unicode="H" horiz-adv-x="750" 
d="M675 660v-620q0 -40 -40 -40h-35q-40 0 -40 40v205q0 40 -40 40h-289q-40 0 -40 -40v-205q0 -40 -40 -40h-36q-40 0 -40 40v620q0 40 40 40h36q40 0 40 -40v-220q0 -40 40 -40h289q40 0 40 40v220q0 40 40 40h35q40 0 40 -40z" />
    <glyph glyph-name="I" unicode="I" horiz-adv-x="400" 
d="M217 700h-34q-40 0 -40 -40v-620q0 -40 40 -40h34q40 0 40 40v620q0 40 -40 40z" />
    <glyph glyph-name="J" unicode="J" horiz-adv-x="600" 
d="M541 660v-429q0 -65 -32.5 -120.5t-88 -88t-120.5 -32.5t-120.5 32.5t-88 88t-32.5 120.5v17q0 40 40 40h33q40 0 40 -28v-29q0 -34 17.5 -63.5t47 -46.5t63.5 -17t63.5 17t47 46.5t17.5 63.5v429q0 40 40 40h33q40 0 40 -40z" />
    <glyph glyph-name="K" unicode="K" horiz-adv-x="700" 
d="M280 379q0 -13 13 -28l280 -302q13 -14 13 -27q0 -10 -9 -16t-25 -6h-57q-30 0 -49 22l-204 220q-15 15 -27 15q-10 0 -16 -9t-6 -25v-183q0 -40 -40 -40h-32q-40 0 -40 40v620q0 40 40 40h32q40 0 40 -40v-124q0 -16 6 -25.5t15 -9.5q13 0 28 16l149 161q19 22 49 22h56
q16 0 25.5 -6t9.5 -17q0 -13 -13 -26l-225 -244q-13 -15 -13 -28z" />
    <glyph glyph-name="L" unicode="L" horiz-adv-x="650" 
d="M575 75v-35q0 -40 -40 -40h-420q-40 0 -40 40v620q0 40 40 40h35q40 0 40 -40v-505q0 -40 40 -40h305q40 0 40 -40z" />
    <glyph glyph-name="M" unicode="M" horiz-adv-x="900" 
d="M800 660v-620q0 -40 -40 -40h-32q-40 0 -40 40v262q0 16 -5.5 25t-14.5 9q-16 0 -26 -25l-118 -280q-13 -31 -46 -31h-56q-33 0 -46 31l-118 280q-10 25 -26 25q-9 0 -14.5 -9t-5.5 -25v-262q0 -40 -40 -40h-32q-40 0 -40 40v620q0 40 40 40h44q33 0 46 -31l193 -460
q11 -25 27 -25t27 25l193 460q13 31 46 31h44q40 0 40 -40z" />
    <glyph glyph-name="N" unicode="N" horiz-adv-x="750" 
d="M547.5 5q-11.5 6 -20.5 20l-284 419q-14 20 -28 20q-9 0 -15 -9t-6 -26v-390q0 -40 -40 -40h-32q-40 0 -40 40v620q0 40 40 40h53q16 0 27.5 -6t20.5 -20l284 -419q14 -20 28 -20q9 0 15 9t6 26v390q0 40 40 40h32q40 0 40 -40v-620q0 -40 -40 -40h-53q-16 0 -27.5 6z
" />
    <glyph glyph-name="O" unicode="O" 
d="M580.5 38.5q82.5 48.5 131 131t48.5 180.5t-48.5 180.5t-131 131t-180.5 48.5t-180.5 -48.5t-131 -131t-48.5 -180.5t48.5 -180.5t131 -131t180.5 -48.5t180.5 48.5zM522.5 562q56.5 -33 89.5 -89.5t33 -122.5t-33 -122.5t-89.5 -89.5t-122.5 -33t-122.5 33t-89.5 89.5
t-33 122.5t33 122.5t89.5 89.5t122.5 33t122.5 -33z" />
    <glyph glyph-name="P" unicode="P" horiz-adv-x="650" 
d="M218 288h169q56 0 101 26.5t70.5 73.5t25.5 107q0 59 -25.5 106t-70.5 73t-100 26h-282q-40 0 -40 -40v-620q0 -40 40 -40h32q40 0 40 40v208q0 40 40 40zM218 588h170q41 0 62.5 -27t21.5 -66q0 -40 -21.5 -67.5t-63.5 -27.5h-169q-40 0 -40 40v108q0 40 40 40z" />
    <glyph glyph-name="Q" unicode="Q" 
d="M689 15q-14 0 -28 14l-12 12q-14 14 -29 14q-13 0 -27 -9q-87 -56 -193 -56q-98 0 -180.5 48.5t-131 131t-48.5 180.5t48.5 180.5t131 131t180.5 48.5t180.5 -48.5t131 -131t48.5 -180.5q0 -95 -46 -177q-8 -14 -8 -26q0 -16 14 -30l14 -15q14 -14 14 -28t-14 -28
l-17 -17q-14 -14 -28 -14zM522.5 138q56.5 33 89.5 89.5t33 122.5t-33 122.5t-89.5 89.5t-122.5 33t-122.5 -33t-89.5 -89.5t-33 -122.5t33 -122.5t89.5 -89.5t122.5 -33t122.5 33z" />
    <glyph glyph-name="R" unicode="R" horiz-adv-x="700" 
d="M496.5 6q-11.5 6 -21.5 19l-167 238q-9 13 -20.5 19t-27.5 6h-33q-40 0 -40 -40v-208q0 -40 -40 -40h-32q-40 0 -40 40v620q0 40 40 40h282q55 0 100 -26t70.5 -73t25.5 -106q0 -70 -33.5 -121.5t-90.5 -72.5q-28 -11 -28 -29q0 -9 8 -22l142 -201q9 -13 9 -25
q0 -11 -9 -17.5t-25 -6.5h-42q-16 0 -27.5 6zM227 400h169q42 0 63.5 27.5t21.5 67.5q0 39 -21.5 66t-62.5 27h-170q-40 0 -40 -40v-108q0 -40 40 -40z" />
    <glyph glyph-name="S" unicode="S" horiz-adv-x="650" 
d="M430 689.5q49 -20.5 83 -57t45 -82.5q1 -4 1 -10q0 -15 -10.5 -23.5t-27.5 -8.5h-39q-17 0 -25.5 7.5t-18.5 25.5q-15 24 -45.5 39t-67.5 15q-49 0 -85.5 -26t-36.5 -61q0 -32 33.5 -50.5t118.5 -43.5q70 -21 117.5 -41.5t83 -61.5t35.5 -105q0 -59 -36 -108.5t-97 -78.5
t-133 -29q-63 0 -118.5 22.5t-93 62.5t-49.5 89q-1 4 -1 11q0 15 10 23t28 8h38q17 0 26 -7.5t18 -25.5q16 -30 55 -49t87 -19q40 0 75 14t55.5 37t20.5 50q0 22 -14.5 37.5t-46.5 28.5t-93 31q-70 21 -117 41.5t-82 60.5t-35 103q0 55 32 101.5t86.5 73.5t118.5 27
q56 0 105 -20.5z" />
    <glyph glyph-name="T" unicode="T" horiz-adv-x="600" 
d="M510 585h-112q-40 0 -40 -40v-505q0 -40 -40 -40h-35q-40 0 -40 40v505q0 40 -40 40h-113q-40 0 -40 40v35q0 40 40 40h420q40 0 40 -40v-35q0 -40 -40 -40z" />
    <glyph glyph-name="U" unicode="U" horiz-adv-x="700" 
d="M634 660v-386q0 -77 -38 -142.5t-103.5 -103.5t-142.5 -38t-142.5 38t-103.5 103.5t-38 142.5v386q0 40 40 40h34q40 0 40 -40v-386q0 -46 23 -85t62 -62t85 -23t85 23t62 62t23 85v386q0 40 40 40h34q40 0 40 -40z" />
    <glyph glyph-name="V" unicode="V" 
d="M400 197q16 0 27 25l178 446q12 31 46 31h42q17 0 26 -7t9 -20q0 -10 -4 -19l-249 -623q-12 -31 -46 -31h-58q-34 0 -46 31l-249 623q-4 9 -4 19q0 13 9 20t26 7h42q34 0 46 -31l178 -446q11 -25 27 -25z" />
    <glyph glyph-name="W" unicode="W" horiz-adv-x="1100" 
d="M1021.5 692.5q9.5 -7.5 9.5 -21.5q0 -7 -3 -16l-198 -622q-12 -33 -46 -33h-47q-34 0 -45 33l-117 387q-4 14 -10.5 21.5t-14.5 7.5q-16 0 -25 -29l-116 -387q-10 -33 -45 -33h-48q-34 0 -46 33l-199 622q-2 5 -2 15q0 30 36 30h35q34 0 46 -33l126 -396q4 -13 11 -20.5
t15 -7.5q16 0 25 29l119 395q11 33 45 33h47q35 0 45 -33l118 -395q9 -28 26 -28q7 0 14 7t11 20l126 396q12 33 46 33h35q17 0 26.5 -7.5z" />
    <glyph glyph-name="X" unicode="X" 
d="M481 350q0 -14 10 -28l202 -273q10 -13 10 -25q0 -11 -9 -17.5t-26 -6.5h-49q-16 0 -27 6t-21 19l-143 193q-11 17 -28 17q-15 0 -28 -17l-143 -193q-10 -13 -21 -19t-27 -6h-49q-17 0 -26 6.5t-9 17.5q0 12 10 25l202 273q11 16 11 28q0 14 -11 28l-202 273
q-10 13 -10 25q0 11 9 17.5t26 6.5h49q16 0 27 -6t21 -19l143 -193q14 -17 28 -17q16 0 28 17l143 193q10 13 21 19t27 6h49q17 0 26 -6.5t9 -17.5q0 -12 -10 -25l-202 -273q-10 -13 -10 -28z" />
    <glyph glyph-name="Y" unicode="Y" horiz-adv-x="750" 
d="M667.5 693.5q9.5 -6.5 9.5 -17.5t-11 -25l-226 -302q-17 -23 -17 -50v-259q0 -40 -40 -40h-32q-40 0 -40 40v259q0 28 -16 49l-214 303q-9 14 -9 25t9 17.5t25 6.5h47q16 0 27.5 -6t21.5 -19l138 -196q13 -18 28 -18t29 17l148 198q10 13 21 18.5t27 5.5h49
q16 0 25.5 -6.5z" />
    <glyph glyph-name="Z" unicode="Z" horiz-adv-x="700" 
d="M591 0h-482q-40 0 -40 40v68q0 16 4.5 27.5t15.5 22.5l363 381q14 14 14 26q0 10 -9.5 16.5t-25.5 6.5h-322q-40 0 -40 40v32q0 40 40 40h482q40 0 40 -40v-68q0 -16 -4.5 -27.5t-15.5 -22.5l-363 -381q-14 -14 -14 -26q0 -10 9.5 -16.5t25.5 -6.5h322q40 0 40 -40v-32
q0 -40 -40 -40z" />
    <glyph glyph-name="bracketleft" unicode="[" horiz-adv-x="300" 
d="M246 725v-60q0 -20 -20 -20h-64v-632h64q20 0 20 -20v-60q0 -20 -20 -20h-144q-20 0 -20 20v792q0 20 20 20h144q20 0 20 -20z" />
    <glyph glyph-name="backslash" unicode="\" horiz-adv-x="600" 
d="M222 725l266 -733q3 -11 3 -18q0 -13 -9 -20.5t-26 -7.5h-32q-34 0 -46 32l-266 733q-3 11 -3 18q0 13 9 20.5t26 7.5h32q34 0 46 -32z" />
    <glyph glyph-name="bracketright" unicode="]" horiz-adv-x="300" 
d="M246 725v-792q0 -20 -20 -20h-144q-20 0 -20 20v60q0 20 20 20h64v632h-64q-20 0 -20 20v60q0 20 20 20h144q20 0 20 -20z" />
    <glyph glyph-name="asciicircum" unicode="^" horiz-adv-x="500" 
d="M358 286l-108 298l-108 -298q-12 -32 -46 -32h-17q-17 0 -26 7.5t-9 20.5q0 8 3 18l141 389q12 32 46 32h32q34 0 46 -32l141 -389q3 -10 3 -18q0 -13 -9 -20.5t-26 -7.5h-17q-34 0 -46 32z" />
    <glyph glyph-name="underscore" unicode="_" horiz-adv-x="600" 
d="M557 -10v-35q0 -20 -20 -20h-461q-20 0 -20 20v35q0 20 20 20h461q20 0 20 -20z" />
    <glyph glyph-name="grave" unicode="`" horiz-adv-x="0" 
d="M68 886l16 23q24 33 42 18l134 -111q17 -14 -4 -44q-10 -14 -20.5 -20t-20.5 1l-149 88q-21 12 2 45z" />
    <glyph glyph-name="a" unicode="a" 
d="M475 669l249 -623q4 -9 4 -19q0 -13 -9 -20t-26 -7h-42q-34 0 -46 31l-34 84q-12 31 -46 31h-250q-34 0 -46 -31l-34 -84q-12 -31 -46 -31h-42q-17 0 -26 7t-9 20q0 10 4 19l249 623q12 31 46 31h58q34 0 46 -31zM400 502q-17 0 -27 -25l-67 -168q-4 -9 -4 -18
q0 -13 9.5 -20.5t26.5 -7.5h124q17 0 26.5 7.5t9.5 20.5q0 9 -4 18l-67 168q-10 25 -27 25z" />
    <glyph glyph-name="b" unicode="b" horiz-adv-x="650" 
d="M547 374q0 -15 13 -29q49 -58 49 -135q0 -57 -28 -105.5t-76.5 -76.5t-105.5 -28h-268q-40 0 -40 40v620q0 40 40 40h259q53 0 98 -26.5t71.5 -71.5t26.5 -98q0 -55 -30 -104q-9 -15 -9 -26zM243 420h146q38 0 61.5 26t23.5 58q0 33 -23 58.5t-61 25.5h-147
q-40 0 -40 -40v-88q0 -40 40 -40zM468.5 141q28.5 29 28.5 69q0 41 -28.5 69.5t-70.5 28.5h-155q-40 0 -40 -40v-116q0 -40 40 -40h156q41 0 69.5 29z" />
    <glyph glyph-name="c" unicode="c" horiz-adv-x="750" 
d="M533.5 8.5q53.5 18.5 99.5 53.5l13 11q17 13 17 31q0 12 -9 25l-20 27q-16 21 -32 21q-8 0 -14 -5l-23 -18q-63 -49 -142 -49q-65 0 -119.5 33t-86.5 89.5t-32 122.5t32 122.5t86.5 89.5t119.5 33q79 0 142 -49l13 -10q13 -10 26 -10q17 0 30 18l20 27q11 15 11 29
q0 12 -10 21l-22 17q-46 35 -99.5 53.5t-110.5 18.5q-95 0 -175.5 -48.5t-127.5 -131t-47 -180.5t47 -180.5t127.5 -131t175.5 -48.5q57 0 110.5 18.5z" />
    <glyph glyph-name="d" unicode="d" horiz-adv-x="700" 
d="M539 89q95 90 95 261q0 169 -95 261q-94 89 -263 89h-170q-40 0 -40 -40v-620q0 -40 40 -40h170q171 0 263 89zM218 588h58q126 0 186 -58t60 -180t-60 -180t-186 -58h-58q-40 0 -40 40v396q0 40 40 40z" />
    <glyph glyph-name="e" unicode="e" horiz-adv-x="700" 
d="M215 545v-105q0 -40 40 -40h255q40 0 40 -40v-35q0 -40 -40 -40h-255q-40 0 -40 -40v-90q0 -40 40 -40h305q40 0 40 -40v-35q0 -40 -40 -40h-420q-40 0 -40 40v620q0 40 40 40h420q40 0 40 -40v-35q0 -40 -40 -40h-305q-40 0 -40 -40z" />
    <glyph glyph-name="f" unicode="f" horiz-adv-x="600" 
d="M163 545v-105q0 -40 40 -40h255q40 0 40 -40v-35q0 -40 -40 -40h-255q-40 0 -40 -40v-205q0 -40 -40 -40h-35q-40 0 -40 40v620q0 40 40 40h420q40 0 40 -40v-35q0 -40 -40 -40h-305q-40 0 -40 -40z" />
    <glyph glyph-name="g" unicode="g" horiz-adv-x="750" 
d="M541.5 9.5q56.5 19.5 104.5 56.5q12 10 17 21t5 27v246q0 40 -40 40h-194q-40 0 -40 -40v-35q0 -40 40 -40h78q40 0 40 -40v-71q0 -34 -28 -47q-49 -22 -100 -22q-66 0 -122.5 33t-89.5 89.5t-33 122.5t33 122.5t89.5 89.5t122.5 33q81 0 147 -49l14 -11q15 -10 26 -10
q17 0 30 18l21 28q12 17 12 29t-11 21l-23 17q-97 72 -216 72q-98 0 -180.5 -48.5t-131 -131t-48.5 -180.5t48.5 -180.5t131 -131t180.5 -48.5q61 0 117.5 19.5z" />
    <glyph glyph-name="h" unicode="h" horiz-adv-x="750" 
d="M675 660v-620q0 -40 -40 -40h-35q-40 0 -40 40v205q0 40 -40 40h-289q-40 0 -40 -40v-205q0 -40 -40 -40h-36q-40 0 -40 40v620q0 40 40 40h36q40 0 40 -40v-220q0 -40 40 -40h289q40 0 40 40v220q0 40 40 40h35q40 0 40 -40z" />
    <glyph glyph-name="i" unicode="i" horiz-adv-x="400" 
d="M217 700h-34q-40 0 -40 -40v-620q0 -40 40 -40h34q40 0 40 40v620q0 40 -40 40z" />
    <glyph glyph-name="j" unicode="j" horiz-adv-x="600" 
d="M541 660v-429q0 -65 -32.5 -120.5t-88 -88t-120.5 -32.5t-120.5 32.5t-88 88t-32.5 120.5v17q0 40 40 40h33q40 0 40 -28v-29q0 -34 17.5 -63.5t47 -46.5t63.5 -17t63.5 17t47 46.5t17.5 63.5v429q0 40 40 40h33q40 0 40 -40z" />
    <glyph glyph-name="k" unicode="k" horiz-adv-x="700" 
d="M280 379q0 -13 13 -28l280 -302q13 -14 13 -27q0 -10 -9 -16t-25 -6h-57q-30 0 -49 22l-204 220q-15 15 -27 15q-10 0 -16 -9t-6 -25v-183q0 -40 -40 -40h-32q-40 0 -40 40v620q0 40 40 40h32q40 0 40 -40v-124q0 -16 6 -25.5t15 -9.5q13 0 28 16l149 161q19 22 49 22h56
q16 0 25.5 -6t9.5 -17q0 -13 -13 -26l-225 -244q-13 -15 -13 -28z" />
    <glyph glyph-name="l" unicode="l" horiz-adv-x="650" 
d="M575 75v-35q0 -40 -40 -40h-420q-40 0 -40 40v620q0 40 40 40h35q40 0 40 -40v-505q0 -40 40 -40h305q40 0 40 -40z" />
    <glyph glyph-name="m" unicode="m" horiz-adv-x="900" 
d="M800 660v-620q0 -40 -40 -40h-32q-40 0 -40 40v262q0 16 -5.5 25t-14.5 9q-16 0 -26 -25l-118 -280q-13 -31 -46 -31h-56q-33 0 -46 31l-118 280q-10 25 -26 25q-9 0 -14.5 -9t-5.5 -25v-262q0 -40 -40 -40h-32q-40 0 -40 40v620q0 40 40 40h44q33 0 46 -31l193 -460
q11 -25 27 -25t27 25l193 460q13 31 46 31h44q40 0 40 -40z" />
    <glyph glyph-name="n" unicode="n" horiz-adv-x="750" 
d="M547.5 5q-11.5 6 -20.5 20l-284 419q-14 20 -28 20q-9 0 -15 -9t-6 -26v-390q0 -40 -40 -40h-32q-40 0 -40 40v620q0 40 40 40h53q16 0 27.5 -6t20.5 -20l284 -419q14 -20 28 -20q9 0 15 9t6 26v390q0 40 40 40h32q40 0 40 -40v-620q0 -40 -40 -40h-53q-16 0 -27.5 6z
" />
    <glyph glyph-name="o" unicode="o" 
d="M580.5 38.5q82.5 48.5 131 131t48.5 180.5t-48.5 180.5t-131 131t-180.5 48.5t-180.5 -48.5t-131 -131t-48.5 -180.5t48.5 -180.5t131 -131t180.5 -48.5t180.5 48.5zM522.5 562q56.5 -33 89.5 -89.5t33 -122.5t-33 -122.5t-89.5 -89.5t-122.5 -33t-122.5 33t-89.5 89.5
t-33 122.5t33 122.5t89.5 89.5t122.5 33t122.5 -33z" />
    <glyph glyph-name="p" unicode="p" horiz-adv-x="650" 
d="M218 288h169q56 0 101 26.5t70.5 73.5t25.5 107q0 59 -25.5 106t-70.5 73t-100 26h-282q-40 0 -40 -40v-620q0 -40 40 -40h32q40 0 40 40v208q0 40 40 40zM218 588h170q41 0 62.5 -27t21.5 -66q0 -40 -21.5 -67.5t-63.5 -27.5h-169q-40 0 -40 40v108q0 40 40 40z" />
    <glyph glyph-name="q" unicode="q" 
d="M689 15q-14 0 -28 14l-12 12q-14 14 -29 14q-13 0 -27 -9q-87 -56 -193 -56q-98 0 -180.5 48.5t-131 131t-48.5 180.5t48.5 180.5t131 131t180.5 48.5t180.5 -48.5t131 -131t48.5 -180.5q0 -95 -46 -177q-8 -14 -8 -26q0 -16 14 -30l14 -15q14 -14 14 -28t-14 -28
l-17 -17q-14 -14 -28 -14zM522.5 138q56.5 33 89.5 89.5t33 122.5t-33 122.5t-89.5 89.5t-122.5 33t-122.5 -33t-89.5 -89.5t-33 -122.5t33 -122.5t89.5 -89.5t122.5 -33t122.5 33z" />
    <glyph glyph-name="r" unicode="r" horiz-adv-x="700" 
d="M496.5 6q-11.5 6 -21.5 19l-167 238q-9 13 -20.5 19t-27.5 6h-33q-40 0 -40 -40v-208q0 -40 -40 -40h-32q-40 0 -40 40v620q0 40 40 40h282q55 0 100 -26t70.5 -73t25.5 -106q0 -70 -33.5 -121.5t-90.5 -72.5q-28 -11 -28 -29q0 -9 8 -22l142 -201q9 -13 9 -25
q0 -11 -9 -17.5t-25 -6.5h-42q-16 0 -27.5 6zM227 400h169q42 0 63.5 27.5t21.5 67.5q0 39 -21.5 66t-62.5 27h-170q-40 0 -40 -40v-108q0 -40 40 -40z" />
    <glyph glyph-name="s" unicode="s" horiz-adv-x="650" 
d="M430 689.5q49 -20.5 83 -57t45 -82.5q1 -4 1 -10q0 -15 -10.5 -23.5t-27.5 -8.5h-39q-17 0 -25.5 7.5t-18.5 25.5q-15 24 -45.5 39t-67.5 15q-49 0 -85.5 -26t-36.5 -61q0 -32 33.5 -50.5t118.5 -43.5q70 -21 117.5 -41.5t83 -61.5t35.5 -105q0 -59 -36 -108.5t-97 -78.5
t-133 -29q-63 0 -118.5 22.5t-93 62.5t-49.5 89q-1 4 -1 11q0 15 10 23t28 8h38q17 0 26 -7.5t18 -25.5q16 -30 55 -49t87 -19q40 0 75 14t55.5 37t20.5 50q0 22 -14.5 37.5t-46.5 28.5t-93 31q-70 21 -117 41.5t-82 60.5t-35 103q0 55 32 101.5t86.5 73.5t118.5 27
q56 0 105 -20.5z" />
    <glyph glyph-name="t" unicode="t" horiz-adv-x="600" 
d="M510 585h-112q-40 0 -40 -40v-505q0 -40 -40 -40h-35q-40 0 -40 40v505q0 40 -40 40h-113q-40 0 -40 40v35q0 40 40 40h420q40 0 40 -40v-35q0 -40 -40 -40z" />
    <glyph glyph-name="u" unicode="u" horiz-adv-x="700" 
d="M634 660v-386q0 -77 -38 -142.5t-103.5 -103.5t-142.5 -38t-142.5 38t-103.5 103.5t-38 142.5v386q0 40 40 40h34q40 0 40 -40v-386q0 -46 23 -85t62 -62t85 -23t85 23t62 62t23 85v386q0 40 40 40h34q40 0 40 -40z" />
    <glyph glyph-name="v" unicode="v" 
d="M400 197q16 0 27 25l178 446q12 31 46 31h42q17 0 26 -7t9 -20q0 -10 -4 -19l-249 -623q-12 -31 -46 -31h-58q-34 0 -46 31l-249 623q-4 9 -4 19q0 13 9 20t26 7h42q34 0 46 -31l178 -446q11 -25 27 -25z" />
    <glyph glyph-name="w" unicode="w" horiz-adv-x="1100" 
d="M1021.5 692.5q9.5 -7.5 9.5 -21.5q0 -7 -3 -16l-198 -622q-12 -33 -46 -33h-47q-34 0 -45 33l-117 387q-4 14 -10.5 21.5t-14.5 7.5q-16 0 -25 -29l-116 -387q-10 -33 -45 -33h-48q-34 0 -46 33l-199 622q-2 5 -2 15q0 30 36 30h35q34 0 46 -33l126 -396q4 -13 11 -20.5
t15 -7.5q16 0 25 29l119 395q11 33 45 33h47q35 0 45 -33l118 -395q9 -28 26 -28q7 0 14 7t11 20l126 396q12 33 46 33h35q17 0 26.5 -7.5z" />
    <glyph glyph-name="x" unicode="x" 
d="M481 350q0 -14 10 -28l202 -273q10 -13 10 -25q0 -11 -9 -17.5t-26 -6.5h-49q-16 0 -27 6t-21 19l-143 193q-11 17 -28 17q-15 0 -28 -17l-143 -193q-10 -13 -21 -19t-27 -6h-49q-17 0 -26 6.5t-9 17.5q0 12 10 25l202 273q11 16 11 28q0 14 -11 28l-202 273
q-10 13 -10 25q0 11 9 17.5t26 6.5h49q16 0 27 -6t21 -19l143 -193q14 -17 28 -17q16 0 28 17l143 193q10 13 21 19t27 6h49q17 0 26 -6.5t9 -17.5q0 -12 -10 -25l-202 -273q-10 -13 -10 -28z" />
    <glyph glyph-name="y" unicode="y" horiz-adv-x="750" 
d="M667.5 693.5q9.5 -6.5 9.5 -17.5t-11 -25l-226 -302q-17 -23 -17 -50v-259q0 -40 -40 -40h-32q-40 0 -40 40v259q0 28 -16 49l-214 303q-9 14 -9 25t9 17.5t25 6.5h47q16 0 27.5 -6t21.5 -19l138 -196q13 -18 28 -18t29 17l148 198q10 13 21 18.5t27 5.5h49
q16 0 25.5 -6.5z" />
    <glyph glyph-name="z" unicode="z" horiz-adv-x="700" 
d="M591 0h-482q-40 0 -40 40v68q0 16 4.5 27.5t15.5 22.5l363 381q14 14 14 26q0 10 -9.5 16.5t-25.5 6.5h-322q-40 0 -40 40v32q0 40 40 40h482q40 0 40 -40v-68q0 -16 -4.5 -27.5t-15.5 -22.5l-363 -381q-14 -14 -14 -26q0 -10 9.5 -16.5t25.5 -6.5h322q40 0 40 -40v-32
q0 -40 -40 -40z" />
    <glyph glyph-name="braceleft" unicode="{" horiz-adv-x="400" 
d="M309 729q17 0 17 -19v-48q0 -18 -19 -21q-31 -6 -47 -30.5t-16 -74.5q0 -40 -3.5 -74t-16.5 -68q-7 -18 -19 -35.5t-15 -21.5q15 -9 32 -38q14 -28 18 -63.5t4 -93.5v-2q0 -59 17.5 -85.5t46.5 -33.5q18 -3 18 -21v-48q0 -22 -20 -19q-63 7 -106 53t-44 153v2
q-1 58 -5 85.5t-17 41.5t-41 17q-19 2 -19 20v53q0 17 18 21q31 9 47.5 45t16.5 112q0 84 38.5 134t110.5 59h4z" />
    <glyph glyph-name="braceright" unicode="}" horiz-adv-x="400" 
d="M79.5 725.5q5.5 5.5 15.5 3.5q72 -9 110.5 -59t38.5 -134q0 -76 16.5 -112t47.5 -45q18 -4 18 -21v-53q0 -18 -19 -20q-28 -3 -41 -17t-17 -41.5t-5 -85.5v-2q-1 -107 -44 -153t-106 -53h-4q-16 0 -16 19v48q0 18 18 21q29 7 46.5 33.5t17.5 85.5v2q0 58 4 93.5t18 63.5
q17 29 32 38q-3 4 -15 21.5t-19 35.5q-13 34 -16.5 68t-3.5 74q0 50 -16 74.5t-47 30.5q-19 3 -19 21v48q0 10 5.5 15.5z" />
    <glyph glyph-name="cent" unicode="&#xa2;" horiz-adv-x="600" 
d="M487 145q15 0 32 -23l8 -11q10 -13 10 -26q0 -16 -17 -30l-6 -5q-66 -51 -143 -58v-26q0 -40 -40 -40h-3q-40 0 -40 40v29q-67 12 -121.5 54t-85.5 105t-31 135t31 134.5t85.5 104.5t121.5 54v12q0 40 40 40h3q40 0 40 -40v-9q79 -8 143 -57l6 -5q17 -15 17 -31
q0 -12 -10 -25l-8 -11q-13 -19 -30 -19q-12 0 -26 11l-5 4q-37 29 -87 38v-401q47 7 87 38l19 14q4 4 10 4zM183.5 165q40.5 -54 104.5 -71v391q-64 -18 -104.5 -72.5t-40.5 -123.5q0 -70 40.5 -124z" />
    <glyph glyph-name="sterling" unicode="&#xa3;" horiz-adv-x="600" 
d="M195 110h287q40 0 40 -40v-30q0 -40 -40 -40h-374q-40 0 -40 40v53q0 26 18 50q42 61 44 118h-22q-40 0 -40 40v30q0 40 38 40l-11 27q-14 35 -20.5 56.5t-6.5 43.5q0 96 64.5 149t165.5 53q64 0 122 -29.5t95 -104.5q6 -10 6 -21t-7.5 -19.5t-20.5 -12.5l-29 -10
q-9 -3 -17 -3q-19 0 -35 25q-19 34 -46.5 49.5t-67.5 15.5q-60 0 -90 -27t-30 -65q0 -12 19 -58q21 -52 26 -69h121q40 0 40 -40v-30q0 -40 -40 -40h-104q-2 -78 -45 -151z" />
    <glyph glyph-name="yen" unicode="&#xa5;" horiz-adv-x="700" 
d="M605.5 693q9.5 -7 9.5 -19q0 -9 -6 -21l-140 -275h57q39 0 41 -40q0 -20 -40 -20h-88l-16 -31v-35h103q39 0 41 -40q0 -20 -40 -20h-104v-152q0 -40 -40 -40h-32q-40 0 -40 40v152h-112q-39 0 -41 40q0 20 40 20h113v34l-15 32h-97q-39 0 -41 40q0 20 40 20h70l-129 275
q-5 13 -5 20q0 13 9 20t26 7h52q33 0 46 -30l101 -230l111 231q8 15 19 22t28 7h54q16 0 25.5 -7z" />
    <glyph glyph-name="copyright" unicode="&#xa9;" 
d="M580.5 38.5q82.5 48.5 131 131.5t48.5 180q0 98 -48.5 180.5t-131 131t-180.5 48.5t-180.5 -48.5t-131 -131t-48.5 -180.5q0 -97 48.5 -180t131 -131.5t180.5 -48.5t180.5 48.5zM532.5 578.5q60.5 -35.5 96 -96t35.5 -132.5q0 -71 -35.5 -132t-96 -96.5t-132.5 -35.5
t-132.5 35.5t-96 96.5t-35.5 132q0 72 35.5 132.5t96 96t132.5 35.5t132.5 -35.5zM454 277q15 0 29 -15l12 -13q13 -13 13 -28q0 -16 -18 -28q-41 -23 -90 -23q-51 0 -93.5 25t-67.5 68t-25 93q0 51 25 93.5t67.5 67.5t93.5 25q56 0 99 -29q17 -10 17 -27q0 -15 -14 -29
l-12 -12q-13 -13 -27 -13q-10 0 -28 7q-15 7 -35 7q-37 0 -63.5 -26t-26.5 -64q0 -37 26.5 -63.5t63.5 -26.5q16 0 31 6q13 5 23 5z" />
    <glyph glyph-name="guillemotleft" unicode="&#xab;" horiz-adv-x="450" 
d="M224 419q5 0 8.5 -5t3.5 -13v-29q0 -15 -12 -24l-126 -96l126 -97q12 -9 12 -24v-29q0 -8 -3.5 -13t-8.5 -5q-6 0 -12 6l-151 115q-12 9 -12 24v45q0 15 12 24l151 115q6 6 12 6zM389 419q5 0 8.5 -5t3.5 -13v-29q0 -15 -12 -24l-126 -96l126 -97q12 -9 12 -24v-29
q0 -8 -3.5 -13t-8.5 -5q-6 0 -12 6l-151 115q-12 9 -12 24v45q0 15 12 24l151 115q6 6 12 6z" />
    <glyph glyph-name="registered" unicode="&#xae;" 
d="M580.5 661.5q82.5 -48.5 131 -131t48.5 -180.5t-48.5 -180.5t-131 -131t-180.5 -48.5t-180.5 48.5t-131 131t-48.5 180.5t48.5 180.5t131 131t180.5 48.5t180.5 -48.5zM267.5 578.5q-60.5 -35.5 -96 -96t-35.5 -132.5t35.5 -132.5t96 -96t132.5 -35.5t132.5 35.5t96 96
t35.5 132.5t-35.5 132.5t-96 96t-132.5 35.5t-132.5 -35.5zM500.5 497q31.5 -33 31.5 -83q0 -32 -13.5 -58t-36.5 -41l53 -97q6 -12 6 -22q0 -12 -9 -19t-25 -7h-24q-32 0 -47 28l-55 99h-29v-84q0 -40 -40 -40h-16q-40 0 -40 40v277q0 40 40 40h126q47 0 78.5 -33zM352 393
h69q7 0 11.5 6.5t4.5 14.5t-4 14t-11 6h-70v-41z" />
    <glyph glyph-name="acute" unicode="&#xb4;" horiz-adv-x="0" 
d="M258 841l-150 -88q-9 -7 -20 -1t-21 20q-20 30 -4 44l134 111q18 15 42 -18l16 -23q24 -33 3 -45z" />
    <glyph glyph-name="periodcentered" unicode="&#xb7;" horiz-adv-x="300" 
d="M117 270q-17 17 -17 41q0 23 17 40t41 17t41 -17t17 -40q0 -24 -17 -41t-41 -17t-41 17z" />
    <glyph glyph-name="guillemotright" unicode="&#xbb;" horiz-adv-x="450" 
d="M52.5 414q3.5 5 8.5 5q6 0 12 -6l151 -115q12 -9 12 -24v-45q0 -15 -12 -24l-151 -115q-6 -6 -12 -6q-5 0 -8.5 5t-3.5 13v29q0 15 12 24l126 97l-126 96q-12 9 -12 24v29q0 8 3.5 13zM217.5 414q3.5 5 8.5 5q6 0 12 -6l151 -115q12 -9 12 -24v-45q0 -15 -12 -24
l-151 -115q-6 -6 -12 -6q-5 0 -8.5 5t-3.5 13v29q0 15 12 24l126 97l-126 96q-12 9 -12 24v29q0 8 3.5 13z" />
    <glyph glyph-name="Agrave" unicode="&#xc0;" 
d="M475 669l249 -623q4 -9 4 -19q0 -13 -9 -20t-26 -7h-42q-34 0 -46 31l-34 84q-12 31 -46 31h-250q-34 0 -46 -31l-34 -84q-12 -31 -46 -31h-42q-17 0 -26 7t-9 20q0 10 4 19l249 623q12 31 46 31h58q34 0 46 -31zM400 502q-17 0 -27 -25l-67 -168q-4 -9 -4 -18
q0 -13 9.5 -20.5t26.5 -7.5h124q17 0 26.5 7.5t9.5 20.5q0 9 -4 18l-67 168q-10 25 -27 25zM272 886l15 23q24 33 42 18l134 -111q17 -14 -4 -44q-10 -14 -20.5 -20t-20.5 1l-149 88q-21 12 3 45z" />
    <glyph glyph-name="Aacute" unicode="&#xc1;" 
d="M475 669l249 -623q4 -9 4 -19q0 -13 -9 -20t-26 -7h-42q-34 0 -46 31l-34 84q-12 31 -46 31h-250q-34 0 -46 -31l-34 -84q-12 -31 -46 -31h-42q-17 0 -26 7t-9 20q0 10 4 19l249 623q12 31 46 31h58q34 0 46 -31zM400 502q-17 0 -27 -25l-67 -168q-4 -9 -4 -18
q0 -13 9.5 -20.5t26.5 -7.5h124q17 0 26.5 7.5t9.5 20.5q0 9 -4 18l-67 168q-10 25 -27 25zM529 841l-149 -88q-10 -7 -21 -1t-20 20q-21 30 -4 44l134 111q18 15 42 -18l15 -23q24 -33 3 -45z" />
    <glyph glyph-name="Acircumflex" unicode="&#xc2;" 
d="M475 669l249 -623q4 -9 4 -19q0 -13 -9 -20t-26 -7h-42q-34 0 -46 31l-34 84q-12 31 -46 31h-250q-34 0 -46 -31l-34 -84q-12 -31 -46 -31h-42q-17 0 -26 7t-9 20q0 10 4 19l249 623q12 31 46 31h58q34 0 46 -31zM400 502q-17 0 -27 -25l-67 -168q-4 -9 -4 -18
q0 -13 9.5 -20.5t26.5 -7.5h124q17 0 26.5 7.5t9.5 20.5q0 9 -4 18l-67 168q-10 25 -27 25zM241 749q-10 6 -10 17q0 7 6 19l95 98q15 29 55 29h27q41 0 55 -29l95 -98q5 -9 5 -18q0 -12 -11 -18t-31 -6h-8q-40 0 -67 28l-51 38l-52 -38q-26 -28 -67 -28h-13q-18 0 -28 6z
" />
    <glyph glyph-name="Atilde" unicode="&#xc3;" 
d="M475 669l249 -623q4 -9 4 -19q0 -13 -9 -20t-26 -7h-42q-34 0 -46 31l-34 84q-12 31 -46 31h-250q-34 0 -46 -31l-34 -84q-12 -31 -46 -31h-42q-17 0 -26 7t-9 20q0 10 4 19l249 623q12 31 46 31h58q34 0 46 -31zM400 502q-17 0 -27 -25l-67 -168q-4 -9 -4 -18
q0 -13 9.5 -20.5t26.5 -7.5h124q17 0 26.5 7.5t9.5 20.5q0 9 -4 18l-67 168q-10 25 -27 25zM250 766q-38 12 -25 49q25 96 126 85q33 -3 61 -24q58 -47 78 -2q11 41 53 34q42 -8 35 -51q-11 -65 -80 -88q-56 -19 -104 16q-54 47 -94 4q-14 -34 -50 -23z" />
    <glyph glyph-name="Egrave" unicode="&#xc8;" horiz-adv-x="700" 
d="M215 545v-105q0 -40 40 -40h255q40 0 40 -40v-35q0 -40 -40 -40h-255q-40 0 -40 -40v-90q0 -40 40 -40h305q40 0 40 -40v-35q0 -40 -40 -40h-420q-40 0 -40 40v620q0 40 40 40h420q40 0 40 -40v-35q0 -40 -40 -40h-305q-40 0 -40 -40zM221 889l16 23q24 33 42 18
l134 -111q17 -14 -4 -44q-10 -14 -20.5 -20t-20.5 1l-149 88q-21 12 2 45z" />
    <glyph glyph-name="Eacute" unicode="&#xc9;" horiz-adv-x="700" 
d="M215 545v-105q0 -40 40 -40h255q40 0 40 -40v-35q0 -40 -40 -40h-255q-40 0 -40 -40v-90q0 -40 40 -40h305q40 0 40 -40v-35q0 -40 -40 -40h-420q-40 0 -40 40v620q0 40 40 40h420q40 0 40 -40v-35q0 -40 -40 -40h-305q-40 0 -40 -40zM482 844l-150 -88q-9 -7 -20 -1
t-21 20q-20 30 -4 44l134 111q18 15 42 -18l16 -23q24 -33 3 -45z" />
    <glyph glyph-name="Ecircumflex" unicode="&#xca;" horiz-adv-x="700" 
d="M215 545v-105q0 -40 40 -40h255q40 0 40 -40v-35q0 -40 -40 -40h-255q-40 0 -40 -40v-90q0 -40 40 -40h305q40 0 40 -40v-35q0 -40 -40 -40h-420q-40 0 -40 40v620q0 40 40 40h420q40 0 40 -40v-35q0 -40 -40 -40h-305q-40 0 -40 -40zM191 758q-10 6 -10 17q0 7 6 19
l95 98q15 29 55 29h27q41 0 55 -29l95 -98q5 -9 5 -18q0 -12 -11 -18t-31 -6h-8q-40 0 -67 28l-51 38l-52 -38q-26 -28 -67 -28h-13q-18 0 -28 6z" />
    <glyph glyph-name="Igrave" unicode="&#xcc;" horiz-adv-x="400" 
d="M123 700h-34q-40 0 -40 -40v-620q0 -40 40 -40h34q40 0 40 40v620q0 40 -40 40zM-41 889l16 23q24 33 42 18l134 -111q17 -14 -4 -44q-10 -14 -20.5 -20t-20.5 1l-149 88q-21 12 2 45z" />
    <glyph glyph-name="Iacute" unicode="&#xcd;" horiz-adv-x="377" 
d="M199 700h-34q-40 0 -40 -40v-620q0 -40 40 -40h34q40 0 40 40v620q0 40 -40 40zM322 844l-150 -88q-9 -7 -20 -1t-21 20q-20 30 -4 44l134 111q18 15 42 -18l16 -23q24 -33 3 -45z" />
    <glyph glyph-name="Ograve" unicode="&#xd2;" 
d="M580.5 38.5q82.5 48.5 131 131t48.5 180.5t-48.5 180.5t-131 131t-180.5 48.5t-180.5 -48.5t-131 -131t-48.5 -180.5t48.5 -180.5t131 -131t180.5 -48.5t180.5 48.5zM522.5 562q56.5 -33 89.5 -89.5t33 -122.5t-33 -122.5t-89.5 -89.5t-122.5 -33t-122.5 33t-89.5 89.5
t-33 122.5t33 122.5t89.5 89.5t122.5 33t122.5 -33zM272 886l15 23q24 33 42 18l134 -111q17 -14 -4 -44q-10 -14 -20.5 -20t-20.5 1l-149 88q-21 12 3 45z" />
    <glyph glyph-name="Oacute" unicode="&#xd3;" 
d="M580.5 38.5q82.5 48.5 131 131t48.5 180.5t-48.5 180.5t-131 131t-180.5 48.5t-180.5 -48.5t-131 -131t-48.5 -180.5t48.5 -180.5t131 -131t180.5 -48.5t180.5 48.5zM522.5 562q56.5 -33 89.5 -89.5t33 -122.5t-33 -122.5t-89.5 -89.5t-122.5 -33t-122.5 33t-89.5 89.5
t-33 122.5t33 122.5t89.5 89.5t122.5 33t122.5 -33zM531 841l-149 -88q-10 -7 -20.5 -1t-20.5 20q-21 30 -4 44l134 111q18 15 42 -18l15 -23q24 -33 3 -45z" />
    <glyph glyph-name="Ocircumflex" unicode="&#xd4;" 
d="M580.5 38.5q82.5 48.5 131 131t48.5 180.5t-48.5 180.5t-131 131t-180.5 48.5t-180.5 -48.5t-131 -131t-48.5 -180.5t48.5 -180.5t131 -131t180.5 -48.5t180.5 48.5zM522.5 562q56.5 -33 89.5 -89.5t33 -122.5t-33 -122.5t-89.5 -89.5t-122.5 -33t-122.5 33t-89.5 89.5
t-33 122.5t33 122.5t89.5 89.5t122.5 33t122.5 -33zM241 749q-10 6 -10 17q0 7 6 19l95 98q15 29 55 29h27q41 0 55 -29l95 -98q5 -9 5 -18q0 -12 -11 -18t-31 -6h-8q-40 0 -67 28l-51 38l-52 -38q-26 -28 -67 -28h-13q-18 0 -28 6z" />
    <glyph glyph-name="Otilde" unicode="&#xd5;" 
d="M580.5 38.5q82.5 48.5 131 131t48.5 180.5t-48.5 180.5t-131 131t-180.5 48.5t-180.5 -48.5t-131 -131t-48.5 -180.5t48.5 -180.5t131 -131t180.5 -48.5t180.5 48.5zM522.5 562q56.5 -33 89.5 -89.5t33 -122.5t-33 -122.5t-89.5 -89.5t-122.5 -33t-122.5 33t-89.5 89.5
t-33 122.5t33 122.5t89.5 89.5t122.5 33t122.5 -33zM250 766q-38 12 -26 49q25 96 127 85q33 -3 61 -24q58 -47 78 -2q11 41 53 34q42 -8 34 -51q-10 -65 -79 -88q-56 -19 -104 16q-54 47 -94 4q-14 -34 -50 -23z" />
    <glyph glyph-name="multiply" unicode="&#xd7;" horiz-adv-x="600" 
d="M496 135q0 -14 -14 -28q-11 -11 -24 -11q-15 0 -29 14l-122 123l-123 -123q-13 -13 -28 -13t-28 13q-11 11 -11 24q0 15 14 29l123 123l-123 122q-13 13 -13 28t13 28q11 11 24 11q15 0 29 -14l123 -122l122 122q14 14 28 14t28 -14q11 -11 11 -24q0 -15 -14 -29
l-122 -122l122 -123q14 -14 14 -28z" />
    <glyph glyph-name="Ugrave" unicode="&#xd9;" horiz-adv-x="700" 
d="M634 660v-386q0 -77 -38 -142.5t-103.5 -103.5t-142.5 -38t-142.5 38t-103.5 103.5t-38 142.5v386q0 40 40 40h34q40 0 40 -40v-386q0 -46 23 -85t62 -62t85 -23t85 23t62 62t23 85v386q0 40 40 40h34q40 0 40 -40zM222 886l15 23q24 33 42 18l134 -111q17 -14 -4 -44
q-10 -14 -20.5 -20t-20.5 1l-149 88q-21 12 3 45z" />
    <glyph glyph-name="Uacute" unicode="&#xda;" horiz-adv-x="700" 
d="M634 660v-386q0 -77 -38 -142.5t-103.5 -103.5t-142.5 -38t-142.5 38t-103.5 103.5t-38 142.5v386q0 40 40 40h34q40 0 40 -40v-386q0 -46 23 -85t62 -62t85 -23t85 23t62 62t23 85v386q0 40 40 40h34q40 0 40 -40zM481 841l-149 -88q-10 -7 -20.5 -1t-20.5 20
q-21 30 -4 44l134 111q18 15 42 -18l15 -23q24 -33 3 -45z" />
    <glyph glyph-name="Yacute" unicode="&#xdd;" horiz-adv-x="750" 
d="M667.5 693.5q9.5 -6.5 9.5 -17.5t-11 -25l-226 -302q-17 -23 -17 -50v-259q0 -40 -40 -40h-32q-40 0 -40 40v259q0 28 -16 49l-214 303q-9 14 -9 25t9 17.5t25 6.5h47q16 0 27.5 -6t21.5 -19l138 -196q13 -18 28 -18t29 17l148 198q10 13 21 18.5t27 5.5h49
q16 0 25.5 -6.5zM506 844l-150 -88q-9 -7 -20 -1t-21 20q-20 30 -4 44l134 111q18 15 42 -18l16 -23q24 -33 3 -45z" />
    <glyph glyph-name="agrave" unicode="&#xe0;" 
d="M475 669l249 -623q4 -9 4 -19q0 -13 -9 -20t-26 -7h-42q-34 0 -46 31l-34 84q-12 31 -46 31h-250q-34 0 -46 -31l-34 -84q-12 -31 -46 -31h-42q-17 0 -26 7t-9 20q0 10 4 19l249 623q12 31 46 31h58q34 0 46 -31zM400 502q-17 0 -27 -25l-67 -168q-4 -9 -4 -18
q0 -13 9.5 -20.5t26.5 -7.5h124q17 0 26.5 7.5t9.5 20.5q0 9 -4 18l-67 168q-10 25 -27 25zM271 886l16 23q24 33 42 18l134 -111q17 -14 -4 -44q-10 -14 -20.5 -20t-20.5 1l-149 88q-21 12 2 45z" />
    <glyph glyph-name="aacute" unicode="&#xe1;" 
d="M475 669l249 -623q4 -9 4 -19q0 -13 -9 -20t-26 -7h-42q-34 0 -46 31l-34 84q-12 31 -46 31h-250q-34 0 -46 -31l-34 -84q-12 -31 -46 -31h-42q-17 0 -26 7t-9 20q0 10 4 19l249 623q12 31 46 31h58q34 0 46 -31zM400 502q-17 0 -27 -25l-67 -168q-4 -9 -4 -18
q0 -13 9.5 -20.5t26.5 -7.5h124q17 0 26.5 7.5t9.5 20.5q0 9 -4 18l-67 168q-10 25 -27 25zM529 841l-150 -88q-9 -7 -20 -1t-21 20q-20 30 -4 44l134 111q18 15 42 -18l16 -23q24 -33 3 -45z" />
    <glyph glyph-name="acircumflex" unicode="&#xe2;" 
d="M475 669l249 -623q4 -9 4 -19q0 -13 -9 -20t-26 -7h-42q-34 0 -46 31l-34 84q-12 31 -46 31h-250q-34 0 -46 -31l-34 -84q-12 -31 -46 -31h-42q-17 0 -26 7t-9 20q0 10 4 19l249 623q12 31 46 31h58q34 0 46 -31zM400 502q-17 0 -27 -25l-67 -168q-4 -9 -4 -18
q0 -13 9.5 -20.5t26.5 -7.5h124q17 0 26.5 7.5t9.5 20.5q0 9 -4 18l-67 168q-10 25 -27 25zM241 749q-10 6 -10 17q0 7 6 19l95 98q15 29 55 29h27q41 0 55 -29l95 -98q5 -9 5 -18q0 -12 -11 -18t-31 -6h-8q-40 0 -67 28l-51 38l-52 -38q-26 -28 -67 -28h-13q-18 0 -28 6z
" />
    <glyph glyph-name="atilde" unicode="&#xe3;" 
d="M475 669l249 -623q4 -9 4 -19q0 -13 -9 -20t-26 -7h-42q-34 0 -46 31l-34 84q-12 31 -46 31h-250q-34 0 -46 -31l-34 -84q-12 -31 -46 -31h-42q-17 0 -26 7t-9 20q0 10 4 19l249 623q12 31 46 31h58q34 0 46 -31zM400 502q-17 0 -27 -25l-67 -168q-4 -9 -4 -18
q0 -13 9.5 -20.5t26.5 -7.5h124q17 0 26.5 7.5t9.5 20.5q0 9 -4 18l-67 168q-10 25 -27 25zM250 766q-38 12 -25 49q25 96 126 85q33 -3 61 -24q58 -47 78 -2q11 41 53 34q42 -8 35 -51q-11 -65 -80 -88q-56 -19 -104 16q-54 47 -94 4q-14 -34 -50 -23z" />
    <glyph glyph-name="egrave" unicode="&#xe8;" horiz-adv-x="700" 
d="M215 545v-105q0 -40 40 -40h255q40 0 40 -40v-35q0 -40 -40 -40h-255q-40 0 -40 -40v-90q0 -40 40 -40h305q40 0 40 -40v-35q0 -40 -40 -40h-420q-40 0 -40 40v620q0 40 40 40h420q40 0 40 -40v-35q0 -40 -40 -40h-305q-40 0 -40 -40zM221 886l16 23q24 33 42 18
l134 -111q17 -14 -4 -44q-10 -14 -20.5 -20t-20.5 1l-149 88q-21 12 2 45z" />
    <glyph glyph-name="eacute" unicode="&#xe9;" horiz-adv-x="700" 
d="M215 545v-105q0 -40 40 -40h255q40 0 40 -40v-35q0 -40 -40 -40h-255q-40 0 -40 -40v-90q0 -40 40 -40h305q40 0 40 -40v-35q0 -40 -40 -40h-420q-40 0 -40 40v620q0 40 40 40h420q40 0 40 -40v-35q0 -40 -40 -40h-305q-40 0 -40 -40zM482 841l-150 -88q-9 -7 -20 -1
t-21 20q-20 30 -4 44l134 111q18 15 42 -18l16 -23q24 -33 3 -45z" />
    <glyph glyph-name="ecircumflex" unicode="&#xea;" horiz-adv-x="700" 
d="M215 545v-105q0 -40 40 -40h255q40 0 40 -40v-35q0 -40 -40 -40h-255q-40 0 -40 -40v-90q0 -40 40 -40h305q40 0 40 -40v-35q0 -40 -40 -40h-420q-40 0 -40 40v620q0 40 40 40h420q40 0 40 -40v-35q0 -40 -40 -40h-305q-40 0 -40 -40zM191 749q-10 6 -10 17q0 7 6 19
l95 98q15 29 55 29h27q41 0 55 -29l95 -98q5 -9 5 -18q0 -12 -11 -18t-31 -6h-8q-40 0 -67 28l-51 38l-52 -38q-26 -28 -67 -28h-13q-18 0 -28 6z" />
    <glyph glyph-name="igrave" unicode="&#xec;" horiz-adv-x="400" 
d="M218 700h-34q-40 0 -40 -40v-620q0 -40 40 -40h34q40 0 40 40v620q0 40 -40 40zM55 889l15 22q24 34 42 18l134 -110q17 -14 -4 -44q-9 -14 -20 -20t-21 1l-149 88q-21 11 3 45z" />
    <glyph glyph-name="iacute" unicode="&#xed;" horiz-adv-x="377" 
d="M199 700h-34q-40 0 -40 -40v-620q0 -40 40 -40h34q40 0 40 40v620q0 40 -40 40zM322 844l-149 -88q-10 -7 -21 -1t-21 20q-20 30 -4 44l134 110q19 16 42 -18l16 -22q24 -34 3 -45z" />
    <glyph glyph-name="ograve" unicode="&#xf2;" 
d="M580.5 38.5q82.5 48.5 131 131t48.5 180.5t-48.5 180.5t-131 131t-180.5 48.5t-180.5 -48.5t-131 -131t-48.5 -180.5t48.5 -180.5t131 -131t180.5 -48.5t180.5 48.5zM522.5 562q56.5 -33 89.5 -89.5t33 -122.5t-33 -122.5t-89.5 -89.5t-122.5 -33t-122.5 33t-89.5 89.5
t-33 122.5t33 122.5t89.5 89.5t122.5 33t122.5 -33zM271 886l16 23q24 33 42 18l134 -111q17 -14 -4 -44q-10 -14 -20.5 -20t-20.5 1l-149 88q-21 12 2 45z" />
    <glyph glyph-name="oacute" unicode="&#xf3;" 
d="M580.5 38.5q82.5 48.5 131 131t48.5 180.5t-48.5 180.5t-131 131t-180.5 48.5t-180.5 -48.5t-131 -131t-48.5 -180.5t48.5 -180.5t131 -131t180.5 -48.5t180.5 48.5zM522.5 562q56.5 -33 89.5 -89.5t33 -122.5t-33 -122.5t-89.5 -89.5t-122.5 -33t-122.5 33t-89.5 89.5
t-33 122.5t33 122.5t89.5 89.5t122.5 33t122.5 -33zM532 841l-150 -88q-9 -7 -20 -1t-21 20q-20 30 -4 44l134 111q18 15 42 -18l16 -23q24 -33 3 -45z" />
    <glyph glyph-name="ocircumflex" unicode="&#xf4;" 
d="M580.5 38.5q82.5 48.5 131 131t48.5 180.5t-48.5 180.5t-131 131t-180.5 48.5t-180.5 -48.5t-131 -131t-48.5 -180.5t48.5 -180.5t131 -131t180.5 -48.5t180.5 48.5zM522.5 562q56.5 -33 89.5 -89.5t33 -122.5t-33 -122.5t-89.5 -89.5t-122.5 -33t-122.5 33t-89.5 89.5
t-33 122.5t33 122.5t89.5 89.5t122.5 33t122.5 -33zM241 749q-10 6 -10 17q0 7 6 19l95 98q15 29 55 29h27q41 0 55 -29l95 -98q5 -9 5 -18q0 -12 -11 -18t-31 -6h-8q-40 0 -67 28l-51 38l-52 -38q-26 -28 -67 -28h-13q-18 0 -28 6z" />
    <glyph glyph-name="otilde" unicode="&#xf5;" 
d="M580.5 38.5q82.5 48.5 131 131t48.5 180.5t-48.5 180.5t-131 131t-180.5 48.5t-180.5 -48.5t-131 -131t-48.5 -180.5t48.5 -180.5t131 -131t180.5 -48.5t180.5 48.5zM522.5 562q56.5 -33 89.5 -89.5t33 -122.5t-33 -122.5t-89.5 -89.5t-122.5 -33t-122.5 33t-89.5 89.5
t-33 122.5t33 122.5t89.5 89.5t122.5 33t122.5 -33zM250 766q-38 12 -25 49q25 96 126 85q33 -3 61 -24q58 -47 78 -2q11 41 53 34q42 -8 35 -51q-11 -65 -80 -88q-56 -19 -104 16q-54 47 -94 4q-14 -34 -50 -23z" />
    <glyph glyph-name="divide" unicode="&#xf7;" horiz-adv-x="600" 
d="M266 362q-17 17 -17 41q0 23 17 40t41 17t41 -17t17 -40q0 -24 -17 -41t-41 -17t-41 17zM517 216h-421q-40 0 -40 40q0 35 40 35h421q40 0 40 -37q0 -38 -40 -38zM266 59q-17 17 -17 41q0 23 17 40t41 17t41 -17t17 -40q0 -24 -17 -41t-41 -17t-41 17z" />
    <glyph glyph-name="ugrave" unicode="&#xf9;" horiz-adv-x="700" 
d="M634 660v-386q0 -77 -38 -142.5t-103.5 -103.5t-142.5 -38t-142.5 38t-103.5 103.5t-38 142.5v386q0 40 40 40h34q40 0 40 -40v-386q0 -46 23 -85t62 -62t85 -23t85 23t62 62t23 85v386q0 40 40 40h34q40 0 40 -40zM221 886l16 23q24 33 42 18l134 -111q17 -14 -4 -44
q-10 -14 -20.5 -20t-20.5 1l-149 88q-21 12 2 45z" />
    <glyph glyph-name="uacute" unicode="&#xfa;" horiz-adv-x="700" 
d="M634 660v-386q0 -77 -38 -142.5t-103.5 -103.5t-142.5 -38t-142.5 38t-103.5 103.5t-38 142.5v386q0 40 40 40h34q40 0 40 -40v-386q0 -46 23 -85t62 -62t85 -23t85 23t62 62t23 85v386q0 40 40 40h34q40 0 40 -40zM482 841l-150 -88q-9 -7 -20 -1t-21 20q-20 30 -4 44
l134 111q18 15 42 -18l16 -23q24 -33 3 -45z" />
    <glyph glyph-name="yacute" unicode="&#xfd;" horiz-adv-x="750" 
d="M667.5 693.5q9.5 -6.5 9.5 -17.5t-11 -25l-226 -302q-17 -23 -17 -50v-259q0 -40 -40 -40h-32q-40 0 -40 40v259q0 28 -16 49l-214 303q-9 14 -9 25t9 17.5t25 6.5h47q16 0 27.5 -6t21.5 -19l138 -196q13 -18 28 -18t29 17l148 198q10 13 21 18.5t27 5.5h49
q16 0 25.5 -6.5zM506 841l-150 -88q-9 -7 -20 -1t-21 20q-20 30 -4 44l134 111q18 15 42 -18l16 -23q24 -33 3 -45z" />
    <glyph glyph-name="Abreve" unicode="&#x102;" 
d="M475 669l249 -623q4 -9 4 -19q0 -13 -9 -20t-26 -7h-42q-34 0 -46 31l-34 84q-12 31 -46 31h-250q-34 0 -46 -31l-34 -84q-12 -31 -46 -31h-42q-17 0 -26 7t-9 20q0 10 4 19l249 623q12 31 46 31h58q34 0 46 -31zM400 502q-17 0 -27 -25l-67 -168q-4 -9 -4 -18
q0 -13 9.5 -20.5t26.5 -7.5h124q17 0 26.5 7.5t9.5 20.5q0 9 -4 18l-67 168q-10 25 -27 25zM438 857.5q18 11.5 27 27.5q6 14 14 20.5t22 6.5h25q14 0 23.5 -8t9.5 -21q0 -5 -1 -9q-8 -33 -31.5 -61t-57 -44t-69.5 -16t-69.5 16t-57 44t-31.5 61q-1 4 -1 9q0 13 9.5 21
t23.5 8h25q14 0 22 -6.5t14 -20.5q9 -16 27 -27.5t38 -11.5t38 11.5z" />
    <glyph glyph-name="abreve" unicode="&#x103;" 
d="M475 669l249 -623q4 -9 4 -19q0 -13 -9 -20t-26 -7h-42q-34 0 -46 31l-34 84q-12 31 -46 31h-250q-34 0 -46 -31l-34 -84q-12 -31 -46 -31h-42q-17 0 -26 7t-9 20q0 10 4 19l249 623q12 31 46 31h58q34 0 46 -31zM400 502q-17 0 -27 -25l-67 -168q-4 -9 -4 -18
q0 -13 9.5 -20.5t26.5 -7.5h124q17 0 26.5 7.5t9.5 20.5q0 9 -4 18l-67 168q-10 25 -27 25zM438 857.5q18 11.5 27 27.5q7 14 14.5 20.5t21.5 6.5h25q14 0 23.5 -8t9.5 -21q0 -5 -1 -9q-8 -33 -31.5 -61t-57 -44t-69.5 -16t-69.5 16t-57 44t-31.5 61q-1 4 -1 9q0 13 9.5 21
t24.5 8h24q14 0 22 -6.5t14 -20.5q9 -16 27 -27.5t38 -11.5t38 11.5z" />
    <glyph glyph-name="Dcroat" unicode="&#x110;" horiz-adv-x="700" 
d="M295 393h-301q-17 0 -17 -20v-60q0 -20 17 -20h301q17 0 17 20v60q0 20 -17 20zM218 588h58q126 0 186 -58t60 -180t-60 -180t-186 -58h-58q-40 0 -40 40v396q0 40 40 40zM539 89q95 90 95 261q0 169 -95 261q-94 89 -263 89h-170q-40 0 -40 -40v-620q0 -40 40 -40h170
q171 0 263 89z" />
    <glyph glyph-name="dcroat" unicode="&#x111;" horiz-adv-x="700" 
d="M295 393h-301q-17 0 -17 -20v-60q0 -20 17 -20h301q17 0 17 20v60q0 20 -17 20zM218 588h58q126 0 186 -58t60 -180t-60 -180t-186 -58h-58q-40 0 -40 40v396q0 40 40 40zM539 89q95 90 95 261q0 169 -95 261q-94 89 -263 89h-170q-40 0 -40 -40v-620q0 -40 40 -40h170
q171 0 263 89z" />
    <glyph glyph-name="Itilde" unicode="&#x128;" horiz-adv-x="400" 
d="M217 700h-34q-40 0 -40 -40v-620q0 -40 40 -40h34q40 0 40 40v620q0 40 -40 40zM46 755q-38 12 -25 49q25 96 126 85q33 -3 61 -24q58 -47 78 -2q11 41 53 34q42 -8 35 -51q-11 -65 -80 -88q-56 -19 -104 16q-54 47 -94 4q-14 -34 -50 -23z" />
    <glyph glyph-name="itilde" unicode="&#x129;" horiz-adv-x="400" 
d="M217 700h-34q-40 0 -40 -40v-620q0 -40 40 -40h34q40 0 40 40v620q0 40 -40 40zM46 755q-38 12 -25 49q25 96 126 85q33 -3 61 -24q58 -47 78 -2q11 41 53 34q42 -8 35 -51q-11 -65 -80 -88q-56 -19 -104 16q-54 47 -94 4q-14 -34 -50 -23z" />
    <glyph glyph-name="Utilde" unicode="&#x168;" horiz-adv-x="700" 
d="M634 660v-386q0 -77 -38 -142.5t-103.5 -103.5t-142.5 -38t-142.5 38t-103.5 103.5t-38 142.5v386q0 40 40 40h34q40 0 40 -40v-386q0 -46 23 -85t62 -62t85 -23t85 23t62 62t23 85v386q0 40 40 40h34q40 0 40 -40zM209 766q-38 12 -26 49q25 96 126 85q34 -3 61 -24
q59 -47 79 -1q11 41 52 33q43 -8 35 -50q-10 -65 -79 -89q-57 -18 -105 17q-53 47 -93 4q-14 -35 -50 -24z" />
    <glyph glyph-name="utilde" unicode="&#x169;" horiz-adv-x="700" 
d="M634 660v-386q0 -77 -38 -142.5t-103.5 -103.5t-142.5 -38t-142.5 38t-103.5 103.5t-38 142.5v386q0 40 40 40h34q40 0 40 -40v-386q0 -46 23 -85t62 -62t85 -23t85 23t62 62t23 85v386q0 40 40 40h34q40 0 40 -40zM209 766q-38 12 -25 49q25 96 126 85q33 -3 61 -24
q58 -47 78 -2q11 41 53 34q42 -8 35 -51q-11 -65 -80 -88q-56 -19 -104 16q-54 47 -94 4q-14 -34 -50 -23z" />
    <glyph glyph-name="Ohorn" unicode="&#x1a0;" 
d="M612 472.5q33 -56.5 33 -122.5t-33 -122.5t-89.5 -89.5t-122.5 -33t-122.5 33t-89.5 89.5t-33 122.5t33 122.5t89.5 89.5t122.5 33t122.5 -33t89.5 -89.5zM692 681q23 40 23 91q0 34 -34 34h-20q-34 0 -34 -34q0 -27 -11.5 -47t-31.5 -32q-17 -10 -43 -12q-66 29 -141 29
q-98 0 -180.5 -48.5t-131 -131t-48.5 -180.5t48.5 -180.5t131 -131t180.5 -48.5t180.5 48.5t131 131t48.5 180.5t-48 181q-32 52 -77 91q35 23 57 59z" />
    <glyph glyph-name="ohorn" unicode="&#x1a1;" 
d="M612 472.5q33 -56.5 33 -122.5t-33 -122.5t-89.5 -89.5t-122.5 -33t-122.5 33t-89.5 89.5t-33 122.5t33 122.5t89.5 89.5t122.5 33t122.5 -33t89.5 -89.5zM692 681q23 40 23 91q0 34 -34 34h-20q-34 0 -34 -34q0 -27 -11.5 -47t-31.5 -32q-17 -10 -43 -12q-66 29 -141 29
q-98 0 -180.5 -48.5t-131 -131t-48.5 -180.5t48.5 -180.5t131 -131t180.5 -48.5t180.5 48.5t131 131t48.5 180.5t-48 181q-32 52 -77 91q35 23 57 59z" />
    <glyph glyph-name="Uhorn" unicode="&#x1af;" horiz-adv-x="700" 
d="M634 612v-338q0 -77 -38 -142.5t-103.5 -103.5t-142.5 -38t-142.5 38t-103.5 103.5t-38 142.5v386q0 40 40 40h34q40 0 40 -40v-386q0 -46 23 -85t62 -62t85 -23t85 23t62 62t23 85v386q0 40 40 40h34q8 0 14 -1q14 10 24 26q11 20 11 47q0 34 34 34h20q34 0 34 -34
q0 -51 -23.5 -91t-63.5 -63z" />
    <glyph glyph-name="uhorn" unicode="&#x1b0;" horiz-adv-x="700" 
d="M634 612v-338q0 -77 -38 -142.5t-103.5 -103.5t-142.5 -38t-142.5 38t-103.5 103.5t-38 142.5v386q0 40 40 40h34q40 0 40 -40v-386q0 -46 23 -85t62 -62t85 -23t85 23t62 62t23 85v386q0 40 40 40h34q8 0 14 -1q14 10 24 26q11 20 11 47q0 34 34 34h20q34 0 34 -34
q0 -51 -23.5 -91t-63.5 -63z" />
    <glyph glyph-name="circumflex" unicode="&#x2c6;" horiz-adv-x="0" 
d="M142 749q-10 6 -10 17q0 7 6 19l95 98q15 29 55 29h27q41 0 55 -29l95 -98q5 -9 5 -18q0 -12 -11 -18t-31 -6h-8q-40 0 -67 28l-51 38l-52 -38q-26 -28 -67 -28h-13q-18 0 -28 6z" />
    <glyph glyph-name="breve" unicode="&#x2d8;" horiz-adv-x="0" 
d="M309 857.5q18 11.5 27 27.5q7 14 14.5 20.5t21.5 6.5h25q14 0 23.5 -8t9.5 -21q0 -5 -1 -9q-8 -33 -31.5 -61t-57 -44t-69.5 -16t-69.5 16t-57 44t-31.5 61q-1 4 -1 9q0 13 9.5 21t24.5 8h24q14 0 22 -6.5t14 -20.5q9 -16 27 -27.5t38 -11.5t38 11.5z" />
    <glyph glyph-name="tilde" unicode="&#x2dc;" horiz-adv-x="0" 
d="M126 766q-38 12 -25 49q25 96 126 85q33 -3 61 -24q58 -47 78 -2q11 41 53 34q42 -8 35 -51q-11 -65 -80 -88q-56 -19 -104 16q-54 47 -94 4q-14 -34 -50 -23z" />
    <glyph glyph-name="hookabovecomb" unicode="&#x309;" horiz-adv-x="500" 
d="M221 739h-6q-12 0 -21 7t-9 20q0 5 1 7q3 20 14.5 33.5t29.5 26.5q12 9 15 13t3 9q-2 9 -9 11.5t-14 -0.5t-11 -9.5t-10 -11t-17 -4.5h-8q-11 0 -20 6.5t-9 19.5q0 3 1 8q7 23 28 38t51 15q41 0 63 -22q21 -20 21 -51q0 -19 -7 -33t-16 -22.5t-21 -18.5q-10 -7 -14 -11
t-5 -8q-3 -10 -10 -16.5t-20 -6.5z" />
    <glyph glyph-name="dotbelowcomb" unicode="&#x323;" horiz-adv-x="0" 
d="M-256 -174q-17 17 -17 41q0 23 17 40t41 17t41 -17t17 -40q0 -24 -17 -41t-41 -17t-41 17z" />
    <glyph glyph-name="uni1EA0" unicode="&#x1ea0;" 
d="M475 669l249 -623q4 -9 4 -19q0 -13 -9 -20t-26 -7h-42q-34 0 -46 31l-34 84q-12 31 -46 31h-250q-34 0 -46 -31l-34 -84q-12 -31 -46 -31h-42q-17 0 -26 7t-9 20q0 10 4 19l249 623q12 31 46 31h58q34 0 46 -31zM400 502q-17 0 -27 -25l-67 -168q-4 -9 -4 -18
q0 -13 9.5 -20.5t26.5 -7.5h124q17 0 26.5 7.5t9.5 20.5q0 9 -4 18l-67 168q-10 25 -27 25zM359 -174q-17 17 -17 41q0 23 17 40t41 17t41 -17t17 -40q0 -24 -17 -41t-41 -17t-41 17z" />
    <glyph glyph-name="uni1EA1" unicode="&#x1ea1;" 
d="M475 669l249 -623q4 -9 4 -19q0 -13 -9 -20t-26 -7h-42q-34 0 -46 31l-34 84q-12 31 -46 31h-250q-34 0 -46 -31l-34 -84q-12 -31 -46 -31h-42q-17 0 -26 7t-9 20q0 10 4 19l249 623q12 31 46 31h58q34 0 46 -31zM400 502q-17 0 -27 -25l-67 -168q-4 -9 -4 -18
q0 -13 9.5 -20.5t26.5 -7.5h124q17 0 26.5 7.5t9.5 20.5q0 9 -4 18l-67 168q-10 25 -27 25zM359 -174q-17 17 -17 41q0 23 17 40t41 17t41 -17t17 -40q0 -24 -17 -41t-41 -17t-41 17z" />
    <glyph glyph-name="uni1EA2" unicode="&#x1ea2;" 
d="M475 669l249 -623q4 -9 4 -19q0 -13 -9 -20t-26 -7h-42q-34 0 -46 31l-34 84q-12 31 -46 31h-250q-34 0 -46 -31l-34 -84q-12 -31 -46 -31h-42q-17 0 -26 7t-9 20q0 10 4 19l249 623q12 31 46 31h58q34 0 46 -31zM400 502q-17 0 -27 -25l-67 -168q-4 -9 -4 -18
q0 -13 9.5 -20.5t26.5 -7.5h124q17 0 26.5 7.5t9.5 20.5q0 9 -4 18l-67 168q-10 25 -27 25zM389 739h-6q-12 0 -21 7t-9 20q0 5 1 7q4 20 15.5 33.5t28.5 26.5q12 9 15 13t3 9q-2 9 -9 11.5t-14 -0.5t-11 -9.5t-10 -11t-17 -4.5h-7q-12 0 -21 6.5t-9 19.5q0 3 1 8
q7 23 28 38t52 15q40 0 63 -22q20 -20 20 -51q0 -19 -7 -33t-16 -22.5t-21 -18.5q-10 -7 -14 -11t-5 -8q-3 -10 -10 -16.5t-20 -6.5z" />
    <glyph glyph-name="uni1EA3" unicode="&#x1ea3;" 
d="M475 669l249 -623q4 -9 4 -19q0 -13 -9 -20t-26 -7h-42q-34 0 -46 31l-34 84q-12 31 -46 31h-250q-34 0 -46 -31l-34 -84q-12 -31 -46 -31h-42q-17 0 -26 7t-9 20q0 10 4 19l249 623q12 31 46 31h58q34 0 46 -31zM400 502q-17 0 -27 -25l-67 -168q-4 -9 -4 -18
q0 -13 9.5 -20.5t26.5 -7.5h124q17 0 26.5 7.5t9.5 20.5q0 9 -4 18l-67 168q-10 25 -27 25zM389 739h-6q-12 0 -21 7t-9 20q0 5 1 7q3 20 14.5 33.5t29.5 26.5q12 9 15 13t3 9q-2 9 -9 11.5t-14 -0.5t-11 -9.5t-10 -11t-17 -4.5h-8q-11 0 -20 6.5t-9 19.5q0 3 1 8
q7 23 28 38t51 15q41 0 63 -22q21 -20 21 -51q0 -19 -7 -33t-16 -22.5t-21 -18.5q-10 -7 -14 -11t-5 -8q-3 -10 -10 -16.5t-20 -6.5z" />
    <glyph glyph-name="uni1EA4" unicode="&#x1ea4;" 
d="M475 669l249 -623q4 -9 4 -19q0 -13 -9 -20t-26 -7h-42q-34 0 -46 31l-34 84q-12 31 -46 31h-250q-34 0 -46 -31l-34 -84q-12 -31 -46 -31h-42q-17 0 -26 7t-9 20q0 10 4 19l249 623q12 31 46 31h58q34 0 46 -31zM400 502q-17 0 -27 -25l-67 -168q-4 -9 -4 -18
q0 -13 9.5 -20.5t26.5 -7.5h124q17 0 26.5 7.5t9.5 20.5q0 9 -4 18l-67 168q-10 25 -27 25zM241 749q-10 6 -10 17q0 7 6 19l95 98q15 29 55 29h27q41 0 55 -29l95 -98q5 -9 5 -18q0 -12 -11 -18t-31 -6h-8q-40 0 -67 28l-51 38l-52 -38q-26 -28 -67 -28h-13q-18 0 -28 6z
M766 919l-149 -88q-10 -7 -21 -1t-21 20q-20 30 -4 44l134 110q19 16 42 -18l16 -22q24 -34 3 -45z" />
    <glyph glyph-name="uni1EA5" unicode="&#x1ea5;" 
d="M475 669l249 -623q4 -9 4 -19q0 -13 -9 -20t-26 -7h-42q-34 0 -46 31l-34 84q-12 31 -46 31h-250q-34 0 -46 -31l-34 -84q-12 -31 -46 -31h-42q-17 0 -26 7t-9 20q0 10 4 19l249 623q12 31 46 31h58q34 0 46 -31zM400 502q-17 0 -27 -25l-67 -168q-4 -9 -4 -18
q0 -13 9.5 -20.5t26.5 -7.5h124q17 0 26.5 7.5t9.5 20.5q0 9 -4 18l-67 168q-10 25 -27 25zM241 749q-10 6 -10 17q0 7 6 19l95 98q15 29 55 29h27q41 0 55 -29l95 -98q5 -9 5 -18q0 -12 -11 -18t-31 -6h-8q-40 0 -67 28l-51 38l-52 -38q-26 -28 -67 -28h-13q-18 0 -28 6z
M766 919l-150 -88q-9 -7 -20 -1t-21 20q-20 30 -4 44l134 111q18 15 42 -18l16 -23q24 -33 3 -45z" />
    <glyph glyph-name="uni1EA6" unicode="&#x1ea6;" 
d="M475 669l249 -623q4 -9 4 -19q0 -13 -9 -20t-26 -7h-42q-34 0 -46 31l-34 84q-12 31 -46 31h-250q-34 0 -46 -31l-34 -84q-12 -31 -46 -31h-42q-17 0 -26 7t-9 20q0 10 4 19l249 623q12 31 46 31h58q34 0 46 -31zM400 502q-17 0 -27 -25l-67 -168q-4 -9 -4 -18
q0 -13 9.5 -20.5t26.5 -7.5h124q17 0 26.5 7.5t9.5 20.5q0 9 -4 18l-67 168q-10 25 -27 25zM241 749q-10 6 -10 17q0 7 6 19l95 98q15 29 55 29h27q41 0 55 -29l95 -98q5 -9 5 -18q0 -12 -11 -18t-31 -6h-8q-40 0 -67 28l-51 38l-52 -38q-26 -28 -67 -28h-13q-18 0 -28 6z
M72 966l15 22q24 34 42 18l134 -110q17 -14 -4 -44q-10 -14 -20.5 -20t-20.5 1l-149 88q-21 11 3 45z" />
    <glyph glyph-name="uni1EA7" unicode="&#x1ea7;" 
d="M475 669l249 -623q4 -9 4 -19q0 -13 -9 -20t-26 -7h-42q-34 0 -46 31l-34 84q-12 31 -46 31h-250q-34 0 -46 -31l-34 -84q-12 -31 -46 -31h-42q-17 0 -26 7t-9 20q0 10 4 19l249 623q12 31 46 31h58q34 0 46 -31zM400 502q-17 0 -27 -25l-67 -168q-4 -9 -4 -18
q0 -13 9.5 -20.5t26.5 -7.5h124q17 0 26.5 7.5t9.5 20.5q0 9 -4 18l-67 168q-10 25 -27 25zM241 749q-10 6 -10 17q0 7 6 19l95 98q15 29 55 29h27q41 0 55 -29l95 -98q5 -9 5 -18q0 -12 -11 -18t-31 -6h-8q-40 0 -67 28l-51 38l-52 -38q-26 -28 -67 -28h-13q-18 0 -28 6z
M71 966l16 23q24 33 42 18l134 -111q17 -14 -4 -44q-10 -14 -20.5 -20t-20.5 1l-149 88q-21 12 2 45z" />
    <glyph glyph-name="uni1EA8" unicode="&#x1ea8;" 
d="M475 669l249 -623q4 -9 4 -19q0 -13 -9 -20t-26 -7h-42q-34 0 -46 31l-34 84q-12 31 -46 31h-250q-34 0 -46 -31l-34 -84q-12 -31 -46 -31h-42q-17 0 -26 7t-9 20q0 10 4 19l249 623q12 31 46 31h58q34 0 46 -31zM400 502q-17 0 -27 -25l-67 -168q-4 -9 -4 -18
q0 -13 9.5 -20.5t26.5 -7.5h124q17 0 26.5 7.5t9.5 20.5q0 9 -4 18l-67 168q-10 25 -27 25zM241 749q-10 6 -10 17q0 7 6 19l95 98q15 29 55 29h27q41 0 55 -29l95 -98q5 -9 5 -18q0 -12 -11 -18t-31 -6h-8q-40 0 -67 28l-51 38l-52 -38q-26 -28 -67 -28h-13q-18 0 -28 6z
M589 833h-7q-11 0 -20 7t-9 20q0 5 1 7q3 20 14.5 33.5t28.5 26.5q12 9 15 13t3 9q-1 9 -8.5 11.5t-14.5 -0.5t-11 -9t-9.5 -11t-17.5 -5h-7q-11 0 -20 6.5t-9 19.5q0 3 1 8q7 23 28 38t51 15q41 0 63 -22q20 -20 20 -51q0 -19 -7 -33t-15.5 -22.5t-21.5 -18.5
q-10 -7 -14 -11t-5 -8q-3 -10 -10 -16.5t-19 -6.5z" />
    <glyph glyph-name="uni1EA9" unicode="&#x1ea9;" 
d="M475 669l249 -623q4 -9 4 -19q0 -13 -9 -20t-26 -7h-42q-34 0 -46 31l-34 84q-12 31 -46 31h-250q-34 0 -46 -31l-34 -84q-12 -31 -46 -31h-42q-17 0 -26 7t-9 20q0 10 4 19l249 623q12 31 46 31h58q34 0 46 -31zM400 502q-17 0 -27 -25l-67 -168q-4 -9 -4 -18
q0 -13 9.5 -20.5t26.5 -7.5h124q17 0 26.5 7.5t9.5 20.5q0 9 -4 18l-67 168q-10 25 -27 25zM241 749q-10 6 -10 17q0 7 6 19l95 98q15 29 55 29h27q41 0 55 -29l95 -98q5 -9 5 -18q0 -12 -11 -18t-31 -6h-8q-40 0 -67 28l-51 38l-52 -38q-26 -28 -67 -28h-13q-18 0 -28 6z
M589 833h-6q-12 0 -21 7t-9 20q0 5 1 7q3 20 14.5 33.5t29.5 26.5q12 9 15 13t3 9q-2 9 -9 11.5t-14 -0.5t-11 -9.5t-10 -11t-17 -4.5h-8q-11 0 -20 6.5t-9 19.5q0 3 1 8q7 23 28 38t51 15q41 0 63 -22q21 -20 21 -51q0 -19 -7 -33t-16 -22.5t-21 -18.5q-10 -7 -14 -11
t-5 -8q-3 -10 -10 -16.5t-20 -6.5z" />
    <glyph glyph-name="uni1EAA" unicode="&#x1eaa;" 
d="M475 669l249 -623q4 -9 4 -19q0 -13 -9 -20t-26 -7h-42q-34 0 -46 31l-34 84q-12 31 -46 31h-250q-34 0 -46 -31l-34 -84q-12 -31 -46 -31h-42q-17 0 -26 7t-9 20q0 10 4 19l249 623q12 31 46 31h58q34 0 46 -31zM400 502q-17 0 -27 -25l-67 -168q-4 -9 -4 -18
q0 -13 9.5 -20.5t26.5 -7.5h124q17 0 26.5 7.5t9.5 20.5q0 9 -4 18l-67 168q-10 25 -27 25zM241 749q-10 6 -10 17q0 7 6 19l95 98q15 29 55 29h27q41 0 55 -29l95 -98q5 -9 5 -18q0 -12 -11 -18t-31 -6h-8q-40 0 -67 28l-51 38l-52 -38q-26 -28 -67 -28h-13q-18 0 -28 6z
M542 869q-38 11 -26 48q25 97 127 86q33 -3 61 -25q58 -46 78 -1q11 41 53 34q42 -8 34 -51q-10 -65 -79 -88q-56 -19 -104 16q-54 47 -94 4q-14 -34 -50 -23z" />
    <glyph glyph-name="uni1EAB" unicode="&#x1eab;" 
d="M475 669l249 -623q4 -9 4 -19q0 -13 -9 -20t-26 -7h-42q-34 0 -46 31l-34 84q-12 31 -46 31h-250q-34 0 -46 -31l-34 -84q-12 -31 -46 -31h-42q-17 0 -26 7t-9 20q0 10 4 19l249 623q12 31 46 31h58q34 0 46 -31zM400 502q-17 0 -27 -25l-67 -168q-4 -9 -4 -18
q0 -13 9.5 -20.5t26.5 -7.5h124q17 0 26.5 7.5t9.5 20.5q0 9 -4 18l-67 168q-10 25 -27 25zM241 749q-10 6 -10 17q0 7 6 19l95 98q15 29 55 29h27q41 0 55 -29l95 -98q5 -9 5 -18q0 -12 -11 -18t-31 -6h-8q-40 0 -67 28l-51 38l-52 -38q-26 -28 -67 -28h-13q-18 0 -28 6z
M538 857q-38 12 -25 49q25 96 126 85q33 -3 61 -24q58 -47 78 -2q11 41 53 34q42 -8 35 -51q-11 -65 -80 -88q-56 -19 -104 16q-54 47 -94 4q-14 -34 -50 -23z" />
    <glyph glyph-name="uni1EAC" unicode="&#x1eac;" 
d="M475 669l249 -623q4 -9 4 -19q0 -13 -9 -20t-26 -7h-42q-34 0 -46 31l-34 84q-12 31 -46 31h-250q-34 0 -46 -31l-34 -84q-12 -31 -46 -31h-42q-17 0 -26 7t-9 20q0 10 4 19l249 623q12 31 46 31h58q34 0 46 -31zM400 502q-17 0 -27 -25l-67 -168q-4 -9 -4 -18
q0 -13 9.5 -20.5t26.5 -7.5h124q17 0 26.5 7.5t9.5 20.5q0 9 -4 18l-67 168q-10 25 -27 25zM241 749q-10 6 -10 17q0 7 6 19l95 98q15 29 55 29h27q41 0 55 -29l95 -98q5 -9 5 -18q0 -12 -11 -18t-31 -6h-8q-40 0 -67 28l-51 38l-52 -38q-26 -28 -67 -28h-13q-18 0 -28 6z
M359 -174q-17 17 -17 41q0 23 17 40t41 17t41 -17t17 -40q0 -24 -17 -41t-41 -17t-41 17z" />
    <glyph glyph-name="uni1EAD" unicode="&#x1ead;" 
d="M475 669l249 -623q4 -9 4 -19q0 -13 -9 -20t-26 -7h-42q-34 0 -46 31l-34 84q-12 31 -46 31h-250q-34 0 -46 -31l-34 -84q-12 -31 -46 -31h-42q-17 0 -26 7t-9 20q0 10 4 19l249 623q12 31 46 31h58q34 0 46 -31zM400 502q-17 0 -27 -25l-67 -168q-4 -9 -4 -18
q0 -13 9.5 -20.5t26.5 -7.5h124q17 0 26.5 7.5t9.5 20.5q0 9 -4 18l-67 168q-10 25 -27 25zM241 749q-10 6 -10 17q0 7 6 19l95 98q15 29 55 29h27q41 0 55 -29l95 -98q5 -9 5 -18q0 -12 -11 -18t-31 -6h-8q-40 0 -67 28l-51 38l-52 -38q-26 -28 -67 -28h-13q-18 0 -28 6z
M359 -174q-17 17 -17 41q0 23 17 40t41 17t41 -17t17 -40q0 -24 -17 -41t-41 -17t-41 17z" />
    <glyph glyph-name="uni1EAE" unicode="&#x1eae;" 
d="M475 669l249 -623q4 -9 4 -19q0 -13 -9 -20t-26 -7h-42q-34 0 -46 31l-34 84q-12 31 -46 31h-250q-34 0 -46 -31l-34 -84q-12 -31 -46 -31h-42q-17 0 -26 7t-9 20q0 10 4 19l249 623q12 31 46 31h58q34 0 46 -31zM400 502q-17 0 -27 -25l-67 -168q-4 -9 -4 -18
q0 -13 9.5 -20.5t26.5 -7.5h124q17 0 26.5 7.5t9.5 20.5q0 9 -4 18l-67 168q-10 25 -27 25zM438 857.5q18 11.5 27 27.5q6 14 14 20.5t22 6.5h25q14 0 23.5 -8t9.5 -21q0 -5 -1 -9q-8 -33 -31.5 -61t-57 -44t-69.5 -16t-69.5 16t-57 44t-31.5 61q-1 4 -1 9q0 13 9.5 21
t23.5 8h25q14 0 22 -6.5t14 -20.5q9 -16 27 -27.5t38 -11.5t38 11.5zM564 988l-149 -88q-10 -7 -21 -0.5t-20 20.5q-21 29 -4 44l134 110q18 16 42 -18l15 -22q24 -34 3 -46z" />
    <glyph glyph-name="uni1EAF" unicode="&#x1eaf;" 
d="M475 669l249 -623q4 -9 4 -19q0 -13 -9 -20t-26 -7h-42q-34 0 -46 31l-34 84q-12 31 -46 31h-250q-34 0 -46 -31l-34 -84q-12 -31 -46 -31h-42q-17 0 -26 7t-9 20q0 10 4 19l249 623q12 31 46 31h58q34 0 46 -31zM400 502q-17 0 -27 -25l-67 -168q-4 -9 -4 -18
q0 -13 9.5 -20.5t26.5 -7.5h124q17 0 26.5 7.5t9.5 20.5q0 9 -4 18l-67 168q-10 25 -27 25zM438 857.5q18 11.5 27 27.5q7 14 14.5 20.5t21.5 6.5h25q14 0 23.5 -8t9.5 -21q0 -5 -1 -9q-8 -33 -31.5 -61t-57 -44t-69.5 -16t-69.5 16t-57 44t-31.5 61q-1 4 -1 9q0 13 9.5 21
t24.5 8h24q14 0 22 -6.5t14 -20.5q9 -16 27 -27.5t38 -11.5t38 11.5zM564 988l-150 -88q-9 -7 -20 -1t-21 20q-20 30 -4 44l134 111q18 15 42 -18l16 -23q24 -33 3 -45z" />
    <glyph glyph-name="uni1EB0" unicode="&#x1eb0;" 
d="M475 669l249 -623q4 -9 4 -19q0 -13 -9 -20t-26 -7h-42q-34 0 -46 31l-34 84q-12 31 -46 31h-250q-34 0 -46 -31l-34 -84q-12 -31 -46 -31h-42q-17 0 -26 7t-9 20q0 10 4 19l249 623q12 31 46 31h58q34 0 46 -31zM400 502q-17 0 -27 -25l-67 -168q-4 -9 -4 -18
q0 -13 9.5 -20.5t26.5 -7.5h124q17 0 26.5 7.5t9.5 20.5q0 9 -4 18l-67 168q-10 25 -27 25zM438 857.5q18 11.5 27 27.5q6 14 14 20.5t22 6.5h25q14 0 23.5 -8t9.5 -21q0 -5 -1 -9q-8 -33 -31.5 -61t-57 -44t-69.5 -16t-69.5 16t-57 44t-31.5 61q-1 4 -1 9q0 13 9.5 21
t23.5 8h25q14 0 22 -6.5t14 -20.5q9 -16 27 -27.5t38 -11.5t38 11.5zM251 1039l15 22q24 34 42 18l134 -110q17 -15 -4 -44q-9 -14 -20 -20.5t-21 0.5l-149 88q-21 12 3 46z" />
    <glyph glyph-name="uni1EB1" unicode="&#x1eb1;" 
d="M475 669l249 -623q4 -9 4 -19q0 -13 -9 -20t-26 -7h-42q-34 0 -46 31l-34 84q-12 31 -46 31h-250q-34 0 -46 -31l-34 -84q-12 -31 -46 -31h-42q-17 0 -26 7t-9 20q0 10 4 19l249 623q12 31 46 31h58q34 0 46 -31zM400 502q-17 0 -27 -25l-67 -168q-4 -9 -4 -18
q0 -13 9.5 -20.5t26.5 -7.5h124q17 0 26.5 7.5t9.5 20.5q0 9 -4 18l-67 168q-10 25 -27 25zM438 857.5q18 11.5 27 27.5q7 14 14.5 20.5t21.5 6.5h25q14 0 23.5 -8t9.5 -21q0 -5 -1 -9q-8 -33 -31.5 -61t-57 -44t-69.5 -16t-69.5 16t-57 44t-31.5 61q-1 4 -1 9q0 13 9.5 21
t24.5 8h24q14 0 22 -6.5t14 -20.5q9 -16 27 -27.5t38 -11.5t38 11.5zM250 1038l16 23q24 33 42 18l134 -111q17 -14 -4 -44q-10 -14 -20.5 -20t-20.5 1l-149 88q-21 12 2 45z" />
    <glyph glyph-name="uni1EB2" unicode="&#x1eb2;" 
d="M475 669l249 -623q4 -9 4 -19q0 -13 -9 -20t-26 -7h-42q-34 0 -46 31l-34 84q-12 31 -46 31h-250q-34 0 -46 -31l-34 -84q-12 -31 -46 -31h-42q-17 0 -26 7t-9 20q0 10 4 19l249 623q12 31 46 31h58q34 0 46 -31zM400 502q-17 0 -27 -25l-67 -168q-4 -9 -4 -18
q0 -13 9.5 -20.5t26.5 -7.5h124q17 0 26.5 7.5t9.5 20.5q0 9 -4 18l-67 168q-10 25 -27 25zM438 857.5q18 11.5 27 27.5q6 14 14 20.5t22 6.5h25q14 0 23.5 -8t9.5 -21q0 -5 -1 -9q-8 -33 -31.5 -61t-57 -44t-69.5 -16t-69.5 16t-57 44t-31.5 61q-1 4 -1 9q0 13 9.5 21
t23.5 8h25q14 0 22 -6.5t14 -20.5q9 -16 27 -27.5t38 -11.5t38 11.5zM407 898h-6q-12 0 -21 7t-9 20q0 5 1 7q4 20 15.5 33.5t28.5 26.5q12 9 15 13t3 9q-2 9 -9 11.5t-14 -0.5t-11 -9t-10 -11t-17 -5h-7q-12 0 -21 6.5t-9 19.5q0 3 1 8q7 23 28 38t52 15q40 0 63 -22
q20 -20 20 -51q0 -19 -7 -33t-16 -22.5t-21 -18.5q-10 -7 -14 -11t-5 -8q-3 -9 -10 -16t-20 -7z" />
    <glyph glyph-name="uni1EB3" unicode="&#x1eb3;" 
d="M475 669l249 -623q4 -9 4 -19q0 -13 -9 -20t-26 -7h-42q-34 0 -46 31l-34 84q-12 31 -46 31h-250q-34 0 -46 -31l-34 -84q-12 -31 -46 -31h-42q-17 0 -26 7t-9 20q0 10 4 19l249 623q12 31 46 31h58q34 0 46 -31zM400 502q-17 0 -27 -25l-67 -168q-4 -9 -4 -18
q0 -13 9.5 -20.5t26.5 -7.5h124q17 0 26.5 7.5t9.5 20.5q0 9 -4 18l-67 168q-10 25 -27 25zM438 857.5q18 11.5 27 27.5q7 14 14.5 20.5t21.5 6.5h25q14 0 23.5 -8t9.5 -21q0 -5 -1 -9q-8 -33 -31.5 -61t-57 -44t-69.5 -16t-69.5 16t-57 44t-31.5 61q-1 4 -1 9q0 13 9.5 21
t24.5 8h24q14 0 22 -6.5t14 -20.5q9 -16 27 -27.5t38 -11.5t38 11.5zM407 898h-6q-12 0 -21 7t-9 20q0 5 1 7q3 20 14.5 33.5t29.5 26.5q12 9 15 13t3 9q-2 9 -9 11.5t-14 -0.5t-11 -9.5t-10 -11t-17 -4.5h-8q-11 0 -20 6.5t-9 19.5q0 3 1 8q7 23 28 38t51 15q41 0 63 -22
q21 -20 21 -51q0 -19 -7 -33t-16 -22.5t-21 -18.5q-10 -7 -14 -11t-5 -8q-3 -10 -10 -16.5t-20 -6.5z" />
    <glyph glyph-name="uni1EB4" unicode="&#x1eb4;" 
d="M475 669l249 -623q4 -9 4 -19q0 -13 -9 -20t-26 -7h-42q-34 0 -46 31l-34 84q-12 31 -46 31h-250q-34 0 -46 -31l-34 -84q-12 -31 -46 -31h-42q-17 0 -26 7t-9 20q0 10 4 19l249 623q12 31 46 31h58q34 0 46 -31zM400 502q-17 0 -27 -25l-67 -168q-4 -9 -4 -18
q0 -13 9.5 -20.5t26.5 -7.5h124q17 0 26.5 7.5t9.5 20.5q0 9 -4 18l-67 168q-10 25 -27 25zM438 857.5q18 11.5 27 27.5q6 14 14 20.5t22 6.5h25q14 0 23.5 -8t9.5 -21q0 -5 -1 -9q-8 -33 -31.5 -61t-57 -44t-69.5 -16t-69.5 16t-57 44t-31.5 61q-1 4 -1 9q0 13 9.5 21
t23.5 8h25q14 0 22 -6.5t14 -20.5q9 -16 27 -27.5t38 -11.5t38 11.5zM415 913q-38 12 -26 49q25 96 127 85q33 -3 61 -24q58 -47 78 -2q11 41 53 34q42 -8 34 -51q-10 -65 -79 -88q-56 -19 -104 17q-54 46 -94 3q-14 -34 -50 -23z" />
    <glyph glyph-name="uni1EB5" unicode="&#x1eb5;" 
d="M475 669l249 -623q4 -9 4 -19q0 -13 -9 -20t-26 -7h-42q-34 0 -46 31l-34 84q-12 31 -46 31h-250q-34 0 -46 -31l-34 -84q-12 -31 -46 -31h-42q-17 0 -26 7t-9 20q0 10 4 19l249 623q12 31 46 31h58q34 0 46 -31zM400 502q-17 0 -27 -25l-67 -168q-4 -9 -4 -18
q0 -13 9.5 -20.5t26.5 -7.5h124q17 0 26.5 7.5t9.5 20.5q0 9 -4 18l-67 168q-10 25 -27 25zM438 857.5q18 11.5 27 27.5q7 14 14.5 20.5t21.5 6.5h25q14 0 23.5 -8t9.5 -21q0 -5 -1 -9q-8 -33 -31.5 -61t-57 -44t-69.5 -16t-69.5 16t-57 44t-31.5 61q-1 4 -1 9q0 13 9.5 21
t24.5 8h24q14 0 22 -6.5t14 -20.5q9 -16 27 -27.5t38 -11.5t38 11.5zM415 913q-38 12 -25 49q25 96 126 85q33 -3 61 -24q58 -47 78 -2q11 41 53 34q42 -8 35 -51q-11 -65 -80 -88q-56 -19 -104 16q-54 47 -94 4q-14 -34 -50 -23z" />
    <glyph glyph-name="uni1EB6" unicode="&#x1eb6;" 
d="M475 669l249 -623q4 -9 4 -19q0 -13 -9 -20t-26 -7h-42q-34 0 -46 31l-34 84q-12 31 -46 31h-250q-34 0 -46 -31l-34 -84q-12 -31 -46 -31h-42q-17 0 -26 7t-9 20q0 10 4 19l249 623q12 31 46 31h58q34 0 46 -31zM400 502q-17 0 -27 -25l-67 -168q-4 -9 -4 -18
q0 -13 9.5 -20.5t26.5 -7.5h124q17 0 26.5 7.5t9.5 20.5q0 9 -4 18l-67 168q-10 25 -27 25zM438 857.5q18 11.5 27 27.5q6 14 14 20.5t22 6.5h25q14 0 23.5 -8t9.5 -21q0 -5 -1 -9q-8 -33 -31.5 -61t-57 -44t-69.5 -16t-69.5 16t-57 44t-31.5 61q-1 4 -1 9q0 13 9.5 21
t23.5 8h25q14 0 22 -6.5t14 -20.5q9 -16 27 -27.5t38 -11.5t38 11.5zM359 -174q-17 17 -17 41q0 23 17 40t41 17t41 -17t17 -40q0 -24 -17 -41t-41 -17t-41 17z" />
    <glyph glyph-name="uni1EB7" unicode="&#x1eb7;" 
d="M475 669l249 -623q4 -9 4 -19q0 -13 -9 -20t-26 -7h-42q-34 0 -46 31l-34 84q-12 31 -46 31h-250q-34 0 -46 -31l-34 -84q-12 -31 -46 -31h-42q-17 0 -26 7t-9 20q0 10 4 19l249 623q12 31 46 31h58q34 0 46 -31zM400 502q-17 0 -27 -25l-67 -168q-4 -9 -4 -18
q0 -13 9.5 -20.5t26.5 -7.5h124q17 0 26.5 7.5t9.5 20.5q0 9 -4 18l-67 168q-10 25 -27 25zM438 857.5q18 11.5 27 27.5q7 14 14.5 20.5t21.5 6.5h25q14 0 23.5 -8t9.5 -21q0 -5 -1 -9q-8 -33 -31.5 -61t-57 -44t-69.5 -16t-69.5 16t-57 44t-31.5 61q-1 4 -1 9q0 13 9.5 21
t24.5 8h24q14 0 22 -6.5t14 -20.5q9 -16 27 -27.5t38 -11.5t38 11.5zM359 -174q-17 17 -17 41q0 23 17 40t41 17t41 -17t17 -40q0 -24 -17 -41t-41 -17t-41 17z" />
    <glyph glyph-name="uni1EB8" unicode="&#x1eb8;" horiz-adv-x="700" 
d="M215 545v-105q0 -40 40 -40h255q40 0 40 -40v-35q0 -40 -40 -40h-255q-40 0 -40 -40v-90q0 -40 40 -40h305q40 0 40 -40v-35q0 -40 -40 -40h-420q-40 0 -40 40v620q0 40 40 40h420q40 0 40 -40v-35q0 -40 -40 -40h-305q-40 0 -40 -40zM309 -174q-17 17 -17 41q0 23 17 40
t41 17t41 -17t17 -40q0 -24 -17 -41t-41 -17t-41 17z" />
    <glyph glyph-name="uni1EB9" unicode="&#x1eb9;" horiz-adv-x="700" 
d="M215 545v-105q0 -40 40 -40h255q40 0 40 -40v-35q0 -40 -40 -40h-255q-40 0 -40 -40v-90q0 -40 40 -40h305q40 0 40 -40v-35q0 -40 -40 -40h-420q-40 0 -40 40v620q0 40 40 40h420q40 0 40 -40v-35q0 -40 -40 -40h-305q-40 0 -40 -40zM309 -174q-17 17 -17 41q0 23 17 40
t41 17t41 -17t17 -40q0 -24 -17 -41t-41 -17t-41 17z" />
    <glyph glyph-name="uni1EBA" unicode="&#x1eba;" horiz-adv-x="700" 
d="M215 545v-105q0 -40 40 -40h255q40 0 40 -40v-35q0 -40 -40 -40h-255q-40 0 -40 -40v-90q0 -40 40 -40h305q40 0 40 -40v-35q0 -40 -40 -40h-420q-40 0 -40 40v620q0 40 40 40h420q40 0 40 -40v-35q0 -40 -40 -40h-305q-40 0 -40 -40zM339 739h-6q-12 0 -21 7t-9 20
q0 5 1 7q4 20 15.5 33.5t28.5 26.5q12 9 15 13t3 9q-2 9 -9 11.5t-14 -0.5t-11 -9.5t-10 -11t-17 -4.5h-7q-12 0 -21 6.5t-9 19.5q0 3 1 8q7 23 28 38t52 15q40 0 63 -22q20 -20 20 -51q0 -19 -7 -33t-16 -22.5t-21 -18.5q-10 -7 -14 -11t-5 -8q-3 -10 -10 -16.5t-20 -6.5z
" />
    <glyph glyph-name="uni1EBB" unicode="&#x1ebb;" horiz-adv-x="700" 
d="M215 545v-105q0 -40 40 -40h255q40 0 40 -40v-35q0 -40 -40 -40h-255q-40 0 -40 -40v-90q0 -40 40 -40h305q40 0 40 -40v-35q0 -40 -40 -40h-420q-40 0 -40 40v620q0 40 40 40h420q40 0 40 -40v-35q0 -40 -40 -40h-305q-40 0 -40 -40zM339 739h-6q-12 0 -21 7t-9 20
q0 5 1 7q3 20 14.5 33.5t29.5 26.5q12 9 15 13t3 9q-2 9 -9 11.5t-14 -0.5t-11 -9.5t-10 -11t-17 -4.5h-8q-11 0 -20 6.5t-9 19.5q0 3 1 8q7 23 28 38t51 15q41 0 63 -22q21 -20 21 -51q0 -19 -7 -33t-16 -22.5t-21 -18.5q-10 -7 -14 -11t-5 -8q-3 -10 -10 -16.5t-20 -6.5z
" />
    <glyph glyph-name="uni1EBC" unicode="&#x1ebc;" horiz-adv-x="700" 
d="M215 545v-105q0 -40 40 -40h255q40 0 40 -40v-35q0 -40 -40 -40h-255q-40 0 -40 -40v-90q0 -40 40 -40h305q40 0 40 -40v-35q0 -40 -40 -40h-420q-40 0 -40 40v620q0 40 40 40h420q40 0 40 -40v-35q0 -40 -40 -40h-305q-40 0 -40 -40zM200 766q-38 12 -26 49
q25 96 127 85q33 -3 61 -24q58 -47 78 -2q11 41 53 34q42 -8 34 -51q-10 -65 -79 -88q-56 -19 -104 16q-54 47 -94 4q-14 -34 -50 -23z" />
    <glyph glyph-name="uni1EBD" unicode="&#x1ebd;" horiz-adv-x="700" 
d="M215 545v-105q0 -40 40 -40h255q40 0 40 -40v-35q0 -40 -40 -40h-255q-40 0 -40 -40v-90q0 -40 40 -40h305q40 0 40 -40v-35q0 -40 -40 -40h-420q-40 0 -40 40v620q0 40 40 40h420q40 0 40 -40v-35q0 -40 -40 -40h-305q-40 0 -40 -40zM200 766q-38 12 -25 49
q25 96 126 85q33 -3 61 -24q58 -47 78 -2q11 41 53 34q42 -8 35 -51q-11 -65 -80 -88q-56 -19 -104 16q-54 47 -94 4q-14 -34 -50 -23z" />
    <glyph glyph-name="uni1EBE" unicode="&#x1ebe;" horiz-adv-x="700" 
d="M215 545v-105q0 -40 40 -40h255q40 0 40 -40v-35q0 -40 -40 -40h-255q-40 0 -40 -40v-90q0 -40 40 -40h305q40 0 40 -40v-35q0 -40 -40 -40h-420q-40 0 -40 40v620q0 40 40 40h420q40 0 40 -40v-35q0 -40 -40 -40h-305q-40 0 -40 -40zM191 749q-10 6 -10 17q0 7 6 19
l95 98q15 29 55 29h27q41 0 55 -29l95 -98q5 -9 5 -18q0 -12 -11 -18t-31 -6h-8q-40 0 -67 28l-51 38l-52 -38q-26 -28 -67 -28h-13q-18 0 -28 6zM677 919l-149 -88q-10 -7 -21 -1t-21 20q-20 30 -4 44l134 110q19 16 42 -18l16 -22q24 -34 3 -45z" />
    <glyph glyph-name="uni1EBF" unicode="&#x1ebf;" horiz-adv-x="700" 
d="M215 545v-105q0 -40 40 -40h255q40 0 40 -40v-35q0 -40 -40 -40h-255q-40 0 -40 -40v-90q0 -40 40 -40h305q40 0 40 -40v-35q0 -40 -40 -40h-420q-40 0 -40 40v620q0 40 40 40h420q40 0 40 -40v-35q0 -40 -40 -40h-305q-40 0 -40 -40zM191 749q-10 6 -10 17q0 7 6 19
l95 98q15 29 55 29h27q41 0 55 -29l95 -98q5 -9 5 -18q0 -12 -11 -18t-31 -6h-8q-40 0 -67 28l-51 38l-52 -38q-26 -28 -67 -28h-13q-18 0 -28 6zM677 919l-150 -88q-9 -7 -20 -1t-21 20q-20 30 -4 44l134 111q18 15 42 -18l16 -23q24 -33 3 -45z" />
    <glyph glyph-name="uni1EC0" unicode="&#x1ec0;" horiz-adv-x="700" 
d="M215 545v-105q0 -40 40 -40h255q40 0 40 -40v-35q0 -40 -40 -40h-255q-40 0 -40 -40v-90q0 -40 40 -40h305q40 0 40 -40v-35q0 -40 -40 -40h-420q-40 0 -40 40v620q0 40 40 40h420q40 0 40 -40v-35q0 -40 -40 -40h-305q-40 0 -40 -40zM191 749q-10 6 -10 17q0 7 6 19
l95 98q15 29 55 29h27q41 0 55 -29l95 -98q5 -9 5 -18q0 -12 -11 -18t-31 -6h-8q-40 0 -67 28l-51 38l-52 -38q-26 -28 -67 -28h-13q-18 0 -28 6zM22 967l15 22q24 34 42 18l134 -110q17 -14 -4 -44q-10 -14 -20.5 -20t-20.5 1l-149 88q-21 11 3 45z" />
    <glyph glyph-name="uni1EC1" unicode="&#x1ec1;" horiz-adv-x="700" 
d="M215 545v-105q0 -40 40 -40h255q40 0 40 -40v-35q0 -40 -40 -40h-255q-40 0 -40 -40v-90q0 -40 40 -40h305q40 0 40 -40v-35q0 -40 -40 -40h-420q-40 0 -40 40v620q0 40 40 40h420q40 0 40 -40v-35q0 -40 -40 -40h-305q-40 0 -40 -40zM191 749q-10 6 -10 17q0 7 6 19
l95 98q15 29 55 29h27q41 0 55 -29l95 -98q5 -9 5 -18q0 -12 -11 -18t-31 -6h-8q-40 0 -67 28l-51 38l-52 -38q-26 -28 -67 -28h-13q-18 0 -28 6zM21 967l16 23q24 33 42 18l134 -111q17 -14 -4 -44q-10 -14 -20.5 -20t-20.5 1l-149 88q-21 12 2 45z" />
    <glyph glyph-name="uni1EC2" unicode="&#x1ec2;" horiz-adv-x="700" 
d="M215 545v-105q0 -40 40 -40h255q40 0 40 -40v-35q0 -40 -40 -40h-255q-40 0 -40 -40v-90q0 -40 40 -40h305q40 0 40 -40v-35q0 -40 -40 -40h-420q-40 0 -40 40v620q0 40 40 40h420q40 0 40 -40v-35q0 -40 -40 -40h-305q-40 0 -40 -40zM191 749q-10 6 -10 17q0 7 6 19
l95 98q15 29 55 29h27q41 0 55 -29l95 -98q5 -9 5 -18q0 -12 -11 -18t-31 -6h-8q-40 0 -67 28l-51 38l-52 -38q-26 -28 -67 -28h-13q-18 0 -28 6zM500 882h-6q-12 0 -21 7t-9 20q0 5 1 7q3 20 14.5 33.5t29.5 26.5q12 9 15 13t3 9q-2 9 -9 11.5t-14 -0.5t-11 -9t-10 -11
t-17 -5h-8q-11 0 -20 6.5t-9 19.5q0 3 1 8q7 23 28 38t51 15q41 0 63 -22q21 -20 21 -51q0 -19 -7 -33t-16 -22.5t-21 -18.5q-10 -7 -14 -11t-5 -8q-3 -10 -10 -16.5t-20 -6.5z" />
    <glyph glyph-name="uni1EC3" unicode="&#x1ec3;" horiz-adv-x="700" 
d="M215 545v-105q0 -40 40 -40h255q40 0 40 -40v-35q0 -40 -40 -40h-255q-40 0 -40 -40v-90q0 -40 40 -40h305q40 0 40 -40v-35q0 -40 -40 -40h-420q-40 0 -40 40v620q0 40 40 40h420q40 0 40 -40v-35q0 -40 -40 -40h-305q-40 0 -40 -40zM191 749q-10 6 -10 17q0 7 6 19
l95 98q15 29 55 29h27q41 0 55 -29l95 -98q5 -9 5 -18q0 -12 -11 -18t-31 -6h-8q-40 0 -67 28l-51 38l-52 -38q-26 -28 -67 -28h-13q-18 0 -28 6zM500 882h-6q-12 0 -21 7t-9 20q0 5 1 7q3 20 14.5 33.5t29.5 26.5q12 9 15 13t3 9q-2 9 -9 11.5t-14 -0.5t-11 -9.5t-10 -11
t-17 -4.5h-8q-11 0 -20 6.5t-9 19.5q0 3 1 8q7 23 28 38t51 15q41 0 63 -22q21 -20 21 -51q0 -19 -7 -33t-16 -22.5t-21 -18.5q-10 -7 -14 -11t-5 -8q-3 -10 -10 -16.5t-20 -6.5z" />
    <glyph glyph-name="uni1EC4" unicode="&#x1ec4;" horiz-adv-x="700" 
d="M215 545v-105q0 -40 40 -40h255q40 0 40 -40v-35q0 -40 -40 -40h-255q-40 0 -40 -40v-90q0 -40 40 -40h305q40 0 40 -40v-35q0 -40 -40 -40h-420q-40 0 -40 40v620q0 40 40 40h420q40 0 40 -40v-35q0 -40 -40 -40h-305q-40 0 -40 -40zM191 749q-10 6 -10 17q0 7 6 19
l95 98q15 29 55 29h27q41 0 55 -29l95 -98q5 -9 5 -18q0 -12 -11 -18t-31 -6h-8q-40 0 -67 28l-51 38l-52 -38q-26 -28 -67 -28h-13q-18 0 -28 6zM200 952q-38 11 -26 48q25 97 127 86q33 -3 61 -25q58 -46 78 -1q11 41 53 34q42 -8 34 -51q-10 -65 -79 -88q-56 -19 -104 16
q-54 47 -94 4q-14 -34 -50 -23z" />
    <glyph glyph-name="uni1EC5" unicode="&#x1ec5;" horiz-adv-x="700" 
d="M215 545v-105q0 -40 40 -40h255q40 0 40 -40v-35q0 -40 -40 -40h-255q-40 0 -40 -40v-90q0 -40 40 -40h305q40 0 40 -40v-35q0 -40 -40 -40h-420q-40 0 -40 40v620q0 40 40 40h420q40 0 40 -40v-35q0 -40 -40 -40h-305q-40 0 -40 -40zM191 749q-10 6 -10 17q0 7 6 19
l95 98q15 29 55 29h27q41 0 55 -29l95 -98q5 -9 5 -18q0 -12 -11 -18t-31 -6h-8q-40 0 -67 28l-51 38l-52 -38q-26 -28 -67 -28h-13q-18 0 -28 6zM200 952q-38 12 -25 49q25 96 126 85q33 -3 61 -24q58 -47 78 -2q11 41 53 34q42 -8 35 -51q-11 -65 -80 -88q-56 -19 -104 16
q-54 47 -94 4q-14 -34 -50 -23z" />
    <glyph glyph-name="uni1EC6" unicode="&#x1ec6;" horiz-adv-x="700" 
d="M215 545v-105q0 -40 40 -40h255q40 0 40 -40v-35q0 -40 -40 -40h-255q-40 0 -40 -40v-90q0 -40 40 -40h305q40 0 40 -40v-35q0 -40 -40 -40h-420q-40 0 -40 40v620q0 40 40 40h420q40 0 40 -40v-35q0 -40 -40 -40h-305q-40 0 -40 -40zM191 749q-10 6 -10 17q0 7 6 19
l95 98q15 29 55 29h27q41 0 55 -29l95 -98q5 -9 5 -18q0 -12 -11 -18t-31 -6h-8q-40 0 -67 28l-51 38l-52 -38q-26 -28 -67 -28h-13q-18 0 -28 6zM309 -174q-17 17 -17 41q0 23 17 40t41 17t41 -17t17 -40q0 -24 -17 -41t-41 -17t-41 17z" />
    <glyph glyph-name="uni1EC7" unicode="&#x1ec7;" horiz-adv-x="700" 
d="M215 545v-105q0 -40 40 -40h255q40 0 40 -40v-35q0 -40 -40 -40h-255q-40 0 -40 -40v-90q0 -40 40 -40h305q40 0 40 -40v-35q0 -40 -40 -40h-420q-40 0 -40 40v620q0 40 40 40h420q40 0 40 -40v-35q0 -40 -40 -40h-305q-40 0 -40 -40zM191 749q-10 6 -10 17q0 7 6 19
l95 98q15 29 55 29h27q41 0 55 -29l95 -98q5 -9 5 -18q0 -12 -11 -18t-31 -6h-8q-40 0 -67 28l-51 38l-52 -38q-26 -28 -67 -28h-13q-18 0 -28 6zM309 -174q-17 17 -17 41q0 23 17 40t41 17t41 -17t17 -40q0 -24 -17 -41t-41 -17t-41 17z" />
    <glyph glyph-name="uni1EC8" unicode="&#x1ec8;" horiz-adv-x="400" 
d="M217 700h-34q-40 0 -40 -40v-620q0 -40 40 -40h34q40 0 40 40v620q0 40 -40 40zM205 750h-6q-12 0 -21 7t-9 20q0 5 1 7q3 20 14.5 33.5t29.5 26.5q12 9 15 13t3 9q-2 9 -9 11.5t-14 -0.5t-11 -9.5t-10 -11t-17 -4.5h-8q-11 0 -20 6.5t-9 19.5q0 3 1 8q7 23 28 38t51 15
q41 0 63 -22q21 -20 21 -51q0 -19 -7 -33t-16 -22.5t-21 -18.5q-10 -7 -14 -11t-5 -8q-3 -10 -10 -16.5t-20 -6.5z" />
    <glyph glyph-name="uni1EC9" unicode="&#x1ec9;" horiz-adv-x="400" 
d="M240 700h-34q-40 0 -40 -40v-620q0 -40 40 -40h34q40 0 40 40v620q0 40 -40 40zM228 752h-6q-11 0 -19.5 6.5t-8.5 18.5q0 5 1 7q3 19 14.5 32.5t28.5 25.5q12 9 15.5 13.5t3.5 10.5q0 5 -1 6q-4 4 -18 4q-7 0 -11.5 -2t-6.5 -4q-5 -7 -10.5 -11.5t-15.5 -4.5h-7
q-11 0 -19.5 6t-8.5 18q0 3 1 8q7 22 27.5 36.5t50.5 14.5q40 0 61 -21q20 -20 20 -50q0 -18 -7 -32t-15.5 -22.5t-21.5 -17.5q-10 -8 -14 -12t-5 -8q-3 -10 -9.5 -16t-18.5 -6z" />
    <glyph glyph-name="uni1ECA" unicode="&#x1eca;" horiz-adv-x="400" 
d="M217 700h-34q-40 0 -40 -40v-620q0 -40 40 -40h34q40 0 40 40v620q0 40 -40 40zM159 -174q-17 17 -17 41q0 23 17 40t41 17t41 -17t17 -40q0 -24 -17 -41t-41 -17t-41 17z" />
    <glyph glyph-name="uni1ECB" unicode="&#x1ecb;" horiz-adv-x="400" 
d="M218 700h-34q-40 0 -40 -40v-620q0 -40 40 -40h34q40 0 40 40v620q0 40 -40 40zM160 -174q-17 17 -17 41q0 23 17 40t41 17t41 -17t17 -40q0 -24 -17 -41t-41 -17t-41 17z" />
    <glyph glyph-name="uni1ECC" unicode="&#x1ecc;" 
d="M580.5 38.5q82.5 48.5 131 131t48.5 180.5t-48.5 180.5t-131 131t-180.5 48.5t-180.5 -48.5t-131 -131t-48.5 -180.5t48.5 -180.5t131 -131t180.5 -48.5t180.5 48.5zM522.5 562q56.5 -33 89.5 -89.5t33 -122.5t-33 -122.5t-89.5 -89.5t-122.5 -33t-122.5 33t-89.5 89.5
t-33 122.5t33 122.5t89.5 89.5t122.5 33t122.5 -33zM359 -174q-17 17 -17 41q0 23 17 40t41 17t41 -17t17 -40q0 -24 -17 -41t-41 -17t-41 17z" />
    <glyph glyph-name="uni1ECD" unicode="&#x1ecd;" 
d="M580.5 38.5q82.5 48.5 131 131t48.5 180.5t-48.5 180.5t-131 131t-180.5 48.5t-180.5 -48.5t-131 -131t-48.5 -180.5t48.5 -180.5t131 -131t180.5 -48.5t180.5 48.5zM522.5 562q56.5 -33 89.5 -89.5t33 -122.5t-33 -122.5t-89.5 -89.5t-122.5 -33t-122.5 33t-89.5 89.5
t-33 122.5t33 122.5t89.5 89.5t122.5 33t122.5 -33zM359 -174q-17 17 -17 41q0 23 17 40t41 17t41 -17t17 -40q0 -24 -17 -41t-41 -17t-41 17z" />
    <glyph glyph-name="uni1ECE" unicode="&#x1ece;" 
d="M580.5 38.5q82.5 48.5 131 131t48.5 180.5t-48.5 180.5t-131 131t-180.5 48.5t-180.5 -48.5t-131 -131t-48.5 -180.5t48.5 -180.5t131 -131t180.5 -48.5t180.5 48.5zM522.5 562q56.5 -33 89.5 -89.5t33 -122.5t-33 -122.5t-89.5 -89.5t-122.5 -33t-122.5 33t-89.5 89.5
t-33 122.5t33 122.5t89.5 89.5t122.5 33t122.5 -33zM420 752h-6q-12 0 -21 7t-9 20q0 4 1 7q4 20 15.5 33.5t28.5 25.5q12 9 15 13t3 9q-2 9 -9 11.5t-14 -0.5t-11 -9t-10 -11t-17 -5h-7q-12 0 -21 7t-9 20q0 3 1 8q7 23 28 37.5t52 14.5q40 0 63 -21q20 -21 20 -51
q0 -19 -7 -33t-16 -23t-21 -18q-10 -8 -14 -12t-5 -7q-3 -10 -10 -16.5t-20 -6.5z" />
    <glyph glyph-name="uni1ECF" unicode="&#x1ecf;" 
d="M580.5 38.5q82.5 48.5 131 131t48.5 180.5t-48.5 180.5t-131 131t-180.5 48.5t-180.5 -48.5t-131 -131t-48.5 -180.5t48.5 -180.5t131 -131t180.5 -48.5t180.5 48.5zM522.5 562q56.5 -33 89.5 -89.5t33 -122.5t-33 -122.5t-89.5 -89.5t-122.5 -33t-122.5 33t-89.5 89.5
t-33 122.5t33 122.5t89.5 89.5t122.5 33t122.5 -33zM420 752h-6q-12 0 -21 7t-9 20q0 5 1 7q3 20 14.5 33.5t29.5 26.5q12 9 15 13t3 9q-2 9 -9 11.5t-14 -0.5t-11 -9.5t-10 -11t-17 -4.5h-8q-11 0 -20 6.5t-9 19.5q0 3 1 8q7 23 28 38t51 15q41 0 63 -22q21 -20 21 -51
q0 -19 -7 -33t-16 -22.5t-21 -18.5q-10 -7 -14 -11t-5 -8q-3 -10 -10 -16.5t-20 -6.5z" />
    <glyph glyph-name="uni1ED0" unicode="&#x1ed0;" 
d="M580.5 38.5q82.5 48.5 131 131t48.5 180.5t-48.5 180.5t-131 131t-180.5 48.5t-180.5 -48.5t-131 -131t-48.5 -180.5t48.5 -180.5t131 -131t180.5 -48.5t180.5 48.5zM522.5 562q56.5 -33 89.5 -89.5t33 -122.5t-33 -122.5t-89.5 -89.5t-122.5 -33t-122.5 33t-89.5 89.5
t-33 122.5t33 122.5t89.5 89.5t122.5 33t122.5 -33zM241 749q-10 6 -10 17q0 7 6 19l95 98q15 29 55 29h27q41 0 55 -29l95 -98q5 -9 5 -18q0 -12 -11 -18t-31 -6h-8q-40 0 -67 28l-51 38l-52 -38q-26 -28 -67 -28h-13q-18 0 -28 6zM740 921l-149 -88q-10 -7 -21 -1t-21 20
q-20 30 -4 44l134 110q19 16 42 -18l16 -22q24 -34 3 -45z" />
    <glyph glyph-name="uni1ED1" unicode="&#x1ed1;" 
d="M580.5 38.5q82.5 48.5 131 131t48.5 180.5t-48.5 180.5t-131 131t-180.5 48.5t-180.5 -48.5t-131 -131t-48.5 -180.5t48.5 -180.5t131 -131t180.5 -48.5t180.5 48.5zM522.5 562q56.5 -33 89.5 -89.5t33 -122.5t-33 -122.5t-89.5 -89.5t-122.5 -33t-122.5 33t-89.5 89.5
t-33 122.5t33 122.5t89.5 89.5t122.5 33t122.5 -33zM241 749q-10 6 -10 17q0 7 6 19l95 98q15 29 55 29h27q41 0 55 -29l95 -98q5 -9 5 -18q0 -12 -11 -18t-31 -6h-8q-40 0 -67 28l-51 38l-52 -38q-26 -28 -67 -28h-13q-18 0 -28 6zM740 921l-150 -88q-9 -7 -20 -1t-21 20
q-20 30 -4 44l134 111q18 15 42 -18l16 -23q24 -33 3 -45z" />
    <glyph glyph-name="uni1ED2" unicode="&#x1ed2;" 
d="M580.5 38.5q82.5 48.5 131 131t48.5 180.5t-48.5 180.5t-131 131t-180.5 48.5t-180.5 -48.5t-131 -131t-48.5 -180.5t48.5 -180.5t131 -131t180.5 -48.5t180.5 48.5zM522.5 562q56.5 -33 89.5 -89.5t33 -122.5t-33 -122.5t-89.5 -89.5t-122.5 -33t-122.5 33t-89.5 89.5
t-33 122.5t33 122.5t89.5 89.5t122.5 33t122.5 -33zM241 749q-10 6 -10 17q0 7 6 19l95 98q15 29 55 29h27q41 0 55 -29l95 -98q5 -9 5 -18q0 -12 -11 -18t-31 -6h-8q-40 0 -67 28l-51 38l-52 -38q-26 -28 -67 -28h-13q-18 0 -28 6zM68 963l15 22q24 34 42 18l134 -110
q17 -14 -4 -44q-10 -14 -20.5 -20t-20.5 1l-149 88q-21 11 3 45z" />
    <glyph glyph-name="uni1ED3" unicode="&#x1ed3;" 
d="M580.5 38.5q82.5 48.5 131 131t48.5 180.5t-48.5 180.5t-131 131t-180.5 48.5t-180.5 -48.5t-131 -131t-48.5 -180.5t48.5 -180.5t131 -131t180.5 -48.5t180.5 48.5zM522.5 562q56.5 -33 89.5 -89.5t33 -122.5t-33 -122.5t-89.5 -89.5t-122.5 -33t-122.5 33t-89.5 89.5
t-33 122.5t33 122.5t89.5 89.5t122.5 33t122.5 -33zM241 749q-10 6 -10 17q0 7 6 19l95 98q15 29 55 29h27q41 0 55 -29l95 -98q5 -9 5 -18q0 -12 -11 -18t-31 -6h-8q-40 0 -67 28l-51 38l-52 -38q-26 -28 -67 -28h-13q-18 0 -28 6zM67 963l16 23q24 33 42 18l134 -111
q17 -14 -4 -44q-10 -14 -20.5 -20t-20.5 1l-149 88q-21 12 2 45z" />
    <glyph glyph-name="uni1ED4" unicode="&#x1ed4;" 
d="M580.5 38.5q82.5 48.5 131 131t48.5 180.5t-48.5 180.5t-131 131t-180.5 48.5t-180.5 -48.5t-131 -131t-48.5 -180.5t48.5 -180.5t131 -131t180.5 -48.5t180.5 48.5zM522.5 562q56.5 -33 89.5 -89.5t33 -122.5t-33 -122.5t-89.5 -89.5t-122.5 -33t-122.5 33t-89.5 89.5
t-33 122.5t33 122.5t89.5 89.5t122.5 33t122.5 -33zM241 749q-10 6 -10 17q0 7 6 19l95 98q15 29 55 29h27q41 0 55 -29l95 -98q5 -9 5 -18q0 -12 -11 -18t-31 -6h-8q-40 0 -67 28l-51 38l-52 -38q-26 -28 -67 -28h-13q-18 0 -28 6zM591 847h-6q-12 0 -21 7t-9 20q0 5 1 7
q3 20 14.5 33.5t29.5 26.5q12 9 15 13t3 9q-2 9 -9 11.5t-14 -0.5t-11 -9t-10 -11t-17 -5h-8q-11 0 -20 6.5t-9 19.5q0 3 1 8q7 23 28 38t51 15q41 0 63 -22q21 -20 21 -51q0 -19 -7 -33t-16 -22.5t-21 -18.5q-10 -7 -14 -11t-5 -8q-3 -10 -10 -16.5t-20 -6.5z" />
    <glyph glyph-name="uni1ED5" unicode="&#x1ed5;" 
d="M580.5 38.5q82.5 48.5 131 131t48.5 180.5t-48.5 180.5t-131 131t-180.5 48.5t-180.5 -48.5t-131 -131t-48.5 -180.5t48.5 -180.5t131 -131t180.5 -48.5t180.5 48.5zM522.5 562q56.5 -33 89.5 -89.5t33 -122.5t-33 -122.5t-89.5 -89.5t-122.5 -33t-122.5 33t-89.5 89.5
t-33 122.5t33 122.5t89.5 89.5t122.5 33t122.5 -33zM241 749q-10 6 -10 17q0 7 6 19l95 98q15 29 55 29h27q41 0 55 -29l95 -98q5 -9 5 -18q0 -12 -11 -18t-31 -6h-8q-40 0 -67 28l-51 38l-52 -38q-26 -28 -67 -28h-13q-18 0 -28 6zM591 847h-6q-12 0 -21 7t-9 20q0 5 1 7
q3 20 14.5 33.5t29.5 26.5q12 9 15 13t3 9q-2 9 -9 11.5t-14 -0.5t-11 -9.5t-10 -11t-17 -4.5h-8q-11 0 -20 6.5t-9 19.5q0 3 1 8q7 23 28 38t51 15q41 0 63 -22q21 -20 21 -51q0 -19 -7 -33t-16 -22.5t-21 -18.5q-10 -7 -14 -11t-5 -8q-3 -10 -10 -16.5t-20 -6.5z" />
    <glyph glyph-name="uni1ED6" unicode="&#x1ed6;" 
d="M580.5 38.5q82.5 48.5 131 131t48.5 180.5t-48.5 180.5t-131 131t-180.5 48.5t-180.5 -48.5t-131 -131t-48.5 -180.5t48.5 -180.5t131 -131t180.5 -48.5t180.5 48.5zM522.5 562q56.5 -33 89.5 -89.5t33 -122.5t-33 -122.5t-89.5 -89.5t-122.5 -33t-122.5 33t-89.5 89.5
t-33 122.5t33 122.5t89.5 89.5t122.5 33t122.5 -33zM241 749q-10 6 -10 17q0 7 6 19l95 98q15 29 55 29h27q41 0 55 -29l95 -98q5 -9 5 -18q0 -12 -11 -18t-31 -6h-8q-40 0 -67 28l-51 38l-52 -38q-26 -28 -67 -28h-13q-18 0 -28 6zM531 860q-38 11 -26 48q25 97 127 86
q33 -3 61 -25q58 -46 78 -1q11 41 53 34q42 -8 34 -51q-10 -65 -79 -88q-56 -19 -104 16q-54 47 -94 4q-14 -34 -50 -23z" />
    <glyph glyph-name="uni1ED7" unicode="&#x1ed7;" 
d="M580.5 38.5q82.5 48.5 131 131t48.5 180.5t-48.5 180.5t-131 131t-180.5 48.5t-180.5 -48.5t-131 -131t-48.5 -180.5t48.5 -180.5t131 -131t180.5 -48.5t180.5 48.5zM522.5 562q56.5 -33 89.5 -89.5t33 -122.5t-33 -122.5t-89.5 -89.5t-122.5 -33t-122.5 33t-89.5 89.5
t-33 122.5t33 122.5t89.5 89.5t122.5 33t122.5 -33zM241 749q-10 6 -10 17q0 7 6 19l95 98q15 29 55 29h27q41 0 55 -29l95 -98q5 -9 5 -18q0 -12 -11 -18t-31 -6h-8q-40 0 -67 28l-51 38l-52 -38q-26 -28 -67 -28h-13q-18 0 -28 6zM531 860q-38 12 -25 49q25 96 126 85
q33 -3 61 -24q58 -47 78 -2q11 41 53 34q42 -8 35 -51q-11 -65 -80 -88q-56 -19 -104 16q-54 47 -94 4q-14 -34 -50 -23z" />
    <glyph glyph-name="uni1ED8" unicode="&#x1ed8;" 
d="M580.5 38.5q82.5 48.5 131 131t48.5 180.5t-48.5 180.5t-131 131t-180.5 48.5t-180.5 -48.5t-131 -131t-48.5 -180.5t48.5 -180.5t131 -131t180.5 -48.5t180.5 48.5zM522.5 562q56.5 -33 89.5 -89.5t33 -122.5t-33 -122.5t-89.5 -89.5t-122.5 -33t-122.5 33t-89.5 89.5
t-33 122.5t33 122.5t89.5 89.5t122.5 33t122.5 -33zM241 749q-10 6 -10 17q0 7 6 19l95 98q15 29 55 29h27q41 0 55 -29l95 -98q5 -9 5 -18q0 -12 -11 -18t-31 -6h-8q-40 0 -67 28l-51 38l-52 -38q-26 -28 -67 -28h-13q-18 0 -28 6zM359 -174q-17 17 -17 41q0 23 17 40
t41 17t41 -17t17 -40q0 -24 -17 -41t-41 -17t-41 17z" />
    <glyph glyph-name="uni1ED9" unicode="&#x1ed9;" 
d="M580.5 38.5q82.5 48.5 131 131t48.5 180.5t-48.5 180.5t-131 131t-180.5 48.5t-180.5 -48.5t-131 -131t-48.5 -180.5t48.5 -180.5t131 -131t180.5 -48.5t180.5 48.5zM522.5 562q56.5 -33 89.5 -89.5t33 -122.5t-33 -122.5t-89.5 -89.5t-122.5 -33t-122.5 33t-89.5 89.5
t-33 122.5t33 122.5t89.5 89.5t122.5 33t122.5 -33zM241 749q-10 6 -10 17q0 7 6 19l95 98q15 29 55 29h27q41 0 55 -29l95 -98q5 -9 5 -18q0 -12 -11 -18t-31 -6h-8q-40 0 -67 28l-51 38l-52 -38q-26 -28 -67 -28h-13q-18 0 -28 6zM359 -174q-17 17 -17 41q0 23 17 40
t41 17t41 -17t17 -40q0 -24 -17 -41t-41 -17t-41 17z" />
    <glyph glyph-name="uni1EDA" unicode="&#x1eda;" 
d="M612 472.5q33 -56.5 33 -122.5t-33 -122.5t-89.5 -89.5t-122.5 -33t-122.5 33t-89.5 89.5t-33 122.5t33 122.5t89.5 89.5t122.5 33t122.5 -33t89.5 -89.5zM692 681q23 40 23 91q0 34 -34 34h-20q-34 0 -34 -34q0 -27 -11.5 -47t-31.5 -32q-17 -10 -43 -12q-66 29 -141 29
q-98 0 -180.5 -48.5t-131 -131t-48.5 -180.5t48.5 -180.5t131 -131t180.5 -48.5t180.5 48.5t131 131t48.5 180.5t-48 181q-32 52 -77 91q35 23 57 59zM497 841l-149 -88q-10 -7 -21 -1t-20 20q-21 30 -4 44l134 111q18 15 42 -18l15 -23q24 -33 3 -45z" />
    <glyph glyph-name="uni1EDB" unicode="&#x1edb;" 
d="M612 472.5q33 -56.5 33 -122.5t-33 -122.5t-89.5 -89.5t-122.5 -33t-122.5 33t-89.5 89.5t-33 122.5t33 122.5t89.5 89.5t122.5 33t122.5 -33t89.5 -89.5zM692 681q23 40 23 91q0 34 -34 34h-20q-34 0 -34 -34q0 -27 -11.5 -47t-31.5 -32q-17 -10 -43 -12q-66 29 -141 29
q-98 0 -180.5 -48.5t-131 -131t-48.5 -180.5t48.5 -180.5t131 -131t180.5 -48.5t180.5 48.5t131 131t48.5 180.5t-48 181q-32 52 -77 91q35 23 57 59zM497 841l-150 -88q-9 -7 -20 -1t-21 20q-20 30 -4 44l134 111q18 15 42 -18l16 -23q24 -33 3 -45z" />
    <glyph glyph-name="uni1EDC" unicode="&#x1edc;" 
d="M612 472.5q33 -56.5 33 -122.5t-33 -122.5t-89.5 -89.5t-122.5 -33t-122.5 33t-89.5 89.5t-33 122.5t33 122.5t89.5 89.5t122.5 33t122.5 -33t89.5 -89.5zM692 681q23 40 23 91q0 34 -34 34h-20q-34 0 -34 -34q0 -27 -11.5 -47t-31.5 -32q-17 -10 -43 -12q-66 29 -141 29
q-98 0 -180.5 -48.5t-131 -131t-48.5 -180.5t48.5 -180.5t131 -131t180.5 -48.5t180.5 48.5t131 131t48.5 180.5t-48 181q-32 52 -77 91q35 23 57 59zM287 889l16 23q24 33 42 18l134 -111q17 -14 -4 -44q-10 -14 -20.5 -20t-20.5 1l-149 88q-21 12 2 45z" />
    <glyph glyph-name="uni1EDD" unicode="&#x1edd;" 
d="M612 472.5q33 -56.5 33 -122.5t-33 -122.5t-89.5 -89.5t-122.5 -33t-122.5 33t-89.5 89.5t-33 122.5t33 122.5t89.5 89.5t122.5 33t122.5 -33t89.5 -89.5zM692 681q23 40 23 91q0 34 -34 34h-20q-34 0 -34 -34q0 -27 -11.5 -47t-31.5 -32q-17 -10 -43 -12q-66 29 -141 29
q-98 0 -180.5 -48.5t-131 -131t-48.5 -180.5t48.5 -180.5t131 -131t180.5 -48.5t180.5 48.5t131 131t48.5 180.5t-48 181q-32 52 -77 91q35 23 57 59zM288 889l15 23q24 33 42 18l134 -111q17 -14 -4 -43q-10 -14 -20.5 -20.5t-20.5 0.5l-149 88q-21 12 3 45z" />
    <glyph glyph-name="uni1EDE" unicode="&#x1ede;" 
d="M612 472.5q33 -56.5 33 -122.5t-33 -122.5t-89.5 -89.5t-122.5 -33t-122.5 33t-89.5 89.5t-33 122.5t33 122.5t89.5 89.5t122.5 33t122.5 -33t89.5 -89.5zM692 681q23 40 23 91q0 34 -34 34h-20q-34 0 -34 -34q0 -27 -11.5 -47t-31.5 -32q-17 -10 -43 -12q-66 29 -141 29
q-98 0 -180.5 -48.5t-131 -131t-48.5 -180.5t48.5 -180.5t131 -131t180.5 -48.5t180.5 48.5t131 131t48.5 180.5t-48 181q-32 52 -77 91q35 23 57 59zM372 739h-6q-12 0 -21 7t-9 20q0 5 1 7q4 20 15.5 33.5t28.5 26.5q12 9 15 13t3 9q-2 9 -9 11.5t-14 -0.5t-11 -9.5
t-10 -11t-17 -4.5h-7q-12 0 -21 6.5t-9 19.5q0 3 1 8q7 23 28 38t52 15q40 0 63 -22q20 -20 20 -51q0 -19 -7 -33t-16 -22.5t-21 -18.5q-10 -7 -14 -11t-5 -8q-3 -10 -10 -16.5t-20 -6.5z" />
    <glyph glyph-name="uni1EDF" unicode="&#x1edf;" 
d="M612 472.5q33 -56.5 33 -122.5t-33 -122.5t-89.5 -89.5t-122.5 -33t-122.5 33t-89.5 89.5t-33 122.5t33 122.5t89.5 89.5t122.5 33t122.5 -33t89.5 -89.5zM692 681q23 40 23 91q0 34 -34 34h-20q-34 0 -34 -34q0 -27 -11.5 -47t-31.5 -32q-17 -10 -43 -12q-66 29 -141 29
q-98 0 -180.5 -48.5t-131 -131t-48.5 -180.5t48.5 -180.5t131 -131t180.5 -48.5t180.5 48.5t131 131t48.5 180.5t-48 181q-32 52 -77 91q35 23 57 59zM372 739h-6q-12 0 -21 7t-9 20q0 5 1 7q3 20 14.5 33.5t29.5 26.5q12 9 15 13t3 9q-2 9 -9 11.5t-14 -0.5t-11 -9.5
t-10 -11t-17 -4.5h-8q-11 0 -20 6.5t-9 19.5q0 3 1 8q7 23 28 38t51 15q41 0 63 -22q21 -20 21 -51q0 -19 -7 -33t-16 -22.5t-21 -18.5q-10 -7 -14 -11t-5 -8q-3 -10 -10 -16.5t-20 -6.5z" />
    <glyph glyph-name="uni1EE0" unicode="&#x1ee0;" 
d="M612 472.5q33 -56.5 33 -122.5t-33 -122.5t-89.5 -89.5t-122.5 -33t-122.5 33t-89.5 89.5t-33 122.5t33 122.5t89.5 89.5t122.5 33t122.5 -33t89.5 -89.5zM692 681q23 40 23 91q0 34 -34 34h-20q-34 0 -34 -34q0 -27 -11.5 -47t-31.5 -32q-17 -10 -43 -12q-66 29 -141 29
q-98 0 -180.5 -48.5t-131 -131t-48.5 -180.5t48.5 -180.5t131 -131t180.5 -48.5t180.5 48.5t131 131t48.5 180.5t-48 181q-32 52 -77 91q35 23 57 59zM213 766q-38 12 -26 49q25 96 127 85q33 -3 61 -24q58 -47 78 -2q11 41 53 34q42 -8 34 -51q-10 -65 -79 -88
q-56 -19 -104 16q-54 47 -94 4q-14 -34 -50 -23z" />
    <glyph glyph-name="uni1EE1" unicode="&#x1ee1;" 
d="M612 472.5q33 -56.5 33 -122.5t-33 -122.5t-89.5 -89.5t-122.5 -33t-122.5 33t-89.5 89.5t-33 122.5t33 122.5t89.5 89.5t122.5 33t122.5 -33t89.5 -89.5zM692 681q23 40 23 91q0 34 -34 34h-20q-34 0 -34 -34q0 -27 -11.5 -47t-31.5 -32q-17 -10 -43 -12q-66 29 -141 29
q-98 0 -180.5 -48.5t-131 -131t-48.5 -180.5t48.5 -180.5t131 -131t180.5 -48.5t180.5 48.5t131 131t48.5 180.5t-48 181q-32 52 -77 91q35 23 57 59zM213 766q-38 12 -25 49q25 96 126 85q33 -3 61 -24q58 -47 78 -2q11 41 53 34q42 -8 35 -51q-11 -65 -80 -88
q-56 -19 -104 16q-54 47 -94 4q-14 -34 -50 -23z" />
    <glyph glyph-name="uni1EE2" unicode="&#x1ee2;" 
d="M612 472.5q33 -56.5 33 -122.5t-33 -122.5t-89.5 -89.5t-122.5 -33t-122.5 33t-89.5 89.5t-33 122.5t33 122.5t89.5 89.5t122.5 33t122.5 -33t89.5 -89.5zM692 681q23 40 23 91q0 34 -34 34h-20q-34 0 -34 -34q0 -27 -11.5 -47t-31.5 -32q-17 -10 -43 -12q-66 29 -141 29
q-98 0 -180.5 -48.5t-131 -131t-48.5 -180.5t48.5 -180.5t131 -131t180.5 -48.5t180.5 48.5t131 131t48.5 180.5t-48 181q-32 52 -77 91q35 23 57 59zM322 -174q-17 17 -17 41q0 23 17 40t41 17t41 -17t17 -40q0 -24 -17 -41t-41 -17t-41 17z" />
    <glyph glyph-name="uni1EE3" unicode="&#x1ee3;" 
d="M612 472.5q33 -56.5 33 -122.5t-33 -122.5t-89.5 -89.5t-122.5 -33t-122.5 33t-89.5 89.5t-33 122.5t33 122.5t89.5 89.5t122.5 33t122.5 -33t89.5 -89.5zM692 681q23 40 23 91q0 34 -34 34h-20q-34 0 -34 -34q0 -27 -11.5 -47t-31.5 -32q-17 -10 -43 -12q-66 29 -141 29
q-98 0 -180.5 -48.5t-131 -131t-48.5 -180.5t48.5 -180.5t131 -131t180.5 -48.5t180.5 48.5t131 131t48.5 180.5t-48 181q-32 52 -77 91q35 23 57 59zM322 -174q-17 17 -17 41q0 23 17 40t41 17t41 -17t17 -40q0 -24 -17 -41t-41 -17t-41 17z" />
    <glyph glyph-name="uni1EE4" unicode="&#x1ee4;" horiz-adv-x="700" 
d="M634 660v-386q0 -77 -38 -142.5t-103.5 -103.5t-142.5 -38t-142.5 38t-103.5 103.5t-38 142.5v386q0 40 40 40h34q40 0 40 -40v-386q0 -46 23 -85t62 -62t85 -23t85 23t62 62t23 85v386q0 40 40 40h34q40 0 40 -40zM309 -174q-17 17 -17 41q0 23 17 40t41 17t41 -17
t17 -40q0 -24 -17 -41t-41 -17t-41 17z" />
    <glyph glyph-name="uni1EE5" unicode="&#x1ee5;" horiz-adv-x="700" 
d="M634 660v-386q0 -77 -38 -142.5t-103.5 -103.5t-142.5 -38t-142.5 38t-103.5 103.5t-38 142.5v386q0 40 40 40h34q40 0 40 -40v-386q0 -46 23 -85t62 -62t85 -23t85 23t62 62t23 85v386q0 40 40 40h34q40 0 40 -40zM309 -174q-17 17 -17 41q0 23 17 40t41 17t41 -17
t17 -40q0 -24 -17 -41t-41 -17t-41 17z" />
    <glyph glyph-name="uni1EE6" unicode="&#x1ee6;" horiz-adv-x="700" 
d="M634 660v-386q0 -77 -38 -142.5t-103.5 -103.5t-142.5 -38t-142.5 38t-103.5 103.5t-38 142.5v386q0 40 40 40h34q40 0 40 -40v-386q0 -46 23 -85t62 -62t85 -23t85 23t62 62t23 85v386q0 40 40 40h34q40 0 40 -40zM339 739h-6q-12 0 -21 7t-9 20q0 5 1 7q4 20 15.5 33.5
t28.5 26.5q12 9 15 13t3 9q-2 9 -9 11.5t-14 -0.5t-11 -9.5t-10 -11t-17 -4.5h-7q-12 0 -21 6.5t-9 19.5q0 3 1 8q7 23 28 38t52 15q40 0 63 -22q20 -20 20 -51q0 -19 -7 -33t-16 -22.5t-21 -18.5q-10 -7 -14 -11t-5 -8q-3 -10 -10 -16.5t-20 -6.5z" />
    <glyph glyph-name="uni1EE7" unicode="&#x1ee7;" horiz-adv-x="700" 
d="M634 660v-386q0 -77 -38 -142.5t-103.5 -103.5t-142.5 -38t-142.5 38t-103.5 103.5t-38 142.5v386q0 40 40 40h34q40 0 40 -40v-386q0 -46 23 -85t62 -62t85 -23t85 23t62 62t23 85v386q0 40 40 40h34q40 0 40 -40zM339 739h-6q-12 0 -21 7t-9 20q0 5 1 7q3 20 14.5 33.5
t29.5 26.5q12 9 15 13t3 9q-2 9 -9 11.5t-14 -0.5t-11 -9.5t-10 -11t-17 -4.5h-8q-11 0 -20 6.5t-9 19.5q0 3 1 8q7 23 28 38t51 15q41 0 63 -22q21 -20 21 -51q0 -19 -7 -33t-16 -22.5t-21 -18.5q-10 -7 -14 -11t-5 -8q-3 -10 -10 -16.5t-20 -6.5z" />
    <glyph glyph-name="uni1EE8" unicode="&#x1ee8;" horiz-adv-x="700" 
d="M634 612v-338q0 -77 -38 -142.5t-103.5 -103.5t-142.5 -38t-142.5 38t-103.5 103.5t-38 142.5v386q0 40 40 40h34q40 0 40 -40v-386q0 -46 23 -85t62 -62t85 -23t85 23t62 62t23 85v386q0 40 40 40h34q8 0 14 -1q14 10 24 26q11 20 11 47q0 34 34 34h20q34 0 34 -34
q0 -51 -23.5 -91t-63.5 -63zM514 841l-149 -88q-9 -7 -20 -1t-21 20q-21 30 -4 44l134 111q18 15 42 -18l16 -23q23 -33 2 -45z" />
    <glyph glyph-name="uni1EE9" unicode="&#x1ee9;" horiz-adv-x="700" 
d="M634 612v-338q0 -77 -38 -142.5t-103.5 -103.5t-142.5 -38t-142.5 38t-103.5 103.5t-38 142.5v386q0 40 40 40h34q40 0 40 -40v-386q0 -46 23 -85t62 -62t85 -23t85 23t62 62t23 85v386q0 40 40 40h34q8 0 14 -1q14 10 24 26q11 20 11 47q0 34 34 34h20q34 0 34 -34
q0 -51 -23.5 -91t-63.5 -63zM515 841l-150 -88q-9 -7 -20 -1t-21 20q-20 30 -4 44l134 111q18 15 42 -18l16 -23q24 -33 3 -45z" />
    <glyph glyph-name="uni1EEA" unicode="&#x1eea;" horiz-adv-x="700" 
d="M634 612v-338q0 -77 -38 -142.5t-103.5 -103.5t-142.5 -38t-142.5 38t-103.5 103.5t-38 142.5v386q0 40 40 40h34q40 0 40 -40v-386q0 -46 23 -85t62 -62t85 -23t85 23t62 62t23 85v386q0 40 40 40h34q8 0 14 -1q14 10 24 26q11 20 11 47q0 34 34 34h20q34 0 34 -34
q0 -51 -23.5 -91t-63.5 -63zM249 886l16 23q24 33 42 18l134 -111q17 -14 -4 -44q-10 -14 -21 -20t-20 1l-149 88q-21 12 2 45z" />
    <glyph glyph-name="uni1EEB" unicode="&#x1eeb;" horiz-adv-x="700" 
d="M634 612v-338q0 -77 -38 -142.5t-103.5 -103.5t-142.5 -38t-142.5 38t-103.5 103.5t-38 142.5v386q0 40 40 40h34q40 0 40 -40v-386q0 -46 23 -85t62 -62t85 -23t85 23t62 62t23 85v386q0 40 40 40h34q8 0 14 -1q14 10 24 26q11 20 11 47q0 34 34 34h20q34 0 34 -34
q0 -51 -23.5 -91t-63.5 -63zM249 886l16 23q24 33 42 18l134 -111q17 -14 -4 -44q-10 -14 -20.5 -20t-20.5 1l-149 88q-21 12 2 45z" />
    <glyph glyph-name="uni1EEC" unicode="&#x1eec;" horiz-adv-x="700" 
d="M634 612v-338q0 -77 -38 -142.5t-103.5 -103.5t-142.5 -38t-142.5 38t-103.5 103.5t-38 142.5v386q0 40 40 40h34q40 0 40 -40v-386q0 -46 23 -85t62 -62t85 -23t85 23t62 62t23 85v386q0 40 40 40h34q8 0 14 -1q14 10 24 26q11 20 11 47q0 34 34 34h20q34 0 34 -34
q0 -51 -23.5 -91t-63.5 -63zM383 739h-7q-11 0 -20 7t-9 20q0 5 1 7q3 20 14.5 33.5t28.5 26.5q12 9 15 13t3 9q-1 9 -8.5 11.5t-14.5 -0.5t-11 -9.5t-9.5 -11t-17.5 -4.5h-7q-11 0 -20 6.5t-9 19.5q0 3 1 8q7 23 28 38t51 15q41 0 63 -22q20 -20 20 -51q0 -19 -7 -33
t-15.5 -22.5t-21.5 -18.5q-10 -7 -13.5 -11t-5.5 -8q-3 -10 -9.5 -16.5t-19.5 -6.5z" />
    <glyph glyph-name="uni1EED" unicode="&#x1eed;" horiz-adv-x="700" 
d="M634 612v-338q0 -77 -38 -142.5t-103.5 -103.5t-142.5 -38t-142.5 38t-103.5 103.5t-38 142.5v386q0 40 40 40h34q40 0 40 -40v-386q0 -46 23 -85t62 -62t85 -23t85 23t62 62t23 85v386q0 40 40 40h34q8 0 14 -1q14 10 24 26q11 20 11 47q0 34 34 34h20q34 0 34 -34
q0 -51 -23.5 -91t-63.5 -63zM383 739h-6q-12 0 -21 7t-9 20q0 5 1 7q3 20 14.5 33.5t29.5 26.5q12 9 15 13t3 9q-2 9 -9 11.5t-14 -0.5t-11 -9.5t-10 -11t-17 -4.5h-8q-11 0 -20 6.5t-9 19.5q0 3 1 8q7 23 28 38t51 15q41 0 63 -22q21 -20 21 -51q0 -19 -7 -33t-16 -22.5
t-21 -18.5q-10 -7 -14 -11t-5 -8q-3 -10 -10 -16.5t-20 -6.5z" />
    <glyph glyph-name="uni1EEE" unicode="&#x1eee;" horiz-adv-x="700" 
d="M634 612v-338q0 -77 -38 -142.5t-103.5 -103.5t-142.5 -38t-142.5 38t-103.5 103.5t-38 142.5v386q0 40 40 40h34q40 0 40 -40v-386q0 -46 23 -85t62 -62t85 -23t85 23t62 62t23 85v386q0 40 40 40h34q8 0 14 -1q14 10 24 26q11 20 11 47q0 34 34 34h20q34 0 34 -34
q0 -51 -23.5 -91t-63.5 -63zM231 766q-37 12 -25 49q25 96 126 85q34 -3 61 -24q59 -47 78 -2q12 41 53 34q43 -8 35 -51q-10 -65 -80 -88q-56 -19 -104 16q-53 47 -93 4q-14 -34 -51 -23z" />
    <glyph glyph-name="uni1EEF" unicode="&#x1eef;" horiz-adv-x="700" 
d="M634 612v-338q0 -77 -38 -142.5t-103.5 -103.5t-142.5 -38t-142.5 38t-103.5 103.5t-38 142.5v386q0 40 40 40h34q40 0 40 -40v-386q0 -46 23 -85t62 -62t85 -23t85 23t62 62t23 85v386q0 40 40 40h34q8 0 14 -1q14 10 24 26q11 20 11 47q0 34 34 34h20q34 0 34 -34
q0 -51 -23.5 -91t-63.5 -63zM231 766q-38 12 -25 49q25 96 126 85q33 -3 61 -24q58 -47 78 -2q11 41 53 34q42 -8 35 -51q-11 -65 -80 -88q-56 -19 -104 16q-54 47 -94 4q-14 -34 -50 -23z" />
    <glyph glyph-name="uni1EF0" unicode="&#x1ef0;" horiz-adv-x="700" 
d="M634 612v-338q0 -77 -38 -142.5t-103.5 -103.5t-142.5 -38t-142.5 38t-103.5 103.5t-38 142.5v386q0 40 40 40h34q40 0 40 -40v-386q0 -46 23 -85t62 -62t85 -23t85 23t62 62t23 85v386q0 40 40 40h34q8 0 14 -1q14 10 24 26q11 20 11 47q0 34 34 34h20q34 0 34 -34
q0 -51 -23.5 -91t-63.5 -63zM341 -174q-17 17 -17 41q0 23 17 40t41 17t41 -17t17 -40q0 -24 -17 -41t-41 -17t-41 17z" />
    <glyph glyph-name="uni1EF1" unicode="&#x1ef1;" horiz-adv-x="700" 
d="M634 612v-338q0 -77 -38 -142.5t-103.5 -103.5t-142.5 -38t-142.5 38t-103.5 103.5t-38 142.5v386q0 40 40 40h34q40 0 40 -40v-386q0 -46 23 -85t62 -62t85 -23t85 23t62 62t23 85v386q0 40 40 40h34q8 0 14 -1q14 10 24 26q11 20 11 47q0 34 34 34h20q34 0 34 -34
q0 -51 -23.5 -91t-63.5 -63zM341 -174q-17 17 -17 41q0 23 17 40t41 17t41 -17t17 -40q0 -24 -17 -41t-41 -17t-41 17z" />
    <glyph glyph-name="Ygrave" unicode="&#x1ef2;" horiz-adv-x="750" 
d="M667.5 693.5q9.5 -6.5 9.5 -17.5t-11 -25l-226 -302q-17 -23 -17 -50v-259q0 -40 -40 -40h-32q-40 0 -40 40v259q0 28 -16 49l-214 303q-9 14 -9 25t9 17.5t25 6.5h47q16 0 27.5 -6t21.5 -19l138 -196q13 -18 28 -18t29 17l148 198q10 13 21 18.5t27 5.5h49
q16 0 25.5 -6.5zM246 886l16 23q23 33 42 18l134 -111q16 -14 -4 -44q-10 -14 -21 -20t-20 1l-150 88q-21 12 3 45z" />
    <glyph glyph-name="ygrave" unicode="&#x1ef3;" horiz-adv-x="750" 
d="M667.5 693.5q9.5 -6.5 9.5 -17.5t-11 -25l-226 -302q-17 -23 -17 -50v-259q0 -40 -40 -40h-32q-40 0 -40 40v259q0 28 -16 49l-214 303q-9 14 -9 25t9 17.5t25 6.5h47q16 0 27.5 -6t21.5 -19l138 -196q13 -18 28 -18t29 17l148 198q10 13 21 18.5t27 5.5h49
q16 0 25.5 -6.5zM246 886l16 23q24 33 42 18l134 -111q17 -14 -4 -44q-10 -14 -20.5 -20t-20.5 1l-149 88q-21 12 2 45z" />
    <glyph glyph-name="uni1EF4" unicode="&#x1ef4;" horiz-adv-x="750" 
d="M667.5 693.5q9.5 -6.5 9.5 -17.5t-11 -25l-226 -302q-17 -23 -17 -50v-259q0 -40 -40 -40h-32q-40 0 -40 40v259q0 28 -16 49l-214 303q-9 14 -9 25t9 17.5t25 6.5h47q16 0 27.5 -6t21.5 -19l138 -196q13 -18 28 -18t29 17l148 198q10 13 21 18.5t27 5.5h49
q16 0 25.5 -6.5zM334 -174q-17 17 -17 41q0 23 17 40t41 17t41 -17t17 -40q0 -24 -17 -41t-41 -17t-41 17z" />
    <glyph glyph-name="uni1EF5" unicode="&#x1ef5;" horiz-adv-x="750" 
d="M667.5 693.5q9.5 -6.5 9.5 -17.5t-11 -25l-226 -302q-17 -23 -17 -50v-259q0 -40 -40 -40h-32q-40 0 -40 40v259q0 28 -16 49l-214 303q-9 14 -9 25t9 17.5t25 6.5h47q16 0 27.5 -6t21.5 -19l138 -196q13 -18 28 -18t29 17l148 198q10 13 21 18.5t27 5.5h49
q16 0 25.5 -6.5zM334 -174q-17 17 -17 41q0 23 17 40t41 17t41 -17t17 -40q0 -24 -17 -41t-41 -17t-41 17z" />
    <glyph glyph-name="uni1EF6" unicode="&#x1ef6;" horiz-adv-x="750" 
d="M667.5 693.5q9.5 -6.5 9.5 -17.5t-11 -25l-226 -302q-17 -23 -17 -50v-259q0 -40 -40 -40h-32q-40 0 -40 40v259q0 28 -16 49l-214 303q-9 14 -9 25t9 17.5t25 6.5h47q16 0 27.5 -6t21.5 -19l138 -196q13 -18 28 -18t29 17l148 198q10 13 21 18.5t27 5.5h49
q16 0 25.5 -6.5zM364 739h-7q-11 0 -20 7t-9 20q0 5 1 7q3 20 14.5 33.5t28.5 26.5q12 9 15 13t3 9q-1 9 -8.5 11.5t-14.5 -0.5t-11 -9.5t-9.5 -11t-17.5 -4.5h-7q-11 0 -20 6.5t-9 19.5q0 3 1 8q7 23 28 38t51 15q41 0 63 -22q20 -20 20 -51q0 -19 -7 -33t-15.5 -22.5
t-21.5 -18.5q-10 -7 -13.5 -11t-5.5 -8q-3 -10 -9.5 -16.5t-19.5 -6.5z" />
    <glyph glyph-name="uni1EF7" unicode="&#x1ef7;" horiz-adv-x="750" 
d="M667.5 693.5q9.5 -6.5 9.5 -17.5t-11 -25l-226 -302q-17 -23 -17 -50v-259q0 -40 -40 -40h-32q-40 0 -40 40v259q0 28 -16 49l-214 303q-9 14 -9 25t9 17.5t25 6.5h47q16 0 27.5 -6t21.5 -19l138 -196q13 -18 28 -18t29 17l148 198q10 13 21 18.5t27 5.5h49
q16 0 25.5 -6.5zM364 739h-6q-12 0 -21 7t-9 20q0 5 1 7q3 20 14.5 33.5t29.5 26.5q12 9 15 13t3 9q-2 9 -9 11.5t-14 -0.5t-11 -9.5t-10 -11t-17 -4.5h-8q-11 0 -20 6.5t-9 19.5q0 3 1 8q7 23 28 38t51 15q41 0 63 -22q21 -20 21 -51q0 -19 -7 -33t-16 -22.5t-21 -18.5
q-10 -7 -14 -11t-5 -8q-3 -10 -10 -16.5t-20 -6.5z" />
    <glyph glyph-name="uni1EF8" unicode="&#x1ef8;" horiz-adv-x="750" 
d="M667.5 693.5q9.5 -6.5 9.5 -17.5t-11 -25l-226 -302q-17 -23 -17 -50v-259q0 -40 -40 -40h-32q-40 0 -40 40v259q0 28 -16 49l-214 303q-9 14 -9 25t9 17.5t25 6.5h47q16 0 27.5 -6t21.5 -19l138 -196q13 -18 28 -18t29 17l148 198q10 13 21 18.5t27 5.5h49
q16 0 25.5 -6.5zM224 766q-37 12 -25 49q25 96 126 85q34 -3 61 -24q59 -47 78 -2q12 41 53 34q43 -8 35 -51q-10 -65 -80 -88q-56 -19 -104 16q-53 47 -93 4q-14 -34 -51 -23z" />
    <glyph glyph-name="uni1EF9" unicode="&#x1ef9;" horiz-adv-x="750" 
d="M667.5 693.5q9.5 -6.5 9.5 -17.5t-11 -25l-226 -302q-17 -23 -17 -50v-259q0 -40 -40 -40h-32q-40 0 -40 40v259q0 28 -16 49l-214 303q-9 14 -9 25t9 17.5t25 6.5h47q16 0 27.5 -6t21.5 -19l138 -196q13 -18 28 -18t29 17l148 198q10 13 21 18.5t27 5.5h49
q16 0 25.5 -6.5zM224 766q-38 12 -25 49q25 96 126 85q33 -3 61 -24q58 -47 78 -2q11 41 53 34q42 -8 35 -51q-11 -65 -80 -88q-56 -19 -104 16q-54 47 -94 4q-14 -34 -50 -23z" />
    <glyph glyph-name="endash" unicode="&#x2013;" horiz-adv-x="600" 
d="M550 380v-60q0 -20 -20 -20h-460q-20 0 -20 20v60q0 20 20 20h460q20 0 20 -20z" />
    <glyph glyph-name="emdash" unicode="&#x2014;" horiz-adv-x="600" 
d="M600 380v-60q0 -20 -20 -20h-560q-20 0 -20 20v60q0 20 20 20h560q20 0 20 -20z" />
    <glyph glyph-name="quoteleft" unicode="&#x2018;" horiz-adv-x="300" 
d="M191 707q17 -17 17 -40q0 -24 -17 -41t-41 -17h-2l13 -26q4 -5 4 -12q0 -10 -10 -16q-1 -1 -3 -1q-8 0 -16 11q-22 25 -33 52t-11 50t17 40t41 17t41 -17z" />
    <glyph glyph-name="quoteright" unicode="&#x2019;" horiz-adv-x="300" 
d="M191 707q17 -17 17 -40t-11 -50t-33 -52q-8 -9 -15 -9q-6 0 -13 5q-3 2 -3 6q0 6 6 16l13 26h-2q-24 0 -41 17t-17 41q0 23 17 40t41 17t41 -17z" />
    <glyph glyph-name="quotesinglbase" unicode="&#x201a;" horiz-adv-x="300" 
d="M149 98q17 -17 17 -40q0 -19 -8 -42t-24 -45q-4 -4 -15 -4q-10 0 -16.5 3t-3.5 8v0.5t1 0.5l9 21h-1q-24 0 -41 17t-17 41q0 23 17 40t41 17t41 -17z" />
    <glyph glyph-name="quotedblleft" unicode="&#x201c;" horiz-adv-x="450" 
d="M180 707q17 -17 17 -40q0 -24 -17 -41t-41 -17h-2l13 -26q4 -5 4 -12q0 -10 -10 -16q-1 -1 -3 -1q-8 0 -16 11q-22 25 -33 52t-11 50t17 40t41 17t41 -17zM352 707q17 -17 17 -40q0 -24 -17 -41t-41 -17h-2l13 -26q4 -5 4 -12q0 -10 -10 -16q-1 -1 -3 -1q-8 0 -16 11
q-22 25 -33 52t-11 50t17 40t41 17t41 -17z" />
    <glyph glyph-name="quotedblright" unicode="&#x201d;" horiz-adv-x="450" 
d="M180 707q17 -17 17 -40t-11 -50t-33 -52q-7 -9 -15 -9q-6 0 -13 5q-3 2 -3 6q0 6 6 16l13 26h-2q-24 0 -41 17t-17 41q0 23 17 40t41 17t41 -17zM352 707q17 -17 17 -40t-11 -50t-33 -52q-7 -9 -15 -9q-6 0 -13 5q-3 2 -3 6q0 6 6 16l13 26h-2q-24 0 -41 17t-17 41
q0 23 17 40t41 17t41 -17z" />
    <glyph glyph-name="quotedblbase" unicode="&#x201e;" horiz-adv-x="300" 
d="M149 98q17 -17 17 -40q0 -19 -8 -42t-24 -45q-4 -4 -15 -4q-10 0 -16.5 3t-3.5 8v0.5t1 0.5l9 21h-1q-24 0 -41 17t-17 41q0 23 17 40t41 17t41 -17z" />
    <glyph glyph-name="bullet" unicode="&#x2022;" horiz-adv-x="500" 
d="M174.5 203q-34.5 20 -54.5 54.5t-20 75.5q0 39 20 73t54.5 54t75.5 20t75.5 -20t54.5 -54t20 -73q0 -41 -20 -75.5t-54.5 -54.5t-75.5 -20t-75.5 20z" />
    <glyph glyph-name="guilsinglleft" unicode="&#x2039;" horiz-adv-x="400" 
d="M298 420q5 0 8.5 -4.5t3.5 -12.5v-30q0 -17 -13 -24l-149 -97l149 -98q13 -7 13 -24v-30q0 -8 -3.5 -12.5t-8.5 -4.5q-7 0 -12 4l-183 119q-13 7 -13 24v43q0 17 13 24l183 119q5 4 12 4z" />
    <glyph glyph-name="guilsinglright" unicode="&#x203a;" horiz-adv-x="400" 
d="M93.5 415.5q3.5 4.5 8.5 4.5q7 0 12 -4l183 -119q13 -7 13 -24v-43q0 -17 -13 -24l-183 -119q-5 -4 -12 -4q-5 0 -8.5 4.5t-3.5 12.5v30q0 17 13 24l149 98l-149 97q-13 7 -13 24v30q0 8 3.5 12.5z" />
    <glyph glyph-name="fraction" unicode="&#x2044;" horiz-adv-x="600" 
d="M59 -48q-11 -6 -28 -6h-24q-16 0 -25 6.5t-9 17.5t9 25l538 737q10 13 21 19t28 6h24q16 0 25 -6.5t9 -17.5q0 -12 -10 -25l-537 -737q-10 -13 -21 -19z" />
    <glyph glyph-name="Euro" unicode="&#x20ac;" horiz-adv-x="700" 
d="M561 180q14 0 31 -17l21 -22q13 -15 13 -28q0 -14 -15 -28l-11 -11q-38 -36 -82.5 -55t-93.5 -19q-64 0 -120.5 32.5t-97.5 90t-58 129.5h-39q-17 0 -26 7.5t-9 20.5q0 8 3 18q10 29 44 29h17l-1 23l1 26h-29q-17 0 -26 7.5t-9 20.5q0 8 3 18q10 29 44 29h28
q18 72 58.5 128.5t97 88.5t119.5 32q49 0 93.5 -19t82.5 -55l11 -10q14 -13 14 -29q0 -15 -13 -28l-20 -22q-13 -14 -29 -14q-15 0 -28 13l-10 10q-46 44 -101 44q-51 0 -93.5 -39t-65.5 -100h283q17 0 26 -7.5t9 -20.5q0 -7 -3 -18q-10 -29 -44 -29h-288q-1 -9 -1 -26
l1 -23h300q17 0 26 -7.5t9 -20.5q0 -7 -3 -18q-10 -29 -44 -29h-274q21 -64 65 -103t97 -39q55 0 101 44l19 19q7 7 17 7z" />
    <glyph glyph-name="trademark" unicode="&#x2122;" horiz-adv-x="1500" 
d="M510 585h-112q-40 0 -40 -40v-505q0 -40 -40 -40h-35q-40 0 -40 40v505q0 40 -40 40h-113q-40 0 -40 40v35q0 40 40 40h420q40 0 40 -40v-35q0 -40 -40 -40zM1400 660v-620q0 -40 -40 -40h-32q-40 0 -40 40v262q0 16 -5.5 25t-14.5 9q-16 0 -26 -25l-118 -280
q-13 -31 -46 -31h-56q-33 0 -46 31l-118 280q-10 25 -26 25q-9 0 -14.5 -9t-5.5 -25v-262q0 -40 -40 -40h-32q-40 0 -40 40v620q0 40 40 40h44q33 0 46 -31l193 -460q11 -25 27 -25t27 25l193 460q13 31 46 31h44q40 0 40 -40z" />
    <glyph glyph-name="minus" unicode="&#x2212;" horiz-adv-x="600" 
d="M517 216h-421q-40 0 -40 40q0 35 40 35h421q40 0 40 -37q0 -38 -40 -38z" />
    <glyph glyph-name="lessequal" unicode="&#x2264;" horiz-adv-x="600" 
d="M551 162v-6q0 -17 -7 -26t-20 -9q-10 0 -19 4l-423 169q-31 12 -31 46v22q0 34 31 46l423 169q9 4 19 4q13 0 20 -9t7 -26v-6q0 -34 -31 -46l-357 -143l357 -143q31 -12 31 -46zM517 0h-421q-40 0 -40 40q0 35 40 35h421q40 0 40 -37q0 -38 -40 -38z" />
    <glyph glyph-name="greaterequal" unicode="&#x2265;" horiz-adv-x="600" 
d="M64 574q7 8 19 8q7 0 20 -5l423 -169q31 -12 31 -46v-22q0 -34 -31 -46l-423 -169q-9 -4 -19 -4q-13 0 -20 9t-7 26v6q0 34 31 46l357 143l-357 143q-31 12 -31 46v11q0 15 7 23zM552 35q0 -35 -40 -35h-421q-40 0 -40 40q0 35 40 35h421q40 0 40 -40z" />
    </font>
</defs>
</svg>
