<?xml version="1.0" standalone="no"?>
<!DOCTYPE svg PUBLIC "-//W3C//DTD SVG 1.1//EN" "http://www.w3.org/Graphics/SVG/1.1/DTD/svg11.dtd" >
<svg xmlns="http://www.w3.org/2000/svg" xmlns:xlink="http://www.w3.org/1999/xlink" version="1.1">
<metadata>
Created by FontForge 20170731 at Fri Dec 12 18:38:09 2014
 By Aleksey,,,
Rodrigo Araya Salas (c) 2013 / www.RodrigoTypo.com
</metadata>
<defs>
<font id="iCielPony" horiz-adv-x="694" >
  <font-face 
    font-family="iCiel Pony"
    font-weight="400"
    font-stretch="normal"
    units-per-em="1000"
    panose-1="2 0 0 0 0 0 0 0 0 0"
    ascent="728"
    descent="-272"
    x-height="520"
    cap-height="707"
    bbox="-685 -510 1785 1051"
    underline-thickness="50"
    underline-position="-150"
    unicode-range="U+0020-FB04"
  />
<missing-glyph horiz-adv-x="500" 
 />
    <glyph glyph-name="uniFB00" unicode="ff" horiz-adv-x="1056" 
d="M969 520q-53 -2 -66 -58l109 10q13 -32 13 -71q0 -87 -82 -96q-6 0 -19 -0.5t-21 -0.5q7 -203 7 -259q-1 -2 -3 -5t-13.5 -11t-28.5 -14t-49.5 -11t-74.5 -5q-119 0 -119 146q0 4 2 42.5t2 89.5v28q-6 0 -124 -0.5t-127 -0.5q7 -203 7 -259q-1 -2 -3 -5t-13.5 -11
t-28.5 -14t-49.5 -11t-74.5 -5q-119 0 -119 146q0 3 2.5 50t2.5 114l-72 3q-12 30 -12 66q0 82 86 89q-3 20 -3 37q0 103 85.5 157.5t205.5 54.5q114 0 160 -39.5t46 -95.5q0 -20 -4.5 -42t-9.5 -34l-5 -12q-58 27 -135 27q-52 0 -66 -58q48 0 253 7q-2 12 -2 35
q0 103 85.5 157.5t205.5 54.5q114 0 160 -39.5t46 -95.5q0 -20 -4.5 -42t-9.5 -34l-5 -12q-58 27 -135 27z" />
    <glyph glyph-name="uniFB01" unicode="fi" horiz-adv-x="860" 
d="M695 484q-73 0 -109 38l-10 -29q-58 27 -135 27q-52 0 -66 -58l109 10q13 -32 13 -71q0 -87 -82 -96q-5 0 -18 -0.5t-22 -0.5q7 -203 7 -259q-1 -2 -3 -5t-13.5 -11t-28.5 -14t-49.5 -11t-74.5 -5q-119 0 -119 146q0 3 2.5 50t2.5 114l-72 3q-12 30 -12 66q0 82 86 89
q-3 20 -3 37q0 103 85.5 157.5t205.5 54.5q128 0 177 -56q29 69 122 69q38 0 66.5 -10.5t44 -25.5t24.5 -35t11.5 -34t2.5 -27q0 -34 -38 -73.5t-104 -39.5zM569 421q-15 -34 -15 -195q0 -126 32.5 -177.5t118.5 -51.5q33 0 59.5 5.5t40 13.5t23 16t12.5 14l2 5v288
q0 118 -142 118q-36 0 -69 -9t-47 -18z" />
    <glyph glyph-name="uniFB03" unicode="ffi" horiz-adv-x="1381" 
d="M1219 484q-69 0 -106 35l-9 -26q-58 27 -135 27q-52 0 -66 -58l109 10q13 -32 13 -71q0 -87 -82 -96q-6 0 -19 -0.5t-21 -0.5q7 -203 7 -259q-1 -2 -3 -5t-13.5 -11t-28.5 -14t-49.5 -11t-74.5 -5q-119 0 -119 146q0 4 2 42.5t2 89.5v28q-6 0 -124 -0.5t-127 -0.5
q7 -203 7 -259q-1 -2 -3 -5t-13.5 -11t-28.5 -14t-49.5 -11t-74.5 -5q-119 0 -119 146q0 3 2.5 50t2.5 114l-72 3q-12 30 -12 66q0 82 86 89q-3 20 -3 37q0 103 85.5 157.5t205.5 54.5q114 0 160 -39.5t46 -95.5q0 -20 -4.5 -42t-9.5 -34l-5 -12q-58 27 -135 27
q-52 0 -66 -58q48 0 253 7q-2 12 -2 35q0 103 85.5 157.5t205.5 54.5q124 0 175 -53q29 66 120 66q38 0 66.5 -10.5t44 -25.5t24.5 -35t11.5 -34t2.5 -27q0 -34 -38 -73.5t-104 -39.5zM1093 421q-15 -34 -15 -195q0 -126 32.5 -177.5t118.5 -51.5q33 0 59.5 5.5t40 13.5
t23 16t12.5 14l2 5v288q0 118 -142 118q-36 0 -69 -9t-47 -18z" />
    <glyph glyph-name="uniFB04" unicode="ffl" horiz-adv-x="1346" 
d="M969 520q-53 -2 -66 -58l109 10q13 -32 13 -71q0 -87 -82 -96q-6 0 -19 -0.5t-21 -0.5q7 -203 7 -259q-1 -2 -3 -5t-13.5 -11t-28.5 -14t-49.5 -11t-74.5 -5q-119 0 -119 146q0 4 2 42.5t2 89.5v28q-6 0 -124 -0.5t-127 -0.5q7 -203 7 -259q-1 -2 -3 -5t-13.5 -11
t-28.5 -14t-49.5 -11t-74.5 -5q-119 0 -119 146q0 3 2.5 50t2.5 114l-72 3q-12 30 -12 66q0 82 86 89q-3 20 -3 37q0 103 85.5 157.5t205.5 54.5q114 0 160 -39.5t46 -95.5q0 -20 -4.5 -42t-9.5 -34l-5 -12q-58 27 -135 27q-52 0 -66 -58q48 0 253 7q-2 12 -2 35
q0 103 85.5 157.5t205.5 54.5q103 0 155 -37q51 28 117 28q142 0 142 -118v-538q-1 -2 -3 -5.5t-11.5 -13t-23 -16.5t-40 -13t-59.5 -6q-86 0 -118.5 51.5t-32.5 177.5q0 123 7 284q-37 10 -81 10z" />
    <glyph glyph-name="tt" unicode="tt" horiz-adv-x="994" 
d="M910 273q3 0 8 -1t18 -6.5t22.5 -15.5t17.5 -31t8 -50q0 -75 -75 -122t-175 -47q-125 0 -180 69q46 48 46 108q0 73 -45 107q-24 17 -48 17l-3 1v37h-164q-3 -21 -3 -46q0 -72 40 -90q12 -5 23 -5q34 0 55 19t25 37l5 19q3 0 8 -1t18 -6.5t22.5 -15.5t17.5 -31t8 -50
q0 -75 -75 -122t-175 -47q-52 0 -90.5 11t-71.5 38t-50.5 79.5t-17.5 129.5v96q-69 0 -69 97q0 20 3 43t5 36l3 12q24 -2 61 -4v175q96 13 151 13q54 0 88.5 -36.5t34.5 -96.5q0 -12 -1 -42h152v162q96 13 151 13q54 0 88.5 -36.5t34.5 -96.5q0 -13 -2 -54l123 10
q30 -31 30 -106q0 -101 -155 -101h-12q-3 -24 -3 -49q0 -72 40 -90q12 -5 23 -5q34 0 55 19t26 37z" />
    <glyph glyph-name="gj" unicode="gj" horiz-adv-x="982" 
d="M525 -87q-6 -19 -6 -44q0 -30 10 -51q-92 -120 -267 -120q-34 0 -71.5 9t-78 28.5t-66.5 59.5t-26 95q0 50 29 99q7 -7 20.5 -18t58.5 -29t94 -18q79 6 114.5 34.5t35.5 84.5q-5 -5 -16 -12t-48 -18.5t-79 -11.5q-39 0 -73.5 13t-67 42t-52 86t-19.5 137q0 5 0.5 13.5
t4.5 33t11.5 46.5t23.5 49t38.5 46.5t59 33t82.5 13.5q93 0 144 -37l-10 29l2.5 5t9 10.5t19.5 13t35 10.5t53 5q72 0 99.5 -44t27.5 -117q0 -37 -3.5 -130.5t-7.5 -168.5l-4 -74v8l-1 -12q-1 -12 -2.5 -29t-4 -34t-7.5 -29t-11 -12zM322 184q79 0 79 97q0 34 -19.5 56
t-53.5 22q-3 0 -8 -1t-17.5 -6t-22 -13t-17.5 -24.5t-8 -38.5q0 -92 67 -92zM830 530q-70 0 -105 34.5t-35 91.5q0 5 0.5 13t8 28.5t19.5 36t39.5 28.5t65.5 13t66.5 -10.5t44 -25.5t24.5 -35t11.5 -34t2.5 -27q0 -34 -38 -73.5t-104 -39.5zM805 498q35 0 55 -2t45.5 -10.5
t40.5 -29t21 -54.5q5 -30 5 -136q0 -146 -7 -232q-7 -80 -18.5 -132.5t-37 -97.5t-69.5 -66t-109 -21q-180 0 -180 124q0 11 1.5 22t3.5 17l1 5q24 -5 51 -5q78 0 78 52l11 558q62 8 108 8z" />
    <glyph glyph-name=".notdef" horiz-adv-x="500" 
 />
    <glyph glyph-name=".null" horiz-adv-x="0" 
 />
    <glyph glyph-name="nonmarkingreturn" horiz-adv-x="333" 
 />
    <glyph glyph-name="space" unicode=" " horiz-adv-x="251" 
 />
    <glyph glyph-name="exclam" unicode="!" horiz-adv-x="376" 
d="M193 161q39 0 65.5 -10t38 -26t15.5 -29t4 -26q0 -45 -32 -71.5t-84 -26.5q-32 0 -62 8t-54 31t-24 58q0 11 4 23t15.5 29.5t41 28.5t72.5 11zM170 707q12 0 24.5 -1.5t30.5 -9t31.5 -19t24 -35t12.5 -54.5q4 -56 4 -126q0 -30 -0.5 -77t-0.5 -76q0 -78 2 -88
q-25 -25 -98 -25q-85 0 -113 27t-33 86q-2 22 -2 108q0 55 1 142t1 124q35 24 116 24z" />
    <glyph glyph-name="quotedbl" unicode="&#x22;" horiz-adv-x="427" 
d="M119 778q33 0 52 -16.5t21 -45.5q2 -31 2 -89q0 -98 1 -104q-13 -12 -54 -12q-47 0 -62 14t-18 44q-1 13 -1 57q0 32 0.5 84t0.5 54q0 10 58 14zM291 778q33 0 52 -16.5t21 -45.5q2 -31 2 -89q0 -98 1 -104q-13 -12 -54 -12q-47 0 -62 14t-18 44q-1 13 -1 57q0 32 0.5 84
t0.5 54q0 10 58 14z" />
    <glyph glyph-name="numbersign" unicode="#" horiz-adv-x="780" 
d="M748 304l6 -3q6 -5 8.5 -23.5t1.5 -33.5v-16q0 -64 -65 -80l4 -103q-16 -19 -45.5 -29.5t-50.5 -11.5l-21 -1q-36 0 -62 13.5t-40 37t-21 46t-9 47.5q-70 0 -101 1l5 -103q-16 -19 -45 -29.5t-50 -11.5l-21 -1q-36 0 -62.5 13.5t-40.5 36.5t-21 45t-9 47l-47 -1
q-21 10 -32.5 30t-12.5 34l-1 15q0 60 95 81q0 13 1 40t1 42l-51 -1q-21 10 -32.5 29.5t-12.5 33.5l-1 14q0 64 101 83q0 23 1 71t1 71q17 10 85 10h30q37 0 63.5 -10t38 -24t17 -28t5.5 -23v-10q-1 -15 -2 -52q20 0 53.5 -1t52.5 -1l3 138q17 11 84 11h29q38 0 64.5 -10
t38 -24t17 -28t5.5 -23v-10q0 -16 -1 -57q8 0 25 -0.5t25 -0.5q7 -6 10 -25t2 -35v-16q0 -64 -64 -80l-3 -83q8 0 25 -0.5t26 -0.5zM456 308q0 25 2 79h-52h-52l-2 -77q20 0 52 -1t52 -1zM458 396l10 -9h-10v9z" />
    <glyph glyph-name="dollar" unicode="$" horiz-adv-x="499" 
d="M220 418q6 -19 36 -25.5t67.5 -9t74 -13.5t61.5 -49.5t25 -105.5q0 -121 -122 -172l-1 -58q-2 -5 -8 -12.5t-35.5 -20.5t-71.5 -13q-72 0 -97 78q-134 14 -134 107q0 37 14 60.5t29 28.5l14 5q17 -12 71 -31.5t87 -19.5q53 0 53 21q0 12 -27 24t-69.5 24t-45.5 13
q-15 4 -24 7t-27.5 14.5t-30 27t-20.5 45t-9 66.5q0 142 114 186q4 99 5 108q28 12 108 12q45 0 73.5 -28t33.5 -82q59 -14 89.5 -45.5t30.5 -70.5q0 -31 -17.5 -51t-34.5 -24l-18 -5q-45 35 -145 35q-49 0 -49 -26z" />
    <glyph glyph-name="percent" unicode="%" horiz-adv-x="1006" 
d="M477 648q22 40 77 54q20 5 40 5q23 0 45.5 -6.5t37.5 -15.5t26.5 -18.5t16.5 -16.5l6 -6l-166 -544q-14 -46 -52 -73t-94 -27q-24 0 -45 7.5t-34.5 18t-24 21t-14.5 17.5l-5 8q155 515 186 576zM172 630q166 0 166 -155q0 -17 -2 -32.5t-11 -39.5t-25 -41.5t-48 -30.5
t-75 -13q-162 0 -162 159q0 14 2 29t11.5 38.5t25 41.5t46.5 31t72 13zM179 426q18 0 30.5 14.5t12.5 35.5q0 20 -12.5 33.5t-30.5 13.5t-31 -13.5t-13 -33.5q0 -21 13 -35.5t31 -14.5zM825 315q166 0 166 -155q0 -17 -2 -32.5t-11 -39.5t-25 -41.5t-48 -30.5t-75 -13
q-162 0 -162 159q0 14 2 29t11.5 38.5t25 41.5t46.5 31t72 13zM832 111q18 0 30.5 14.5t12.5 35.5q0 20 -12.5 33.5t-30.5 13.5t-31 -13.5t-13 -33.5q0 -21 13 -35.5t31 -14.5z" />
    <glyph glyph-name="ampersand" unicode="&#x26;" horiz-adv-x="705" 
d="M266 697q58 0 123 -4t78 -4q52 0 94 19q36 -44 36 -120q0 -54 -39 -78t-100 -24q-22 0 -63 8.5t-61 8.5q-39 0 -39 -32q0 -13 28 -47t150 -170q23 27 50 111q5 1 14 1q62 0 103 -35q33 -29 33 -64q0 -21 -22 -74q-14 -24 -45 -48q52 -44 84 -57q-29 -58 -77 -94
q-35 -27 -75 -27q-73 2 -130 63q-65 -29 -157 -29q-60 0 -106 15t-69 36.5t-37 43t-17 36.5l-3 15q-4 21 -4 50q0 149 117 189q-50 54 -50 134q0 7 1 19t11 42.5t27 54t55 42.5t90 19zM276 154q-22 52 -73 114q-34 -27 -34 -58q0 -13 8 -26q19 -36 62 -36q17 0 37 6z" />
    <glyph glyph-name="quotesingle" unicode="'" horiz-adv-x="255" 
d="M119 778q33 0 52 -16.5t21 -45.5q2 -31 2 -89q0 -98 1 -104q-13 -12 -54 -12q-47 0 -62 14t-18 44q-1 13 -1 57q0 32 0.5 84t0.5 54q0 10 58 14z" />
    <glyph glyph-name="parenleft" unicode="(" horiz-adv-x="458" 
d="M476 -23q-81 -78 -171 -78q-119 0 -204 126.5t-85 321.5q0 105 22 194t57.5 148t81 100t91.5 59.5t90 18.5q27 0 49.5 -11t34.5 -26.5t20.5 -30.5t11.5 -26l2 -11q-9 -4 -23 -11.5t-50.5 -39.5t-64.5 -72t-51 -112t-23 -156q0 -85 22 -156.5t53 -113.5t62 -71.5t53 -41.5
z" />
    <glyph glyph-name="parenright" unicode=")" horiz-adv-x="456" 
d="M-23 -23q9 4 23 12t50.5 40t64.5 72.5t51 112.5t23 157q0 84 -22 155.5t-53 113t-62 71t-53 40.5l-22 11q1 4 3 11t10.5 25.5t20.5 32t34.5 25t49.5 11.5q44 0 90 -18.5t91.5 -59.5t81 -100t57.5 -148t22 -194q0 -195 -85 -321.5t-204 -126.5q-90 0 -171 78z" />
    <glyph glyph-name="asterisk" unicode="*" horiz-adv-x="389" 
d="M146 656q1 0 -3.5 14.5t-10 38.5t-5.5 42q0 39 26 44q15 3 31 3q38 0 66.5 -13t28.5 -35q-2 -19 -10 -45t-15 -43l-7 -16q60 53 91 53q11 0 15 -7q22 -36 22 -75q0 -33 -23 -41q-13 -4 -32 -4q-16 0 -33.5 3t-26.5 5l-10 3q10 -6 25 -16t39.5 -33t24.5 -37
q0 -19 -38.5 -39t-59.5 -20q-4 0 -5 1q-4 4 -15 32t-19 54l-9 26q-2 -5 -5.5 -12.5t-13 -27.5t-19 -35.5t-20.5 -28t-19 -12.5q-21 0 -55 31.5t-34 50.5q0 1 0.5 2t0.5 2q3 11 31.5 26.5t54.5 25.5l27 10q-25 -4 -53 -4q-69 0 -71 31q-1 6 -1 18q0 34 8.5 59t24.5 25
q12 -2 35.5 -16t42 -27t19.5 -13z" />
    <glyph glyph-name="plus" unicode="+" horiz-adv-x="478" 
d="M171 481q26 16 64 16l31 -3q69 -7 69 -109h86q15 -23 15 -90q0 -68 -96 -68h-11v-96q-23 -15 -90 -15q-30 0 -47 28t-19 56l-2 27h-100q-16 26 -16 64q0 48 25 74t69 26h22v90z" />
    <glyph glyph-name="comma" unicode="," horiz-adv-x="248" 
d="M128 195q49 0 76 -34t27 -84q0 -72 -59 -129.5t-111 -57.5q-23 0 -42 12t-26 24l-7 11q64 23 97 64q-25 12 -40.5 37t-15.5 54q0 43 29.5 73t71.5 30z" />
    <glyph glyph-name="hyphen" unicode="-" horiz-adv-x="482" 
d="M15 305q0 10 2.5 20.5t10.5 24.5t27.5 24t48.5 11q32 2 275 2q63 0 71 2q18 -16 18 -83q-4 -45 -21 -60t-63 -18q-20 -2 -106 -2l-246 2q-17 34 -17 77z" />
    <glyph glyph-name="period" unicode="." horiz-adv-x="252" 
d="M15 131q0 46 32.5 78.5t78.5 32.5t78.5 -32.5t32.5 -78.5t-32.5 -78.5t-78.5 -32.5t-78.5 32.5t-32.5 78.5z" />
    <glyph glyph-name="slash" unicode="/" horiz-adv-x="465" 
d="M201 648q22 40 77 54q20 5 40 5q23 0 45.5 -6.5t37.5 -15.5t26.5 -18.5t16.5 -16.5l6 -6q-155 -509 -167 -544q-13 -46 -51 -73t-94 -27q-24 0 -45 7.5t-34.5 18t-24 21t-14.5 17.5l-5 8q155 515 186 576z" />
    <glyph glyph-name="zero" unicode="0" 
d="M363 707q69 0 123 -17.5t87 -48.5t55.5 -65.5t32.5 -75.5t14 -70.5t4 -58.5l-2 -39q0 -7 -1 -19.5t-9 -47.5t-20.5 -67t-39.5 -71.5t-62 -67.5t-92 -47.5t-127 -19.5q-82 0 -143 29.5t-92 69t-49.5 93t-22.5 88t-4 66.5l1 20v7q0 16 1.5 35t9 54.5t21 66.5t39.5 66.5
t61.5 61t91 42t123.5 16.5zM440 339q1 9 1 22q0 25 -3 49.5t-11.5 55t-29 49.5t-49.5 19t-49.5 -18.5t-29.5 -48.5t-13 -57t-4 -56v-9q0 -22 2.5 -45.5t10 -58t27 -56t48.5 -21.5q43 0 68 44t28 88z" />
    <glyph glyph-name="one" unicode="1" horiz-adv-x="418" 
d="M37 677q93 27 220 27q146 0 146 -165l-8 -501l-16.5 -11t-48.5 -18t-81 -11q-128 0 -128 172l10 291q-11 -3 -27 -3q-60 0 -79 53q-10 30 -10 63q0 56 22 103z" />
    <glyph glyph-name="two" unicode="2" horiz-adv-x="566" 
d="M60 419q-21 51 -21 111q0 34 10 62t35 55.5t75 43.5t122 16q120 0 183 -65t63 -161q0 -99 -66 -184.5t-180 -109.5q19 0 49.5 2t97 18t99.5 43q3 -1 8 -3.5t13.5 -17.5t8.5 -39q0 -27 -9 -60q-18 -63 -69.5 -97.5t-163.5 -34.5q-110 0 -287 38q-18 36 -18 82q0 85 75 133
q22 15 60 38t53 33t34.5 25.5t26 27.5t6.5 26q0 33 -30.5 50t-65.5 17q-68 0 -109 -49z" />
    <glyph glyph-name="three" unicode="3" horiz-adv-x="548" 
d="M413 370q63 0 97 -42.5t34 -102.5q0 -73 -47 -126t-111.5 -76t-134.5 -23q-47 0 -87 9t-74.5 28.5t-54.5 55t-20 83.5q0 19 5 52q98 -35 171 -35q32 0 54.5 12.5t22.5 39.5q0 43 -42 43h-6q-26 0 -42 1t-39.5 5.5t-35.5 17t-12 31.5q0 25 3.5 42.5t7.5 22.5l3 5
q6 1 16.5 3t37.5 9t47.5 15t37.5 22.5t17 31.5q0 8 -2 12q-7 26 -39 26q-33 0 -81 -25t-57 -39h-1q-1 1 -4 2.5t-5.5 3.5t-6 5l-7 6t-7 7.5t-6.5 9.5t-5.5 11t-3.5 13q-2 10 -2 18q0 23 8 46.5t27.5 50.5t60 46.5t96.5 24.5q28 2 43 2q67 -1 116 -17.5t72.5 -37.5t37.5 -50
t16 -44t2 -30q0 -119 -100 -165z" />
    <glyph glyph-name="four" unicode="4" horiz-adv-x="658" 
d="M551 144v-39q0 -22 -5 -41.5t-29 -41t-65 -22.5q-89 4 -134 8v145q-231 2 -264 2q-18 18 -28 56t-10 70q0 5 1 11t9.5 28t23.5 47t48.5 66.5t79.5 87.5q135 169 154 175q14 5 41 8.5t47 3.5l20 1q5 0 13.5 -1t30.5 -8t38.5 -18.5t30 -36.5t13.5 -59q0 -65 -8 -251h107
q9 -33 9 -90q0 -44 -26 -72.5t-83 -28.5h-14zM227 336h98v136q-9 -8 -22.5 -21.5t-40.5 -49.5t-35 -65z" />
    <glyph glyph-name="five" unicode="5" horiz-adv-x="518" 
d="M25 323q0 4 -4.5 84.5t-4.5 133.5q0 123 21 144q1 3 105.5 8t208.5 9l104 3q7 -53 7 -104q0 -45 -19 -65t-84 -20q-72 0 -118 6v-85q35 5 58 5q82 0 143 -53.5t61 -139.5q0 -21 -3 -44t-19 -62.5t-42.5 -68.5t-80.5 -51.5t-127 -22.5q-65 0 -110 12.5t-67 34t-30.5 42.5
t-8.5 46q0 16 3 31.5t6 23.5l3 8q62 -30 145 -30q37 0 59.5 14.5t26.5 29.5l4 14q-2 55 -78 55q-14 0 -42 -3t-41 -3q-58 0 -76 48z" />
    <glyph glyph-name="six" unicode="6" horiz-adv-x="591" 
d="M576 252v-10q0 -21 -3.5 -44.5t-20 -61t-44.5 -66t-84 -49.5t-131 -21q-278 0 -278 321v40q0 19 1.5 39.5t8.5 56.5t18.5 67.5t34 66t53 59.5t78 41t105.5 16h14q19 0 39.5 -1.5t51.5 -8.5t54 -18.5t40 -34t17 -53.5q0 -21 -9 -48q-44 6 -93 6q-165 0 -165 -91
q0 -7 1 -11q50 27 113 27q81 0 134 -58q6 -6 16 -18t28 -54.5t21 -91.5zM304 330q-35 0 -53.5 -25t-18.5 -67q0 -41 12 -60t47 -19q84 0 84 90q0 34 -18 57.5t-53 23.5z" />
    <glyph glyph-name="seven" unicode="7" horiz-adv-x="515" 
d="M31 463q-4 1 -9 6t-14 34t-9 76q0 128 175 128q37 0 297 -20q2 0 5.5 -1.5t13 -7.5t16.5 -15t12.5 -27.5t5.5 -41.5q0 -87 -69.5 -277.5t-91.5 -223.5q-1 -4 -4 -10t-14 -22t-25 -28.5t-38 -22.5t-52 -10q-47 0 -105 29t-80 73l196 361h-210z" />
    <glyph glyph-name="eight" unicode="8" horiz-adv-x="600" 
d="M594 209q0 -107 -76 -164.5t-223 -57.5q-134 0 -207 58t-73 164q0 69 33 107.5t76 53.5q-34 15 -62 48.5t-28 92.5v7q0 10 1 21t7.5 31.5t17.5 38t32.5 37.5t51 33.5t75.5 23t103 9.5q68 0 118 -17.5t75 -40.5t39.5 -54t17.5 -48.5t3 -33.5v-7q0 -101 -89 -141
q42 -16 75 -54t33 -107zM306 162q67 0 67 62q0 31 -26 48t-49 18q-6 -2 -15.5 -7t-25 -23.5t-15.5 -40.5q0 -33 16 -45t48 -12zM309 562q-67 0 -67 -62q0 -32 25.5 -49t48.5 -18q2 1 6 2.5t14 8t17.5 14.5t13.5 20.5t6 26.5q0 33 -16.5 45t-47.5 12z" />
    <glyph glyph-name="nine" unicode="9" horiz-adv-x="591" 
d="M15 456v10q0 21 3.5 44.5t20 61t44.5 65.5t84 49t131 21q278 0 278 -320v-40q0 -19 -1.5 -39.5t-8.5 -56.5t-18.5 -67.5t-34 -66t-53 -59.5t-78 -41t-105.5 -16h-14q-19 0 -39.5 1.5t-51.5 8.5t-54 18.5t-40 34t-17 53.5q0 21 9 48q44 -6 93 -6q165 0 165 91q0 7 -1 11
q-50 -27 -113 -27q-81 0 -134 58q-6 6 -16 18t-28 54.5t-21 91.5zM288 383q35 0 53.5 25t18.5 67q0 41 -12 60t-47 19q-84 0 -84 -90q0 -34 18 -57.5t53 -23.5z" />
    <glyph glyph-name="colon" unicode=":" horiz-adv-x="282" 
d="M30 131q0 46 32.5 78.5t78.5 32.5t78.5 -32.5t32.5 -78.5t-32.5 -78.5t-78.5 -32.5t-78.5 32.5t-32.5 78.5zM30 411q0 46 32.5 78.5t78.5 32.5t78.5 -32.5t32.5 -78.5t-32.5 -78.5t-78.5 -32.5t-78.5 32.5t-32.5 78.5z" />
    <glyph glyph-name="semicolon" unicode=";" horiz-adv-x="296" 
d="M166 204q53 0 82 -33.5t29 -82.5q0 -72 -63.5 -129t-118.5 -57q-25 0 -45 12t-28 24l-7 11q67 21 103 63q-27 12 -43 36t-16 53q0 43 31.5 73t75.5 30zM69 356q0 40 31.5 68.5t75.5 28.5t74.5 -28.5t30.5 -68.5q0 -41 -31 -69.5t-74 -28.5q-44 0 -75.5 28.5t-31.5 69.5z
" />
    <glyph glyph-name="less" unicode="&#x3c;" horiz-adv-x="804" 
d="M763 176v-9q0 -109 -50 -169q-63 6 -129 17.5t-146 30.5t-148.5 48.5t-127 67.5t-92.5 91.5t-34 115.5q0 154 145 215q1 0 6 3q3 0 5 2l10 4q7 2 9 3q108 50 256 94q85 26 134 26q47 0 82 -23.5t54 -60.5q14 -33 14 -60q0 -36 -20 -79q0 -1 -1 -3q-294 -94 -412 -141
l273 -44q4 0 10 -0.5t23.5 -3t33.5 -7.5t36 -14.5t34.5 -22.5t24.5 -34t10 -47z" />
    <glyph glyph-name="equal" unicode="=" horiz-adv-x="430" 
d="M26 206q0 7 2.5 15t9.5 18.5t25 18t45 8.5q29 1 206 1q57 0 65 1q16 -12 16 -61q-4 -33 -19 -44t-58 -13q-18 -2 -97 -2l-179 2q0 -1 -1.5 1.5t-4 7t-5 11t-4 16.5t-1.5 20zM26 373q0 7 2.5 15t9.5 18.5t25 18t45 8.5q29 1 206 1q57 0 65 1q16 -12 16 -61q-4 -33 -19 -44
t-58 -13q-18 -2 -97 -2l-179 2q0 -1 -1.5 1.5t-4 7t-5 11t-4 16.5t-1.5 20z" />
    <glyph glyph-name="greater" unicode="&#x3e;" horiz-adv-x="804" 
d="M36 167v9q1 35 18.5 61.5t43 38.5t50.5 19.5t42 8.5l18 1l273 44q-118 47 -412 141l-1 1v2q-20 43 -20 79q0 27 14 60q18 37 53.5 60.5t82.5 23.5q49 0 134 -26q148 -44 256 -94q2 -1 9 -3l10 -4q2 -2 5 -2q4 -3 6 -3q145 -61 145 -215q0 -62 -34 -115.5t-92.5 -91.5
t-127 -67.5t-148.5 -48.5t-146 -30.5t-129 -17.5q-50 60 -50 169z" />
    <glyph glyph-name="question" unicode="?" horiz-adv-x="515" 
d="M201 715q26 0 56 -4t68.5 -17t68.5 -33.5t51 -57.5t21 -86t-12.5 -84.5t-36.5 -56.5t-43.5 -32.5t-50.5 -22.5t-40 -16q-48 -23 -48 -91l1 -18q-49 -11 -79 -11q-36 0 -61.5 11t-37 29t-16 34t-4.5 33q0 98 107 118q19 3 30 5.5t30 9.5t29 19t10 29q0 44 -83 44
q-35 0 -64 -10.5t-41 -20.5l-11 -10q-34 60 -34 107q0 37 21 65t53 41.5t61.5 19.5t54.5 6zM168 161q39 0 65.5 -10t38 -26t15.5 -29t4 -26q0 -45 -32 -71.5t-84 -26.5q-32 0 -62 8t-54 31t-24 58q0 11 4 23t15.5 29.5t41 28.5t72.5 11z" />
    <glyph glyph-name="at" unicode="@" horiz-adv-x="740" 
d="M420 160q-54 0 -94 14t-61 32.5t-33 44t-15 43t-3 34.5q0 68 39 113.5t105 45.5q68 0 96 -41q0 22 1.5 32t8 18t20.5 8q17 0 15 -1l7 -1q6 -2 16 -6.5t20 -10.5t17 -17.5t7 -26.5q0 -51 -34.5 -101.5t-73.5 -50.5q-26 0 -34 13q0 1 2 6.5t5 15.5t3 18q0 16 -15 28t-38 12
q-41 0 -41 -50q0 -72 94 -72q20 0 46 5t60 18.5t56.5 43.5t22.5 72q0 49 -19.5 84.5t-52.5 53t-66 25t-69 7.5q-27 0 -55.5 -5.5t-61 -21t-57.5 -39t-41.5 -64.5t-16.5 -94q0 -22 1 -37t5.5 -39.5t12.5 -41.5t25 -38t40 -34.5t59.5 -24.5t82.5 -14q15 0 43 2t91 15.5
t109 36.5q31 -7 45 -37t14 -66q0 -67 -63 -101.5t-179 -34.5q-40 0 -73.5 2t-82 10t-86.5 22t-79 41t-68 63t-44.5 92t-17.5 125q0 80 18 145.5t49 108.5t68.5 73.5t81.5 46.5t82 23t76 7q45 0 88 -7.5t89 -27.5t80 -51t56 -84t22 -120q0 -46 -16 -87t-50 -76.5t-95.5 -56
t-143.5 -20.5z" />
    <glyph glyph-name="A" unicode="A" horiz-adv-x="658" 
d="M166 0q-67 0 -109 42.5t-42 112.5q0 22 2 109.5t2 99.5q0 94 26.5 163t61 102t83 52.5t76.5 22.5t59 3q62 0 112.5 -14.5t83 -36t56.5 -52.5t36.5 -58.5t19.5 -58.5t8.5 -48.5t1.5 -32.5v-338q-28 -68 -140 -68q-38 0 -64 14.5t-37.5 38.5t-16 45t-4.5 44l2 34h-106
q0 -30 2.5 -66t5.5 -57l3 -21q-40 -32 -122 -32zM406 330q2 18 2 45q0 125 -80 125q-73 0 -73 -120q0 -47 6 -55z" />
    <glyph glyph-name="B" unicode="B" horiz-adv-x="634" 
d="M500 364q10 0 21.5 -2.5t30 -12t32.5 -24.5t24.5 -44t10.5 -68q0 -109 -91.5 -165t-230.5 -56q-76 0 -145.5 7t-101.5 15l-32 7q-3 66 -3 170q0 259 19 480q1 4 42.5 10.5t105 12.5t113.5 6q39 0 73.5 -3t77.5 -14.5t73.5 -30t51.5 -53.5t21 -81q0 -40 -8 -70.5
t-18.5 -45.5t-25 -24.5t-23 -11.5t-17.5 -2zM279 515q-6 -53 -6 -127q7 -2 18 -2q86 0 86 65q0 37 -19.5 54t-45.5 17q-19 0 -33 -7zM271 135q14 -3 32 -3q88 0 88 77q0 43 -22 61t-54 18q-24 0 -44 -8q-4 -38 -4 -82q0 -38 4 -63z" />
    <glyph glyph-name="C" unicode="C" horiz-adv-x="623" 
d="M269 334q0 -51 28 -80t81 -29q35 0 73 8.5t62 17.5t26 9q32 0 50.5 -32.5t18.5 -69.5q0 -71 -80 -114.5t-199 -43.5q-130 0 -222 93t-92 249q0 164 100.5 258.5t245.5 94.5q106 0 169 -58t63 -125q0 -36 -14.5 -65t-28.5 -39l-14 -11q-77 37 -180 37q-27 0 -45.5 -10.5
t-27 -27.5t-11.5 -31.5t-3 -30.5z" />
    <glyph glyph-name="D" unicode="D" 
d="M37 689q83 20 201 20q64 0 120 -7.5t117.5 -31t104.5 -60.5t71.5 -101t28.5 -149q0 -88 -29.5 -154.5t-74.5 -104.5t-107.5 -62t-118.5 -31.5t-119 -7.5q-46 0 -91.5 4t-68.5 8l-23 5q-4 15 -10 43q-13 240 -13 277q0 63 2.5 134t5.5 135t4 83zM255 173h15q16 0 33 2.5
t42 13t44 28.5t32.5 53t13.5 82v4q-1 53 -14.5 90t-35 54t-42 23.5t-43.5 6.5q-9 0 -45 -4v-353z" />
    <glyph glyph-name="E" unicode="E" horiz-adv-x="554" 
d="M31 679q54 22 256 26q88 2 107 2q46 0 76.5 -1.5t37.5 -2.5l7 -1q20 -52 20 -104q0 -114 -111 -123q-24 -1 -55 -1q-55 0 -95 4v-57q27 -3 66 -3q55 0 102 8q4 -2 9 -6t14 -24t9 -47v-4q-1 -51 -25 -72.5t-87 -21.5l-85 1v-55l3 -1q2 0 8 -0.5t13.5 -1t19 -1t22.5 -0.5
q88 0 164 26q32 -36 32 -91q0 -22 -2 -37t-11.5 -33.5t-26.5 -30t-49.5 -19.5t-77.5 -8h-110q-175 0 -236 20q-10 212 -11 340q0 55 4 134.5t8 131.5z" />
    <glyph glyph-name="F" unicode="F" horiz-adv-x="533" 
d="M551 709q4 -6 4 -43q0 -40 -5 -103q-2 -27 -16 -44.5t-39 -26t-51.5 -11.5t-63.5 -3q-48 0 -71 5v-56h187q9 -38 9 -82q0 -75 -39 -99.5t-120 -24.5q-21 0 -32 1q0 -42 -7 -114q-9 -105 -171 -105q-25 0 -51.5 2.5t-40.5 4.5l-15 3q-4 24 -6.5 152.5t-2.5 244.5l-1 116
q1 55 16.5 93.5t38 55t45 24.5t37.5 9l16 1h379z" />
    <glyph glyph-name="G" unicode="G" horiz-adv-x="657" 
d="M625 369q17 -62 17 -122q0 -121 -80.5 -184.5t-205.5 -63.5q-19 0 -40.5 2t-56.5 10t-66 22t-65 40.5t-58 62t-39.5 91t-15.5 123.5q0 70 14.5 126.5t36.5 93t54 63.5t61 40.5t63 22t54 10t41 1.5q79 0 134 -14.5t82.5 -39.5t38.5 -50.5t11 -55.5q0 -23 -5.5 -46.5
t-11.5 -35.5l-5 -12q-63 16 -164 16q-28 0 -50.5 -5.5t-45.5 -20t-35.5 -45.5t-12.5 -77q0 -43 13 -72.5t34 -42.5t38.5 -17.5t36.5 -4.5q23 0 33.5 5t10.5 22l-2 10q-7 -1 -20 -1q-68 0 -68 98q0 49 4 51h270z" />
    <glyph glyph-name="H" unicode="H" horiz-adv-x="687" 
d="M33 696q35 11 134 11q62 0 98 -31t36 -90q0 -118 -1 -165q10 0 30 -0.5t30 -0.5q21 0 31 1q8 246 13 275q35 11 134 11q62 0 98 -31t36 -90l-4 -544q-1 -2 -3.5 -4.5t-13 -10t-25 -13t-42 -10t-60.5 -4.5q-43 0 -72 15t-42.5 43.5t-18.5 57.5t-5 68v33l-87 5l-2 -180
q-1 -2 -3.5 -4.5t-13 -10t-25 -13t-42 -10t-60.5 -4.5q-43 0 -72 15t-42.5 43.5t-18.5 57.5t-5 68q0 90 7 284.5t11 227.5z" />
    <glyph glyph-name="I" unicode="I" horiz-adv-x="331" 
d="M34 695q36 11 141 11q66 0 103.5 -31t37.5 -90v-30l-4 -513q-1 -2 -3.5 -4.5t-14 -10t-27 -13t-44 -10t-63.5 -4.5q-45 0 -75.5 15t-44.5 43t-19.5 57.5t-5.5 68.5q0 92 7 285t12 226z" />
    <glyph glyph-name="J" unicode="J" horiz-adv-x="414" 
d="M393 606q6 -27 6 -136q0 -66 -7 -152q-7 -80 -18.5 -132.5t-37 -97.5t-69.5 -66t-109 -21q-180 0 -180 124q0 11 1.5 22t2.5 17l2 5q24 -5 51 -5q78 0 78 52l11 478q62 8 108 8q35 0 55 -2t45.5 -10.5t40 -29t20.5 -54.5z" />
    <glyph glyph-name="K" unicode="K" horiz-adv-x="702" 
d="M673 500q-13 -33 -44.5 -64.5t-56.5 -47.5l-25 -15q3 0 7.5 -0.5t18 -2.5t25.5 -5.5t27 -11.5t25.5 -18t18 -26.5t7.5 -36.5q0 -182 8 -216q-6 -6 -18 -15.5t-53 -25t-86 -15.5q-75 0 -104.5 28.5t-29.5 90.5q0 12 1 36.5t1 36.5q0 46 -14.5 72t-57.5 26l-7 -249
q-3 -5 -11.5 -11.5t-48.5 -18t-96 -11.5q-45 0 -75.5 15.5t-45 44t-19.5 58t-5 68.5q0 76 10.5 277.5t17.5 234.5q36 9 143 9q77 0 109.5 -31t32.5 -92q0 -38 -3 -128q79 65 128 223q42 17 91 17q54 0 98.5 -37.5t44.5 -92.5q0 -32 -14 -66z" />
    <glyph glyph-name="L" unicode="L" horiz-adv-x="509" 
d="M42 690q59 14 135 14q140 0 140 -144v-375h5q99 0 145 23q2 -1 5.5 -2.5t13 -8.5t16.5 -16t12.5 -24.5t5.5 -34.5q0 -42 -23 -68.5t-66 -38t-80 -15t-90 -3.5q-215 0 -219 123q-2 98 -2 213z" />
    <glyph glyph-name="M" unicode="M" horiz-adv-x="862" 
d="M41 674q33 26 139 26q44 0 81.5 -16t61 -37t46.5 -58.5t33.5 -62t27.5 -67.5t23 -57q2 8 10 33.5t30 73t50 88.5t73.5 72t96.5 31q75 0 134 -56v-622q-35 -22 -122 -22q-61 0 -85.5 23.5t-24.5 67.5v284l-75 -243q-40 -130 -99 -130q-32 0 -67 36.5t-63.5 90.5t-49.5 108
t-32 96q-3 -251 -3 -305q-40 -28 -113 -28q-53 0 -75.5 21.5t-22.5 65.5q0 97 7.5 322.5t18.5 264.5z" />
    <glyph glyph-name="N" unicode="N" horiz-adv-x="707" 
d="M24 573q0 23 11.5 51.5t45 55.5t80.5 27q90 0 150 -74t104 -205l-12 265q69 13 129 13q150 0 157 -109q1 -9 1 -28q0 -11 1 -58.5t1 -80.5q-1 -271 -11 -334q-12 -70 -51 -86q-21 -9 -62 -9q-45 0 -85.5 17t-69.5 47.5t-50.5 59t-37.5 64t-21.5 49.5t-9.5 28l-1 -210v-3
l-5 -5q-5 -6 -15 -14t-24.5 -15.5t-38 -13t-50.5 -5.5q-70 0 -107.5 40.5t-37.5 95.5q0 75 4.5 220.5t4.5 216.5z" />
    <glyph glyph-name="O" unicode="O" 
d="M363 707q59 0 107.5 -14t80.5 -36t56.5 -53t37.5 -61.5t21 -65.5t10.5 -60.5t2.5 -51.5q0 -17 -1.5 -36.5t-9 -58.5t-20 -73t-39.5 -73t-62.5 -67t-93 -46.5t-127.5 -18.5q-60 0 -109 15.5t-80.5 39.5t-55 57.5t-36 65t-19.5 67.5t-9 58.5t-2 43.5q0 25 1 43.5t7.5 58.5
t19 70.5t38 68t61.5 62.5t93 44t128 21zM340 164q40 0 64.5 39t31 81t6.5 86q0 62 -23.5 113t-70.5 51q-96 0 -96 -189q0 -22 2.5 -45.5t10 -58t27 -56t48.5 -21.5z" />
    <glyph glyph-name="P" unicode="P" horiz-adv-x="576" 
d="M622 494q0 -49 -12.5 -101t-39.5 -84q-79 -93 -285 -93v-165q-1 -2 -2.5 -5.5t-10.5 -12.5t-22 -16t-38 -12.5t-56 -5.5q-83 0 -118.5 38t-35.5 121q0 126 3.5 311.5t10.5 209.5q67 28 273 28q333 0 333 -213zM265 526v-150q15 -3 32 -3q97 0 97 86q0 74 -75 74
q-12 0 -25.5 -1.5t-21.5 -3.5z" />
    <glyph glyph-name="Q" unicode="Q" horiz-adv-x="692" 
d="M665 40q5 -3 12.5 -10t19.5 -32t12 -55q0 -61 -51 -104.5t-169 -43.5q-218 0 -235 211q-53 10 -94.5 34t-66 56.5t-41.5 66t-24.5 71t-10 61.5t-2.5 46q0 158 86.5 262t257.5 105h16q78 -2 136 -29t88.5 -63t49 -85.5t23.5 -86t5 -75.5q0 -18 -1 -35t-6.5 -48t-15 -58
t-28.5 -61t-45 -61t-67 -52.5t-92 -42.5q17 -41 87 -41q43 0 82 17.5t57 34.5zM350 539q-27 0 -46.5 -17t-29 -39t-14.5 -53t-6 -48t-1 -35q0 -22 2.5 -45.5t10.5 -56.5t27 -54t48 -21q33 0 55 24t30.5 61.5t11 62t2.5 46.5q0 162 -90 175z" />
    <glyph glyph-name="R" unicode="R" horiz-adv-x="648" 
d="M546 297q3 0 9 -1t21 -7.5t26 -17.5t20.5 -34t9.5 -54q0 -47 -1 -90t-1 -45q0 -12 1 -16q-46 -32 -125 -32q-64 0 -103 31.5t-39 98.5v96q0 37 -42 37q-12 0 -25 -3v-209q-1 -2 -2.5 -5.5t-10.5 -12.5t-21.5 -15.5t-37.5 -12t-57 -5.5q-82 0 -117.5 38t-35.5 120
q0 126 3.5 311t10.5 209q66 28 272 28q332 0 332 -213q0 -42 -9 -77.5t-21.5 -56.5t-25.5 -36t-22 -21zM278 376q14 -3 31 -3q97 0 97 86q0 74 -75 74q-12 0 -25.5 -2t-20.5 -4l-7 -2v-149z" />
    <glyph glyph-name="S" unicode="S" horiz-adv-x="577" 
d="M254 471q6 -19 32 -28t60 -9t72 -8.5t70 -24t53 -58t21 -108.5q0 -57 -24.5 -101t-60.5 -68.5t-83.5 -40t-86 -20.5t-76.5 -5q-60 0 -106 10.5t-78 40.5t-32 77q0 27 7 48.5t16.5 32.5t19.5 18t17 9l7 2q20 -14 83 -37t100 -23q62 0 62 25q0 13 -32 27.5t-77 27t-47 13.5
q-1 0 -18.5 5t-29 10t-30.5 19t-31 32.5t-21 50.5t-9 72q0 240 279 240q121 0 186 -42t65 -105q0 -22 -8.5 -40t-20.5 -27.5t-24 -15.5t-21 -8l-8 -2q-54 41 -169 41q-57 0 -57 -30z" />
    <glyph glyph-name="T" unicode="T" horiz-adv-x="450" 
d="M514 715q6 -11 6 -81q0 -150 -74 -156q-41 0 -85 1q-4 -72 -4 -184q0 -182 7 -258q-36 -37 -133 -37q-43 0 -74 16t-45 42.5t-20 50.5t-6 49q0 5 0.5 12t1 25t1 48t1 93t1.5 148l-143 -6q-31 30 -31 123q0 35 13 60.5t33.5 38t40.5 17.5t41 5l31 -1q30 -1 141 -3t297 -3z
" />
    <glyph glyph-name="U" unicode="U" horiz-adv-x="689" 
d="M674 514q0 -48 -1.5 -85t-8.5 -93.5t-19.5 -99t-37.5 -89.5t-59 -77t-86 -50t-118 -20q-65 0 -117 20t-86 50.5t-58.5 77t-37 89t-20 99t-9 93.5t-1.5 85q0 44 4 73.5t17 60t41.5 46t73.5 15.5q23 0 48 -3.5t40.5 -7.5t34.5 -9t22 -6v-409q0 -80 48 -80q51 0 51 88v401
q76 26 144 26q35 0 60 -10.5t39 -26.5t22.5 -43t11 -52.5t2.5 -62.5z" />
    <glyph glyph-name="V" unicode="V" horiz-adv-x="665" 
d="M521 695q59 0 106 -36t47 -105q0 -60 -17 -115.5t-48 -130t-48 -131.5q-15 -38 -24 -57.5t-28.5 -47t-41 -41t-57.5 -24t-83 -10.5q-34 0 -63 11t-49 25t-38 40t-28 44.5t-20.5 50.5t-14 45t-9.5 40l-90 402q42 51 152 51q62 0 104.5 -36t49.5 -98l28 -258q67 262 88 361
q34 20 84 20z" />
    <glyph glyph-name="W" unicode="W" horiz-adv-x="933" 
d="M-27 623q61 81 155 81q111 0 126 -109q6 -48 18 -116t20 -112l9 -44l71 357q17 27 84 27q75 0 114 -28.5t60 -108t27 -236.5l82 349q26 24 74 24q62 0 103.5 -40.5t41.5 -113.5q0 -35 -12.5 -99.5t-39 -143.5t-61 -149t-86 -117.5t-106.5 -47.5q-198 0 -211 321
q0 -7 -1 -18.5t-6.5 -44.5t-14 -63.5t-26 -67t-39.5 -63.5t-57.5 -45t-77.5 -18q-58 0 -105 64.5t-72.5 156.5t-42 184t-22.5 156z" />
    <glyph glyph-name="X" unicode="X" horiz-adv-x="710" 
d="M537 299q4 -25 24.5 -52.5t43.5 -46.5t41.5 -36t18.5 -25q0 -9 -2 -21.5t-8.5 -35t-24.5 -43.5t-45 -33q-35 -16 -78 -16q-112 0 -206 147q-20 -21 -35 -49t-20 -45l-5 -17q-59 -33 -106 -33q-38 0 -64 14t-37 36t-15 38.5t-4 30.5q0 101 165 241l-137 255q3 4 9 10.5
t25.5 23t41 29.5t54.5 24t66 12h4q22 -2 41 -7t32.5 -11t26 -17.5t19.5 -19t16 -24t12.5 -24t11.5 -27t11 -26.5q30 25 48 52.5t21 42.5l3 15q37 16 80 16q51 0 90.5 -36.5t39.5 -113.5q0 -108 -158 -228z" />
    <glyph glyph-name="Y" unicode="Y" horiz-adv-x="621" 
d="M20 668q3 4 10.5 10.5t40 17.5t77.5 11q70 0 102.5 -36t32.5 -82q0 -49 -1.5 -61.5t-1.5 -41.5q0 -77 36 -77q41 0 41 77v177q-2 3 8.5 13t38.5 20.5t66 10.5q67 0 101.5 -40.5t34.5 -108.5l-8 -229q0 -10 -1 -24.5t-7 -51t-17 -69t-34 -71t-54.5 -66.5t-82 -47
t-113.5 -19q-79 0 -135 16t-85 43.5t-41.5 57t-12.5 63.5q0 48 19 88q8 -6 23.5 -16t64 -26t97.5 -16q74 0 104 31.5t31 71.5q-3 -4 -11 -10t-46 -16.5t-91 -10.5q-91 0 -141 45.5t-50 126.5z" />
    <glyph glyph-name="Z" unicode="Z" horiz-adv-x="608" 
d="M89 496q-9 41 -9 76q0 132 179 132q43 0 171 -8t148 -8q20 -47 20 -133q0 -40 -22.5 -86.5t-49 -81t-70.5 -76.5t-64 -58.5t-53 -42.5q14 -1 40 -1q48 0 96.5 5.5t72.5 10.5l24 5q15 -47 15 -100q0 -29 -9 -51.5t-26 -36t-36.5 -23t-47.5 -13.5t-51 -5.5t-53 -1.5
q-92 0 -149 4t-106.5 15.5t-71.5 35t-22 60.5q0 43 30.5 98.5t66 97.5t86 90t66.5 61.5t33 26.5q-22 3 -74 5t-93 3h-41z" />
    <glyph glyph-name="bracketleft" unicode="[" horiz-adv-x="463" 
d="M292 679v-614q89 5 121 5q11 0 11 -1l-2 -18q-2 -28 -5 -43t-14 -38t-29.5 -35t-54 -21.5t-86.5 -9.5q-47 0 -82.5 17t-53 40.5t-28 55t-13 51.5t-2.5 40q0 90 4.5 272t4.5 276q0 204 192 204q93 0 129 -36.5t36 -86.5q0 -13 -2 -26.5t-4 -20.5l-3 -7q-119 0 -119 -4z
" />
    <glyph glyph-name="backslash" unicode="\" horiz-adv-x="465" 
d="M264 648q14 -27 60.5 -171t85.5 -275l40 -130q-2 -3 -5 -8t-14 -17t-24 -21.5t-34.5 -17.5t-45.5 -8q-56 0 -94 27t-51 73l-167 544q6 7 16 17.5t44.5 28t71.5 17.5q20 0 40 -5q55 -14 77 -54z" />
    <glyph glyph-name="bracketright" unicode="]" horiz-adv-x="463" 
d="M186 679q0 2 -30 3t-60 1h-29q-9 24 -9 54q0 50 36 86.5t129 36.5q192 0 192 -204q0 -94 4.5 -276t4.5 -272q0 -20 -2.5 -40t-13 -51.5t-28 -55t-53 -40.5t-82.5 -17q-51 0 -86.5 9.5t-54 21.5t-29.5 35t-14 38t-5 43l-2 18q0 1 11 1l121 -5v614z" />
    <glyph glyph-name="asciicircum" unicode="^" horiz-adv-x="257" 
d="M211 817q16 -22 16 -44q0 -16 -14.5 -26t-31.5 -10q-29 0 -53 45q-26 -45 -53 -45q-17 0 -31 10t-14 26q0 23 15 44q1 2 3.5 6t10 13.5t16.5 16.5t23.5 13t30.5 6q24 0 44.5 -14t28.5 -28z" />
    <glyph glyph-name="underscore" unicode="_" horiz-adv-x="399" 
d="M15 31q0 7 2.5 15t9.5 18.5t25 18t45 8.5q29 1 206 1q57 0 65 1q16 -12 16 -61q-4 -33 -19 -44t-58 -13q-18 -2 -97 -2l-179 2q0 -1 -1.5 1.5t-4 7t-5 11t-4 16.5t-1.5 20z" />
    <glyph glyph-name="grave" unicode="`" horiz-adv-x="168" 
d="M84 879l69 -106q0 -4 -1.5 -9t-10.5 -14t-24 -9q-32 0 -67 29.5t-35 60.5q0 23 17.5 36.5t38.5 13.5q9 0 13 -2z" />
    <glyph glyph-name="a" unicode="a" horiz-adv-x="659" 
d="M643 369q0 -36 -4.5 -155.5t-4.5 -179.5q-2 -5 -8 -12t-33 -19.5t-64 -13.5h-5q-58 0 -88.5 32t-31.5 83q-1 -4 -4 -11t-16 -25t-31 -32t-51.5 -25t-74.5 -11q-90 0 -150.5 68t-60.5 158q0 111 67.5 185.5t179.5 74.5q98 0 140 -36q-4 24 -11 33q38 41 126 41
q60 0 91.5 -46t33.5 -109zM333 166q37 0 56 25.5t19 70.5q0 42 -12.5 62t-49.5 20q-87 0 -87 -94q0 -36 19 -60t55 -24z" />
    <glyph glyph-name="b" unicode="b" horiz-adv-x="598" 
d="M16 679q77 18 123 18q16 -1 31.5 -5.5t33 -15t28.5 -31.5t11 -50q0 -41 -2 -72.5t-3 -42.5l-2 -11q2 2 5 5.5t15.5 13t26.5 16.5t38 12.5t51 5.5q31 -2 55 -7t55 -21t51.5 -41.5t35 -72.5t14.5 -109q0 -73 -25 -128t-69.5 -86.5t-98.5 -47t-117 -15.5q-258 0 -258 198
v171zM310 166q36 0 55 24t19 60q0 94 -87 94q-37 0 -49.5 -20t-12.5 -62q0 -45 19 -70.5t56 -25.5z" />
    <glyph glyph-name="c" unicode="c" horiz-adv-x="536" 
d="M268 251q0 -38 19.5 -60t58.5 -22q26 0 53 6.5t44.5 13.5t19.5 7q47 0 57 -68q0 -38 -23.5 -64.5t-62 -39.5t-75.5 -18.5t-77 -5.5q-111 0 -189 70t-78 187q0 119 85 192t211 73q90 0 144 -43.5t54 -93.5q0 -28 -12.5 -49.5t-24.5 -29.5l-13 -7q-29 27 -117 27
q-43 0 -58.5 -23.5t-15.5 -51.5z" />
    <glyph glyph-name="d" unicode="d" horiz-adv-x="613" 
d="M600 583l7 -546q-4 -5 -11.5 -13.5t-39.5 -22t-72 -13.5q-31 0 -53 13.5t-31 35t-12 36.5t-3 28q-1 -4 -3 -11t-13.5 -24t-28.5 -30t-51 -24t-78 -11q-46 0 -81.5 15.5t-57.5 41t-36.5 61t-20 71.5t-5.5 77q0 45 14.5 86.5t44.5 78t85 58t128 21.5q36 0 81 -6q3 9 3 106
q0 45 -3 62q30 29 119 29q64 0 91 -29.5t27 -89.5zM309 180q37 0 56 25.5t19 70.5q0 42 -12.5 62t-49.5 20q-87 0 -87 -94q0 -36 19 -60t55 -24z" />
    <glyph glyph-name="e" unicode="e" horiz-adv-x="535" 
d="M267 0q-71 0 -122.5 23.5t-78.5 63.5t-39 83t-12 91q0 46 15.5 91.5t45.5 84.5t80.5 63t113.5 24q127 0 188.5 -54t61.5 -146q0 -40 -16.5 -66.5t-47 -37t-55 -14t-59.5 -3.5q-31 0 -57.5 7t-37.5 14l-11 7q1 -40 31 -58.5t75 -18.5q54 0 129 25q12 -24 12 -48
q0 -52 -50 -91.5t-166 -39.5zM293 399q-27 0 -43.5 -20.5t-16.5 -49.5q0 -13 1 -22q27 -16 71 -16q25 1 40.5 16t15.5 36q0 24 -20.5 39.5t-47.5 16.5z" />
    <glyph glyph-name="f" unicode="f" horiz-adv-x="528" 
d="M441 520q-53 -2 -66 -58l109 10q13 -32 13 -71q0 -87 -82 -96q-5 0 -18 -0.5t-22 -0.5q7 -203 7 -259q-1 -2 -3 -5t-13.5 -11t-28.5 -14t-49.5 -11t-74.5 -5q-119 0 -119 146q0 3 2.5 50t2.5 114l-72 3q-12 30 -12 66q0 82 86 89q-3 20 -3 37q0 103 85.5 157.5
t205.5 54.5q114 0 160 -39.5t46 -95.5q0 -20 -4.5 -42t-9.5 -34l-5 -12q-58 27 -135 27z" />
    <glyph glyph-name="g" unicode="g" horiz-adv-x="631" 
d="M489 549q72 0 99.5 -44t27.5 -117q0 -37 -4 -130.5t-8 -167.5l-3 -75q0 -7 -1.5 -18t-9 -44t-20 -63t-38.5 -66.5t-60 -63t-89 -45t-122 -18.5q-34 0 -71.5 9t-78 28.5t-66.5 59.5t-26 95q0 50 29 99q7 -7 20.5 -18t58.5 -29t94 -18q79 6 114.5 34.5t35.5 84.5
q-5 -5 -16 -12t-48 -18.5t-79 -11.5q-39 0 -73.5 13t-67 42t-52 86t-19.5 137q0 5 0.5 13.5t4.5 33t11.5 46.5t23.5 49t38.5 46.5t59 33t82.5 13.5q93 0 144 -37l-10 29l2.5 5t9 10.5t19.5 13t35 10.5t53 5zM321 183q79 0 79 97q0 34 -19.5 56t-53.5 22q-3 0 -8 -1t-17.5 -6
t-22 -13t-17.5 -24.5t-8 -38.5q0 -92 67 -92z" />
    <glyph glyph-name="h" unicode="h" horiz-adv-x="653" 
d="M441 510q54 0 94 -17t59 -38.5t30 -52.5t12.5 -48.5t1.5 -37.5l-8 -290q-58 -40 -115 -40q-63 0 -104.5 33t-41.5 96q0 165 3 165q0 57 -47 57q-17 0 -26.5 -12.5t-11.5 -22.5t-2 -20v-113v-124q-4 -6 -13 -14.5t-40.5 -22.5t-67.5 -14q-138 0 -149 168q5 441 10 510
q55 35 126 35q32 0 52 -3t41 -12.5t31 -31.5t10 -56v-175q62 81 156 81z" />
    <glyph glyph-name="i" unicode="i" horiz-adv-x="332" 
d="M41 421q-15 -34 -15 -195q0 -126 32.5 -177.5t118.5 -51.5q33 0 59.5 5.5t40 13.5t23 16t12.5 14l2 5v288q0 118 -142 118q-36 0 -69 -9t-47 -18zM167 484q-70 0 -105 34.5t-35 91.5q0 5 0.5 13t8 28.5t19.5 36t39.5 28.5t65.5 13t66.5 -10.5t44 -25.5t24.5 -35t11.5 -34
t2.5 -27q0 -34 -38 -73.5t-104 -39.5z" />
    <glyph glyph-name="j" unicode="j" horiz-adv-x="338" 
d="M190 567q-70 0 -105 34.5t-35 91.5q0 5 0.5 13t8 28.5t19.5 36t39.5 28.5t65.5 13t66.5 -10.5t44 -25.5t24.5 -35t11.5 -34t2.5 -27q0 -34 -38 -73.5t-104 -39.5zM326 439q6 -27 6 -136q0 -146 -7 -232q-7 -80 -18.5 -132.5t-37 -97.5t-69.5 -66t-109 -21
q-180 0 -180 124q0 11 1.5 22t3.5 16l1 6q24 -5 51 -5q78 0 78 52l11 558q62 8 108 8q35 0 55 -2t45.5 -10.5t40 -29t20.5 -54.5z" />
    <glyph glyph-name="k" unicode="k" horiz-adv-x="624" 
d="M600 168q4 -116 9 -140q-1 -3 -5 -7.5t-32.5 -12t-76.5 -7.5q-76 0 -102.5 27.5t-26.5 80.5q0 46 -12 72t-46 26q-7 0 -10 -1l-4 -165q-1 -2 -3.5 -4.5t-13.5 -9.5t-25.5 -12.5t-41.5 -10t-60 -4.5q-42 0 -70.5 15.5t-41.5 44t-18 58t-5 69.5q0 76 10 277.5t16 233.5
q33 10 133 10q71 0 100.5 -31t29.5 -93q0 -67 -5 -254q12 13 23.5 49.5t26.5 95t29 98.5q33 10 73 10q44 0 81 -11t64.5 -40t27.5 -72q0 -37 -35.5 -96t-83.5 -89q4 0 10.5 -0.5t22.5 -6t28.5 -15.5t23 -32t10.5 -53z" />
    <glyph glyph-name="l" unicode="l" horiz-adv-x="318" 
d="M30 671q49 36 131 36q142 0 142 -118v-538q-1 -2 -3 -5.5t-11.5 -13t-23 -16.5t-40 -13t-59.5 -6q-86 0 -118.5 51.5t-32.5 177.5q0 72 3.5 183t7.5 187z" />
    <glyph glyph-name="m" unicode="m" horiz-adv-x="987" 
d="M790 516h12q40 0 72 -15t49.5 -37t29 -50.5t15.5 -52t4 -44.5l-8 -271q-6 -5 -17 -12.5t-47 -20.5t-74 -13q-62 0 -97.5 40t-35.5 102q0 42 2 95.5t2 74.5q0 42 -35 42q-31 0 -38 -28v-9q-1 -29 -4 -135t-4 -136q-2 -5 -10.5 -13.5t-36.5 -19.5t-67 -12q-4 0 -11.5 -0.5
t-10.5 -0.5q-63 0 -98 40t-35 102q0 42 1 95.5t1 74.5q0 42 -33 42q-19 0 -28.5 -11.5t-11 -23.5t-1.5 -36l-5 -235q-1 -2 -3 -5t-11 -11t-21.5 -14.5t-36 -11.5t-52.5 -5q-70 0 -100.5 44t-30.5 102v85q0 203 20 277q52 25 118 25q27 0 45.5 -3t36.5 -12.5t27.5 -29
t9.5 -50.5q0 -7 -1 -13q2 4 5.5 10t18 21.5t33.5 27.5t53 21.5t74 9.5q111 0 153 -107q13 39 56 73t126 34z" />
    <glyph glyph-name="n" unicode="n" horiz-adv-x="651" 
d="M35 513q53 25 120 25q57 0 89.5 -19.5t32.5 -77.5q0 -7 -1 -14q2 4 5.5 10t18.5 22t34.5 28.5t53.5 22.5t75 10q42 0 74 -15.5t50 -38t30 -51.5t15.5 -52.5t3.5 -45.5l-8 -276q-6 -5 -17.5 -13t-48 -21t-74.5 -13q-64 0 -99.5 40.5t-35.5 103.5q0 43 1.5 97.5t1.5 75.5
q0 43 -35 43q-19 0 -29 -11.5t-11.5 -24t-1.5 -36.5l-4 -240q-2 -5 -9 -13t-39 -21t-79 -13q-71 0 -102 44.5t-31 104.5v86q0 211 20 283z" />
    <glyph glyph-name="o" unicode="o" horiz-adv-x="572" 
d="M279 524q64 0 113.5 -14t78.5 -39t47.5 -51t26.5 -59.5t10 -53.5t2 -43q0 -28 -3 -54t-18.5 -67t-42 -70t-80 -51t-126.5 -22q-272 0 -272 267q0 24 3.5 49t19 65t42 69.5t78 51.5t121.5 22zM291 182q29 0 50 24t21 59q0 34 -21 57t-50 23q-31 0 -52.5 -23t-21.5 -57
q0 -35 21.5 -59t52.5 -24z" />
    <glyph glyph-name="p" unicode="p" horiz-adv-x="586" 
d="M17 499q50 23 106 23q10 0 17 -1q36 0 72.5 -28.5t37.5 -65.5q1 3 3 8t12.5 18t25.5 22.5t44 17.5t66 8h5q65 -1 111.5 -38t66.5 -88t20 -109q0 -32 -7.5 -65t-25 -66.5t-43 -59.5t-66 -42t-90.5 -16q-32 0 -84 10q2 -167 7 -193q-4 -4 -12 -10.5t-42.5 -17t-78.5 -10.5
h-7q-73 1 -106.5 49t-33.5 124v6zM306 163q35 0 53 23t18 57q0 90 -82 90q-36 0 -48 -18.5t-12 -59.5q0 -42 18.5 -67t52.5 -25z" />
    <glyph glyph-name="q" unicode="q" horiz-adv-x="636" 
d="M405 503q29 20 74 20q30 0 64 -8.5t55.5 -17t22.5 -8.5v-672q-36 -40 -137 -40q-38 0 -65 14.5t-39.5 39t-17.5 48t-5 51.5l7 89q-76 -27 -140 -27q-96 0 -152.5 66t-56.5 191q0 134 73.5 203.5t195.5 69.5q58 0 121 -19zM320 174q37 0 56 25.5t19 70.5q0 42 -12.5 62
t-49.5 20q-87 0 -87 -94q0 -36 19 -60t55 -24z" />
    <glyph glyph-name="r" unicode="r" horiz-adv-x="633" 
d="M27 513q51 25 122 25q59 0 96.5 -19.5t37.5 -60.5q1 3 3 7.5t12.5 16t25 20.5t41.5 16t61 7q85 0 138.5 -62t53.5 -135q0 -146 -161 -146q-44 0 -91 8l-4 122q0 47 -40 47q-22 0 -29 -14t-7 -39l-1 -256q-3 -6 -10.5 -14.5t-41 -23t-80.5 -14.5q-46 0 -74.5 11t-42 37
t-17.5 56t-4 83q0 55 3 137t6 136z" />
    <glyph glyph-name="s" unicode="s" horiz-adv-x="487" 
d="M233 345q1 -5 7.5 -9t18 -6t21.5 -3.5t23 -2t18 -1.5q12 -1 26.5 -3t41 -10.5t47 -22.5t36 -42t15.5 -64q0 -181 -281 -181q-61 0 -99.5 7t-57 23t-25 32t-8.5 44q0 28 17.5 46t34.5 22l18 3q71 -37 134 -37q48 0 48 13q0 6 -14 10.5t-28 6.5l-15 1q-8 0 -20.5 1.5
t-44.5 12t-57 27t-45 51.5t-20 82t22.5 82.5t54.5 52t63.5 26t53.5 10.5l23 2q66 0 113 -9.5t69.5 -21t35 -32t14 -33t1.5 -32.5q0 -21 -17 -36.5t-35 -20.5l-17 -5q-45 29 -139 29q-32 0 -33 -12z" />
    <glyph glyph-name="t" unicode="t" horiz-adv-x="513" 
d="M453 254q3 0 8 -1t18 -6.5t22.5 -15.5t17.5 -31t8 -50q0 -75 -75 -122t-175 -47q-52 0 -90.5 11t-71.5 38t-50.5 79.5t-17.5 129.5v96q-69 0 -69 97q0 20 3 43t5 35l3 13q24 -2 61 -4v175q96 13 151 13q54 0 88.5 -36.5t34.5 -96.5q0 -13 -2 -54l123 10q30 -31 30 -106
q0 -101 -155 -101h-12q-3 -24 -3 -49q0 -72 40 -90q12 -5 23 -5q34 0 55 18.5t25 37.5z" />
    <glyph glyph-name="u" unicode="u" horiz-adv-x="642" 
d="M36 497q25 23 120 23q70 0 108.5 -39.5t38.5 -108.5v-150q0 -56 37 -56q38 0 38 69v5.5v18t-0.5 37t-0.5 72v113.5q0 3 4.5 7.5t14.5 10t23.5 10.5t34.5 8t45 3q133 0 133 -159q0 -44 -3.5 -123.5t-6.5 -136.5l-4 -57l-3 -6t-11 -13.5t-20 -16.5t-31 -13t-44 -6t-45 5
t-34 12.5t-23 14.5t-14 12l-4 5l-6 61q-1 -4 -2.5 -11t-12 -25.5t-26 -32t-47.5 -25t-74 -11.5q-53 0 -91.5 19.5t-59 53t-30 70.5t-9.5 79z" />
    <glyph glyph-name="v" unicode="v" horiz-adv-x="629" 
d="M475 525q54 0 96.5 -27.5t42.5 -79.5q0 -45 -15.5 -87t-44 -98.5t-43.5 -99.5q-17 -36 -28.5 -54t-35 -40.5t-60 -32t-88.5 -9.5q-42 0 -76.5 15.5t-54 34t-36 50.5t-22 48.5t-13.5 44.5l-82 305q38 38 138 38q57 0 95.5 -27t44.5 -74l26 -195q60 198 80 273q30 15 76 15
z" />
    <glyph glyph-name="w" unicode="w" horiz-adv-x="901" 
d="M-3 461q59 60 146 60q107 0 120 -81q6 -36 17.5 -86.5t19.5 -82.5l8 -32l66 264q16 20 80 20q72 0 109 -21t56.5 -80t24.5 -175l78 258q26 18 71 18q58 0 97.5 -30t39.5 -84q0 -26 -12 -73.5t-37 -106.5t-58 -111t-81.5 -87t-101.5 -35q-41 0 -77 13q-116 43 -121 225
q-1 -10 -3 -26t-15 -56.5t-33.5 -72t-62.5 -57t-97 -25.5t-99.5 48t-68.5 116t-40 136t-21 116z" />
    <glyph glyph-name="x" unicode="x" horiz-adv-x="580" 
d="M435 230q4 -25 32 -52t54 -46t26 -26t-2 -17t-8 -27.5t-21.5 -33.5t-39.5 -26q-30 -12 -67 -12q-99 0 -181 114q-17 -16 -30.5 -37.5t-17.5 -34.5l-5 -14q-51 -26 -93 -26q-32 0 -55 11t-32.5 28t-13 30t-3.5 24q0 83 144 186l-120 198l8 8t22.5 18t36 23t47 18.5
t57.5 9.5h4q26 -2 46.5 -8.5t33 -12.5t25 -22.5t16.5 -22t15 -28t13 -26.5q26 19 42 40.5t18 33.5l3 11q33 12 70 12q45 0 79.5 -28.5t34.5 -87.5q0 -85 -138 -177z" />
    <glyph glyph-name="y" unicode="y" horiz-adv-x="651" 
d="M44 490q48 32 132 32q57 -3 93.5 -43.5t36.5 -102.5q0 -28 -3.5 -72.5t-3.5 -63.5q0 -67 37 -67q40 0 40 80v229q-2 0 2 3.5t13.5 8.5t23.5 10t36 8.5t46 3.5q137 0 137 -178q0 -28 1 -59.5t1 -40.5q0 -41 -2.5 -82t-11.5 -97t-23.5 -104t-41 -97t-61 -83.5t-86.5 -56.5
t-116 -22q-124 0 -201.5 47.5t-77.5 147.5q0 57 42 102q3 -3 8 -7.5t22 -16.5t37 -21.5t52 -17t66 -7.5q70 0 103.5 33.5t33.5 86.5q-3 -4 -11 -11t-44.5 -18t-87.5 -11q-46 2 -78 11t-60 29.5t-42 60.5t-14 100v74.5t0.5 78t1 67.5t0.5 49t0 17z" />
    <glyph glyph-name="z" unicode="z" horiz-adv-x="547" 
d="M489 524q2 -1 6 -2.5t13.5 -8t16.5 -16t13 -27.5t6 -40q0 -28 -10.5 -52.5t-20 -35.5t-31.5 -31.5t-27 -25.5q-16 -16 -54.5 -45t-69.5 -50l-31 -21q109 1 186 32q2 0 6 -1t14 -7t17.5 -14t14 -24t6.5 -37q0 -130 -178 -130q-38 0 -58.5 0.5t-58.5 1.5t-60.5 4.5
t-53.5 9.5t-49 15.5t-36.5 22.5t-26.5 32t-8 42q0 37 21.5 73.5t52.5 63t61.5 48t51.5 31.5l22 11q-29 1 -64 1q-71 0 -102 -6q-9 23 -9 57q0 57 24.5 90.5t98.5 37.5q40 0 119 -6.5t112 -6.5q58 0 86 14z" />
    <glyph glyph-name="braceleft" unicode="{" horiz-adv-x="478" 
d="M444 53q2 -22 2 -33q0 -60 -37 -92.5t-128 -32.5q-93 0 -126.5 47.5t-33.5 141.5q0 24 3 65t3 53q-1 15 -4 20.5t-20.5 11.5t-57.5 12q-53 7 -53 88q0 17 2.5 35.5t5.5 28.5l2 10l74 -1q26 0 36 15.5t10 46.5q0 19 -9.5 82t-9.5 97q0 72 62.5 108.5t144.5 40.5h10
q134 0 134 -108q0 -17 -4.5 -29t-9.5 -15l-4 -3q-26 10 -52 10q-31 0 -49.5 -16.5t-18.5 -47.5q0 -25 9 -81t9 -76q0 -25 -11.5 -46.5t-22.5 -30.5l-12 -9q55 -5 55 -101q0 -40 -9.5 -87t-9.5 -68q0 -28 10.5 -41t37.5 -13q15 0 33 4.5t29 8.5z" />
    <glyph glyph-name="bar" unicode="|" horiz-adv-x="464" 
d="M207 777q4 1 11 1q18 0 36 -6t42.5 -23.5t41 -60t18.5 -105.5q4 -93 4 -207q0 -49 -1 -126t-1 -125q0 -121 3 -146q-3 -4 -10 -11t-35 -18t-65 -11q-50 0 -82 12t-48.5 39.5t-23 56.5t-9.5 77q-2 36 -2 177q0 299 3 431v8q3 3 10 8.5t37 15.5t71 13z" />
    <glyph glyph-name="braceright" unicode="}" horiz-adv-x="505" 
d="M29 53q38 -18 72 -18q27 0 37.5 13t10.5 41q0 21 -9.5 68t-9.5 87q0 96 55 101q-5 3 -12.5 9.5t-20.5 29t-13 47.5q0 20 9 76t9 81q0 31 -18.5 47.5t-49.5 16.5q-26 0 -52 -10q-18 8 -18 47q0 108 134 108h10q82 -4 144.5 -40.5t62.5 -108.5q0 -34 -9.5 -97t-9.5 -82
q0 -31 10 -46.5t36 -15.5l74 1q10 -36 10 -74q0 -81 -53 -88q-40 -6 -57.5 -12t-20.5 -11.5t-4 -20.5q0 -12 3 -53t3 -65q0 -94 -33.5 -141.5t-126.5 -47.5q-91 0 -128 32.5t-37 92.5q0 11 2 33z" />
    <glyph glyph-name="asciitilde" unicode="~" horiz-adv-x="659" 
d="M195 545q-64 33 -64 80q0 40 38.5 69.5t81.5 29.5q28 0 81 -18.5t81 -18.5q18 0 28 8.5t11 16.5l1 8q2 1 6 1q37 0 61 -20t24 -66q0 -36 -34.5 -58t-77.5 -22q-32 0 -93 16t-81 18q-19 0 -35 -11t-22 -22zM643 369q0 -36 -4.5 -155.5t-4.5 -179.5q-2 -5 -8 -12t-33 -19.5
t-64 -13.5h-5q-58 0 -88.5 32t-31.5 83q-1 -4 -4 -11t-16 -25t-31 -32t-51.5 -25t-74.5 -11q-90 0 -150.5 68t-60.5 158q0 111 67.5 185.5t179.5 74.5q98 0 140 -36q-4 24 -11 33q38 41 126 41q60 0 91.5 -46t33.5 -109zM333 166q37 0 56 25.5t19 70.5q0 42 -12.5 62
t-49.5 20q-87 0 -87 -94q0 -36 19 -60t55 -24z" />
    <glyph glyph-name="exclamdown" unicode="&#xa1;" horiz-adv-x="376" 
d="M175 518q-39 0 -65.5 10t-38 26t-15.5 29t-4 26q0 45 32 71.5t84 26.5q32 0 62 -8t54 -31t24 -58q0 -11 -4 -23t-15.5 -29.5t-41 -28.5t-72.5 -11zM198 -28q81 0 116 24q0 38 1 124.5t1 141.5q0 86 -2 108q-5 59 -33 86t-113 27q-32 0 -56.5 -6.5t-33.5 -12.5l-8 -6
q2 -10 2 -88q0 -29 -0.5 -76t-0.5 -77q0 -70 4 -126q2 -31 12.5 -54.5t24 -35t31.5 -19t30.5 -9t24.5 -1.5z" />
    <glyph glyph-name="cent" unicode="&#xa2;" horiz-adv-x="535" 
d="M520 170q0 -54 -45.5 -83t-114.5 -39q1 -6 1 -20q0 -20 -4 -37q-21 -94 -128 -94l-44 5v156q-76 26 -123 89t-47 152q0 86 46 149.5t123 93.5q0 22 5 42q21 94 128 94l43 -5v-113q69 -11 109 -51t40 -82q0 -28 -12.5 -49.5t-24.5 -29.5l-13 -7q-29 27 -117 27
q-43 0 -58.5 -23.5t-15.5 -51.5q0 -38 19.5 -60t58.5 -22q26 0 53 6.5t44.5 13.5t19.5 7q47 0 57 -68z" />
    <glyph glyph-name="sterling" unicode="&#xa3;" horiz-adv-x="560" 
d="M117 269l-77 1q-13 31 -13 63q0 53 47 62q14 0 32 1q-1 11 -4 25.5t-3 17.5q-4 44 -4 55q0 25 4 48.5t17.5 52t34.5 50t59.5 38.5t88.5 23q14 2 41 2q48 0 80.5 -14t47.5 -37.5t20.5 -44t5.5 -43.5l-3 -34q-28 6 -65 6q-28 0 -60 -6q-38 -8 -38 -73q0 -19 4 -59
q67 6 96 19q3 -1 8.5 -4.5t14 -18t8.5 -33.5q0 -75 -64 -85q-21 -4 -41 -4q-4 0 -11.5 0.5t-10.5 0.5l-22 -109h9q40 0 91.5 9t83.5 18l31 9q10 1 19 -97v-11q0 -4 -0.5 -10t-7 -22.5t-18.5 -29t-38.5 -23.5t-62.5 -13l-366 -5q-16 2 -26 42t-10 62q0 27 10 39t33 23.5
t37 24.5q22 21 22 84z" />
    <glyph glyph-name="currency" unicode="&#xa4;" horiz-adv-x="693" 
d="M565 127l113 -88l-5 -10t-15 -21.5t-25 -27.5t-33.5 -22t-42.5 -10q-26 0 -53 14q-56 27 -70 73q-42 -10 -87 -10q-47 0 -86 9q-16 -46 -70 -72q-27 -14 -54 -14q-35 0 -65 22.5t-43 45.5l-13 23l110 86q-35 59 -35 152q0 94 49 157l-125 98l5 10t15 21.5t25 27.5
t33.5 22t42.5 10q26 0 53 -13q72 -35 74 -100q37 8 76 8q47 0 89 -8q2 65 75 100q27 13 53 13q22 0 42.5 -9.5t34 -22.5t23.5 -26.5t15 -22.5l5 -10l-122 -97q47 -60 47 -161q0 -88 -36 -147zM350 197q28 0 47.5 22t19.5 55q0 32 -19.5 54t-47.5 22q-29 0 -49 -22t-20 -54
q0 -33 20 -55t49 -22z" />
    <glyph glyph-name="yen" unicode="&#xa5;" horiz-adv-x="531" 
d="M499 694q61 -29 61 -96q0 -27 -7 -48q-15 -62 -59 -107t-106 -59l85 3q11 -28 11 -57q0 -51 -45 -55q-22 -2 -54 -2v-28l88 3q11 -28 11 -56q0 -51 -45 -55q-28 -2 -37 -2q-4 0 -11.5 0.5t-11.5 0.5v-117q-57 -19 -159 -19q-36 0 -57.5 24t-26.5 48.5t-5 51.5
q0 6 0.5 12.5t0.5 7.5q-2 0 -8 -0.5t-10 -0.5q-9 0 -39 2q-46 5 -46 56q0 12 2.5 26t5.5 22l3 8l93 -4v20q-32 0 -53 2q-46 4 -46 55q0 13 3 27t5 22l3 8l73 -3q-116 137 -139 262q9 24 55 40t77 16q76 0 100 -69q1 -4 9 -32t15 -50t20 -42t28 -20q25 2 54.5 87.5
t33.5 125.5q27 5 58 5q45 0 70 -13z" />
    <glyph glyph-name="section" unicode="&#xa7;" horiz-adv-x="486" 
d="M214 363q44 0 44 12q0 6 -13 10t-26 5l-13 1q-7 0 -18.5 1.5t-40.5 11t-51 24.5t-40.5 46.5t-18.5 73.5q0 43 20.5 75t49.5 47t57.5 23.5t49.5 10.5l20 1q60 0 102 -8.5t62.5 -19t31.5 -29t12.5 -29.5t1.5 -29q0 -20 -15.5 -34t-30.5 -18l-16 -5q-42 27 -125 27
q-30 0 -31 -12q1 -5 7 -8t16 -5t19.5 -3t21 -1.5t16.5 -1.5q15 -1 33 -5t48 -15.5t49.5 -39.5t19.5 -68q0 -164 -254 -164q-56 0 -90.5 6.5t-51.5 21t-22.5 29t-7.5 39.5q0 26 16 42t32 19l16 3q65 -34 120 -34zM367 236q89 -29 89 -116q0 -164 -254 -164q-56 0 -90.5 6.5
t-51.5 21t-22.5 29t-7.5 39.5q0 26 16 42t32 20l16 3q63 -34 120 -34q44 0 44 12q0 6 -13 10t-26 5l-13 1q-6 0 -16 1t-36 9t-47 20t-41 37t-26 59q33 -35 150 -35q113 0 177 34z" />
    <glyph glyph-name="dieresis" unicode="&#xa8;" horiz-adv-x="334" 
d="M78 808q67 0 67 -62q0 -13 -2.5 -24t-18 -25t-43.5 -14q-66 0 -66 65q0 10 3 21.5t18.5 25t41.5 13.5zM251 829q68 0 68 -63q0 -12 -2.5 -23.5t-18.5 -25.5t-44 -14q-65 0 -65 65q0 10 3 21.5t18 25.5t41 14z" />
    <glyph glyph-name="copyright" unicode="&#xa9;" horiz-adv-x="721" 
d="M352 668q71 0 127.5 -14.5t93 -36t63 -53.5t39.5 -60.5t20.5 -64.5t9 -56.5t1.5 -45.5q0 -24 -1.5 -46t-9.5 -58t-21 -65.5t-39 -61.5t-61 -54.5t-89.5 -37t-122.5 -14.5q-347 0 -347 340q0 30 4.5 62.5t24.5 83t53.5 88.5t99.5 66t155 28zM367 154q67 0 113.5 54
t46.5 134q0 76 -47 128.5t-113 52.5q-70 0 -119 -52.5t-49 -128.5q0 -80 49 -134t119 -54zM358 333q0 -37 34 -37q11 0 23 3t20 6t9 3q21 0 25 -30q0 -21 -19 -34.5t-40.5 -17.5t-45.5 -4q-49 0 -83 31t-34 82q0 53 37.5 85t92.5 32q40 0 63.5 -19t23.5 -41
q0 -12 -5.5 -21.5t-10.5 -12.5l-6 -4q-13 12 -52 12q-32 0 -32 -33z" />
    <glyph glyph-name="ordfeminine" unicode="&#xaa;" horiz-adv-x="317" 
d="M287 643q0 -15 -2 -64t-2 -74q-9 -18 -43 -19h-2q-24 0 -36.5 13.5t-12.5 34.5q-1 -2 -2 -5t-6.5 -10t-13 -13t-21 -10.5t-30.5 -4.5q-37 0 -61.5 28t-24.5 65q0 46 27.5 76.5t73.5 30.5q40 0 57 -15q-1 10 -4 14q15 16 51 16q25 0 38 -18.5t14 -44.5zM159 559
q31 0 31 40q0 18 -5 25.5t-20 7.5q-36 0 -36 -38q0 -14 8 -24.5t22 -10.5z" />
    <glyph glyph-name="guillemotleft" unicode="&#xab;" horiz-adv-x="969" 
d="M491 179v-6q0 -36 -9 -64t-18 -39l-9 -10q-49 5 -97 13t-110 26.5t-108 43t-78 64.5t-32 89q0 101 95 140q1 0 19.5 8t36.5 15.5t51 19.5t68 22q48 15 83 15q69 0 93 -56q8 -20 8 -41q0 -15 -4 -29.5t-8 -21.5l-3 -7q-174 -54 -221 -75l132 -20q4 0 11.5 -0.5t26.5 -5.5
t34 -13.5t27 -26t12 -41.5zM939 179v-6q0 -36 -9 -64t-18 -39l-9 -10q-49 5 -97 13t-110 26.5t-108 43t-78 64.5t-32 89q0 101 95 140q1 0 19.5 8t36.5 15.5t51 19.5t68 22q48 15 83 15q69 0 93 -56q8 -20 8 -41q0 -15 -4 -29.5t-8 -21.5l-3 -7q-174 -54 -221 -75l132 -20
q4 0 11.5 -0.5t26.5 -5.5t34 -13.5t27 -26t12 -41.5z" />
    <glyph glyph-name="uni00AD" unicode="&#xad;" horiz-adv-x="433" 
d="M15 305q0 10 2.5 20.5t10.5 24.5t27.5 24t48.5 11q32 2 225 2q63 0 71 2q18 -16 18 -83q-4 -45 -21 -60t-63 -18q-20 -2 -106 -2l-196 2q-17 34 -17 77z" />
    <glyph glyph-name="registered" unicode="&#xae;" horiz-adv-x="721" 
d="M352 668q71 0 127.5 -14.5t93 -36t63 -53.5t39.5 -60.5t20.5 -64.5t9 -56.5t1.5 -45.5q0 -24 -1.5 -46t-9.5 -58t-21 -65.5t-39 -61.5t-61 -54.5t-89.5 -37t-122.5 -14.5q-347 0 -347 340q0 30 4.5 62.5t24.5 83t53.5 88.5t99.5 66t155 28zM367 154q67 0 113.5 54
t46.5 134q0 76 -47 128.5t-113 52.5q-70 0 -119 -52.5t-49 -128.5q0 -80 49 -134t119 -54zM442 324q3 0 8 -1.5t13 -11.5t8 -26t-0.5 -30.5t-0.5 -15.5v-5q-15 -11 -42 -11q-48 0 -48 44v33q0 12 -14 12q-6 0 -9 -1v-71q-5 -17 -43 -17q-28 0 -40 12.5t-12 40.5q0 161 5 177
q22 9 92 9q112 0 112 -72q0 -23 -7.5 -39.5t-14.5 -21.5zM351 350q5 -1 10 -1q33 0 33 29q0 25 -25 25l-18 -2v-51z" />
    <glyph glyph-name="macron" unicode="&#xaf;" horiz-adv-x="367" 
d="M37 740q-3 1 -7.5 4.5t-9.5 14.5t-5 25q0 37 52 45q14 2 19 2q16 0 87.5 0.5t87.5 0.5q47 0 78 -4q13 -18 13 -42q0 -38 -35 -46h-280z" />
    <glyph glyph-name="degree" unicode="&#xb0;" horiz-adv-x="288" 
d="M141 706q117 0 117 -109q0 -12 -1 -22.5t-7.5 -28t-18 -30t-33.5 -21.5t-53 -9q-115 0 -115 112q0 13 3.5 27.5t13 34.5t34 33t60.5 13zM146 562q13 0 21.5 10.5t8.5 24.5t-8.5 24t-21.5 10t-22 -10t-9 -24t9 -24.5t22 -10.5z" />
    <glyph glyph-name="uni00B2" unicode="&#xb2;" horiz-adv-x="250" 
d="M35 596q-8 19 -8 43q0 68 97 68q48 0 73.5 -25t25.5 -62q0 -39 -26.5 -72t-72.5 -42q69 0 99 24q12 -3 12 -23q0 -9 -4 -24q-15 -51 -93 -51q-42 0 -116 15q-7 14 -7 32q0 33 30 51q9 6 24.5 15t21.5 13t14 10t10.5 10.5t2.5 10.5q0 13 -12.5 19.5t-26.5 6.5
q-26 0 -44 -19z" />
    <glyph glyph-name="uni00B3" unicode="&#xb3;" horiz-adv-x="239" 
d="M172 578q25 0 38.5 -16.5t13.5 -40.5q0 -42 -36 -65.5t-80 -23.5q-39 0 -66 16.5t-27 53.5q0 4 2 20q39 -14 67 -14q31 0 31 21q0 17 -17 17h-2q-51 0 -51 21q0 10 1.5 17t2.5 9l1 2q62 9 62 32q0 3 -1 5q-3 10 -15 10q-13 0 -32 -10t-23 -15q-15 7 -18 23q0 1 -0.5 3
t-0.5 4q0 21 17 41.5t59 24.5q6 1 17 1q33 0 54.5 -9t29.5 -23t10.5 -22.5t2.5 -16.5q0 -47 -40 -65z" />
    <glyph glyph-name="acute" unicode="&#xb4;" horiz-adv-x="168" 
d="M84 879q4 2 13 2q21 0 38.5 -13.5t17.5 -36.5q0 -31 -35 -60.5t-67 -29.5q-15 0 -24 8t-11 16l-1 8z" />
    <glyph glyph-name="paragraph" unicode="&#xb6;" horiz-adv-x="650" 
d="M247 32v191q-123 18 -180 86q-27 32 -39.5 84t-12.5 101q0 213 333 213q92 0 160 -7t90 -14l23 -7q7 -24 10.5 -209.5t3.5 -311.5q0 -83 -35.5 -121t-118.5 -38q-31 0 -56 5.5t-38 13t-21.5 15t-11.5 13.5l-2 5v165h-26v-184h-79z" />
    <glyph glyph-name="cedilla" unicode="&#xb8;" horiz-adv-x="262" 
d="M116 31q34 4 44 4q49 0 68 -21t19 -58q0 -22 -5 -52q-18 -100 -132 -100q-9 0 -29 2q-66 6 -66 66l5 32h5q15 0 52 6q40 7 40 92z" />
    <glyph glyph-name="uni00B9" unicode="&#xb9;" horiz-adv-x="230" 
d="M26 694q48 10 113 10q76 0 76 -63l-4 -192q-26 -16 -76 -16q-66 0 -66 66l6 112q-6 -1 -14 -1q-32 0 -41 20q-5 10 -5 24q0 21 11 40z" />
    <glyph glyph-name="ordmasculine" unicode="&#xba;" horiz-adv-x="288" 
d="M141 706q117 0 117 -109q0 -12 -1 -22.5t-7.5 -28t-18 -30t-33.5 -21.5t-53 -9q-115 0 -115 112q0 13 3.5 27.5t13 34.5t34 33t60.5 13zM146 562q13 0 21.5 10.5t8.5 24.5t-8.5 24t-21.5 10t-22 -10t-9 -24t9 -24.5t22 -10.5z" />
    <glyph glyph-name="guillemotright" unicode="&#xbb;" horiz-adv-x="969" 
d="M478 173v6q0 38 28 59.5t56 24.5l27 3l132 20q-21 9 -76 28t-100 33l-45 14q-15 25 -15 58q0 21 8 41q24 56 93 56q35 0 83 -15q35 -10 68 -22t51 -19.5t36.5 -15.5t19.5 -8q95 -39 95 -140q0 -49 -32 -89t-78 -64.5t-108 -43t-110 -26.5t-97 -13q-4 4 -10 11.5t-16 36.5
t-10 65zM30 173v6q0 38 28 59.5t56 24.5l27 3l132 20q-21 9 -76 28t-100 33l-45 14q-15 25 -15 58q0 21 8 41q24 56 93 56q35 0 83 -15q35 -10 68 -22t51 -19.5t36.5 -15.5t19.5 -8q95 -39 95 -140q0 -49 -32 -89t-78 -64.5t-108 -43t-110 -26.5t-97 -13q-4 4 -10 11.5
t-16 36.5t-10 65z" />
    <glyph glyph-name="onequarter" unicode="&#xbc;" horiz-adv-x="929" 
d="M387 648q22 40 77 54q20 5 40 5q23 0 45.5 -6.5t37.5 -15.5t26.5 -18.5t16.5 -16.5l6 -6q-155 -509 -167 -544q-13 -46 -51 -73t-94 -27q-24 0 -45 7.5t-34.5 18t-24 21t-14.5 17.5l-5 8q155 515 186 576zM27 688q-12 -27 -12 -59q0 -21 5 -36q11 -30 46 -30l15 2
q-6 -115 -6 -167q0 -98 73 -98q25 0 46 6t30 12l8 5q5 248 5 286q0 95 -84 95q-32 0 -63.5 -4t-47.5 -8zM842 84v-23q0 -12 -3 -23.5t-17 -24t-38 -13.5q-51 2 -78 5v84q-134 1 -154 1q-22 22 -22 74q0 43 95 139q78 99 89 102q8 3 24 5t28 2l11 1q3 0 8 -0.5t18 -4.5
t22.5 -11t17.5 -21.5t8 -34.5q0 -11 -5 -146h62q6 -19 6 -52q0 -59 -64 -59h-8zM653 196h57v79q-46 -41 -57 -79z" />
    <glyph glyph-name="onehalf" unicode="&#xbd;" horiz-adv-x="916" 
d="M393 648q22 40 77 54q20 5 40 5q23 0 45.5 -6.5t37.5 -15.5t26.5 -18.5t16.5 -16.5l6 -6q-155 -509 -167 -544q-13 -46 -51 -73t-94 -27q-24 0 -45 7.5t-34.5 18t-24 21t-14.5 17.5l-5 8q155 515 186 576zM33 688q-12 -27 -12 -59q0 -21 5 -36q11 -30 46 -30l15 2
q-6 -115 -6 -167q0 -98 73 -98q25 0 46 6t30 12l8 5q5 248 5 286q0 95 -84 95q-32 0 -63.5 -4t-47.5 -8zM605 242q24 28 63 28q20 0 37.5 -10t17.5 -29q0 -6 -2 -11t-7.5 -10.5t-11 -10.5t-15.5 -11.5t-18.5 -12t-23 -14.5t-25.5 -16q-43 -28 -43 -76q0 -12 2.5 -24t4.5 -17
l3 -6q103 -22 165 -22q64 0 94 20t40 56q5 19 5 34q0 13 -4.5 22t-8.5 11l-4 2q-19 -16 -54.5 -25t-61.5 -10l-26 -2q66 14 104 63t38 106q0 55 -36.5 92.5t-105.5 37.5q-139 0 -139 -102q0 -15 3 -31t6 -24z" />
    <glyph glyph-name="threequarters" unicode="&#xbe;" horiz-adv-x="962" 
d="M242 511q35 0 54.5 -24.5t19.5 -58.5q0 -61 -51.5 -94.5t-115.5 -33.5q-57 0 -95.5 23.5t-38.5 76.5q0 12 3 30q55 -20 97 -20q44 0 44 29q0 24 -25 24q-22 0 -35 1t-27 8.5t-14 22.5t2 25t4 13l2 3q4 1 9.5 2t21 5t27 8.5t21 13t9.5 17.5q0 5 -1 7q-4 14 -22 14
q-19 0 -46 -14t-32 -22q-21 10 -26 33q-1 3 -1 10q0 32 24 61t84 35q4 0 12 0.5t13 0.5q38 -1 66.5 -10.5t42 -21t21 -28t9 -25t1.5 -17.5q0 -67 -57 -94zM420 648q22 40 77 54q20 5 40 5q23 0 45.5 -6.5t37.5 -15.5t26.5 -18.5t17.5 -16.5l5 -6q-155 -509 -167 -544
q-13 -46 -51 -73t-94 -27q-24 0 -45 7.5t-34.5 18t-24 21t-15.5 17.5l-4 8q155 515 186 576zM875 84v-23q0 -12 -3 -23.5t-17 -24t-38 -13.5q-51 2 -78 5v84q-134 1 -154 1q-22 22 -22 74q0 43 95 139q78 99 89 102q8 3 24 5t27 2l12 1q3 0 8 -0.5t18 -4.5t22.5 -11
t17.5 -21.5t8 -34.5q0 -11 -5 -146h62q6 -19 6 -52q0 -59 -64 -59h-8zM686 196h57v79q-46 -41 -57 -79z" />
    <glyph glyph-name="questiondown" unicode="&#xbf;" horiz-adv-x="515" 
d="M276 -11q-26 0 -56 4t-68.5 17t-68.5 33.5t-51 57.5t-21 86t12.5 84.5t36.5 56.5t43.5 32.5t50.5 22.5t40 16q48 23 48 91l-1 18q49 11 79 11q36 0 61.5 -11t37 -29t16 -34t4.5 -33q0 -98 -107 -118q-19 -3 -30 -5.5t-30 -9.5t-29 -19t-10 -29q0 -44 83 -44q35 0 64 10.5
t40 20.5l12 10q34 -60 34 -107q0 -37 -21 -65t-53 -41.5t-61.5 -19.5t-54.5 -6zM331 737q39 0 65.5 -10t38 -26t15.5 -29t4 -26q0 -45 -32 -71.5t-84 -26.5q-32 0 -62 8t-54 31t-24 58q0 11 4 23t15.5 29.5t41 28.5t72.5 11z" />
    <glyph glyph-name="Agrave" unicode="&#xc0;" horiz-adv-x="658" 
d="M166 0q-67 0 -109 42.5t-42 112.5q0 22 2 109.5t2 99.5q0 94 26.5 163t61 102t83 52.5t76.5 22.5t59 3q62 0 112.5 -14.5t83 -36t56.5 -52.5t36.5 -58.5t19.5 -58.5t8.5 -48.5t1.5 -32.5v-338q-28 -68 -140 -68q-38 0 -64 14.5t-37.5 38.5t-16 45t-4.5 44l2 34h-106
q0 -30 2.5 -66t5.5 -57l3 -21q-40 -32 -122 -32zM406 330q2 18 2 45q0 125 -80 125q-73 0 -73 -120q0 -47 6 -55zM296 877l69 -106q0 -4 -1.5 -9t-10.5 -14t-24 -9q-32 0 -67 29.5t-35 60.5q0 23 17.5 36.5t38.5 13.5q9 0 13 -2z" />
    <glyph glyph-name="Aacute" unicode="&#xc1;" horiz-adv-x="658" 
d="M361 864q4 2 13 2q21 0 38.5 -13.5t17.5 -36.5q0 -31 -35 -60.5t-67 -29.5q-15 0 -24 8t-10 16l-2 8zM166 0q-67 0 -109 42.5t-42 112.5q0 22 2 109.5t2 99.5q0 94 26.5 163t61 102t83 52.5t76.5 22.5t59 3q62 0 112.5 -14.5t83 -36t56.5 -52.5t36.5 -58.5t19.5 -58.5
t8.5 -48.5t1.5 -32.5v-338q-28 -68 -140 -68q-38 0 -64 14.5t-37.5 38.5t-16 45t-4.5 44l2 34h-106q0 -30 2.5 -66t5.5 -57l3 -21q-40 -32 -122 -32zM406 330q2 18 2 45q0 125 -80 125q-73 0 -73 -120q0 -47 6 -55z" />
    <glyph glyph-name="Acircumflex" unicode="&#xc2;" horiz-adv-x="658" 
d="M166 0q-67 0 -109 42.5t-42 112.5q0 22 2 109.5t2 99.5q0 94 26.5 163t61 102t83 52.5t76.5 22.5t59 3q62 0 112.5 -14.5t83 -36t56.5 -52.5t36.5 -58.5t19.5 -58.5t8.5 -48.5t1.5 -32.5v-338q-28 -68 -140 -68q-38 0 -64 14.5t-37.5 38.5t-16 45t-4.5 44l2 34h-106
q0 -30 2.5 -66t5.5 -57l3 -21q-40 -32 -122 -32zM406 330q2 18 2 45q0 125 -80 125q-73 0 -73 -120q0 -47 6 -55zM399 817q16 -22 16 -44q0 -16 -14.5 -26t-31.5 -10q-29 0 -53 45q-26 -45 -53 -45q-17 0 -31 10t-14 26q0 23 15 44q1 2 3.5 6t10 13.5t16.5 16.5t23.5 13
t30.5 6q24 0 44.5 -14t28.5 -28z" />
    <glyph glyph-name="Atilde" unicode="&#xc3;" horiz-adv-x="658" 
d="M166 0q-67 0 -109 42.5t-42 112.5q0 22 2 109.5t2 99.5q0 94 26.5 163t61 102t83 52.5t76.5 22.5t59 3q62 0 112.5 -14.5t83 -36t56.5 -52.5t36.5 -58.5t19.5 -58.5t8.5 -48.5t1.5 -32.5v-338q-28 -68 -140 -68q-38 0 -64 14.5t-37.5 38.5t-16 45t-4.5 44l2 34h-106
q0 -30 2.5 -66t5.5 -57l3 -21q-40 -32 -122 -32zM406 330q2 18 2 45q0 125 -80 125q-73 0 -73 -120q0 -47 6 -55zM211 736q-49 25 -49 61q0 30 29.5 52.5t62.5 22.5q21 0 61 -14t62 -14q13 0 20.5 6t8.5 12l1 7q2 1 5 1q27 0 45.5 -15.5t18.5 -50.5q0 -27 -26 -44t-59 -17
q-24 0 -70 12.5t-62 13.5q-15 0 -27 -8.5t-16 -16.5z" />
    <glyph glyph-name="Adieresis" unicode="&#xc4;" horiz-adv-x="658" 
d="M166 0q-67 0 -109 42.5t-42 112.5q0 22 2 109.5t2 99.5q0 94 26.5 163t61 102t83 52.5t76.5 22.5t59 3q62 0 112.5 -14.5t83 -36t56.5 -52.5t36.5 -58.5t19.5 -58.5t8.5 -48.5t1.5 -32.5v-338q-28 -68 -140 -68q-38 0 -64 14.5t-37.5 38.5t-16 45t-4.5 44l2 34h-106
q0 -30 2.5 -66t5.5 -57l3 -21q-40 -32 -122 -32zM406 330q2 18 2 45q0 125 -80 125q-73 0 -73 -120q0 -47 6 -55zM226 862q67 0 67 -62q0 -13 -2.5 -24t-18 -25t-43.5 -14q-66 0 -66 65q0 10 3 21.5t18.5 25t41.5 13.5zM399 883q68 0 68 -63q0 -12 -2.5 -23.5t-18.5 -25.5
t-44 -14q-65 0 -65 65q0 10 3 21.5t18 25.5t41 14z" />
    <glyph glyph-name="Aring" unicode="&#xc5;" horiz-adv-x="658" 
d="M166 0q-67 0 -109 42.5t-42 112.5q0 22 2 109.5t2 99.5q0 94 26.5 163t61 102t83 52.5t76.5 22.5t59 3q62 0 112.5 -14.5t83 -36t56.5 -52.5t36.5 -58.5t19.5 -58.5t8.5 -48.5t1.5 -32.5v-338q-28 -68 -140 -68q-38 0 -64 14.5t-37.5 38.5t-16 45t-4.5 44l2 34h-106
q0 -30 2.5 -66t5.5 -57l3 -21q-40 -32 -122 -32zM406 330q2 18 2 45q0 125 -80 125q-73 0 -73 -120q0 -47 6 -55zM325 859q72 0 72 -68t-70 -68t-70 69q0 12 3 24.5t19.5 27.5t45.5 15zM328 770q19 0 19 22q0 20 -19 20q-8 0 -13.5 -5.5t-5.5 -14.5q0 -10 5.5 -16t13.5 -6z
" />
    <glyph glyph-name="AE" unicode="&#xc6;" horiz-adv-x="996" 
d="M10 158l5 265v8q0 13 1 28t6.5 41t15 49t27.5 49t42 45t62 33t84 17q153 10 524 10h172q18 -53 18 -111q0 -121 -111 -135q-34 -2 -67 -2q-54 0 -67 8l2 -53q148 2 186 10q11 -35 11 -74q0 -96 -83 -106h-111v-50h42q129 0 196 35q6 0 13.5 -46t7.5 -77q0 -28 -21 -49.5
t-50.5 -32.5t-71.5 -18t-75.5 -9t-69.5 -2q-243 0 -254 148l-5 65h-170v-178q-40 -27 -114 -27q-67 0 -106 32.5t-39 126.5zM354 491q-33 0 -52.5 -16t-23.5 -31.5t-4 -33.5v-14h151q3 11 3 27q0 68 -74 68z" />
    <glyph glyph-name="Ccedilla" unicode="&#xc7;" horiz-adv-x="623" 
d="M410 -44q0 -22 -5 -52q-18 -100 -132 -100q-9 0 -29 2q-66 6 -66 66l5 32h5q15 0 52 6q40 7 40 91q-115 20 -190 110.5t-75 230.5q0 164 100.5 258.5t245.5 94.5q106 0 169 -58t63 -125q0 -36 -14.5 -65t-28.5 -39l-14 -11q-77 37 -180 37q-27 0 -45.5 -10.5t-27 -27.5
t-11.5 -31.5t-3 -30.5q0 -51 28 -80t81 -29q35 0 73 8.5t62 17.5t26 9q32 0 50.5 -32.5t18.5 -69.5q0 -59 -57.5 -100t-151.5 -56q11 -17 11 -46z" />
    <glyph glyph-name="Egrave" unicode="&#xc8;" horiz-adv-x="558" 
d="M273 879l69 -106q0 -4 -1.5 -9t-10.5 -14t-24 -9q-32 0 -67 29.5t-35 60.5q0 23 17.5 36.5t38.5 13.5q9 0 13 -2zM36 679q-16 -196 -16 -319l11 -340q61 -20 236 -20h110q45 0 77.5 8t49.5 19.5t26.5 30t11.5 33.5t2 37q0 24 -8 47t-16 33l-8 11q-76 -26 -164 -26
q-11 0 -22.5 0.5t-19 1t-13.5 1t-9 0.5l-2 1v55l82 -1h3q63 0 87 21.5t25 72.5v4q0 27 -8 46.5t-16 24.5l-8 6q-47 -8 -102 -8l-66 3v57q40 -4 95 -4l55 1q111 9 111 123q0 23 -5 49t-10 41l-5 14q-17 5 -121 5q-19 0 -107 -2q-90 -2 -154 -8.5t-83 -12.5z" />
    <glyph glyph-name="Eacute" unicode="&#xc9;" horiz-adv-x="558" 
d="M315 879q4 2 13 2q21 0 38.5 -13.5t17.5 -36.5q0 -31 -35 -60.5t-67 -29.5q-15 0 -24 8t-10 16l-2 8zM36 679q-16 -196 -16 -319l11 -340q61 -20 236 -20h110q45 0 77.5 8t49.5 19.5t26.5 30t11.5 33.5t2 37q0 24 -8 47t-16 33l-8 11q-76 -26 -164 -26q-11 0 -22.5 0.5
t-19 1t-13.5 1t-9 0.5l-2 1v55l82 -1h3q63 0 87 21.5t25 72.5v4q0 27 -8 46.5t-16 24.5l-8 6q-47 -8 -102 -8l-66 3v57q40 -4 95 -4l55 1q111 9 111 123q0 23 -5 49t-10 41l-5 14q-17 5 -121 5q-19 0 -107 -2q-90 -2 -154 -8.5t-83 -12.5z" />
    <glyph glyph-name="Ecircumflex" unicode="&#xca;" horiz-adv-x="558" 
d="M364 823q16 -22 16 -44q0 -16 -14.5 -26t-31.5 -10q-29 0 -53 45q-26 -45 -53 -45q-17 0 -31 10t-14 26q0 23 15 44q1 2 3.5 6t10 13.5t16.5 16.5t23.5 13t30.5 6q24 0 44.5 -14t29.5 -28zM36 679q-16 -196 -16 -319l11 -340q61 -20 236 -20h110q45 0 77.5 8t49.5 19.5
t26.5 30t11.5 33.5t2 37q0 24 -8 47t-16 33l-8 11q-76 -26 -164 -26q-11 0 -22.5 0.5t-19 1t-13.5 1t-9 0.5l-2 1v55l82 -1h3q63 0 87 21.5t25 72.5v4q0 27 -8 46.5t-16 24.5l-8 6q-47 -8 -102 -8l-66 3v57q40 -4 95 -4l55 1q111 9 111 123q0 23 -5 49t-10 41l-5 14
q-17 5 -121 5q-19 0 -107 -2q-90 -2 -154 -8.5t-83 -12.5z" />
    <glyph glyph-name="Edieresis" unicode="&#xcb;" horiz-adv-x="558" 
d="M176 859q67 0 67 -62q0 -13 -2.5 -24t-18 -25t-43.5 -14q-66 0 -66 65q0 10 3 21.5t18.5 25t41.5 13.5zM349 880q68 0 68 -63q0 -12 -2.5 -23.5t-18.5 -25.5t-44 -14q-65 0 -65 65q0 10 3 21.5t18 25.5t41 14zM36 679q-16 -196 -16 -319l11 -340q61 -20 236 -20h110
q45 0 77.5 8t49.5 19.5t26.5 30t11.5 33.5t2 37q0 24 -8 47t-16 33l-8 11q-76 -26 -164 -26q-11 0 -22.5 0.5t-19 1t-13.5 1t-9 0.5l-2 1v55l82 -1h3q63 0 87 21.5t25 72.5v4q0 27 -8 46.5t-16 24.5l-8 6q-47 -8 -102 -8l-66 3v57q40 -4 95 -4l55 1q111 9 111 123
q0 23 -5 49t-10 41l-5 14q-17 5 -121 5q-19 0 -107 -2q-90 -2 -154 -8.5t-83 -12.5z" />
    <glyph glyph-name="Igrave" unicode="&#xcc;" horiz-adv-x="331" 
d="M151 879l69 -106q0 -4 -1.5 -9t-10.5 -14t-24 -9q-32 0 -67 29.5t-35 60.5q0 23 17.5 36.5t38.5 13.5q9 0 13 -2zM34 695q-5 -33 -12 -226t-7 -285q0 -39 5.5 -68.5t19.5 -57.5t44.5 -43t75.5 -15q56 0 94 10.5t48 21.5l10 10q4 386 4 513v30q0 59 -37.5 90t-103.5 31
q-47 0 -82 -3t-47 -5z" />
    <glyph glyph-name="Iacute" unicode="&#xcd;" horiz-adv-x="331" 
d="M178 879q4 2 13 2q21 0 38.5 -13.5t17.5 -36.5q0 -31 -35 -60.5t-67 -29.5q-15 0 -24 8t-11 16l-1 8zM34 695q-5 -33 -12 -226t-7 -285q0 -39 5.5 -68.5t19.5 -57.5t44.5 -43t75.5 -15q56 0 94 10.5t48 21.5l10 10q4 386 4 513v30q0 59 -37.5 90t-103.5 31q-47 0 -82 -3
t-47 -5z" />
    <glyph glyph-name="Icircumflex" unicode="&#xce;" horiz-adv-x="331" 
d="M237 824q16 -22 16 -44q0 -16 -14.5 -26t-31.5 -10q-29 0 -53 45q-26 -45 -53 -45q-17 0 -31 10t-14 26q0 23 15 44q1 2 3.5 6t10 13.5t16.5 16.5t23.5 13t30.5 6q15 0 29 -5.5t23 -13.5t16 -16.5t11 -13.5zM34 695q-5 -33 -12 -226t-7 -285q0 -39 5.5 -68.5t19.5 -57.5
t44.5 -43t75.5 -15q56 0 94 10.5t48 21.5l10 10q4 386 4 513v30q0 59 -37.5 90t-103.5 31q-47 0 -82 -3t-47 -5z" />
    <glyph glyph-name="Idieresis" unicode="&#xcf;" horiz-adv-x="331" 
d="M75 852q67 0 67 -62q0 -13 -2.5 -24t-18 -25t-43.5 -14q-66 0 -66 65q0 10 3 21.5t18.5 25t41.5 13.5zM248 873q68 0 68 -63q0 -12 -2.5 -23.5t-18.5 -25.5t-44 -14q-65 0 -65 65q0 10 3 21.5t18 25.5t41 14zM34 695q-5 -33 -12 -226t-7 -285q0 -39 5.5 -68.5t19.5 -57.5
t44.5 -43t75.5 -15q56 0 94 10.5t48 21.5l10 10q4 386 4 513v30q0 59 -37.5 90t-103.5 31q-47 0 -82 -3t-47 -5z" />
    <glyph glyph-name="Eth" unicode="&#xd0;" 
d="M-30 286q-3 1 -8 6t-10.5 20t-5.5 35q0 53 58 63q12 3 22 3q1 51 3 106t4.5 104.5t3.5 65.5q83 20 201 20q64 0 120 -7.5t117.5 -31t104.5 -60.5t71.5 -101t28.5 -149q0 -88 -29.5 -154.5t-74.5 -104.5t-107.5 -62t-118.5 -31.5t-119 -7.5q-46 0 -91.5 4t-68.5 8l-23 5
q-4 15 -10 43q-12 182 -13 226h-55zM255 173h15q16 0 33 2.5t42 13t44 28.5t32.5 53t13.5 82v4q-1 53 -14.5 90t-35 54t-42 23.5t-43.5 6.5q-9 0 -45 -4v-112q22 -1 53 -5q15 -25 15 -59q0 -53 -39 -64h-29v-113z" />
    <glyph glyph-name="Ntilde" unicode="&#xd1;" horiz-adv-x="707" 
d="M24 573q0 -71 -4.5 -216.5t-4.5 -220.5q0 -55 37.5 -95.5t107.5 -40.5q27 0 50.5 5.5t38 13.5t24.5 15.5t15 13.5l5 5l1 213q4 -14 9.5 -28t21.5 -49.5t37.5 -64t50.5 -59t69.5 -47.5t85.5 -17q66 0 89 30q28 36 33 176q2 58 2 222v1q0 33 -1 80.5t-1 58.5q0 19 -1 28
q-7 109 -157 109q-27 0 -59 -3t-51 -7l-19 -3l12 -265q-44 131 -104 205t-150 74q-47 0 -80.5 -27t-45 -55.5t-11.5 -51.5zM205 737q-64 33 -64 80q0 40 38.5 69.5t81.5 29.5q28 0 81 -18.5t81 -18.5q18 0 28 8.5t11 16.5l1 8q2 1 6 1q37 0 61 -20t24 -66q0 -36 -34.5 -58
t-77.5 -22q-32 0 -93 16t-81 18q-19 0 -35 -11t-22 -22z" />
    <glyph glyph-name="Ograve" unicode="&#xd2;" 
d="M303 879l69 -106q0 -4 -1.5 -9t-10.5 -14t-24 -9q-32 0 -67 29.5t-35 60.5q0 23 17.5 36.5t38.5 13.5q9 0 13 -2zM363 707q59 0 107.5 -14t80.5 -36t56.5 -53t37.5 -61.5t21 -65.5t10.5 -60.5t2.5 -51.5q0 -17 -1.5 -36.5t-9 -58.5t-20 -73t-39.5 -73t-62.5 -67
t-93 -46.5t-127.5 -18.5q-60 0 -109 15.5t-80.5 39.5t-55 57.5t-36 65t-19.5 67.5t-9 58.5t-2 43.5q0 25 1 43.5t7.5 58.5t19 70.5t38 68t61.5 62.5t93 44t128 21zM340 164q40 0 64.5 39t31 81t6.5 86q0 62 -23.5 113t-70.5 51q-96 0 -96 -189q0 -22 2.5 -45.5t10 -58
t27 -56t48.5 -21.5z" />
    <glyph glyph-name="Oacute" unicode="&#xd3;" 
d="M279 773l69 106q4 2 13 2q21 0 38.5 -13.5t17.5 -36.5q0 -31 -35 -60.5t-67 -29.5q-15 0 -24 8t-11 16zM363 707q59 0 107.5 -14t80.5 -36t56.5 -53t37.5 -61.5t21 -65.5t10.5 -60.5t2.5 -51.5q0 -17 -1.5 -36.5t-9 -58.5t-20 -73t-39.5 -73t-62.5 -67t-93 -46.5
t-127.5 -18.5q-60 0 -109 15.5t-80.5 39.5t-55 57.5t-36 65t-19.5 67.5t-9 58.5t-2 43.5q0 25 1 43.5t7.5 58.5t19 70.5t38 68t61.5 62.5t93 44t128 21zM340 164q40 0 64.5 39t31 81t6.5 86q0 62 -23.5 113t-70.5 51q-96 0 -96 -189q0 -22 2.5 -45.5t10 -58t27 -56
t48.5 -21.5z" />
    <glyph glyph-name="Ocircumflex" unicode="&#xd4;" 
d="M438 823q16 -22 16 -44q0 -16 -14.5 -26t-31.5 -10q-29 0 -53 45q-26 -45 -53 -45q-17 0 -31 10t-14 26q0 23 15 44q1 2 3.5 6t10 13.5t16.5 16.5t23.5 13t30.5 6q24 0 44.5 -14t29.5 -28zM363 707q59 0 107.5 -14t80.5 -36t56.5 -53t37.5 -61.5t21 -65.5t10.5 -60.5
t2.5 -51.5q0 -17 -1.5 -36.5t-9 -58.5t-20 -73t-39.5 -73t-62.5 -67t-93 -46.5t-127.5 -18.5q-60 0 -109 15.5t-80.5 39.5t-55 57.5t-36 65t-19.5 67.5t-9 58.5t-2 43.5q0 25 1 43.5t7.5 58.5t19 70.5t38 68t61.5 62.5t93 44t128 21zM340 164q40 0 64.5 39t31 81t6.5 86
q0 62 -23.5 113t-70.5 51q-96 0 -96 -189q0 -22 2.5 -45.5t10 -58t27 -56t48.5 -21.5z" />
    <glyph glyph-name="Otilde" unicode="&#xd5;" 
d="M252 742q-44 27 -44 64q0 32 26.5 55.5t55.5 23.5q19 0 55 -14.5t56 -14.5q12 0 18.5 6.5t7.5 13.5l1 6h5q57 0 57 -68q0 -28 -23.5 -46t-52.5 -18q-22 0 -64 12.5t-56 14.5q-13 0 -23.5 -8.5t-14.5 -17.5zM363 707q59 0 107.5 -14t80.5 -36t56.5 -53t37.5 -61.5
t21 -65.5t10.5 -60.5t2.5 -51.5q0 -17 -1.5 -36.5t-9 -58.5t-20 -73t-39.5 -73t-62.5 -67t-93 -46.5t-127.5 -18.5q-60 0 -109 15.5t-80.5 39.5t-55 57.5t-36 65t-19.5 67.5t-9 58.5t-2 43.5q0 25 1 43.5t7.5 58.5t19 70.5t38 68t61.5 62.5t93 44t128 21zM340 164
q40 0 64.5 39t31 81t6.5 86q0 62 -23.5 113t-70.5 51q-96 0 -96 -189q0 -22 2.5 -45.5t10 -58t27 -56t48.5 -21.5z" />
    <glyph glyph-name="Odieresis" unicode="&#xd6;" 
d="M247 859q67 0 67 -62q0 -13 -2.5 -24t-18 -25t-43.5 -14q-66 0 -66 65q0 10 3 21.5t18.5 25t41.5 13.5zM420 880q68 0 68 -63q0 -12 -2.5 -23.5t-18.5 -25.5t-44 -14q-65 0 -65 65q0 10 3 21.5t18 25.5t41 14zM363 707q59 0 107.5 -14t80.5 -36t56.5 -53t37.5 -61.5
t21 -65.5t10.5 -60.5t2.5 -51.5q0 -17 -1.5 -36.5t-9 -58.5t-20 -73t-39.5 -73t-62.5 -67t-93 -46.5t-127.5 -18.5q-60 0 -109 15.5t-80.5 39.5t-55 57.5t-36 65t-19.5 67.5t-9 58.5t-2 43.5q0 25 1 43.5t7.5 58.5t19 70.5t38 68t61.5 62.5t93 44t128 21zM340 164
q40 0 64.5 39t31 81t6.5 86q0 62 -23.5 113t-70.5 51q-96 0 -96 -189q0 -22 2.5 -45.5t10 -58t27 -56t48.5 -21.5z" />
    <glyph glyph-name="Oslash" unicode="&#xd8;" 
d="M363 707q22 0 33 -1q4 7 10 16l5 8q20 21 61 27q20 3 32 3q29 0 55.5 -8t38.5 -16l11 -8l-40 -85q45 -36 71 -92.5t32.5 -97.5t6.5 -83q0 -98 -38 -182t-120.5 -140t-194.5 -56q-48 0 -87 9q-32 -15 -77 -15q-29 0 -53.5 9t-34.5 19l-9 9l30 64q-79 96 -79 278
q0 16 1.5 35t9 54.5t21 66.5t39.5 66.5t61.5 61t91 42t123.5 16.5zM440 339q1 9 1 22q0 25 -3 49.5t-11.5 55t-29 49.5t-49.5 19t-49.5 -18.5t-29.5 -48.5t-13 -57t-4 -56q0 -26 3 -52t11 -60.5t27 -56t47 -21.5q43 0 68 44t28 88z" />
    <glyph glyph-name="Ugrave" unicode="&#xd9;" horiz-adv-x="689" 
d="M334 878l86 -132q0 -4 -2 -11t-13.5 -18t-29.5 -11q-40 0 -84 37t-44 75q0 28 22 45.5t48 17.5q13 0 17 -3zM674 514q0 -48 -1.5 -85t-8.5 -93.5t-19.5 -99t-37.5 -89.5t-59 -77t-86 -50t-118 -20q-65 0 -117 20t-86 50.5t-58.5 77t-37 89t-20 99t-9 93.5t-1.5 85
q0 44 4 73.5t17 60t41.5 46t73.5 15.5q23 0 48 -3.5t40.5 -7.5t34.5 -9t22 -6v-409q0 -80 48 -80q51 0 51 88v401q76 26 144 26q35 0 60 -10.5t39 -26.5t22.5 -43t11 -52.5t2.5 -62.5z" />
    <glyph glyph-name="Uacute" unicode="&#xda;" horiz-adv-x="689" 
d="M375 878q5 3 17 3q26 0 48 -17.5t22 -45.5q0 -38 -44 -75t-84 -37q-18 0 -29.5 10t-13.5 20l-2 10zM674 514q0 -48 -1.5 -85t-8.5 -93.5t-19.5 -99t-37.5 -89.5t-59 -77t-86 -50t-118 -20q-65 0 -117 20t-86 50.5t-58.5 77t-37 89t-20 99t-9 93.5t-1.5 85q0 44 4 73.5
t17 60t41.5 46t73.5 15.5q23 0 48 -3.5t40.5 -7.5t34.5 -9t22 -6v-409q0 -80 48 -80q51 0 51 88v401q76 26 144 26q35 0 60 -10.5t39 -26.5t22.5 -43t11 -52.5t2.5 -62.5z" />
    <glyph glyph-name="Ucircumflex" unicode="&#xdb;" horiz-adv-x="689" 
d="M423 792q16 -22 16 -44q0 -16 -14.5 -26t-31.5 -10q-29 0 -53 45q-26 -45 -53 -45q-17 0 -31 10t-14 26q0 23 15 44q1 2 3.5 6t10 13.5t16.5 16.5t23.5 13t30.5 6q15 0 29 -5.5t23 -13.5t16 -16.5t11 -13.5zM674 514q0 -48 -1.5 -85t-8.5 -93.5t-19.5 -99t-37.5 -89.5
t-59 -77t-86 -50t-118 -20q-65 0 -117 20t-86 50.5t-58.5 77t-37 89t-20 99t-9 93.5t-1.5 85q0 44 4 73.5t17 60t41.5 46t73.5 15.5q23 0 48 -3.5t40.5 -7.5t34.5 -9t22 -6v-409q0 -80 48 -80q51 0 51 88v401q76 26 144 26q35 0 60 -10.5t39 -26.5t22.5 -43t11 -52.5
t2.5 -62.5z" />
    <glyph glyph-name="Udieresis" unicode="&#xdc;" horiz-adv-x="689" 
d="M239 852q67 0 67 -62q0 -13 -2.5 -24t-18 -25t-43.5 -14q-66 0 -66 65q0 10 3 21.5t18.5 25t41.5 13.5zM412 873q68 0 68 -63q0 -12 -2.5 -23.5t-18.5 -25.5t-44 -14q-65 0 -65 65q0 10 3 21.5t18 25.5t41 14zM674 514q0 -48 -1.5 -85t-8.5 -93.5t-19.5 -99t-37.5 -89.5
t-59 -77t-86 -50t-118 -20q-65 0 -117 20t-86 50.5t-58.5 77t-37 89t-20 99t-9 93.5t-1.5 85q0 44 4 73.5t17 60t41.5 46t73.5 15.5q23 0 48 -3.5t40.5 -7.5t34.5 -9t22 -6v-409q0 -80 48 -80q51 0 51 88v401q76 26 144 26q35 0 60 -10.5t39 -26.5t22.5 -43t11 -52.5
t2.5 -62.5z" />
    <glyph glyph-name="Yacute" unicode="&#xdd;" horiz-adv-x="621" 
d="M332 857q4 2 13 2q21 0 38.5 -13.5t17.5 -36.5q0 -31 -35 -60.5t-67 -29.5q-15 0 -24 8t-11 16l-1 8zM20 668q-5 -132 -5 -239q0 -81 50 -126.5t141 -45.5q53 0 90 9.5t48 18.5l10 9q-1 -40 -31 -71.5t-104 -31.5q-49 0 -95.5 14.5t-67.5 28.5l-22 15q-19 -40 -19 -88
q0 -34 12.5 -63.5t41.5 -57t85 -43.5t135 -16q63 0 113.5 19t82 47t54.5 66.5t34 71t17 69t7 51t1 24.5q8 143 8 229q0 68 -34.5 108.5t-101.5 40.5q-24 0 -44 -4.5t-32.5 -10.5t-21.5 -12.5t-12.5 -11t-2.5 -5.5v-177q0 -77 -41 -77q-36 0 -36 77q0 29 1.5 41.5t1.5 61.5
q0 46 -32.5 82t-102.5 36q-45 0 -77 -9.5t-41 -19.5z" />
    <glyph glyph-name="germandbls" unicode="&#xdf;" horiz-adv-x="681" 
d="M299 408v-82q14 -104 15 -231q0 -95 -168 -95q-24 0 -49 2t-39 4l-13 2q-3 66 -3 170q0 259 19 480q1 4 42.5 10.5t105 12.5t113.5 6q39 0 73.5 -3t77.5 -14.5t73.5 -30t51.5 -53.5t21 -81q0 -40 -8 -70.5t-18.5 -45.5t-25 -24.5t-23 -11.5t-17.5 -2q10 0 21.5 -2.5
t30 -12t32.5 -24.5t24.5 -44t10.5 -68q0 -110 -97 -169q-4 -1 -12 -5q-31 -14 -56 -14q-37 0 -61 30t-30 60l-5 29q33 19 33 65q0 57 -45 74q-14 4 -23 16t-10 22l-2 11q0 24 6 39.5t12 18.5l7 3q41 15 41 58q0 37 -19.5 54t-45.5 17q-19 0 -33 -7q-5 -38 -7 -94z" />
    <glyph glyph-name="agrave" unicode="&#xe0;" horiz-adv-x="659" 
d="M294 747l111 -172q-1 -6 -3 -14.5t-16.5 -22.5t-38.5 -14q-52 0 -108.5 47.5t-56.5 97.5q0 37 28.5 59.5t62.5 22.5q13 0 21 -4zM643 369q0 -36 -4.5 -155.5t-4.5 -179.5q-2 -5 -8 -12t-33 -19.5t-64 -13.5h-5q-58 0 -88.5 32t-31.5 83q-1 -4 -4 -11t-16 -25t-31 -32
t-51.5 -25t-74.5 -11q-90 0 -150.5 68t-60.5 158q0 111 67.5 185.5t179.5 74.5q98 0 140 -36q-4 24 -11 33q38 41 126 41q60 0 91.5 -46t33.5 -109zM333 166q37 0 56 25.5t19 70.5q0 42 -12.5 62t-49.5 20q-87 0 -87 -94q0 -36 19 -60t55 -24z" />
    <glyph glyph-name="aacute" unicode="&#xe1;" horiz-adv-x="659" 
d="M395 762q8 4 21 4q34 0 62.5 -22.5t28.5 -59.5q0 -50 -56.5 -97.5t-108.5 -47.5q-24 0 -38.5 12.5t-17.5 25.5l-2 13zM643 369q0 -36 -4.5 -155.5t-4.5 -179.5q-2 -5 -8 -12t-33 -19.5t-64 -13.5h-5q-58 0 -88.5 32t-31.5 83q-1 -4 -4 -11t-16 -25t-31 -32t-51.5 -25
t-74.5 -11q-90 0 -150.5 68t-60.5 158q0 111 67.5 185.5t179.5 74.5q98 0 140 -36q-4 24 -11 33q38 41 126 41q60 0 91.5 -46t33.5 -109zM333 166q37 0 56 25.5t19 70.5q0 42 -12.5 62t-49.5 20q-87 0 -87 -94q0 -36 19 -60t55 -24z" />
    <glyph glyph-name="acircumflex" unicode="&#xe2;" horiz-adv-x="659" 
d="M431 629q21 -32 21 -60q0 -21 -19.5 -34.5t-41.5 -13.5q-37 0 -71 60q-34 -60 -71 -60q-22 0 -41 13.5t-19 34.5q0 29 20 60q2 3 5 8t13.5 17.5t22.5 22t31.5 17.5t40.5 8q20 0 38.5 -7.5t30.5 -18t21.5 -21.5t13.5 -19zM643 369q0 -36 -4.5 -155.5t-4.5 -179.5
q-2 -5 -8 -12t-33 -19.5t-64 -13.5h-5q-58 0 -88.5 32t-31.5 83q-1 -4 -4 -11t-16 -25t-31 -32t-51.5 -25t-74.5 -11q-90 0 -150.5 68t-60.5 158q0 111 67.5 185.5t179.5 74.5q98 0 140 -36q-4 24 -11 33q38 41 126 41q60 0 91.5 -46t33.5 -109zM333 166q37 0 56 25.5
t19 70.5q0 42 -12.5 62t-49.5 20q-87 0 -87 -94q0 -36 19 -60t55 -24z" />
    <glyph glyph-name="atilde" unicode="&#xe3;" horiz-adv-x="659" 
d="M195 545q-64 33 -64 80q0 40 38.5 69.5t81.5 29.5q28 0 81 -18.5t81 -18.5q18 0 28 8.5t11 16.5l1 8q2 1 6 1q37 0 61 -20t24 -66q0 -36 -34.5 -58t-77.5 -22q-32 0 -93 16t-81 18q-19 0 -35 -11t-22 -22zM643 369q0 -36 -4.5 -155.5t-4.5 -179.5q-2 -5 -8 -12t-33 -19.5
t-64 -13.5h-5q-58 0 -88.5 32t-31.5 83q-1 -4 -4 -11t-16 -25t-31 -32t-51.5 -25t-74.5 -11q-90 0 -150.5 68t-60.5 158q0 111 67.5 185.5t179.5 74.5q98 0 140 -36q-4 24 -11 33q38 41 126 41q60 0 91.5 -46t33.5 -109zM333 166q37 0 56 25.5t19 70.5q0 42 -12.5 62
t-49.5 20q-87 0 -87 -94q0 -36 19 -60t55 -24z" />
    <glyph glyph-name="adieresis" unicode="&#xe4;" horiz-adv-x="659" 
d="M229 672q70 0 70 -65q0 -9 -2 -17t-7.5 -20.5t-20.5 -20t-37 -7.5q-68 0 -68 67q0 11 3 23t19 26t43 14zM409 693q70 0 70 -65q0 -9 -2 -17t-7.5 -20.5t-20.5 -20t-37 -7.5q-68 0 -68 67q0 11 3 23t19 26t43 14zM643 369q0 -36 -4.5 -155.5t-4.5 -179.5q-2 -5 -8 -12
t-33 -19.5t-64 -13.5h-5q-58 0 -88.5 32t-31.5 83q-1 -4 -4 -11t-16 -25t-31 -32t-51.5 -25t-74.5 -11q-90 0 -150.5 68t-60.5 158q0 111 67.5 185.5t179.5 74.5q98 0 140 -36q-4 24 -11 33q38 41 126 41q60 0 91.5 -46t33.5 -109zM333 166q37 0 56 25.5t19 70.5
q0 42 -12.5 62t-49.5 20q-87 0 -87 -94q0 -36 19 -60t55 -24z" />
    <glyph glyph-name="aring" unicode="&#xe5;" horiz-adv-x="659" 
d="M326 722q105 0 105 -98q0 -11 -1 -20.5t-7 -25t-16 -26.5t-30.5 -19t-47.5 -8q-101 0 -101 100q0 12 3 24.5t11.5 31t30 30t53.5 11.5zM331 593q11 0 19 9.5t8 22.5t-8 21.5t-19 8.5t-19.5 -8.5t-8.5 -21.5t8.5 -22.5t19.5 -9.5zM643 369q0 -36 -4.5 -155.5t-4.5 -179.5
q-2 -5 -8 -12t-33 -19.5t-64 -13.5h-5q-58 0 -88.5 32t-31.5 83q-1 -4 -4 -11t-16 -25t-31 -32t-51.5 -25t-74.5 -11q-90 0 -150.5 68t-60.5 158q0 111 67.5 185.5t179.5 74.5q98 0 140 -36q-4 24 -11 33q38 41 126 41q60 0 91.5 -46t33.5 -109zM333 166q37 0 56 25.5
t19 70.5q0 42 -12.5 62t-49.5 20q-87 0 -87 -94q0 -36 19 -60t55 -24z" />
    <glyph glyph-name="ae" unicode="&#xe6;" horiz-adv-x="1080" 
d="M812 0q-114 0 -179 62v-28q-2 -5 -8 -12t-33 -19.5t-64 -13.5h-5q-58 0 -89 32t-31 81q-3 -8 -6.5 -15t-17.5 -24.5t-31.5 -30t-50 -22.5t-71.5 -10q-90 0 -150.5 68t-60.5 158q0 111 67.5 185.5t179.5 74.5q98 0 140 -36q-4 24 -11 33q38 41 126 41q78 0 110 -81
q71 81 188 81q127 0 188.5 -54t61.5 -146q0 -40 -16.5 -66.5t-47 -37t-55 -14t-59.5 -3.5q-31 0 -57.5 7t-37.5 14l-11 7q1 -40 31 -58.5t75 -18.5q54 0 129 25q12 -24 12 -48q0 -52 -50 -91.5t-166 -39.5zM332 166q37 0 56 25.5t19 70.5q0 42 -12.5 62t-49.5 20
q-87 0 -87 -94q0 -36 19 -60t55 -24zM838 399q-27 0 -43.5 -20.5t-16.5 -49.5q0 -13 1 -22q27 -16 71 -16q25 1 40.5 16t15.5 36q0 24 -20.5 39.5t-47.5 16.5z" />
    <glyph glyph-name="ccedilla" unicode="&#xe7;" horiz-adv-x="536" 
d="M341 -10q0 -22 -5 -52q-18 -100 -132 -100q-9 0 -29 2q-66 6 -66 66l5 32h5q15 0 52 6q33 6 39 64q-86 21 -140.5 86.5t-54.5 162.5q0 119 85 192t211 73q90 0 144 -43.5t54 -93.5q0 -28 -12.5 -49.5t-24.5 -29.5l-13 -7q-29 27 -117 27q-43 0 -58.5 -23.5t-15.5 -51.5
q0 -38 19.5 -60t58.5 -22q26 0 53 6.5t44.5 13.5t19.5 7q47 0 57 -68q0 -104 -175 -125l-4 -5v-8z" />
    <glyph glyph-name="egrave" unicode="&#xe8;" horiz-adv-x="535" 
d="M232 773l111 -172q-1 -6 -3 -14.5t-16.5 -22.5t-38.5 -14q-52 0 -108.5 47.5t-56.5 97.5q0 37 28.5 59.5t62.5 22.5q13 0 21 -4zM267 0q-71 0 -122.5 23.5t-78.5 63.5t-39 83t-12 91q0 46 15.5 91.5t45.5 84.5t80.5 63t113.5 24q127 0 188.5 -54t61.5 -146
q0 -40 -16.5 -66.5t-47 -37t-55 -14t-59.5 -3.5q-31 0 -57.5 7t-37.5 14l-11 7q1 -40 31 -58.5t75 -18.5q54 0 129 25q12 -24 12 -48q0 -52 -50 -91.5t-166 -39.5zM293 399q-27 0 -43.5 -20.5t-16.5 -49.5q0 -13 1 -22q27 -16 71 -16q25 1 40.5 16t15.5 36q0 24 -20.5 39.5
t-47.5 16.5z" />
    <glyph glyph-name="eacute" unicode="&#xe9;" horiz-adv-x="535" 
d="M309 762q8 4 21 4q34 0 62.5 -22.5t28.5 -59.5q0 -50 -56.5 -97.5t-108.5 -47.5q-24 0 -38.5 12.5t-17.5 25.5l-2 13zM267 0q-71 0 -122.5 23.5t-78.5 63.5t-39 83t-12 91q0 46 15.5 91.5t45.5 84.5t80.5 63t113.5 24q127 0 188.5 -54t61.5 -146q0 -40 -16.5 -66.5
t-47 -37t-55 -14t-59.5 -3.5q-31 0 -57.5 7t-37.5 14l-11 7q1 -40 31 -58.5t75 -18.5q54 0 129 25q12 -24 12 -48q0 -52 -50 -91.5t-166 -39.5zM293 399q-27 0 -43.5 -20.5t-16.5 -49.5q0 -13 1 -22q27 -16 71 -16q25 1 40.5 16t15.5 36q0 24 -20.5 39.5t-47.5 16.5z" />
    <glyph glyph-name="ecircumflex" unicode="&#xea;" horiz-adv-x="535" 
d="M396 618q7 -16 7 -29q0 -21 -18 -35.5t-42 -14.5q-38 0 -74 70q-35 -69 -74 -69q-22 0 -41 14t-19 36q0 43 38.5 85.5t83.5 46.5q33 0 58 -9.5t41 -28.5t23 -31.5t17 -34.5zM267 0q-71 0 -122.5 23.5t-78.5 63.5t-39 83t-12 91q0 46 15.5 91.5t45.5 84.5t80.5 63
t113.5 24q127 0 188.5 -54t61.5 -146q0 -40 -16.5 -66.5t-47 -37t-55 -14t-59.5 -3.5q-31 0 -57.5 7t-37.5 14l-11 7q1 -40 31 -58.5t75 -18.5q54 0 129 25q12 -24 12 -48q0 -52 -50 -91.5t-166 -39.5zM293 399q-27 0 -43.5 -20.5t-16.5 -49.5q0 -13 1 -22q27 -16 71 -16
q25 1 40.5 16t15.5 36q0 24 -20.5 39.5t-47.5 16.5z" />
    <glyph glyph-name="edieresis" unicode="&#xeb;" horiz-adv-x="535" 
d="M171 672q70 0 70 -65q0 -9 -2 -17t-7.5 -20.5t-20.5 -20t-37 -7.5q-68 0 -68 67q0 11 3 23t19 26t43 14zM351 693q70 0 70 -65q0 -9 -2 -17t-7.5 -20.5t-20.5 -20t-37 -7.5q-68 0 -68 67q0 11 3 23t19 26t43 14zM267 0q-71 0 -122.5 23.5t-78.5 63.5t-39 83t-12 91
q0 46 15.5 91.5t45.5 84.5t80.5 63t113.5 24q127 0 188.5 -54t61.5 -146q0 -40 -16.5 -66.5t-47 -37t-55 -14t-59.5 -3.5q-31 0 -57.5 7t-37.5 14l-11 7q1 -40 31 -58.5t75 -18.5q54 0 129 25q12 -24 12 -48q0 -52 -50 -91.5t-166 -39.5zM293 399q-27 0 -43.5 -20.5
t-16.5 -49.5q0 -13 1 -22q27 -16 71 -16q25 1 40.5 16t15.5 36q0 24 -20.5 39.5t-47.5 16.5z" />
    <glyph glyph-name="igrave" unicode="&#xec;" horiz-adv-x="332" 
d="M41 421q-15 -34 -15 -195q0 -126 32.5 -177.5t118.5 -51.5q33 0 59.5 5.5t40 13.5t23 16t12.5 14l2 5v288q0 118 -142 118q-36 0 -69 -9t-47 -18zM152 744l139 -196q-1 -6 -3.5 -16t-21 -26t-48.5 -16q-65 0 -135.5 54.5t-70.5 110.5q0 42 35.5 68t78.5 26q18 0 26 -5z
" />
    <glyph glyph-name="iacute" unicode="&#xed;" horiz-adv-x="332" 
d="M41 421q-15 -34 -15 -195q0 -126 32.5 -177.5t118.5 -51.5q33 0 59.5 5.5t40 13.5t23 16t12.5 14l2 5v288q0 118 -142 118q-36 0 -69 -9t-47 -18zM193 744q8 5 26 5q43 0 78.5 -26t35.5 -68q0 -56 -70.5 -110.5t-135.5 -54.5q-30 0 -48 14.5t-21 29.5l-4 14z" />
    <glyph glyph-name="icircumflex" unicode="&#xee;" horiz-adv-x="332" 
d="M41 421q-15 -34 -15 -195q0 -126 32.5 -177.5t118.5 -51.5q33 0 59.5 5.5t40 13.5t23 16t12.5 14l2 5v288q0 118 -142 118q-36 0 -69 -9t-47 -18zM156 694q79 -6 125.5 -52.5t46.5 -103.5q0 -25 -21 -42t-49 -17q-44 0 -88 82q-15 -31 -38 -56t-48 -25q-26 0 -48.5 16.5
t-22.5 42.5q0 50 45.5 100.5t97.5 54.5z" />
    <glyph glyph-name="idieresis" unicode="&#xef;" horiz-adv-x="332" 
d="M41 421q-15 -34 -15 -195q0 -126 32.5 -177.5t118.5 -51.5q33 0 59.5 5.5t40 13.5t23 16t12.5 14l2 5v288q0 118 -142 118q-36 0 -69 -9t-47 -18zM61 658q90 0 90 -83q0 -11 -2 -21.5t-9.5 -26.5t-26.5 -25.5t-48 -9.5q-87 0 -87 86q0 9 2.5 20t10 26t26 24.5t44.5 9.5z
M263 682q90 0 90 -83q0 -9 -1 -17t-6 -21t-13.5 -22.5t-26 -16.5t-40.5 -7q-87 0 -87 86q0 14 4 29.5t24.5 33.5t55.5 18z" />
    <glyph glyph-name="ntilde" unicode="&#xf1;" horiz-adv-x="651" 
d="M170 565q-64 33 -64 80q0 40 38.5 69.5t81.5 29.5q28 0 81 -18.5t81 -18.5q18 0 28 8.5t11 16.5l1 8q2 1 6 1q37 0 61 -20t24 -66q0 -36 -34.5 -58t-77.5 -22q-32 0 -93 16t-81 18q-19 0 -35 -11t-22 -22zM35 513q-20 -72 -20 -283v-86q0 -60 31 -104.5t102 -44.5
q29 0 53 5t37 11.5t22 13.5t12 12l3 5q4 212 4 240q0 24 1.5 36.5t11.5 24t29 11.5q35 0 35 -43q0 -21 -1.5 -75.5t-1.5 -97.5q0 -63 35.5 -103.5t99.5 -40.5q38 0 73 12t51 24l16 11q8 213 8 276q0 22 -3.5 45.5t-15.5 52.5t-30 51.5t-50 38t-74 15.5q-41 0 -75 -9.5
t-54 -23t-34 -27.5t-19 -24l-5 -9q1 7 1 14q0 58 -32.5 77.5t-89.5 19.5q-30 0 -60 -6t-45 -12z" />
    <glyph glyph-name="ograve" unicode="&#xf2;" horiz-adv-x="572" 
d="M266 762l105 -164q0 -2 -0.5 -5t-4 -11.5t-9 -15t-16.5 -11.5t-25 -5q-50 0 -103.5 45.5t-53.5 92.5q0 35 27 56.5t60 21.5q12 0 20 -4zM279 524q64 0 113.5 -14t78.5 -39t47.5 -51t26.5 -59.5t10 -53.5t2 -43q0 -28 -3 -54t-18.5 -67t-42 -70t-80 -51t-126.5 -22
q-272 0 -272 267q0 24 3.5 49t19 65t42 69.5t78 51.5t121.5 22zM291 182q29 0 50 24t21 59q0 34 -21 57t-50 23q-31 0 -52.5 -23t-21.5 -57q0 -35 21.5 -59t52.5 -24z" />
    <glyph glyph-name="oacute" unicode="&#xf3;" horiz-adv-x="572" 
d="M309 762q8 4 21 4q34 0 62.5 -22.5t28.5 -59.5q0 -50 -56.5 -97.5t-108.5 -47.5q-24 0 -38.5 12.5t-17.5 25.5l-2 13zM279 524q64 0 113.5 -14t78.5 -39t47.5 -51t26.5 -59.5t10 -53.5t2 -43q0 -28 -3 -54t-18.5 -67t-42 -70t-80 -51t-126.5 -22q-272 0 -272 267
q0 24 3.5 49t19 65t42 69.5t78 51.5t121.5 22zM291 182q29 0 50 24t21 59q0 34 -21 57t-50 23q-31 0 -52.5 -23t-21.5 -57q0 -35 21.5 -59t52.5 -24z" />
    <glyph glyph-name="ocircumflex" unicode="&#xf4;" horiz-adv-x="572" 
d="M272 722q67 -5 106.5 -44.5t39.5 -88.5q0 -21 -18 -35.5t-42 -14.5q-38 0 -74 70q-34 -69 -74 -69q-22 0 -41 14t-19 36q0 43 38.5 85.5t83.5 46.5zM279 524q64 0 113.5 -14t78.5 -39t47.5 -51t26.5 -59.5t10 -53.5t2 -43q0 -28 -3 -54t-18.5 -67t-42 -70t-80 -51
t-126.5 -22q-272 0 -272 267q0 24 3.5 49t19 65t42 69.5t78 51.5t121.5 22zM291 182q29 0 50 24t21 59q0 34 -21 57t-50 23q-31 0 -52.5 -23t-21.5 -57q0 -35 21.5 -59t52.5 -24z" />
    <glyph glyph-name="otilde" unicode="&#xf5;" horiz-adv-x="572" 
d="M158 550q-64 33 -64 80q0 40 38.5 69.5t81.5 29.5q28 0 81 -18.5t81 -18.5q18 0 28 8t11 16l1 9q2 1 6 1q37 0 61 -20t24 -66q0 -36 -34.5 -58t-77.5 -22q-32 0 -93 16t-81 18q-19 0 -35 -11t-22 -22zM279 524q64 0 113.5 -14t78.5 -39t47.5 -51t26.5 -59.5t10 -53.5
t2 -43q0 -28 -3 -54t-18.5 -67t-42 -70t-80 -51t-126.5 -22q-272 0 -272 267q0 24 3.5 49t19 65t42 69.5t78 51.5t121.5 22zM291 182q29 0 50 24t21 59q0 34 -21 57t-50 23q-31 0 -52.5 -23t-21.5 -57q0 -35 21.5 -59t52.5 -24z" />
    <glyph glyph-name="odieresis" unicode="&#xf6;" horiz-adv-x="572" 
d="M182 672q70 0 70 -65q0 -9 -2 -17t-7.5 -20.5t-20.5 -20t-37 -7.5q-68 0 -68 67q0 11 3 23t19 26t43 14zM362 693q70 0 70 -65q0 -9 -2 -17t-7.5 -20.5t-20.5 -20t-37 -7.5q-68 0 -68 67q0 11 3 23t19 26t43 14zM279 524q64 0 113.5 -14t78.5 -39t47.5 -51t26.5 -59.5
t10 -53.5t2 -43q0 -28 -3 -54t-18.5 -67t-42 -70t-80 -51t-126.5 -22q-272 0 -272 267q0 24 3.5 49t19 65t42 69.5t78 51.5t121.5 22zM291 182q29 0 50 24t21 59q0 34 -21 57t-50 23q-31 0 -52.5 -23t-21.5 -57q0 -35 21.5 -59t52.5 -24z" />
    <glyph glyph-name="divide" unicode="&#xf7;" horiz-adv-x="521" 
d="M171 163q0 38 28 66t66 28q39 0 67 -28t28 -66q0 -39 -28 -67t-67 -28q-38 0 -66 28t-28 67zM171 545q0 38 28 66t66 28q39 0 67 -28t28 -66q0 -39 -28 -67t-67 -28q-38 0 -66 28t-28 67zM30 348q0 -43 17 -77q144 -2 233 -2q107 0 127 2q46 3 63 18t21 60
q0 30 -4.5 50.5t-8.5 26.5l-5 6q-8 -2 -71 -2q-251 0 -283 -2q-29 -1 -48.5 -11t-27.5 -24t-10.5 -24.5t-2.5 -20.5z" />
    <glyph glyph-name="oslash" unicode="&#xf8;" horiz-adv-x="572" 
d="M291 182q29 0 50 24t21 59q0 34 -21 57t-50 23q-31 0 -52.5 -23t-21.5 -57q0 -35 21.5 -59t52.5 -24zM320 625q20 22 62 28q19 3 32 3q29 0 55.5 -8t38.5 -16l11 -9l-66 -140q104 -64 104 -219q0 -28 -3 -54t-18.5 -67t-42 -70t-80 -51t-126.5 -22h-24l-16 -26
q-20 -22 -62 -28q-19 -3 -32 -3q-29 0 -55.5 8.5t-37.5 16.5l-12 8l40 86q-73 68 -73 205q0 23 3 47.5t18 63.5t40 68.5t74 52t115 24.5q40 83 55 102z" />
    <glyph glyph-name="ugrave" unicode="&#xf9;" horiz-adv-x="642" 
d="M269 762l111 -172q-1 -6 -3 -14.5t-16.5 -22.5t-38.5 -14q-52 0 -108.5 47.5t-56.5 97.5q0 37 28.5 59.5t62.5 22.5q13 0 21 -4zM36 497q-5 -176 -5 -281q0 -42 9.5 -79t30 -70.5t59 -53t91.5 -19.5q42 0 74 11t48 26t26 30.5t12 26.5l2 11l6 -61q4 -5 12 -13.5t39 -22
t69 -13.5q24 0 43.5 5.5t31 13.5t20 16.5t11.5 13.5l3 6q14 218 14 317q0 159 -133 159q-24 0 -45 -3t-34.5 -8t-23.5 -10.5t-14.5 -10t-4.5 -7.5v-113.5t0.5 -72t0.5 -37v-18v-5.5q0 -69 -38 -69q-37 0 -37 56v150q0 69 -38.5 108.5t-108.5 39.5q-42 0 -72 -6t-39 -12z" />
    <glyph glyph-name="uacute" unicode="&#xfa;" horiz-adv-x="642" 
d="M357 762q8 4 21 4q34 0 62.5 -22.5t28.5 -59.5q0 -50 -56.5 -97.5t-108.5 -47.5q-24 0 -38.5 12.5t-17.5 25.5l-2 13zM36 497q-5 -176 -5 -281q0 -42 9.5 -79t30 -70.5t59 -53t91.5 -19.5q42 0 74 11t48 26t26 30.5t12 26.5l2 11l6 -61q4 -5 12 -13.5t39 -22t69 -13.5
q24 0 43.5 5.5t31 13.5t20 16.5t11.5 13.5l3 6q14 218 14 317q0 159 -133 159q-24 0 -45 -3t-34.5 -8t-23.5 -10.5t-14.5 -10t-4.5 -7.5v-113.5t0.5 -72t0.5 -37v-18v-5.5q0 -69 -38 -69q-37 0 -37 56v150q0 69 -38.5 108.5t-108.5 39.5q-42 0 -72 -6t-39 -12z" />
    <glyph glyph-name="ucircumflex" unicode="&#xfb;" horiz-adv-x="642" 
d="M309 722q67 -5 106.5 -44.5t39.5 -88.5q0 -21 -18 -35.5t-42 -14.5q-38 0 -74 70q-35 -69 -74 -69q-22 0 -41 14t-19 36q0 43 38.5 85.5t83.5 46.5zM36 497q-5 -176 -5 -281q0 -42 9.5 -79t30 -70.5t59 -53t91.5 -19.5q42 0 74 11t48 26t26 30.5t12 26.5l2 11l6 -61
q4 -5 12 -13.5t39 -22t69 -13.5q24 0 43.5 5.5t31 13.5t20 16.5t11.5 13.5l3 6q14 218 14 317q0 159 -133 159q-24 0 -45 -3t-34.5 -8t-23.5 -10.5t-14.5 -10t-4.5 -7.5v-113.5t0.5 -72t0.5 -37v-18v-5.5q0 -69 -38 -69q-37 0 -37 56v150q0 69 -38.5 108.5t-108.5 39.5
q-42 0 -72 -6t-39 -12z" />
    <glyph glyph-name="udieresis" unicode="&#xfc;" horiz-adv-x="642" 
d="M235 671q70 0 70 -65q0 -9 -2 -17t-7.5 -20.5t-20.5 -20t-37 -7.5q-68 0 -68 67q0 11 3 23t19 26t43 14zM415 692q70 0 70 -65q0 -9 -2 -17t-7.5 -20.5t-20.5 -20t-37 -7.5q-68 0 -68 67q0 11 3 23t19 26t43 14zM36 497q-5 -176 -5 -281q0 -42 9.5 -79t30 -70.5t59 -53
t91.5 -19.5q42 0 74 11t48 26t26 30.5t12 26.5l2 11l6 -61q4 -5 12 -13.5t39 -22t69 -13.5q24 0 43.5 5.5t31 13.5t20 16.5t11.5 13.5l3 6q14 218 14 317q0 159 -133 159q-24 0 -45 -3t-34.5 -8t-23.5 -10.5t-14.5 -10t-4.5 -7.5v-113.5t0.5 -72t0.5 -37v-18v-5.5
q0 -69 -38 -69q-37 0 -37 56v150q0 69 -38.5 108.5t-108.5 39.5q-42 0 -72 -6t-39 -12z" />
    <glyph glyph-name="yacute" unicode="&#xfd;" horiz-adv-x="651" 
d="M358 762q8 4 21 4q34 0 62.5 -22.5t28.5 -59.5q0 -50 -56.5 -97.5t-108.5 -47.5q-24 0 -38.5 12.5t-16.5 25.5l-3 13zM44 490q0 1 0 -17t-0.5 -49t-1 -67.5t-0.5 -78v-74.5q0 -60 14 -100t42 -60.5t60 -29.5t78 -11q51 0 87 10t46 20l10 10q0 -53 -33.5 -86.5
t-103.5 -33.5q-54 0 -100.5 17.5t-65.5 35.5l-19 17q-42 -45 -42 -102q0 -100 77.5 -147.5t201.5 -47.5q64 0 116 22t86.5 56.5t61 83.5t41 97t23.5 104t11.5 97t2.5 82q0 9 -1 40.5t-1 59.5q0 178 -137 178q-24 0 -46 -3.5t-36 -8.5t-23.5 -10t-13.5 -8.5t-2 -3.5v-229
q0 -80 -40 -80q-37 0 -37 67q0 19 3.5 63.5t3.5 72.5q0 62 -36.5 102.5t-93.5 43.5q-37 0 -70 -8t-48 -16z" />
    <glyph glyph-name="ydieresis" unicode="&#xff;" horiz-adv-x="651" 
d="M235 672q70 0 70 -65q0 -9 -2 -17t-7.5 -20.5t-20.5 -20t-37 -7.5q-68 0 -68 67q0 11 3 23t19 26t43 14zM415 693q70 0 70 -65q0 -9 -2 -17t-7.5 -20.5t-20.5 -20t-37 -7.5q-68 0 -68 67q0 11 3 23t19 26t43 14zM44 490q0 1 0 -17t-0.5 -49t-1 -67.5t-0.5 -78v-74.5
q0 -60 14 -100t42 -60.5t60 -29.5t78 -11q51 0 87 10t46 20l10 10q0 -53 -33.5 -86.5t-103.5 -33.5q-54 0 -100.5 17.5t-65.5 35.5l-19 17q-42 -45 -42 -102q0 -100 77.5 -147.5t201.5 -47.5q64 0 116 22t86.5 56.5t61 83.5t41 97t23.5 104t11.5 97t2.5 82q0 9 -1 40.5
t-1 59.5q0 178 -137 178q-24 0 -46 -3.5t-36 -8.5t-23.5 -10t-13.5 -8.5t-2 -3.5v-229q0 -80 -40 -80q-37 0 -37 67q0 19 3.5 63.5t3.5 72.5q0 62 -36.5 102.5t-93.5 43.5q-37 0 -70 -8t-48 -16z" />
    <glyph glyph-name="Amacron" unicode="&#x100;" horiz-adv-x="658" 
d="M166 0q-67 0 -109 42.5t-42 112.5q0 22 2 109.5t2 99.5q0 94 26.5 163t61 102t83 52.5t76.5 22.5t59 3q62 0 112.5 -14.5t83 -36t56.5 -52.5t36.5 -58.5t19.5 -58.5t8.5 -48.5t1.5 -32.5v-338q-28 -68 -140 -68q-38 0 -64 14.5t-37.5 38.5t-16 45t-4.5 44l2 34h-106
q0 -30 2.5 -66t5.5 -57l3 -21q-40 -32 -122 -32zM406 330q2 18 2 45q0 125 -80 125q-73 0 -73 -120q0 -47 6 -55zM171 745q-3 1 -7.5 4.5t-9.5 14.5t-5 25q0 37 52 45q14 2 19 2q16 0 87.5 0.5t87.5 0.5q47 0 78 -4q13 -18 13 -42q0 -38 -35 -46h-280z" />
    <glyph glyph-name="amacron" unicode="&#x101;" horiz-adv-x="659" 
d="M149 547q-5 2 -12 7.5t-16 23.5t-9 42q0 41 35.5 59t82.5 19q124 2 162 2q97 0 131 -7q22 -30 22 -69q0 -31 -12 -50t-46 -27h-338zM643 369q0 -36 -4.5 -155.5t-4.5 -179.5q-2 -5 -8 -12t-33 -19.5t-64 -13.5h-5q-58 0 -88.5 32t-31.5 83q-1 -4 -4 -11t-16 -25t-31 -32
t-51.5 -25t-74.5 -11q-90 0 -150.5 68t-60.5 158q0 111 67.5 185.5t179.5 74.5q98 0 140 -36q-4 24 -11 33q38 41 126 41q60 0 91.5 -46t33.5 -109zM333 166q37 0 56 25.5t19 70.5q0 42 -12.5 62t-49.5 20q-87 0 -87 -94q0 -36 19 -60t55 -24z" />
    <glyph glyph-name="Abreve" unicode="&#x102;" horiz-adv-x="658" 
d="M166 0q-67 0 -109 42.5t-42 112.5q0 22 2 109.5t2 99.5q0 94 26.5 163t61 102t83 52.5t76.5 22.5t59 3q62 0 112.5 -14.5t83 -36t56.5 -52.5t36.5 -58.5t19.5 -58.5t8.5 -48.5t1.5 -32.5v-338q-28 -68 -140 -68q-38 0 -64 14.5t-37.5 38.5t-16 45t-4.5 44l2 34h-106
q0 -30 2.5 -66t5.5 -57l3 -21q-40 -32 -122 -32zM406 330q2 18 2 45q0 125 -80 125q-73 0 -73 -120q0 -47 6 -55zM320 733q-38 0 -64.5 19.5t-26.5 56.5q0 36 44 36q5 0 23 -2v-13q0 -43 27 -43q22 0 22 39l-1 17q10 2 25 2q43 0 43 -37q0 -36 -25 -55.5t-67 -19.5z" />
    <glyph glyph-name="abreve" unicode="&#x103;" horiz-adv-x="659" 
d="M314 530q-62 0 -104.5 31t-42.5 92q0 57 71 57q16 0 37 -3q-1 -9 -1 -22q0 -68 44 -68q19 0 27.5 19t8.5 43l-2 28q21 4 41 4q68 0 68 -60q0 -58 -40 -89.5t-107 -31.5zM643 369q0 -36 -4.5 -155.5t-4.5 -179.5q-2 -5 -8 -12t-33 -19.5t-64 -13.5h-5q-58 0 -88.5 32
t-31.5 83q-1 -4 -4 -11t-16 -25t-31 -32t-51.5 -25t-74.5 -11q-90 0 -150.5 68t-60.5 158q0 111 67.5 185.5t179.5 74.5q98 0 140 -36q-4 24 -11 33q38 41 126 41q60 0 91.5 -46t33.5 -109zM333 166q37 0 56 25.5t19 70.5q0 42 -12.5 62t-49.5 20q-87 0 -87 -94
q0 -36 19 -60t55 -24z" />
    <glyph glyph-name="Aogonek" unicode="&#x104;" horiz-adv-x="658" 
d="M406 330q2 18 2 45q0 125 -80 125q-73 0 -73 -120q0 -47 6 -55zM166 0q-67 0 -109 42.5t-42 112.5q0 22 2 109.5t2 99.5q0 94 26.5 163t61 102t83 52.5t76.5 22.5t59 3q62 0 112.5 -14.5t83 -36t56.5 -52.5t36.5 -58.5t19.5 -58.5t8.5 -48.5t1.5 -32.5v-338
q-15 -36 -56 -54l-1 -3q11 -35 35 -39q37 -6 52 -6h5q5 -14 5 -32q0 -60 -66 -66q-20 -2 -29 -2q-114 0 -132 100q-5 25 -5 43q-70 28 -70 133l2 34h-106q0 -30 2.5 -66t5.5 -57l3 -21q-40 -32 -122 -32z" />
    <glyph glyph-name="aogonek" unicode="&#x105;" horiz-adv-x="659" 
d="M630 -57q41 -7 55 -7l4 1q5 -15 5 -32q0 -62 -68 -69q-10 -1 -29 -1q-118 0 -135 102q-6 36 -6 55v13q-25 13 -38.5 40t-13.5 57q-3 -8 -6.5 -15t-17.5 -24.5t-31.5 -30t-50 -22.5t-71.5 -10q-90 0 -150.5 68t-60.5 158q0 111 67.5 185.5t179.5 74.5q98 0 140 -36
q-4 24 -11 33q38 41 126 41q61 0 93 -46.5t32 -108.5q0 -36 -4.5 -155.5t-4.5 -179.5q-11 -20 -43 -34q8 -52 39 -57zM333 166q37 0 56 25.5t19 70.5q0 42 -12.5 62t-49.5 20q-87 0 -87 -94q0 -36 19 -60t55 -24z" />
    <glyph glyph-name="Cacute" unicode="&#x106;" horiz-adv-x="623" 
d="M371 861q4 2 13 2q21 0 38.5 -13.5t17.5 -36.5q0 -31 -35 -60.5t-67 -29.5q-15 0 -24 8t-10 16l-2 8zM269 334q0 -51 28 -80t81 -29q35 0 73 8.5t62 17.5t26 9q32 0 50.5 -32.5t18.5 -69.5q0 -71 -80 -114.5t-199 -43.5q-130 0 -222 93t-92 249q0 164 100.5 258.5
t245.5 94.5q106 0 169 -58t63 -125q0 -36 -14.5 -65t-28.5 -39l-14 -11q-77 37 -180 37q-27 0 -45.5 -10.5t-27 -27.5t-11.5 -31.5t-3 -30.5z" />
    <glyph glyph-name="cacute" unicode="&#x107;" horiz-adv-x="536" 
d="M312 771q8 4 21 4q34 0 62.5 -22.5t28.5 -59.5q0 -50 -56.5 -97.5t-108.5 -47.5q-24 0 -38.5 13t-16.5 25l-3 13zM268 251q0 -38 19.5 -60t58.5 -22q26 0 53 6.5t44.5 13.5t19.5 7q47 0 57 -68q0 -38 -23.5 -64.5t-62 -39.5t-75.5 -18.5t-77 -5.5q-111 0 -189 70t-78 187
q0 119 85 192t211 73q90 0 144 -43.5t54 -93.5q0 -28 -12.5 -49.5t-24.5 -29.5l-13 -7q-29 27 -117 27q-43 0 -58.5 -23.5t-15.5 -51.5z" />
    <glyph glyph-name="Ccircumflex" unicode="&#x108;" horiz-adv-x="623" 
d="M423 792q16 -22 16 -44q0 -16 -14.5 -26t-31.5 -10q-29 0 -53 45q-26 -45 -53 -45q-17 0 -31 10t-14 26q0 23 15 44q1 2 3.5 6t10 13.5t16.5 16.5t23.5 13t30.5 6q15 0 29 -5.5t23 -13.5t16 -16.5t11 -13.5zM269 334q0 -51 28 -80t81 -29q35 0 73 8.5t62 17.5t26 9
q32 0 50.5 -32.5t18.5 -69.5q0 -71 -80 -114.5t-199 -43.5q-130 0 -222 93t-92 249q0 164 100.5 258.5t245.5 94.5q106 0 169 -58t63 -125q0 -36 -14.5 -65t-28.5 -39l-14 -11q-77 37 -180 37q-27 0 -45.5 -10.5t-27 -27.5t-11.5 -31.5t-3 -30.5z" />
    <glyph glyph-name="ccircumflex" unicode="&#x109;" horiz-adv-x="536" 
d="M409 621q7 -16 7 -29q0 -21 -18 -35.5t-42 -14.5q-38 0 -74 70q-34 -69 -74 -69q-22 0 -41 14t-19 36q0 43 38.5 85.5t83.5 46.5q33 0 58 -9.5t41 -28.5t23 -31.5t17 -34.5zM268 251q0 -38 19.5 -60t58.5 -22q26 0 53 6.5t44.5 13.5t19.5 7q47 0 57 -68
q0 -38 -23.5 -64.5t-62 -39.5t-75.5 -18.5t-77 -5.5q-111 0 -189 70t-78 187q0 119 85 192t211 73q90 0 144 -43.5t54 -93.5q0 -28 -12.5 -49.5t-24.5 -29.5l-13 -7q-29 27 -117 27q-43 0 -58.5 -23.5t-15.5 -51.5z" />
    <glyph glyph-name="Cdotaccent" unicode="&#x10a;" horiz-adv-x="623" 
d="M338 855q70 0 70 -65q0 -9 -2 -17t-7.5 -20.5t-20.5 -20t-37 -7.5q-68 0 -68 67q0 11 3 23t19 26t43 14zM269 334q0 -51 28 -80t81 -29q35 0 73 8.5t62 17.5t26 9q32 0 50.5 -32.5t18.5 -69.5q0 -71 -80 -114.5t-199 -43.5q-130 0 -222 93t-92 249q0 164 100.5 258.5
t245.5 94.5q106 0 169 -58t63 -125q0 -36 -14.5 -65t-28.5 -39l-14 -11q-77 37 -180 37q-27 0 -45.5 -10.5t-27 -27.5t-11.5 -31.5t-3 -30.5z" />
    <glyph glyph-name="cdotaccent" unicode="&#x10b;" horiz-adv-x="536" 
d="M256 682q70 0 70 -65q0 -9 -2 -17t-7.5 -20.5t-20.5 -20t-37 -7.5q-68 0 -68 67q0 11 3 23t19 26t43 14zM268 251q0 -38 19.5 -60t58.5 -22q26 0 53 6.5t44.5 13.5t19.5 7q47 0 57 -68q0 -38 -23.5 -64.5t-62 -39.5t-75.5 -18.5t-77 -5.5q-111 0 -189 70t-78 187
q0 119 85 192t211 73q90 0 144 -43.5t54 -93.5q0 -28 -12.5 -49.5t-24.5 -29.5l-13 -7q-29 27 -117 27q-43 0 -58.5 -23.5t-15.5 -51.5z" />
    <glyph glyph-name="Ccaron" unicode="&#x10c;" horiz-adv-x="623" 
d="M258 777q-16 22 -16 44q0 16 14.5 26t31.5 10q29 0 53 -45q26 45 53 45q17 0 31 -10t14 -26q0 -23 -15 -44q-1 -2 -3.5 -6t-10 -13.5t-16.5 -16.5t-23.5 -13t-30.5 -6q-24 0 -44.5 14t-29.5 28zM269 334q0 -51 28 -80t81 -29q35 0 73 8.5t62 17.5t26 9q32 0 50.5 -32.5
t18.5 -69.5q0 -71 -80 -114.5t-199 -43.5q-130 0 -222 93t-92 249q0 164 100.5 258.5t245.5 94.5q106 0 169 -58t63 -125q0 -36 -14.5 -65t-28.5 -39l-14 -11q-77 37 -180 37q-27 0 -45.5 -10.5t-27 -27.5t-11.5 -31.5t-3 -30.5z" />
    <glyph glyph-name="ccaron" unicode="&#x10d;" horiz-adv-x="536" 
d="M161 646q-7 16 -7 29q0 21 18 35.5t42 14.5q38 0 74 -70q34 69 74 69q22 0 41 -14t19 -36q0 -43 -38.5 -85.5t-83.5 -46.5q-33 0 -58 9.5t-41 28.5t-23 31.5t-17 34.5zM268 251q0 -38 19.5 -60t58.5 -22q26 0 53 6.5t44.5 13.5t19.5 7q47 0 57 -68q0 -38 -23.5 -64.5
t-62 -39.5t-75.5 -18.5t-77 -5.5q-111 0 -189 70t-78 187q0 119 85 192t211 73q90 0 144 -43.5t54 -93.5q0 -28 -12.5 -49.5t-24.5 -29.5l-13 -7q-29 27 -117 27q-43 0 -58.5 -23.5t-15.5 -51.5z" />
    <glyph glyph-name="Dcaron" unicode="&#x10e;" 
d="M231 794q-16 22 -16 44q0 16 14.5 26t31.5 10q29 0 53 -45q26 45 53 45q17 0 31 -10t14 -26q0 -23 -15 -44q-1 -2 -3.5 -6t-10 -13.5t-16.5 -16.5t-23.5 -13t-30.5 -6q-15 0 -29 5.5t-23 13.5t-16 16.5t-11 13.5zM37 689q83 20 201 20q64 0 120 -7.5t117.5 -31
t104.5 -60.5t71.5 -101t28.5 -149q0 -88 -29.5 -154.5t-74.5 -104.5t-107.5 -62t-118.5 -31.5t-119 -7.5q-46 0 -91.5 4t-68.5 8l-23 5q-4 15 -10 43q-13 240 -13 277q0 63 2.5 134t5.5 135t4 83zM255 173h15q16 0 33 2.5t42 13t44 28.5t32.5 53t13.5 82v4q-1 53 -14.5 90
t-35 54t-42 23.5t-43.5 6.5q-9 0 -45 -4v-353z" />
    <glyph glyph-name="dcaron" unicode="&#x10f;" horiz-adv-x="700" 
d="M720 661q31 0 48 -21.5t17 -52.5q0 -45 -37.5 -81t-69.5 -36q-14 0 -26 7t-16 15l-5 7q37 13 61 40q-35 18 -35 58q0 26 18.5 45t44.5 19zM605 583l7 -546q-4 -5 -11.5 -13.5t-39.5 -22t-72 -13.5q-31 0 -53 13.5t-31 35t-12 36.5t-3 28q-1 -4 -3 -11t-13.5 -24
t-28.5 -30t-51 -24t-78 -11q-46 0 -81.5 15.5t-57.5 41t-36.5 61t-20 71.5t-5.5 77q0 45 14.5 86.5t44.5 78t85 58t128 21.5q36 0 81 -6q3 9 3 106q0 45 -3 62q30 29 119 29q64 0 91 -29.5t27 -89.5zM314 180q37 0 56 25.5t19 70.5q0 42 -12.5 62t-49.5 20q-87 0 -87 -94
q0 -36 19 -60t55 -24z" />
    <glyph glyph-name="Dcroat" unicode="&#x110;" 
d="M-30 286q-3 1 -8 6t-10.5 20t-5.5 35q0 53 58 63q12 3 22 3q1 51 3 106t4.5 104.5t3.5 65.5q83 20 201 20q64 0 120 -7.5t117.5 -31t104.5 -60.5t71.5 -101t28.5 -149q0 -88 -29.5 -154.5t-74.5 -104.5t-107.5 -62t-118.5 -31.5t-119 -7.5q-46 0 -91.5 4t-68.5 8l-23 5
q-4 15 -10 43q-12 182 -13 226h-55zM255 173h15q16 0 33 2.5t42 13t44 28.5t32.5 53t13.5 82v4q-1 53 -14.5 90t-35 54t-42 23.5t-43.5 6.5q-9 0 -45 -4v-112q22 -1 53 -5q15 -25 15 -59q0 -53 -39 -64h-29v-113z" />
    <glyph glyph-name="dcroat" unicode="&#x111;" horiz-adv-x="613" 
d="M290 593q0 10 3.5 21t22 24.5t49.5 15.5l-2 19q30 29 119 29q77 0 104 -47q44 0 50 2q17 -13 17 -63q-4 -31 -12 -42.5t-34 -15.5v-499q-4 -5 -11.5 -13.5t-39.5 -22t-72 -13.5q-31 0 -53 13.5t-31 34.5t-12 36t-3 28q-1 -5 -3.5 -12.5t-14.5 -24t-29 -29.5t-50.5 -23
t-76.5 -10q-46 0 -81.5 15.5t-57.5 41t-36.5 61t-20 71.5t-5.5 77q0 45 14.5 86.5t44.5 78t85 58t128 21.5q36 0 81 -6v1q0 2 0.5 4.5t0.5 6v8v9.5l-59 1l-1 2l-3.5 7t-5 11.5t-4 16.5t-1.5 21zM309 180q37 0 56 25.5t19 70.5q0 42 -12.5 62t-49.5 20q-87 0 -87 -94
q0 -36 19 -60t55 -24z" />
    <glyph glyph-name="Emacron" unicode="&#x112;" horiz-adv-x="558" 
d="M135 745q-3 1 -7.5 4.5t-9.5 14.5t-5 25q0 37 52 45q14 2 19 2q16 0 87.5 0.5t87.5 0.5q47 0 78 -4q13 -18 13 -42q0 -38 -35 -46h-280zM36 679q-16 -196 -16 -319l11 -340q61 -20 236 -20h110q45 0 77.5 8t49.5 19.5t26.5 30t11.5 33.5t2 37q0 24 -8 47t-16 33l-8 11
q-76 -26 -164 -26q-11 0 -22.5 0.5t-19 1t-13.5 1t-9 0.5l-2 1v55l82 -1h3q63 0 87 21.5t25 72.5v4q0 27 -8 46.5t-16 24.5l-8 6q-47 -8 -102 -8l-66 3v57q40 -4 95 -4l55 1q111 9 111 123q0 23 -5 49t-10 41l-5 14q-17 5 -121 5q-19 0 -107 -2q-90 -2 -154 -8.5t-83 -12.5z
" />
    <glyph glyph-name="emacron" unicode="&#x113;" horiz-adv-x="535" 
d="M91 556q-5 2 -12 7.5t-16 23.5t-9 42q0 41 35.5 59t82.5 19q124 2 162 2q97 0 131 -7q22 -30 22 -69q0 -31 -12 -50t-46 -27h-338zM267 0q-71 0 -122.5 23.5t-78.5 63.5t-39 83t-12 91q0 46 15.5 91.5t45.5 84.5t80.5 63t113.5 24q127 0 188.5 -54t61.5 -146
q0 -40 -16.5 -66.5t-47 -37t-55 -14t-59.5 -3.5q-31 0 -57.5 7t-37.5 14l-11 7q1 -40 31 -58.5t75 -18.5q54 0 129 25q12 -24 12 -48q0 -52 -50 -91.5t-166 -39.5zM293 399q-27 0 -43.5 -20.5t-16.5 -49.5q0 -13 1 -22q27 -16 71 -16q25 1 40.5 16t15.5 36q0 24 -20.5 39.5
t-47.5 16.5z" />
    <glyph glyph-name="Ebreve" unicode="&#x114;" horiz-adv-x="558" 
d="M281 729q-48 0 -82 24.5t-34 71.5q0 22 12 34t44 12q6 0 30 -2v-17q0 -54 33 -54q29 0 29 49l-1 22q12 2 31 2q55 0 55 -47q0 -46 -31.5 -70.5t-85.5 -24.5zM36 679q-16 -196 -16 -319l11 -340q61 -20 236 -20h110q45 0 77.5 8t49.5 19.5t26.5 30t11.5 33.5t2 37
q0 24 -8 47t-16 33l-8 11q-76 -26 -164 -26q-11 0 -22.5 0.5t-19 1t-13.5 1t-9 0.5l-2 1v55l82 -1h3q63 0 87 21.5t25 72.5v4q0 27 -8 46.5t-16 24.5l-8 6q-47 -8 -102 -8l-66 3v57q40 -4 95 -4l55 1q111 9 111 123q0 23 -5 49t-10 41l-5 14q-17 5 -121 5q-19 0 -107 -2
q-90 -2 -154 -8.5t-83 -12.5z" />
    <glyph glyph-name="ebreve" unicode="&#x115;" horiz-adv-x="535" 
d="M270 542q-62 0 -104.5 31t-42.5 92q0 57 71 57q16 0 37 -3q-1 -9 -1 -22q0 -68 44 -68q19 0 27.5 19t8.5 43l-2 28q21 4 41 4q68 0 68 -60q0 -58 -40 -89.5t-107 -31.5zM267 0q-71 0 -122.5 23.5t-78.5 63.5t-39 83t-12 91q0 46 15.5 91.5t45.5 84.5t80.5 63t113.5 24
q127 0 188.5 -54t61.5 -146q0 -40 -16.5 -66.5t-47 -37t-55 -14t-59.5 -3.5q-31 0 -57.5 7t-37.5 14l-11 7q1 -40 31 -58.5t75 -18.5q54 0 129 25q12 -24 12 -48q0 -52 -50 -91.5t-166 -39.5zM293 399q-27 0 -43.5 -20.5t-16.5 -49.5q0 -13 1 -22q27 -16 71 -16
q25 1 40.5 16t15.5 36q0 24 -20.5 39.5t-47.5 16.5z" />
    <glyph glyph-name="Edotaccent" unicode="&#x116;" horiz-adv-x="558" 
d="M285 873q70 0 70 -65q0 -9 -2 -17t-7.5 -20.5t-20.5 -20t-37 -7.5q-68 0 -68 67q0 11 3 23t19 26t43 14zM36 679q-16 -196 -16 -319l11 -340q61 -20 236 -20h110q45 0 77.5 8t49.5 19.5t26.5 30t11.5 33.5t2 37q0 24 -8 47t-16 33l-8 11q-76 -26 -164 -26
q-11 0 -22.5 0.5t-19 1t-13.5 1t-9 0.5l-2 1v55l82 -1h3q63 0 87 21.5t25 72.5v4q0 27 -8 46.5t-16 24.5l-8 6q-47 -8 -102 -8l-66 3v57q40 -4 95 -4l55 1q111 9 111 123q0 23 -5 49t-10 41l-5 14q-17 5 -121 5q-19 0 -107 -2q-90 -2 -154 -8.5t-83 -12.5z" />
    <glyph glyph-name="edotaccent" unicode="&#x117;" horiz-adv-x="535" 
d="M256 682q70 0 70 -65q0 -9 -2 -17t-7.5 -20.5t-20.5 -20t-37 -7.5q-68 0 -68 67q0 11 3 23t19 26t43 14zM267 0q-71 0 -122.5 23.5t-78.5 63.5t-39 83t-12 91q0 46 15.5 91.5t45.5 84.5t80.5 63t113.5 24q127 0 188.5 -54t61.5 -146q0 -40 -16.5 -66.5t-47 -37t-55 -14
t-59.5 -3.5q-31 0 -57.5 7t-37.5 14l-11 7q1 -40 31 -58.5t75 -18.5q54 0 129 25q12 -24 12 -48q0 -52 -50 -91.5t-166 -39.5zM293 399q-27 0 -43.5 -20.5t-16.5 -49.5q0 -13 1 -22q27 -16 71 -16q25 1 40.5 16t15.5 36q0 24 -20.5 39.5t-47.5 16.5z" />
    <glyph glyph-name="Eogonek" unicode="&#x118;" horiz-adv-x="554" 
d="M31 679q54 22 256 26q88 2 107 2q46 0 76.5 -1.5t37.5 -2.5l7 -1q20 -52 20 -104q0 -114 -111 -123q-24 -1 -55 -1q-55 0 -95 4v-57q27 -3 66 -3q55 0 102 8q4 -2 9 -6t14 -24t9 -47v-4q-1 -51 -25 -72.5t-87 -21.5l-85 1v-55l3 -1q2 0 8 -0.5t13.5 -1t19 -1t22.5 -0.5
q88 0 164 26q32 -36 32 -91q0 -23 -3 -39t-12 -34.5t-31 -31t-56 -18.5v-3q0 -85 40 -92q37 -6 52 -6h5q5 -14 5 -32q0 -60 -66 -66q-20 -2 -29 -2q-114 0 -132 100q-5 30 -5 52q0 29 9 44h-54q-175 0 -236 20q-10 212 -11 340q0 55 4 134.5t8 131.5z" />
    <glyph glyph-name="eogonek" unicode="&#x119;" horiz-adv-x="535" 
d="M483 131q0 -47 -41 -85t-134 -45q0 -84 40 -91q37 -6 52 -6h5q5 -14 5 -32q0 -60 -66 -66q-20 -2 -29 -2q-114 0 -132 100q-5 27 -5 50q0 35 14 54q-65 15 -106.5 57.5t-56 91t-14.5 104.5q0 46 15.5 91.5t45.5 84.5t80.5 63t113.5 24q127 0 188.5 -54t61.5 -146
q0 -40 -16.5 -66.5t-47 -37t-55 -14t-59.5 -3.5q-31 0 -57.5 7t-37.5 14l-11 7q1 -40 31 -58.5t75 -18.5q54 0 129 25q12 -24 12 -48zM293 399q-27 0 -43.5 -20.5t-16.5 -49.5q0 -13 1 -22q27 -16 71 -16q25 1 40.5 16t15.5 36q0 24 -20.5 39.5t-47.5 16.5z" />
    <glyph glyph-name="Ecaron" unicode="&#x11a;" horiz-adv-x="558" 
d="M202 796q-16 22 -16 44q0 16 14.5 26t31.5 10q29 0 53 -45q26 45 53 45q17 0 31 -10t14 -26q0 -23 -15 -44q-1 -2 -3.5 -6t-10 -13.5t-16.5 -16.5t-23.5 -13t-30.5 -6q-15 0 -29 5.5t-23 13.5t-16 16.5t-10 13.5zM36 679q-16 -196 -16 -319l11 -340q61 -20 236 -20h110
q45 0 77.5 8t49.5 19.5t26.5 30t11.5 33.5t2 37q0 24 -8 47t-16 33l-8 11q-76 -26 -164 -26q-11 0 -22.5 0.5t-19 1t-13.5 1t-9 0.5l-2 1v55l82 -1h3q63 0 87 21.5t25 72.5v4q0 27 -8 46.5t-16 24.5l-8 6q-47 -8 -102 -8l-66 3v57q40 -4 95 -4l55 1q111 9 111 123
q0 23 -5 49t-10 41l-5 14q-17 5 -121 5q-19 0 -107 -2q-90 -2 -154 -8.5t-83 -12.5z" />
    <glyph glyph-name="ecaron" unicode="&#x11b;" horiz-adv-x="535" 
d="M126 646q-7 16 -7 29q0 21 18 35.5t42 14.5q38 0 74 -70q35 69 74 69q22 0 41 -14t19 -36q0 -43 -38.5 -85.5t-83.5 -46.5q-33 0 -58 9.5t-41 28.5t-23 31.5t-17 34.5zM267 0q-71 0 -122.5 23.5t-78.5 63.5t-39 83t-12 91q0 46 15.5 91.5t45.5 84.5t80.5 63t113.5 24
q127 0 188.5 -54t61.5 -146q0 -40 -16.5 -66.5t-47 -37t-55 -14t-59.5 -3.5q-31 0 -57.5 7t-37.5 14l-11 7q1 -40 31 -58.5t75 -18.5q54 0 129 25q12 -24 12 -48q0 -52 -50 -91.5t-166 -39.5zM293 399q-27 0 -43.5 -20.5t-16.5 -49.5q0 -13 1 -22q27 -16 71 -16
q25 1 40.5 16t15.5 36q0 24 -20.5 39.5t-47.5 16.5z" />
    <glyph glyph-name="Gcircumflex" unicode="&#x11c;" horiz-adv-x="657" 
d="M423 811q16 -22 16 -44q0 -16 -14.5 -26t-31.5 -10q-29 0 -53 45q-26 -45 -53 -45q-17 0 -31 10t-14 26q0 23 15 44q1 2 3.5 6t10 13.5t16.5 16.5t23.5 13t30.5 6q24 0 44.5 -14t28.5 -28zM625 369q17 -62 17 -122q0 -121 -80.5 -184.5t-205.5 -63.5q-19 0 -40.5 2
t-56.5 10t-66 22t-65 40.5t-58 62t-39.5 91t-15.5 123.5q0 70 14.5 126.5t36.5 93t54 63.5t61 40.5t63 22t54 10t41 1.5q79 0 134 -14.5t82.5 -39.5t38.5 -50.5t11 -55.5q0 -23 -5.5 -46.5t-11.5 -35.5l-5 -12q-63 16 -164 16q-28 0 -50.5 -5.5t-45.5 -20t-35.5 -45.5
t-12.5 -77q0 -43 13 -72.5t34 -42.5t38.5 -17.5t36.5 -4.5q23 0 33.5 5t10.5 22l-2 10q-7 -1 -20 -1q-68 0 -68 98q0 49 4 51h270z" />
    <glyph glyph-name="gcircumflex" unicode="&#x11d;" horiz-adv-x="631" 
d="M447 635q7 -16 7 -29q0 -21 -18 -35.5t-42 -14.5q-38 0 -74 70q-34 -69 -74 -69q-22 0 -41 14t-19 36q0 43 38.5 85.5t83.5 46.5q33 0 58 -9.5t41 -28.5t23 -31.5t17 -34.5zM489 549q72 0 99.5 -44t27.5 -117q0 -37 -4 -130.5t-8 -167.5l-3 -75q0 -7 -1.5 -18t-9 -44
t-20 -63t-38.5 -66.5t-60 -63t-89 -45t-122 -18.5q-34 0 -71.5 9t-78 28.5t-66.5 59.5t-26 95q0 50 29 99q7 -7 20.5 -18t58.5 -29t94 -18q79 6 114.5 34.5t35.5 84.5q-5 -5 -16 -12t-48 -18.5t-79 -11.5q-39 0 -73.5 13t-67 42t-52 86t-19.5 137q0 5 0.5 13.5t4.5 33
t11.5 46.5t23.5 49t38.5 46.5t59 33t82.5 13.5q93 0 144 -37l-10 29l2.5 5t9 10.5t19.5 13t35 10.5t53 5zM321 183q79 0 79 97q0 34 -19.5 56t-53.5 22q-3 0 -8 -1t-17.5 -6t-22 -13t-17.5 -24.5t-8 -38.5q0 -92 67 -92z" />
    <glyph glyph-name="Gbreve" unicode="&#x11e;" horiz-adv-x="657" 
d="M343 732q-38 0 -64.5 19.5t-26.5 56.5q0 36 44 36q5 0 23 -2v-13q0 -43 27 -43q22 0 22 39l-1 17q10 2 25 2q43 0 43 -37q0 -36 -25 -55.5t-67 -19.5zM625 369q17 -62 17 -122q0 -121 -80.5 -184.5t-205.5 -63.5q-19 0 -40.5 2t-56.5 10t-66 22t-65 40.5t-58 62t-39.5 91
t-15.5 123.5q0 70 14.5 126.5t36.5 93t54 63.5t61 40.5t63 22t54 10t41 1.5q79 0 134 -14.5t82.5 -39.5t38.5 -50.5t11 -55.5q0 -23 -5.5 -46.5t-11.5 -35.5l-5 -12q-63 16 -164 16q-28 0 -50.5 -5.5t-45.5 -20t-35.5 -45.5t-12.5 -77q0 -43 13 -72.5t34 -42.5t38.5 -17.5
t36.5 -4.5q23 0 33.5 5t10.5 22l-2 10q-7 -1 -20 -1q-68 0 -68 98q0 49 4 51h270z" />
    <glyph glyph-name="gbreve" unicode="&#x11f;" horiz-adv-x="631" 
d="M310 542q-62 0 -104.5 31t-42.5 92q0 57 71 57q16 0 37 -3q-1 -9 -1 -22q0 -68 44 -68q19 0 27.5 19t8.5 43l-2 28q21 4 41 4q68 0 68 -60q0 -58 -40 -89.5t-107 -31.5zM489 549q72 0 99.5 -44t27.5 -117q0 -37 -4 -130.5t-8 -167.5l-3 -75q0 -7 -1.5 -18t-9 -44t-20 -63
t-38.5 -66.5t-60 -63t-89 -45t-122 -18.5q-34 0 -71.5 9t-78 28.5t-66.5 59.5t-26 95q0 50 29 99q7 -7 20.5 -18t58.5 -29t94 -18q79 6 114.5 34.5t35.5 84.5q-5 -5 -16 -12t-48 -18.5t-79 -11.5q-39 0 -73.5 13t-67 42t-52 86t-19.5 137q0 5 0.5 13.5t4.5 33t11.5 46.5
t23.5 49t38.5 46.5t59 33t82.5 13.5q93 0 144 -37l-10 29l2.5 5t9 10.5t19.5 13t35 10.5t53 5zM321 183q79 0 79 97q0 34 -19.5 56t-53.5 22q-3 0 -8 -1t-17.5 -6t-22 -13t-17.5 -24.5t-8 -38.5q0 -92 67 -92z" />
    <glyph glyph-name="Gdotaccent" unicode="&#x120;" horiz-adv-x="657" 
d="M351 873q70 0 70 -65q0 -9 -2 -17t-7.5 -20.5t-20.5 -20t-37 -7.5q-68 0 -68 67q0 11 3 23t19 26t43 14zM625 369q17 -62 17 -122q0 -121 -80.5 -184.5t-205.5 -63.5q-19 0 -40.5 2t-56.5 10t-66 22t-65 40.5t-58 62t-39.5 91t-15.5 123.5q0 70 14.5 126.5t36.5 93
t54 63.5t61 40.5t63 22t54 10t41 1.5q79 0 134 -14.5t82.5 -39.5t38.5 -50.5t11 -55.5q0 -23 -5.5 -46.5t-11.5 -35.5l-5 -12q-63 16 -164 16q-28 0 -50.5 -5.5t-45.5 -20t-35.5 -45.5t-12.5 -77q0 -43 13 -72.5t34 -42.5t38.5 -17.5t36.5 -4.5q23 0 33.5 5t10.5 22l-2 10
q-7 -1 -20 -1q-68 0 -68 98q0 49 4 51h270z" />
    <glyph glyph-name="gdotaccent" unicode="&#x121;" horiz-adv-x="631" 
d="M314 682q70 0 70 -65q0 -9 -2 -17t-7.5 -20.5t-20.5 -20t-37 -7.5q-68 0 -68 67q0 11 3 23t19 26t43 14zM489 549q72 0 99.5 -44t27.5 -117q0 -37 -4 -130.5t-8 -167.5l-3 -75q0 -7 -1.5 -18t-9 -44t-20 -63t-38.5 -66.5t-60 -63t-89 -45t-122 -18.5q-34 0 -71.5 9
t-78 28.5t-66.5 59.5t-26 95q0 50 29 99q7 -7 20.5 -18t58.5 -29t94 -18q79 6 114.5 34.5t35.5 84.5q-5 -5 -16 -12t-48 -18.5t-79 -11.5q-39 0 -73.5 13t-67 42t-52 86t-19.5 137q0 5 0.5 13.5t4.5 33t11.5 46.5t23.5 49t38.5 46.5t59 33t82.5 13.5q93 0 144 -37l-10 29
l2.5 5t9 10.5t19.5 13t35 10.5t53 5zM321 183q79 0 79 97q0 34 -19.5 56t-53.5 22q-3 0 -8 -1t-17.5 -6t-22 -13t-17.5 -24.5t-8 -38.5q0 -92 67 -92z" />
    <glyph glyph-name="uni0122" unicode="&#x122;" horiz-adv-x="657" 
d="M337 -19q31 0 48 -21.5t17 -52.5q0 -45 -37.5 -81t-69.5 -36q-14 0 -26 7t-17 15l-4 7q37 13 61 40q-35 18 -35 58q0 26 18.5 45t44.5 19zM625 369q17 -62 17 -122q0 -121 -80.5 -184.5t-205.5 -63.5q-19 0 -40.5 2t-56.5 10t-66 22t-65 40.5t-58 62t-39.5 91
t-15.5 123.5q0 70 14.5 126.5t36.5 93t54 63.5t61 40.5t63 22t54 10t41 1.5q79 0 134 -14.5t82.5 -39.5t38.5 -50.5t11 -55.5q0 -23 -5.5 -46.5t-11.5 -35.5l-5 -12q-63 16 -164 16q-28 0 -50.5 -5.5t-45.5 -20t-35.5 -45.5t-12.5 -77q0 -43 13 -72.5t34 -42.5t38.5 -17.5
t36.5 -4.5q23 0 33.5 5t10.5 22l-2 10q-7 -1 -20 -1q-68 0 -68 98q0 49 4 51h270z" />
    <glyph glyph-name="uni0123" unicode="&#x123;" horiz-adv-x="631" 
d="M296 550q-31 0 -48 21.5t-17 52.5q0 45 37.5 81t69.5 36q14 0 26 -7.5t16 -14.5l5 -7q-37 -13 -61 -40q35 -18 35 -58q0 -26 -18.5 -45t-44.5 -19zM489 549q72 0 99.5 -44t27.5 -117q0 -37 -4 -130.5t-8 -167.5l-3 -75q0 -7 -1.5 -18t-9 -44t-20 -63t-38.5 -66.5t-60 -63
t-89 -45t-122 -18.5q-34 0 -71.5 9t-78 28.5t-66.5 59.5t-26 95q0 50 29 99q7 -7 20.5 -18t58.5 -29t94 -18q79 6 114.5 34.5t35.5 84.5q-5 -5 -16 -12t-48 -18.5t-79 -11.5q-39 0 -73.5 13t-67 42t-52 86t-19.5 137q0 5 0.5 13.5t4.5 33t11.5 46.5t23.5 49t38.5 46.5t59 33
t82.5 13.5q93 0 144 -37l-10 29l2.5 5t9 10.5t19.5 13t35 10.5t53 5zM321 183q79 0 79 97q0 34 -19.5 56t-53.5 22q-3 0 -8 -1t-17.5 -6t-22 -13t-17.5 -24.5t-8 -38.5q0 -92 67 -92z" />
    <glyph glyph-name="Hcircumflex" unicode="&#x124;" horiz-adv-x="687" 
d="M33 696q35 11 134 11q62 0 98 -31t36 -90q0 -118 -1 -165q10 0 30 -0.5t30 -0.5q21 0 31 1q8 246 13 275q35 11 134 11q62 0 98 -31t36 -90l-4 -544q-1 -2 -3.5 -4.5t-13 -10t-25 -13t-42 -10t-60.5 -4.5q-43 0 -72 15t-42.5 43.5t-18.5 57.5t-5 68v33l-87 5l-2 -180
q-1 -2 -3.5 -4.5t-13 -10t-25 -13t-42 -10t-60.5 -4.5q-43 0 -72 15t-42.5 43.5t-18.5 57.5t-5 68q0 90 7 284.5t11 227.5zM416 814q16 -22 16 -44q0 -16 -14.5 -26t-31.5 -10q-29 0 -53 45q-26 -45 -53 -45q-17 0 -31 10t-14 26q0 23 15 44q1 2 3.5 6t10 13.5t16.5 16.5
t23.5 13t30.5 6q15 0 29 -5.5t23 -13.5t16 -16.5t10 -13.5z" />
    <glyph glyph-name="hcircumflex" unicode="&#x125;" horiz-adv-x="653" 
d="M303 903q67 -5 106.5 -44.5t39.5 -88.5q0 -21 -18 -35.5t-42 -14.5q-38 0 -74 70q-35 -69 -74 -69q-22 0 -41 14t-19 36q0 43 38.5 85.5t83.5 46.5zM441 510q54 0 94 -17t59 -38.5t30 -52.5t12.5 -48.5t1.5 -37.5l-8 -290q-58 -40 -115 -40q-63 0 -104.5 33t-41.5 96
q0 165 3 165q0 57 -47 57q-17 0 -26.5 -12.5t-11.5 -22.5t-2 -20v-113v-124q-4 -6 -13 -14.5t-40.5 -22.5t-67.5 -14q-138 0 -149 168q5 441 10 510q55 35 126 35q32 0 52 -3t41 -12.5t31 -31.5t10 -56v-175q62 81 156 81z" />
    <glyph glyph-name="Hbar" unicode="&#x126;" horiz-adv-x="803" 
d="M88 696q35 11 134 11q70 0 107 -40h127l3 29q35 11 134 11q70 0 106 -39q41 -2 75 -6q14 -25 14 -58q0 -74 -38 -84h-23l-4 -478q-1 -2 -3.5 -4.5t-13 -10t-25 -13t-42 -10t-60.5 -4.5q-43 0 -72 15t-42.5 43.5t-18.5 57.5t-5 68v33l-87 5l-2 -180q-1 -2 -3.5 -4.5
t-13 -10t-25 -13t-42 -10t-60.5 -4.5q-43 0 -72 15t-42.5 43.5t-18.5 57.5t-5 68q0 96 8 336h-60q-2 1 -7.5 11t-11 30t-5.5 40q0 52 57 62l34 3zM446 421l3 99h-93q0 -19 -0.5 -52t-0.5 -47q10 0 30 -0.5t30 -0.5q21 0 31 1z" />
    <glyph glyph-name="hbar" unicode="&#x127;" horiz-adv-x="677" 
d="M-1 500q-25 17 -25 70q0 57 60 71q5 0 13 2q0 5 0.5 15.5t1.5 13.5q55 35 126 35q26 0 43.5 -2t36.5 -8t31 -19t18 -34q33 -2 48 -5q16 -28 16 -66q0 -60 -41 -73h-18v-71q62 81 156 81q54 0 94 -17t59 -38.5t30 -52.5t12.5 -48.5t1.5 -37.5l-8 -290q-58 -40 -115 -40
q-63 0 -104.5 33t-41.5 96q0 165 3 165q0 57 -47 57q-17 0 -26.5 -12.5t-11.5 -22.5t-2 -20v-237q-4 -6 -13 -14.5t-40.5 -22.5t-67.5 -14q-138 0 -149 168q2 188 5 338h-45z" />
    <glyph glyph-name="Itilde" unicode="&#x128;" horiz-adv-x="331" 
d="M78 731q-37 22 -37 53q0 27 21.5 47t46.5 20q16 0 46.5 -12.5t46.5 -12.5q10 0 16 5.5t7.5 11t2.5 5.5q49 0 49 -57q0 -23 -20 -38t-44 -15q-18 0 -53 10.5t-47 11.5q-11 0 -19.5 -7t-11.5 -15zM34 695q-5 -33 -12 -226t-7 -285q0 -39 5.5 -68.5t19.5 -57.5t44.5 -43
t75.5 -15q56 0 94 10.5t48 21.5l10 10q4 386 4 513v30q0 59 -37.5 90t-103.5 31q-47 0 -82 -3t-47 -5z" />
    <glyph glyph-name="itilde" unicode="&#x129;" horiz-adv-x="332" 
d="M41 421q-15 -34 -15 -195q0 -126 32.5 -177.5t118.5 -51.5q33 0 59.5 5.5t40 13.5t23 16t12.5 14l2 5v288q0 118 -142 118q-36 0 -69 -9t-47 -18zM27 485q-63 38 -63 92q0 47 37.5 80.5t80.5 33.5q28 0 80 -21t79 -21q18 0 28 9.5t11 19.5l1 9h6q83 0 83 -99
q0 -40 -34 -65.5t-76 -25.5q-31 0 -91 18t-81 20q-19 0 -34 -12.5t-21 -24.5z" />
    <glyph glyph-name="Imacron" unicode="&#x12a;" horiz-adv-x="331" 
d="M42 727q-3 1 -7.5 4.5t-9.5 14.5t-5 25q0 37 52 45q14 2 19 2q16 0 49 0.5t49 0.5q47 0 78 -4q13 -18 13 -42q0 -38 -35 -46h-203zM34 695q-5 -33 -12 -226t-7 -285q0 -39 5.5 -68.5t19.5 -57.5t44.5 -43t75.5 -15q56 0 94 10.5t48 21.5l10 10q4 386 4 513v30
q0 59 -37.5 90t-103.5 31q-47 0 -82 -3t-47 -5z" />
    <glyph glyph-name="imacron" unicode="&#x12b;" horiz-adv-x="332" 
d="M41 421q-15 -34 -15 -195q0 -126 32.5 -177.5t118.5 -51.5q33 0 59.5 5.5t40 13.5t23 16t12.5 14l2 5v288q0 118 -142 118q-36 0 -69 -9t-47 -18zM17 483q-4 2 -10 9t-13.5 28.5t-7.5 50.5q0 49 30 71t70 23q104 2 137 2q83 0 110 -8q19 -36 19 -83q0 -38 -9.5 -60.5
t-39.5 -32.5h-286z" />
    <glyph glyph-name="Ibreve" unicode="&#x12c;" horiz-adv-x="331" 
d="M154 732q-38 0 -64.5 19.5t-26.5 56.5q0 36 44 36q5 0 23 -2v-13q0 -43 27 -43q22 0 22 39l-1 17q10 2 25 2q43 0 43 -37q0 -36 -25 -55.5t-67 -19.5zM34 695q-5 -33 -12 -226t-7 -285q0 -39 5.5 -68.5t19.5 -57.5t44.5 -43t75.5 -15q56 0 94 10.5t48 21.5l10 10
q4 386 4 513v30q0 59 -37.5 90t-103.5 31q-47 0 -82 -3t-47 -5z" />
    <glyph glyph-name="ibreve" unicode="&#x12d;" horiz-adv-x="332" 
d="M41 421q-15 -34 -15 -195q0 -126 32.5 -177.5t118.5 -51.5q33 0 59.5 5.5t40 13.5t23 16t12.5 14l2 5v288q0 118 -142 118q-36 0 -69 -9t-47 -18zM158 492q-62 0 -104.5 31t-42.5 92q0 57 71 57q16 0 37 -3q-1 -9 -1 -22q0 -68 44 -68q19 0 27.5 19t8.5 43l-2 28
q21 4 41 4q68 0 68 -60q0 -58 -40 -89.5t-107 -31.5z" />
    <glyph glyph-name="Iogonek" unicode="&#x12e;" horiz-adv-x="331" 
d="M34 695q36 11 141 11q66 0 103.5 -31t37.5 -90v-30l-4 -513q-17 -26 -87 -37q8 -54 39 -60q37 -6 52 -6h5q5 -14 5 -32q0 -60 -66 -66q-20 -2 -29 -2q-114 0 -132 100q-5 30 -5 52q0 13 1 20q-80 32 -80 173q0 92 7 285t12 226z" />
    <glyph glyph-name="iogonek" unicode="&#x12f;" horiz-adv-x="332" 
d="M167 484q-70 0 -105 34.5t-35 91.5q0 5 0.5 13t8 28.5t19.5 36t39.5 28.5t65.5 13t66.5 -10.5t44 -25.5t24.5 -35t11.5 -34t2.5 -27q0 -34 -38 -73.5t-104 -39.5zM41 421q-15 -34 -15 -195q0 -99 19 -151t67 -69q-5 -12 -5 -34t5 -52q18 -100 132 -100q9 0 29 2
q66 6 66 66l-5 32h-5q-15 0 -52 6q-36 6 -40 76q29 6 48 18.5t24 21.5l5 9v288q0 118 -142 118q-36 0 -69 -9t-47 -18z" />
    <glyph glyph-name="Idotaccent" unicode="&#x130;" horiz-adv-x="331" 
d="M157 855q70 0 70 -65q0 -9 -2 -17t-7.5 -20.5t-20.5 -20t-37 -7.5q-68 0 -68 67q0 11 3 23t19 26t43 14zM34 695q-5 -33 -12 -226t-7 -285q0 -39 5.5 -68.5t19.5 -57.5t44.5 -43t75.5 -15q56 0 94 10.5t48 21.5l10 10q4 386 4 513v30q0 59 -37.5 90t-103.5 31
q-47 0 -82 -3t-47 -5z" />
    <glyph glyph-name="dotlessi" unicode="&#x131;" horiz-adv-x="332" 
d="M41 421q49 36 131 36q142 0 142 -118v-288q-1 -2 -3 -5.5t-11.5 -13t-23 -16.5t-40 -13t-59.5 -6q-86 0 -118.5 51.5t-32.5 177.5q0 72 4 120.5t8 61.5z" />
    <glyph glyph-name="IJ" unicode="&#x132;" horiz-adv-x="768" 
d="M34 695q36 11 141 11q66 0 103.5 -31t37.5 -90v-30l-4 -513q-1 -2 -3.5 -4.5t-14 -10t-27 -13t-44 -10t-63.5 -4.5q-45 0 -75.5 15t-44.5 43t-19.5 57.5t-5.5 68.5q0 92 7 285t12 226zM747 606q6 -27 6 -136q0 -66 -7 -152q-7 -80 -18.5 -132.5t-37 -97.5t-69.5 -66
t-109 -21q-180 0 -180 124q0 11 1.5 22t2.5 17l2 5q24 -5 51 -5q78 0 78 52l11 478q62 8 108 8q35 0 55 -2t45.5 -10.5t40 -29t20.5 -54.5z" />
    <glyph glyph-name="ij" unicode="&#x133;" horiz-adv-x="670" 
d="M41 421q-15 -34 -15 -195q0 -126 32.5 -177.5t118.5 -51.5q33 0 59.5 5.5t40 13.5t23 16t12.5 14l2 5v288q0 118 -142 118q-36 0 -69 -9t-47 -18zM167 484q-70 0 -105 34.5t-35 91.5q0 5 0.5 13t8 28.5t19.5 36t39.5 28.5t65.5 13t66.5 -10.5t44 -25.5t24.5 -35t11.5 -34
t2.5 -27q0 -34 -38 -73.5t-104 -39.5zM522 567q-70 0 -105 34.5t-35 91.5q0 5 0.5 13t8 28.5t19.5 36t39.5 28.5t65.5 13t66.5 -10.5t44 -25.5t24.5 -35t11.5 -34t2.5 -27q0 -34 -38 -73.5t-104 -39.5zM658 439q6 -27 6 -136q0 -146 -7 -232q-7 -80 -18.5 -132.5t-37 -97.5
t-69.5 -66t-109 -21q-180 0 -180 124q0 11 1.5 22t3.5 16l1 6q24 -5 51 -5q78 0 78 52l11 558q62 8 108 8q35 0 55 -2t45.5 -10.5t40 -29t20.5 -54.5z" />
    <glyph glyph-name="Jcircumflex" unicode="&#x134;" horiz-adv-x="414" 
d="M319 812q16 -22 16 -44q0 -16 -14.5 -26t-31.5 -10q-29 0 -53 45q-26 -45 -53 -45q-17 0 -31 10t-14 26q0 23 15 44q1 2 3.5 6t10 13.5t16.5 16.5t23.5 13t30.5 6q15 0 29 -5.5t23 -13.5t16 -16.5t11 -13.5zM393 606q6 -27 6 -136q0 -66 -7 -152q-7 -80 -18.5 -132.5
t-37 -97.5t-69.5 -66t-109 -21q-180 0 -180 124q0 11 1.5 22t2.5 17l2 5q24 -5 51 -5q78 0 78 52l11 478q62 8 108 8q35 0 55 -2t45.5 -10.5t40 -29t20.5 -54.5z" />
    <glyph glyph-name="jcircumflex" unicode="&#x135;" horiz-adv-x="338" 
d="M326 439q6 -27 6 -136q0 -146 -7 -232q-7 -80 -18.5 -132.5t-37 -97.5t-69.5 -66t-109 -21q-180 0 -180 124q0 11 1.5 22t3.5 16l1 6q24 -5 51 -5q78 0 78 52l11 558q62 8 108 8q35 0 55 -2t45.5 -10.5t40 -29t20.5 -54.5zM167 772q79 -6 125.5 -52.5t46.5 -103.5
q0 -25 -21 -42t-49 -17q-44 0 -88 82q-41 -81 -86 -81q-26 0 -48.5 16.5t-22.5 42.5q0 50 45.5 100.5t97.5 54.5z" />
    <glyph glyph-name="uni0136" unicode="&#x136;" horiz-adv-x="702" 
d="M332 -9q31 0 48 -21.5t17 -52.5q0 -45 -37.5 -81t-69.5 -36q-14 0 -26 7t-16 15l-5 7q37 13 61 40q-35 18 -35 58q0 26 18.5 45t44.5 19zM673 500q-13 -33 -44.5 -64.5t-56.5 -47.5l-25 -15q3 0 7.5 -0.5t18 -2.5t25.5 -5.5t27 -11.5t25.5 -18t18 -26.5t7.5 -36.5
q0 -182 8 -216q-6 -6 -18 -15.5t-53 -25t-86 -15.5q-75 0 -104.5 28.5t-29.5 90.5q0 12 1 36.5t1 36.5q0 46 -14.5 72t-57.5 26l-7 -249q-3 -5 -11.5 -11.5t-48.5 -18t-96 -11.5q-45 0 -75.5 15.5t-45 44t-19.5 58t-5 68.5q0 76 10.5 277.5t17.5 234.5q36 9 143 9
q77 0 109.5 -31t32.5 -92q0 -38 -3 -128q79 65 128 223q42 17 91 17q54 0 98.5 -37.5t44.5 -92.5q0 -32 -14 -66z" />
    <glyph glyph-name="uni0137" unicode="&#x137;" horiz-adv-x="624" 
d="M326 -9q31 0 48 -21.5t17 -52.5q0 -45 -37.5 -81t-69.5 -36q-14 0 -26 7t-16 15l-5 7q37 13 61 40q-35 18 -35 58q0 26 18.5 45t44.5 19zM600 168q4 -116 9 -140q-1 -3 -5 -7.5t-32.5 -12t-76.5 -7.5q-76 0 -102.5 27.5t-26.5 80.5q0 46 -12 72t-46 26q-7 0 -10 -1
l-4 -165q-1 -2 -3.5 -4.5t-13.5 -9.5t-25.5 -12.5t-41.5 -10t-60 -4.5q-42 0 -70.5 15.5t-41.5 44t-18 58t-5 69.5q0 76 10 277.5t16 233.5q33 10 133 10q71 0 100.5 -31t29.5 -93q0 -67 -5 -254q12 13 23.5 49.5t26.5 95t29 98.5q33 10 73 10q44 0 81 -11t64.5 -40
t27.5 -72q0 -37 -35.5 -96t-83.5 -89q4 0 10.5 -0.5t22.5 -6t28.5 -15.5t23 -32t10.5 -53z" />
    <glyph glyph-name="kgreenlandic" unicode="&#x138;" horiz-adv-x="624" 
d="M600 168q4 -116 9 -140q-1 -3 -5 -7.5t-32.5 -12t-76.5 -7.5q-76 0 -102.5 27.5t-26.5 80.5q0 46 -12 72t-46 26q-7 0 -10 -1l-4 -165q-1 -2 -3.5 -4.5t-13.5 -9.5t-25.5 -12.5t-41.5 -10t-60 -4.5q-42 0 -70.5 15.5t-41.5 44t-18 58t-5 69.5q0 76 10 277.5t16 233.5
q33 10 133 10q71 0 100.5 -31t29.5 -93q0 -67 -5 -254q12 13 23.5 49.5t26.5 95t29 98.5q33 10 73 10q44 0 81 -11t64.5 -40t27.5 -72q0 -37 -35.5 -96t-83.5 -89q4 0 10.5 -0.5t22.5 -6t28.5 -15.5t23 -32t10.5 -53z" />
    <glyph glyph-name="Lacute" unicode="&#x139;" horiz-adv-x="488" 
d="M167 855q4 2 11 2q19 0 34.5 -12.5t15.5 -32.5q0 -27 -31 -53t-59 -26q-13 0 -21 7t-9 14l-2 7zM42 690q-2 -188 -2 -357q0 -115 2 -213q4 -123 219 -123q53 0 90 3.5t80 15t66 38t23 68.5q0 19 -5.5 34.5t-13.5 24.5t-15.5 15.5t-13.5 9.5l-5 2q-46 -23 -145 -23h-5v375
q0 144 -140 144q-34 0 -67.5 -3.5t-50.5 -6.5z" />
    <glyph glyph-name="lacute" unicode="&#x13a;" horiz-adv-x="318" 
d="M189 990q8 5 26 5q43 0 78.5 -26t35.5 -68q0 -56 -70.5 -110.5t-135.5 -54.5q-30 0 -48 14.5t-21 29.5l-4 14zM30 671q-15 -284 -15 -445q0 -126 32.5 -177.5t118.5 -51.5q33 0 59.5 5.5t40 13.5t23 16t11.5 14l3 5v538q0 118 -142 118q-36 0 -69 -9t-48 -18z" />
    <glyph glyph-name="uni013B" unicode="&#x13b;" horiz-adv-x="488" 
d="M280 -25q31 0 48 -21.5t17 -52.5q0 -45 -37.5 -81t-69.5 -36q-14 0 -26 7t-16 15l-5 7q37 13 61 40q-35 18 -35 58q0 26 18.5 45t44.5 19zM42 690q59 14 135 14q140 0 140 -144v-375h5q99 0 145 23q2 -1 5.5 -2.5t13 -8.5t16.5 -16t12.5 -24.5t5.5 -34.5q0 -42 -23 -68.5
t-66 -38t-80 -15t-90 -3.5q-215 0 -219 123q-2 98 -2 213z" />
    <glyph glyph-name="uni013C" unicode="&#x13c;" horiz-adv-x="318" 
d="M183 -35q31 0 48 -21.5t17 -52.5q0 -45 -37.5 -81t-69.5 -36q-14 0 -26 7t-17 15l-4 7q37 13 61 40q-35 18 -35 58q0 26 18.5 45t44.5 19zM30 671q49 36 131 36q142 0 142 -118v-538q-1 -2 -3 -5.5t-11.5 -13t-23 -16.5t-40 -13t-59.5 -6q-86 0 -118.5 51.5t-32.5 177.5
q0 72 3.5 183t7.5 187z" />
    <glyph glyph-name="Lcaron" unicode="&#x13d;" horiz-adv-x="488" 
d="M171 724q-53 4 -83.5 34t-30.5 70q0 16 14 27.5t33 11.5q27 0 58 -54q28 53 58 53q16 0 31 -11t15 -28q0 -33 -30 -66.5t-65 -36.5zM42 690q-2 -188 -2 -357q0 -115 2 -213q4 -123 219 -123q53 0 90 3.5t80 15t66 38t23 68.5q0 19 -5.5 34.5t-13.5 24.5t-15.5 15.5
t-13.5 9.5l-5 2q-46 -23 -145 -23h-5v375q0 144 -140 144q-34 0 -67.5 -3.5t-50.5 -6.5z" />
    <glyph glyph-name="lcaron" unicode="&#x13e;" horiz-adv-x="334" 
d="M404 661q31 0 48 -21.5t17 -52.5q0 -45 -37.5 -81t-69.5 -36q-14 0 -26 7t-16 15l-5 7q37 13 61 40q-35 18 -35 58q0 26 18.5 45t44.5 19zM30 671q49 36 131 36q142 0 142 -118v-538q-1 -2 -3 -5.5t-11.5 -13t-23 -16.5t-40 -13t-59.5 -6q-86 0 -118.5 51.5t-32.5 177.5
q0 72 3.5 183t7.5 187z" />
    <glyph glyph-name="Ldot" unicode="&#x13f;" horiz-adv-x="488" 
d="M405 378q61 0 61 -57q0 -56 -58 -56q-59 0 -59 58q0 10 2.5 20t16 22.5t37.5 12.5zM42 690q59 14 135 14q140 0 140 -144v-375h5q99 0 145 23q2 -1 5.5 -2.5t13 -8.5t16.5 -16t12.5 -24.5t5.5 -34.5q0 -42 -23 -68.5t-66 -38t-80 -15t-90 -3.5q-215 0 -219 123
q-2 98 -2 213z" />
    <glyph glyph-name="ldot" unicode="&#x140;" horiz-adv-x="367" 
d="M317 302q0 21 14.5 35.5t34.5 14.5q21 0 35.5 -14.5t14.5 -35.5q0 -20 -14.5 -34.5t-35.5 -14.5q-20 0 -34.5 14.5t-14.5 34.5zM30 671q49 36 131 36q142 0 142 -118v-538q-1 -2 -3 -5.5t-11.5 -13t-23 -16.5t-40 -13t-59.5 -6q-86 0 -118.5 51.5t-32.5 177.5
q0 72 3.5 183t7.5 187z" />
    <glyph glyph-name="Lslash" unicode="&#x141;" horiz-adv-x="509" 
d="M370 582q3 -1 8.5 -4.5t21.5 -26t31 -58.5q12 -36 12 -59q0 -47 -62 -82l-64 -36v-131h5q99 0 145 23q2 -1 5.5 -2.5t13 -8.5t16.5 -16t12.5 -24.5t5.5 -34.5q0 -42 -23 -68.5t-66 -38t-80 -15t-90 -3.5q-215 0 -219 123q-1 15 -1 55l-14 -6l-3 3q-3 2 -9 8.5t-13 15.5
t-16 24t-17 32q-10 22 -10 47q0 60 66 99q2 1 7 4t8 5l2 283q59 14 135 14q140 0 140 -144v-5l3 -3q47 27 50 30z" />
    <glyph glyph-name="lslash" unicode="&#x142;" horiz-adv-x="318" 
d="M30 671q49 36 131 36q142 0 142 -118v-57q10 7 22.5 16.5t18.5 14t8 6.5q19 2 42 -31q13 -25 7 -40.5t-37 -39.5q-4 -3 -13.5 -10.5t-23.5 -17.5t-24 -18v-361q-1 -2 -3 -5.5t-11.5 -13t-23 -16.5t-40 -13t-59.5 -6q-82 0 -115.5 47t-35.5 159l-71 -52l-2 1q-2 0 -6 2
t-9 5t-11 8.5t-11 12.5q-26 38 33 84q3 3 13.5 10.5t29.5 21.5t35 26z" />
    <glyph glyph-name="Nacute" unicode="&#x143;" horiz-adv-x="707" 
d="M24 573q0 -71 -4.5 -216.5t-4.5 -220.5q0 -55 37.5 -95.5t107.5 -40.5q27 0 50.5 5.5t38 13.5t24.5 15.5t15 13.5l5 5l1 213q4 -14 9.5 -28t21.5 -49.5t37.5 -64t50.5 -59t69.5 -47.5t85.5 -17q66 0 89 30q28 36 33 176q2 58 2 222v1q0 33 -1 80.5t-1 58.5q0 19 -1 28
q-7 109 -157 109q-27 0 -59 -3t-51 -7l-19 -3l12 -265q-44 131 -104 205t-150 74q-47 0 -80.5 -27t-45 -55.5t-11.5 -51.5zM358 846q4 2 13 2q21 0 38.5 -13.5t17.5 -36.5q0 -31 -35 -60.5t-67 -29.5q-15 0 -24 8t-11 16l-1 8z" />
    <glyph glyph-name="nacute" unicode="&#x144;" horiz-adv-x="651" 
d="M368 762q8 4 21 4q34 0 62.5 -22.5t28.5 -59.5q0 -50 -56.5 -97.5t-108.5 -47.5q-24 0 -38.5 12.5t-16.5 25.5l-3 13zM35 513q-20 -72 -20 -283v-86q0 -60 31 -104.5t102 -44.5q29 0 53 5t37 11.5t22 13.5t12 12l3 5q4 212 4 240q0 24 1.5 36.5t11.5 24t29 11.5
q35 0 35 -43q0 -21 -1.5 -75.5t-1.5 -97.5q0 -63 35.5 -103.5t99.5 -40.5q38 0 73 12t51 24l16 11q8 213 8 276q0 22 -3.5 45.5t-15.5 52.5t-30 51.5t-50 38t-74 15.5q-41 0 -75 -9.5t-54 -23t-34 -27.5t-19 -24l-5 -9q1 7 1 14q0 58 -32.5 77.5t-89.5 19.5q-30 0 -60 -6
t-45 -12z" />
    <glyph glyph-name="uni0145" unicode="&#x145;" horiz-adv-x="707" 
d="M24 573q0 23 11.5 51.5t45 55.5t80.5 27q90 0 150 -74t104 -205l-12 265q69 13 129 13q150 0 157 -109q1 -9 1 -28q0 -11 1 -58.5t1 -80.5q-1 -271 -11 -334q-12 -70 -51 -86q-21 -9 -62 -9q-45 0 -85.5 17t-69.5 47.5t-50.5 59t-37.5 64t-21.5 49.5t-9.5 28l-1 -210v-3
l-5 -5q-5 -6 -15 -14t-24.5 -15.5t-38 -13t-50.5 -5.5q-70 0 -107.5 40.5t-37.5 95.5q0 75 4.5 220.5t4.5 216.5zM365 19q31 0 48 -21.5t17 -52.5q0 -45 -37.5 -81t-69.5 -36q-14 0 -26 7t-17 15l-4 7q37 13 61 40q-35 18 -35 58q0 26 18.5 45t44.5 19z" />
    <glyph glyph-name="uni0146" unicode="&#x146;" horiz-adv-x="651" 
d="M327 -10q31 0 48 -21.5t17 -52.5q0 -45 -37.5 -81t-69.5 -36q-14 0 -26 7.5t-17 14.5l-4 7q37 13 61 40q-35 18 -35 58q0 26 18.5 45t44.5 19zM35 513q53 25 120 25q57 0 89.5 -19.5t32.5 -77.5q0 -7 -1 -14q2 4 5.5 10t18.5 22t34.5 28.5t53.5 22.5t75 10q42 0 74 -15.5
t50 -38t30 -51.5t15.5 -52.5t3.5 -45.5l-8 -276q-6 -5 -17.5 -13t-48 -21t-74.5 -13q-64 0 -99.5 40.5t-35.5 103.5q0 43 1.5 97.5t1.5 75.5q0 43 -35 43q-19 0 -29 -11.5t-11.5 -24t-1.5 -36.5l-4 -240q-2 -5 -9 -13t-39 -21t-79 -13q-71 0 -102 44.5t-31 104.5v86
q0 211 20 283z" />
    <glyph glyph-name="Ncaron" unicode="&#x147;" horiz-adv-x="707" 
d="M24 573q0 -71 -4.5 -216.5t-4.5 -220.5q0 -55 37.5 -95.5t107.5 -40.5q27 0 50.5 5.5t38 13.5t24.5 15.5t15 13.5l5 5l1 213q4 -14 9.5 -28t21.5 -49.5t37.5 -64t50.5 -59t69.5 -47.5t85.5 -17q66 0 89 30q28 36 33 176q2 58 2 222v1q0 33 -1 80.5t-1 58.5q0 19 -1 28
q-7 109 -157 109q-27 0 -59 -3t-51 -7l-19 -3l12 -265q-44 131 -104 205t-150 74q-47 0 -80.5 -27t-45 -55.5t-11.5 -51.5zM260 762q-16 22 -16 44q0 16 14.5 26t31.5 10q29 0 53 -45q26 45 53 45q17 0 31 -10t14 -26q0 -23 -15 -44q-1 -2 -3.5 -6t-10 -13.5t-16.5 -16.5
t-23.5 -13t-30.5 -6q-15 0 -29 5.5t-23 13.5t-16 16.5t-10 13.5z" />
    <glyph glyph-name="ncaron" unicode="&#x148;" horiz-adv-x="651" 
d="M195 646q-7 16 -7 29q0 21 18 35.5t42 14.5q38 0 74 -70q34 69 74 69q22 0 41 -14t19 -36q0 -43 -38.5 -85.5t-83.5 -46.5q-33 0 -58 9.5t-41 28.5t-23 31.5t-17 34.5zM35 513q-20 -72 -20 -283v-86q0 -60 31 -104.5t102 -44.5q29 0 53 5t37 11.5t22 13.5t12 12l3 5
q4 212 4 240q0 24 1.5 36.5t11.5 24t29 11.5q35 0 35 -43q0 -21 -1.5 -75.5t-1.5 -97.5q0 -63 35.5 -103.5t99.5 -40.5q38 0 73 12t51 24l16 11q8 213 8 276q0 22 -3.5 45.5t-15.5 52.5t-30 51.5t-50 38t-74 15.5q-41 0 -75 -9.5t-54 -23t-34 -27.5t-19 -24l-5 -9q1 7 1 14
q0 58 -32.5 77.5t-89.5 19.5q-30 0 -60 -6t-45 -12z" />
    <glyph glyph-name="napostrophe" unicode="&#x149;" horiz-adv-x="730" 
d="M68 665q31 0 48 -21.5t17 -52.5q0 -45 -37.5 -81t-69.5 -36q-14 0 -26 7t-16 15l-5 7q37 13 61 40q-35 18 -35 58q0 26 18.5 45t44.5 19zM114 513q-20 -72 -20 -283v-86q0 -60 31 -104.5t102 -44.5q29 0 53 5t37 11.5t22 13.5t12 12l3 5q4 212 4 240q0 24 1.5 36.5
t11.5 24t29 11.5q35 0 35 -43q0 -21 -1.5 -75.5t-1.5 -97.5q0 -63 35.5 -103.5t99.5 -40.5q38 0 73 12t51 24l16 11q8 213 8 276q0 22 -3.5 45.5t-15.5 52.5t-30 51.5t-50 38t-74 15.5q-41 0 -75 -9.5t-54 -23t-34 -27.5t-19 -24l-5 -9q1 7 1 14q0 58 -32.5 77.5t-89.5 19.5
q-30 0 -60 -6t-45 -12z" />
    <glyph glyph-name="Omacron" unicode="&#x14c;" 
d="M199 740q-3 1 -7.5 4.5t-9.5 14.5t-5 25q0 37 52 45q14 2 19 2q16 0 87.5 0.5t87.5 0.5q47 0 78 -4q13 -18 13 -42q0 -38 -35 -46h-280zM363 707q59 0 107.5 -14t80.5 -36t56.5 -53t37.5 -61.5t21 -65.5t10.5 -60.5t2.5 -51.5q0 -17 -1.5 -36.5t-9 -58.5t-20 -73
t-39.5 -73t-62.5 -67t-93 -46.5t-127.5 -18.5q-60 0 -109 15.5t-80.5 39.5t-55 57.5t-36 65t-19.5 67.5t-9 58.5t-2 43.5q0 25 1 43.5t7.5 58.5t19 70.5t38 68t61.5 62.5t93 44t128 21zM340 164q40 0 64.5 39t31 81t6.5 86q0 62 -23.5 113t-70.5 51q-96 0 -96 -189
q0 -22 2.5 -45.5t10 -58t27 -56t48.5 -21.5z" />
    <glyph glyph-name="omacron" unicode="&#x14d;" horiz-adv-x="572" 
d="M112 556q-5 2 -12 7.5t-16 23.5t-9 42q0 41 35.5 59t82.5 19q124 2 162 2q97 0 131 -7q22 -30 22 -69q0 -31 -12 -50t-46 -27h-338zM279 524q64 0 113.5 -14t78.5 -39t47.5 -51t26.5 -59.5t10 -53.5t2 -43q0 -28 -3 -54t-18.5 -67t-42 -70t-80 -51t-126.5 -22
q-272 0 -272 267q0 24 3.5 49t19 65t42 69.5t78 51.5t121.5 22zM291 182q29 0 50 24t21 59q0 34 -21 57t-50 23q-31 0 -52.5 -23t-21.5 -57q0 -35 21.5 -59t52.5 -24z" />
    <glyph glyph-name="Obreve" unicode="&#x14e;" 
d="M343 732q-38 0 -64.5 19.5t-26.5 56.5q0 36 44 36q5 0 23 -2v-13q0 -43 27 -43q22 0 22 39l-1 17q10 2 25 2q43 0 43 -37q0 -36 -25 -55.5t-67 -19.5zM363 707q59 0 107.5 -14t80.5 -36t56.5 -53t37.5 -61.5t21 -65.5t10.5 -60.5t2.5 -51.5q0 -17 -1.5 -36.5t-9 -58.5
t-20 -73t-39.5 -73t-62.5 -67t-93 -46.5t-127.5 -18.5q-60 0 -109 15.5t-80.5 39.5t-55 57.5t-36 65t-19.5 67.5t-9 58.5t-2 43.5q0 25 1 43.5t7.5 58.5t19 70.5t38 68t61.5 62.5t93 44t128 21zM340 164q40 0 64.5 39t31 81t6.5 86q0 62 -23.5 113t-70.5 51q-96 0 -96 -189
q0 -22 2.5 -45.5t10 -58t27 -56t48.5 -21.5z" />
    <glyph glyph-name="obreve" unicode="&#x14f;" horiz-adv-x="572" 
d="M294 542q-62 0 -104.5 31t-42.5 92q0 57 71 57q16 0 37 -3q-1 -9 -1 -22q0 -68 44 -68q19 0 27.5 19t8.5 43l-2 28q21 4 41 4q68 0 68 -60q0 -58 -40 -89.5t-107 -31.5zM279 524q64 0 113.5 -14t78.5 -39t47.5 -51t26.5 -59.5t10 -53.5t2 -43q0 -28 -3 -54t-18.5 -67
t-42 -70t-80 -51t-126.5 -22q-272 0 -272 267q0 24 3.5 49t19 65t42 69.5t78 51.5t121.5 22zM291 182q29 0 50 24t21 59q0 34 -21 57t-50 23q-31 0 -52.5 -23t-21.5 -57q0 -35 21.5 -59t52.5 -24z" />
    <glyph glyph-name="Ohungarumlaut" unicode="&#x150;" 
d="M293 916q4 3 17 3q28 0 50.5 -18t22.5 -48q0 -40 -45.5 -78.5t-87.5 -38.5q-19 0 -31 10t-14 20l-2 11zM458 916q4 3 17 3q28 0 50.5 -18t22.5 -48q0 -40 -45.5 -78.5t-87.5 -38.5q-19 0 -31 10t-14 20l-2 11zM363 707q59 0 107.5 -14t80.5 -36t56.5 -53t37.5 -61.5
t21 -65.5t10.5 -60.5t2.5 -51.5q0 -17 -1.5 -36.5t-9 -58.5t-20 -73t-39.5 -73t-62.5 -67t-93 -46.5t-127.5 -18.5q-60 0 -109 15.5t-80.5 39.5t-55 57.5t-36 65t-19.5 67.5t-9 58.5t-2 43.5q0 25 1 43.5t7.5 58.5t19 70.5t38 68t61.5 62.5t93 44t128 21zM340 164
q40 0 64.5 39t31 81t6.5 86q0 62 -23.5 113t-70.5 51q-96 0 -96 -189q0 -22 2.5 -45.5t10 -58t27 -56t48.5 -21.5z" />
    <glyph glyph-name="ohungarumlaut" unicode="&#x151;" horiz-adv-x="572" 
d="M231 736q5 3 17 3q28 0 50.5 -18t22.5 -48q0 -40 -45.5 -78.5t-87.5 -38.5q-19 0 -31 10t-14 20l-2 11zM396 736q4 3 17 3q28 0 50.5 -18t22.5 -48q0 -40 -45.5 -78.5t-87.5 -38.5q-19 0 -31 10t-14 20l-2 11zM279 524q64 0 113.5 -14t78.5 -39t47.5 -51t26.5 -59.5
t10 -53.5t2 -43q0 -28 -3 -54t-18.5 -67t-42 -70t-80 -51t-126.5 -22q-272 0 -272 267q0 24 3.5 49t19 65t42 69.5t78 51.5t121.5 22zM291 182q29 0 50 24t21 59q0 34 -21 57t-50 23q-31 0 -52.5 -23t-21.5 -57q0 -35 21.5 -59t52.5 -24z" />
    <glyph glyph-name="OE" unicode="&#x152;" horiz-adv-x="1075" 
d="M552 679q54 22 256 26q88 2 107 2q46 0 76.5 -1.5t37.5 -2.5l7 -1q20 -52 20 -104q0 -114 -111 -123q-24 -1 -55 -1q-55 0 -95 4v-57q27 -3 66 -3q55 0 102 8q4 -2 9 -6t14 -24t9 -47v-4q-1 -51 -25 -72.5t-87 -21.5l-85 1v-55l2 -1q3 0 9 -0.5t13.5 -1t19 -1t22.5 -0.5
q88 0 164 26q32 -36 32 -91q0 -22 -2 -37t-11.5 -33.5t-26.5 -30t-49.5 -19.5t-77.5 -8h-110q-175 0 -236 20q-1 14 -2 36q-86 -64 -219 -64q-60 0 -109 15.5t-80.5 39.5t-55 57.5t-36 65t-19.5 67.5t-9 58.5t-2 43.5q0 24 1 41.5t7.5 57t18.5 69t38 66.5t61.5 63t93 46
t128.5 25q112 0 187 -50zM340 164q40 0 64.5 39t31 81t6.5 86q0 62 -23.5 113t-70.5 51q-96 0 -96 -189q0 -22 2.5 -45.5t10 -58t27 -56t48.5 -21.5z" />
    <glyph glyph-name="oe" unicode="&#x153;" horiz-adv-x="993" 
d="M279 524q175 0 241 -107q72 107 208 107q127 0 188.5 -54t61.5 -146q0 -40 -16.5 -66.5t-47 -37t-55 -14t-59.5 -3.5q-31 0 -57.5 7t-37.5 14l-11 7q1 -40 31 -58.5t75 -18.5q54 0 129 25q12 -24 12 -48q0 -52 -50 -91.5t-166 -39.5q-147 0 -211 101q-66 -101 -227 -101
q-272 0 -272 267q0 24 3.5 49t19 65t42 69.5t78 51.5t121.5 22zM291 182q29 0 50 24t21 59q0 34 -21 57t-50 23q-31 0 -52.5 -23t-21.5 -57q0 -35 21.5 -59t52.5 -24zM751 399q-27 0 -43.5 -20.5t-16.5 -49.5q0 -13 1 -22q27 -16 71 -16q25 1 40.5 16t15.5 36
q0 24 -20.5 39.5t-47.5 16.5z" />
    <glyph glyph-name="Racute" unicode="&#x154;" horiz-adv-x="648" 
d="M296 879q4 2 13 2q21 0 38.5 -13.5t17.5 -36.5q0 -31 -35 -60.5t-67 -29.5q-15 0 -24 8t-11 16l-1 8zM546 297q3 0 9 -1t21 -7.5t26 -17.5t20.5 -34t9.5 -54q0 -47 -1 -90t-1 -45q0 -12 1 -16q-46 -32 -125 -32q-64 0 -103 31.5t-39 98.5v96q0 37 -42 37q-12 0 -25 -3
v-209q-1 -2 -2.5 -5.5t-10.5 -12.5t-21.5 -15.5t-37.5 -12t-57 -5.5q-82 0 -117.5 38t-35.5 120q0 126 3.5 311t10.5 209q66 28 272 28q332 0 332 -213q0 -42 -9 -77.5t-21.5 -56.5t-25.5 -36t-22 -21zM278 376q14 -3 31 -3q97 0 97 86q0 74 -75 74q-12 0 -25.5 -2t-20.5 -4
l-7 -2v-149z" />
    <glyph glyph-name="racute" unicode="&#x155;" horiz-adv-x="633" 
d="M309 762q8 4 21 4q34 0 62.5 -22.5t28.5 -59.5q0 -50 -56.5 -97.5t-108.5 -47.5q-24 0 -38.5 12.5t-17.5 25.5l-2 13zM27 513q-12 -205 -12 -328q0 -53 4 -83t17.5 -56t42 -37t74.5 -11q29 0 53.5 5.5t38.5 13t23.5 15t13.5 12.5l3 6q1 198 1 256q0 25 7 39t29 14
q40 0 40 -47l4 -122q47 -8 91 -8q161 0 161 146q0 73 -53.5 135t-138.5 62q-34 0 -61 -7t-41.5 -16.5t-24.5 -19.5t-13 -17l-3 -7q0 41 -37.5 60.5t-96.5 19.5q-32 0 -62.5 -6t-44.5 -12z" />
    <glyph glyph-name="uni0156" unicode="&#x156;" horiz-adv-x="648" 
d="M332 -9q31 0 48 -21.5t17 -52.5q0 -45 -37.5 -81t-69.5 -36q-14 0 -26 7t-16 15l-5 7q37 13 61 40q-35 18 -35 58q0 26 18.5 45t44.5 19zM546 297q3 0 9 -1t21 -7.5t26 -17.5t20.5 -34t9.5 -54q0 -47 -1 -90t-1 -45q0 -12 1 -16q-46 -32 -125 -32q-64 0 -103 31.5
t-39 98.5v96q0 37 -42 37q-12 0 -25 -3v-209q-1 -2 -2.5 -5.5t-10.5 -12.5t-21.5 -15.5t-37.5 -12t-57 -5.5q-82 0 -117.5 38t-35.5 120q0 126 3.5 311t10.5 209q66 28 272 28q332 0 332 -213q0 -42 -9 -77.5t-21.5 -56.5t-25.5 -36t-22 -21zM278 376q14 -3 31 -3
q97 0 97 86q0 74 -75 74q-12 0 -25.5 -2t-20.5 -4l-7 -2v-149z" />
    <glyph glyph-name="uni0157" unicode="&#x157;" horiz-adv-x="633" 
d="M142 -34q31 0 48 -21.5t17 -52.5q0 -45 -37.5 -81t-69.5 -36q-14 0 -26 7.5t-16 14.5l-5 7q37 13 61 40q-35 18 -35 58q0 26 18.5 45t44.5 19zM27 513q51 25 122 25q59 0 96.5 -19.5t37.5 -60.5q1 3 3 7.5t12.5 16t25 20.5t41.5 16t61 7q85 0 138.5 -62t53.5 -135
q0 -146 -161 -146q-44 0 -91 8l-4 122q0 47 -40 47q-22 0 -29 -14t-7 -39l-1 -256q-3 -6 -10.5 -14.5t-41 -23t-80.5 -14.5q-46 0 -74.5 11t-42 37t-17.5 56t-4 83q0 55 3 137t6 136z" />
    <glyph glyph-name="Rcaron" unicode="&#x158;" horiz-adv-x="648" 
d="M223 788q-16 22 -16 44q0 16 14.5 26t31.5 10q29 0 53 -45q26 45 53 45q17 0 31 -10t14 -26q0 -23 -15 -44q-1 -2 -3.5 -6t-10 -13.5t-16.5 -16.5t-23.5 -13t-30.5 -6q-15 0 -29 5.5t-23 13.5t-16 16.5t-11 13.5zM546 297q3 0 9 -1t21 -7.5t26 -17.5t20.5 -34t9.5 -54
q0 -47 -1 -90t-1 -45q0 -12 1 -16q-46 -32 -125 -32q-64 0 -103 31.5t-39 98.5v96q0 37 -42 37q-12 0 -25 -3v-209q-1 -2 -2.5 -5.5t-10.5 -12.5t-21.5 -15.5t-37.5 -12t-57 -5.5q-82 0 -117.5 38t-35.5 120q0 126 3.5 311t10.5 209q66 28 272 28q332 0 332 -213
q0 -42 -9 -77.5t-21.5 -56.5t-25.5 -36t-22 -21zM278 376q14 -3 31 -3q97 0 97 86q0 74 -75 74q-12 0 -25.5 -2t-20.5 -4l-7 -2v-149z" />
    <glyph glyph-name="rcaron" unicode="&#x159;" horiz-adv-x="633" 
d="M157 646q-7 16 -7 29q0 21 18 35.5t42 14.5q38 0 74 -70q34 69 74 69q22 0 41 -14t19 -36q0 -43 -38.5 -85.5t-83.5 -46.5q-33 0 -58 9.5t-41 28.5t-23 31.5t-17 34.5zM27 513q-12 -205 -12 -328q0 -53 4 -83t17.5 -56t42 -37t74.5 -11q29 0 53.5 5.5t38.5 13t23.5 15
t13.5 12.5l3 6q1 198 1 256q0 25 7 39t29 14q40 0 40 -47l4 -122q47 -8 91 -8q161 0 161 146q0 73 -53.5 135t-138.5 62q-34 0 -61 -7t-41.5 -16.5t-24.5 -19.5t-13 -17l-3 -7q0 41 -37.5 60.5t-96.5 19.5q-32 0 -62.5 -6t-44.5 -12z" />
    <glyph glyph-name="Sacute" unicode="&#x15a;" horiz-adv-x="577" 
d="M320 855q4 2 13 2q21 0 38.5 -13.5t17.5 -36.5q0 -31 -35 -60.5t-67 -29.5q-15 0 -24 8t-11 16l-1 8zM254 471q6 -19 32 -28t60 -9t72 -8.5t70 -24t53 -58t21 -108.5q0 -57 -24.5 -101t-60.5 -68.5t-83.5 -40t-86 -20.5t-76.5 -5q-60 0 -106 10.5t-78 40.5t-32 77
q0 27 7 48.5t16.5 32.5t19.5 18t17 9l7 2q20 -14 83 -37t100 -23q62 0 62 25q0 13 -32 27.5t-77 27t-47 13.5q-1 0 -18.5 5t-29 10t-30.5 19t-31 32.5t-21 50.5t-9 72q0 240 279 240q121 0 186 -42t65 -105q0 -22 -8.5 -40t-20.5 -27.5t-24 -15.5t-21 -8l-8 -2
q-54 41 -169 41q-57 0 -57 -30z" />
    <glyph glyph-name="sacute" unicode="&#x15b;" horiz-adv-x="487" 
d="M302 762q8 4 21 4q34 0 62.5 -22.5t28.5 -59.5q0 -50 -56.5 -97.5t-108.5 -47.5q-24 0 -38.5 12.5t-16.5 25.5l-3 13zM233 345q1 -5 7.5 -9t18 -6t21.5 -3.5t23 -2t18 -1.5q12 -1 26.5 -3t41 -10.5t47 -22.5t36 -42t15.5 -64q0 -181 -281 -181q-61 0 -99.5 7t-57 23
t-25 32t-8.5 44q0 28 17.5 46t34.5 22l18 3q71 -37 134 -37q48 0 48 13q0 6 -14 10.5t-28 6.5l-15 1q-8 0 -20.5 1.5t-44.5 12t-57 27t-45 51.5t-20 82t22.5 82.5t54.5 52t63.5 26t53.5 10.5l23 2q66 0 113 -9.5t69.5 -21t35 -32t14 -33t1.5 -32.5q0 -21 -17 -36.5
t-35 -20.5l-17 -5q-45 29 -139 29q-32 0 -33 -12z" />
    <glyph glyph-name="Scircumflex" unicode="&#x15c;" horiz-adv-x="577" 
d="M294 867q53 -4 83.5 -34t30.5 -70q0 -16 -14 -27.5t-33 -11.5q-27 0 -58 54q-28 -53 -58 -53q-16 0 -31 11t-15 28q0 33 30 66.5t65 36.5zM254 471q6 -19 32 -28t60 -9t72 -8.5t70 -24t53 -58t21 -108.5q0 -57 -24.5 -101t-60.5 -68.5t-83.5 -40t-86 -20.5t-76.5 -5
q-60 0 -106 10.5t-78 40.5t-32 77q0 27 7 48.5t16.5 32.5t19.5 18t17 9l7 2q20 -14 83 -37t100 -23q62 0 62 25q0 13 -32 27.5t-77 27t-47 13.5q-1 0 -18.5 5t-29 10t-30.5 19t-31 32.5t-21 50.5t-9 72q0 240 279 240q121 0 186 -42t65 -105q0 -22 -8.5 -40t-20.5 -27.5
t-24 -15.5t-21 -8l-8 -2q-54 41 -169 41q-57 0 -57 -30z" />
    <glyph glyph-name="scircumflex" unicode="&#x15d;" horiz-adv-x="487" 
d="M375 615q7 -16 7 -29q0 -21 -18 -35.5t-42 -14.5q-38 0 -74 70q-34 -69 -74 -69q-22 0 -41 14t-19 36q0 43 38.5 85.5t83.5 46.5q33 0 58 -9.5t41 -28.5t23 -31.5t17 -34.5zM233 345q1 -5 7.5 -9t18 -6t21.5 -3.5t23 -2t18 -1.5q12 -1 26.5 -3t41 -10.5t47 -22.5t36 -42
t15.5 -64q0 -181 -281 -181q-61 0 -99.5 7t-57 23t-25 32t-8.5 44q0 28 17.5 46t34.5 22l18 3q71 -37 134 -37q48 0 48 13q0 6 -14 10.5t-28 6.5l-15 1q-8 0 -20.5 1.5t-44.5 12t-57 27t-45 51.5t-20 82t22.5 82.5t54.5 52t63.5 26t53.5 10.5l23 2q66 0 113 -9.5t69.5 -21
t35 -32t14 -33t1.5 -32.5q0 -21 -17 -36.5t-35 -20.5l-17 -5q-45 29 -139 29q-32 0 -33 -12z" />
    <glyph glyph-name="Scedilla" unicode="&#x15e;" horiz-adv-x="577" 
d="M370 16q2 -5 2 -17q0 -4 -6 -46q-18 -100 -132 -100q-9 0 -29 2q-66 6 -66 66l5 32h5q15 0 52 6q27 6 30 41q-60 0 -106 10.5t-78 40.5t-32 77q0 27 7 48.5t16.5 32.5t19.5 18t17 9l7 2q20 -14 83 -37t100 -23q62 0 62 25q0 13 -32 27.5t-77 27t-47 13.5q-1 0 -18.5 5
t-29 10t-30.5 19t-31 32.5t-21 50.5t-9 72q0 240 279 240q121 0 186 -42t65 -105q0 -22 -8.5 -40t-20.5 -27.5t-24 -15.5t-21 -8l-8 -2q-54 41 -169 41q-57 0 -57 -30q6 -19 32 -28t60 -9t72 -8.5t70 -24t53 -58t21 -108.5q0 -166 -192 -219z" />
    <glyph glyph-name="scedilla" unicode="&#x15f;" horiz-adv-x="487" 
d="M233 345q1 -5 7.5 -9t18 -6t21.5 -3.5t23 -2t18 -1.5q12 -1 26.5 -3t41 -10.5t47 -22.5t36 -42t15.5 -64q0 -139 -165 -171q-1 -5 -1 -11l-5 -61q-18 -100 -132 -100q-9 0 -29 2q-66 6 -66 66l5 32h5q15 0 52 6q29 5 37 56q-55 1 -90 8.5t-51.5 23.5t-22.5 31.5t-8 42.5
q0 28 17.5 46t34.5 22l18 3q71 -37 134 -37q48 0 48 13q0 6 -14 10.5t-28 6.5l-15 1q-8 0 -20.5 1.5t-44.5 12t-57 27t-45 51.5t-20 82t22.5 82.5t54.5 52t63.5 26t53.5 10.5l23 2q66 0 113 -9.5t69.5 -21t35 -32t14 -33t1.5 -32.5q0 -21 -17 -36.5t-35 -20.5l-17 -5
q-45 29 -139 29q-32 0 -33 -12z" />
    <glyph glyph-name="Scaron" unicode="&#x160;" horiz-adv-x="577" 
d="M304 724q-35 3 -65 36.5t-30 66.5q0 17 15 28t31 11q30 0 58 -53q31 54 58 54q19 0 33 -11.5t14 -27.5q0 -40 -30.5 -70t-83.5 -34zM254 471q6 -19 32 -28t60 -9t72 -8.5t70 -24t53 -58t21 -108.5q0 -57 -24.5 -101t-60.5 -68.5t-83.5 -40t-86 -20.5t-76.5 -5
q-60 0 -106 10.5t-78 40.5t-32 77q0 27 7 48.5t16.5 32.5t19.5 18t17 9l7 2q20 -14 83 -37t100 -23q62 0 62 25q0 13 -32 27.5t-77 27t-47 13.5q-1 0 -18.5 5t-29 10t-30.5 19t-31 32.5t-21 50.5t-9 72q0 240 279 240q121 0 186 -42t65 -105q0 -22 -8.5 -40t-20.5 -27.5
t-24 -15.5t-21 -8l-8 -2q-54 41 -169 41q-57 0 -57 -30z" />
    <glyph glyph-name="scaron" unicode="&#x161;" horiz-adv-x="487" 
d="M126 646q-7 16 -7 29q0 21 18 35.5t42 14.5q38 0 74 -70q35 69 74 69q22 0 41 -14t19 -36q0 -43 -38.5 -85.5t-83.5 -46.5q-33 0 -58 9.5t-41 28.5t-23 31.5t-17 34.5zM233 345q1 -5 7.5 -9t18 -6t21.5 -3.5t23 -2t18 -1.5q12 -1 26.5 -3t41 -10.5t47 -22.5t36 -42
t15.5 -64q0 -181 -281 -181q-61 0 -99.5 7t-57 23t-25 32t-8.5 44q0 28 17.5 46t34.5 22l18 3q71 -37 134 -37q48 0 48 13q0 6 -14 10.5t-28 6.5l-15 1q-8 0 -20.5 1.5t-44.5 12t-57 27t-45 51.5t-20 82t22.5 82.5t54.5 52t63.5 26t53.5 10.5l23 2q66 0 113 -9.5t69.5 -21
t35 -32t14 -33t1.5 -32.5q0 -21 -17 -36.5t-35 -20.5l-17 -5q-45 29 -139 29q-32 0 -33 -12z" />
    <glyph glyph-name="uni0162" unicode="&#x162;" horiz-adv-x="450" 
d="M232 -20q31 0 48 -21.5t17 -52.5q0 -45 -37.5 -81t-69.5 -36q-14 0 -26 7.5t-16 14.5l-5 7q37 13 61 40q-35 18 -35 58q0 26 18.5 45t44.5 19zM514 715q6 -11 6 -81q0 -150 -74 -156q-41 0 -85 1q-4 -72 -4 -184q0 -182 7 -258q-36 -37 -133 -37q-43 0 -74 16t-45 42.5
t-20 50.5t-6 49q0 5 0.5 12t1 25t1 48t1 93t1.5 148l-143 -6q-31 30 -31 123q0 35 13 60.5t33.5 38t40.5 17.5t41 5l31 -1q30 -1 141 -3t297 -3z" />
    <glyph glyph-name="uni0163" unicode="&#x163;" horiz-adv-x="513" 
d="M273 -41q31 0 48 -21.5t17 -52.5q0 -45 -37.5 -81t-69.5 -36q-14 0 -26 7t-17 15l-4 7q37 13 61 40q-35 18 -35 58q0 26 18.5 45t44.5 19zM453 254q3 0 8 -1t18 -6.5t22.5 -15.5t17.5 -31t8 -50q0 -75 -75 -122t-175 -47q-52 0 -90.5 11t-71.5 38t-50.5 79.5t-17.5 129.5
v96q-69 0 -69 97q0 20 3 43t5 35l3 13q24 -2 61 -4v175q96 13 151 13q54 0 88.5 -36.5t34.5 -96.5q0 -13 -2 -54l123 10q30 -31 30 -106q0 -101 -155 -101h-12q-3 -24 -3 -49q0 -72 40 -90q12 -5 23 -5q34 0 55 18.5t25 37.5z" />
    <glyph glyph-name="Tcaron" unicode="&#x164;" horiz-adv-x="450" 
d="M144 790q-16 22 -16 44q0 16 14.5 26t31.5 10q29 0 53 -45q26 45 53 45q17 0 31 -10t14 -26q0 -23 -15 -44q-1 -2 -3.5 -6t-10 -13.5t-16.5 -16.5t-23.5 -13t-30.5 -6q-15 0 -29 5.5t-23 13.5t-16 16.5t-10 13.5zM514 715q6 -11 6 -81q0 -150 -74 -156q-41 0 -85 1
q-4 -72 -4 -184q0 -182 7 -258q-36 -37 -133 -37q-43 0 -74 16t-45 42.5t-20 50.5t-6 49q0 5 0.5 12t1 25t1 48t1 93t1.5 148l-143 -6q-31 30 -31 123q0 35 13 60.5t33.5 38t40.5 17.5t41 5l31 -1q30 -1 141 -3t297 -3z" />
    <glyph glyph-name="tcaron" unicode="&#x165;" horiz-adv-x="513" 
d="M560 661q31 0 48 -21.5t17 -52.5q0 -45 -37.5 -81t-69.5 -36q-14 0 -26 7t-16 15l-5 7q37 13 61 40q-35 18 -35 58q0 26 18.5 45t44.5 19zM453 254q3 0 8 -1t18 -6.5t22.5 -15.5t17.5 -31t8 -50q0 -75 -75 -122t-175 -47q-52 0 -90.5 11t-71.5 38t-50.5 79.5t-17.5 129.5
v96q-69 0 -69 97q0 20 3 43t5 35l3 13q24 -2 61 -4v175q96 13 151 13q54 0 88.5 -36.5t34.5 -96.5q0 -13 -2 -54l123 10q30 -31 30 -106q0 -101 -155 -101h-12q-3 -24 -3 -49q0 -72 40 -90q12 -5 23 -5q34 0 55 18.5t25 37.5z" />
    <glyph glyph-name="Tbar" unicode="&#x166;" horiz-adv-x="450" 
d="M514 715q6 -11 6 -81q0 -150 -74 -156q-41 0 -85 1q-2 -28 -2 -42h4q67 -2 87 -5q18 -34 18 -67q0 -24 -10 -39.5t-38 -22.5h-63v-8q0 -182 7 -258q-36 -37 -133 -37q-43 0 -74 16t-45 42.5t-20 50.5t-6 49q0 4 0.5 14.5t1.5 43t1 87.5h-107q-3 2 -9 9.5t-13.5 24.5
t-7.5 36q0 50 72 60q13 3 50 3h17v48l-143 -6q-31 30 -31 123q0 35 13 60.5t33.5 38t40.5 17.5t41 5l31 -1q30 -1 141 -3t297 -3z" />
    <glyph glyph-name="tbar" unicode="&#x167;" horiz-adv-x="513" 
d="M-1 546q-4 1 -10.5 5t-13.5 16.5t-7 29.5q0 43 72 53q7 0 10 1v43q96 13 151 13q67 0 101 -53h9q69 0 109 -5q18 -21 18 -49q0 -45 -49 -54h-66q0 -3 -0.5 -11.5t-0.5 -14.5l123 10q30 -31 30 -106q0 -101 -155 -101h-12q-3 -24 -3 -49q0 -72 40 -90q12 -5 23 -5
q34 0 55 18.5t25 37.5l5 19q3 0 8 -1t18 -6.5t22.5 -15.5t17.5 -31t8 -50q0 -75 -75 -122t-175 -47q-52 0 -90.5 11t-71.5 38t-50.5 79.5t-17.5 129.5v96q-69 0 -69 97q0 20 3 43t5 35l3 13q24 -2 61 -4v27h-51z" />
    <glyph glyph-name="Utilde" unicode="&#x168;" horiz-adv-x="689" 
d="M241 731q-37 22 -37 53q0 27 21.5 47t46.5 20q16 0 46.5 -12.5t46.5 -12.5q10 0 16 5.5t7.5 11t2.5 5.5q49 0 49 -57q0 -23 -20 -38t-44 -15q-18 0 -53 10.5t-47 11.5q-11 0 -19.5 -7t-12.5 -15zM674 514q0 -48 -1.5 -85t-8.5 -93.5t-19.5 -99t-37.5 -89.5t-59 -77
t-86 -50t-118 -20q-65 0 -117 20t-86 50.5t-58.5 77t-37 89t-20 99t-9 93.5t-1.5 85q0 44 4 73.5t17 60t41.5 46t73.5 15.5q23 0 48 -3.5t40.5 -7.5t34.5 -9t22 -6v-409q0 -80 48 -80q51 0 51 88v401q76 26 144 26q35 0 60 -10.5t39 -26.5t22.5 -43t11 -52.5t2.5 -62.5z" />
    <glyph glyph-name="utilde" unicode="&#x169;" horiz-adv-x="642" 
d="M170 550q-64 33 -64 80q0 40 38.5 69.5t81.5 29.5q28 0 81 -18.5t81 -18.5q18 0 28 8t11 16l1 9q2 1 6 1q37 0 61 -20t24 -66q0 -36 -34.5 -58t-77.5 -22q-32 0 -93 16t-81 18q-19 0 -35 -11t-22 -22zM36 497q-5 -176 -5 -281q0 -42 9.5 -79t30 -70.5t59 -53t91.5 -19.5
q42 0 74 11t48 26t26 30.5t12 26.5l2 11l6 -61q4 -5 12 -13.5t39 -22t69 -13.5q24 0 43.5 5.5t31 13.5t20 16.5t11.5 13.5l3 6q14 218 14 317q0 159 -133 159q-24 0 -45 -3t-34.5 -8t-23.5 -10.5t-14.5 -10t-4.5 -7.5v-113.5t0.5 -72t0.5 -37v-18v-5.5q0 -69 -38 -69
q-37 0 -37 56v150q0 69 -38.5 108.5t-108.5 39.5q-42 0 -72 -6t-39 -12z" />
    <glyph glyph-name="Umacron" unicode="&#x16a;" horiz-adv-x="689" 
d="M176 740q-3 1 -7.5 4.5t-9.5 14.5t-5 25q0 37 52 45q14 2 19 2q16 0 87.5 0.5t87.5 0.5q47 0 78 -4q13 -18 13 -42q0 -38 -35 -46h-280zM674 514q0 -48 -1.5 -85t-8.5 -93.5t-19.5 -99t-37.5 -89.5t-59 -77t-86 -50t-118 -20q-65 0 -117 20t-86 50.5t-58.5 77t-37 89
t-20 99t-9 93.5t-1.5 85q0 44 4 73.5t17 60t41.5 46t73.5 15.5q23 0 48 -3.5t40.5 -7.5t34.5 -9t22 -6v-409q0 -80 48 -80q51 0 51 88v401q76 26 144 26q35 0 60 -10.5t39 -26.5t22.5 -43t11 -52.5t2.5 -62.5z" />
    <glyph glyph-name="umacron" unicode="&#x16b;" horiz-adv-x="642" 
d="M142 556q-5 2 -12 7.5t-16 23.5t-9 42q0 41 35.5 59t82.5 19q124 2 162 2q97 0 131 -7q22 -30 22 -69q0 -31 -12 -50t-46 -27h-338zM36 497q-5 -176 -5 -281q0 -42 9.5 -79t30 -70.5t59 -53t91.5 -19.5q42 0 74 11t48 26t26 30.5t12 26.5l2 11l6 -61q4 -5 12 -13.5
t39 -22t69 -13.5q24 0 43.5 5.5t31 13.5t20 16.5t11.5 13.5l3 6q14 218 14 317q0 159 -133 159q-24 0 -45 -3t-34.5 -8t-23.5 -10.5t-14.5 -10t-4.5 -7.5v-113.5t0.5 -72t0.5 -37v-18v-5.5q0 -69 -38 -69q-37 0 -37 56v150q0 69 -38.5 108.5t-108.5 39.5q-42 0 -72 -6
t-39 -12z" />
    <glyph glyph-name="Ubreve" unicode="&#x16c;" horiz-adv-x="689" 
d="M343 732q-38 0 -64.5 19.5t-26.5 56.5q0 36 44 36q5 0 23 -2v-13q0 -43 27 -43q22 0 22 39l-1 17q10 2 25 2q43 0 43 -37q0 -36 -25 -55.5t-67 -19.5zM674 514q0 -48 -1.5 -85t-8.5 -93.5t-19.5 -99t-37.5 -89.5t-59 -77t-86 -50t-118 -20q-65 0 -117 20t-86 50.5
t-58.5 77t-37 89t-20 99t-9 93.5t-1.5 85q0 44 4 73.5t17 60t41.5 46t73.5 15.5q23 0 48 -3.5t40.5 -7.5t34.5 -9t22 -6v-409q0 -80 48 -80q51 0 51 88v401q76 26 144 26q35 0 60 -10.5t39 -26.5t22.5 -43t11 -52.5t2.5 -62.5z" />
    <glyph glyph-name="ubreve" unicode="&#x16d;" horiz-adv-x="642" 
d="M318 542q-62 0 -104.5 31t-42.5 92q0 57 71 57q16 0 37 -3q-1 -9 -1 -22q0 -68 44 -68q19 0 27.5 19t8.5 43l-2 28q21 4 41 4q68 0 68 -60q0 -58 -40 -89.5t-107 -31.5zM36 497q-5 -176 -5 -281q0 -42 9.5 -79t30 -70.5t59 -53t91.5 -19.5q42 0 74 11t48 26t26 30.5
t12 26.5l2 11l6 -61q4 -5 12 -13.5t39 -22t69 -13.5q24 0 43.5 5.5t31 13.5t20 16.5t11.5 13.5l3 6q14 218 14 317q0 159 -133 159q-24 0 -45 -3t-34.5 -8t-23.5 -10.5t-14.5 -10t-4.5 -7.5v-113.5t0.5 -72t0.5 -37v-18v-5.5q0 -69 -38 -69q-37 0 -37 56v150
q0 69 -38.5 108.5t-108.5 39.5q-42 0 -72 -6t-39 -12z" />
    <glyph glyph-name="Uring" unicode="&#x16e;" horiz-adv-x="689" 
d="M349 876q30 0 49.5 -9.5t27 -25.5t10 -26.5t2.5 -22.5t-2.5 -22.5t-9.5 -26.5t-26.5 -25.5t-48.5 -9.5q-86 0 -86 85q0 10 2.5 21t9.5 26.5t26 25.5t46 10zM353 766q10 0 16.5 7.5t6.5 19.5q0 11 -6.5 18t-16.5 7t-17 -7t-7 -18q0 -12 7 -19.5t17 -7.5zM674 514
q0 -48 -1.5 -85t-8.5 -93.5t-19.5 -99t-37.5 -89.5t-59 -77t-86 -50t-118 -20q-65 0 -117 20t-86 50.5t-58.5 77t-37 89t-20 99t-9 93.5t-1.5 85q0 44 4 73.5t17 60t41.5 46t73.5 15.5q23 0 48 -3.5t40.5 -7.5t34.5 -9t22 -6v-409q0 -80 48 -80q51 0 51 88v401q76 26 144 26
q35 0 60 -10.5t39 -26.5t22.5 -43t11 -52.5t2.5 -62.5z" />
    <glyph glyph-name="uring" unicode="&#x16f;" horiz-adv-x="642" 
d="M326 722q105 0 105 -98q0 -11 -1 -20.5t-7 -25t-16 -26.5t-30.5 -19t-47.5 -8q-101 0 -101 100q0 12 3 24.5t11.5 31t30 30t53.5 11.5zM331 593q11 0 19 9.5t8 22.5t-8 21.5t-19 8.5t-19.5 -8.5t-8.5 -21.5t8.5 -22.5t19.5 -9.5zM36 497q-5 -176 -5 -281q0 -42 9.5 -79
t30 -70.5t59 -53t91.5 -19.5q42 0 74 11t48 26t26 30.5t12 26.5l2 11l6 -61q4 -5 12 -13.5t39 -22t69 -13.5q24 0 43.5 5.5t31 13.5t20 16.5t11.5 13.5l3 6q14 218 14 317q0 159 -133 159q-24 0 -45 -3t-34.5 -8t-23.5 -10.5t-14.5 -10t-4.5 -7.5v-113.5t0.5 -72t0.5 -37
v-18v-5.5q0 -69 -38 -69q-37 0 -37 56v150q0 69 -38.5 108.5t-108.5 39.5q-42 0 -72 -6t-39 -12z" />
    <glyph glyph-name="Uhungarumlaut" unicode="&#x170;" horiz-adv-x="689" 
d="M293 916q4 3 17 3q28 0 50.5 -18t22.5 -48q0 -40 -45.5 -78.5t-87.5 -38.5q-19 0 -31 10t-14 20l-2 11zM458 916q4 3 17 3q28 0 50.5 -18t22.5 -48q0 -40 -45.5 -78.5t-87.5 -38.5q-19 0 -31 10t-14 20l-2 11zM674 514q0 -48 -1.5 -85t-8.5 -93.5t-19.5 -99t-37.5 -89.5
t-59 -77t-86 -50t-118 -20q-65 0 -117 20t-86 50.5t-58.5 77t-37 89t-20 99t-9 93.5t-1.5 85q0 44 4 73.5t17 60t41.5 46t73.5 15.5q23 0 48 -3.5t40.5 -7.5t34.5 -9t22 -6v-409q0 -80 48 -80q51 0 51 88v401q76 26 144 26q35 0 60 -10.5t39 -26.5t22.5 -43t11 -52.5
t2.5 -62.5z" />
    <glyph glyph-name="uhungarumlaut" unicode="&#x171;" horiz-adv-x="642" 
d="M265 736q4 3 17 3q28 0 50.5 -18t22.5 -48q0 -40 -45.5 -78.5t-87.5 -38.5q-19 0 -31 10t-14 20l-2 11zM430 736q4 3 17 3q28 0 50.5 -18t22.5 -48q0 -40 -45.5 -78.5t-87.5 -38.5q-19 0 -31 10t-14 20l-2 11zM36 497q-5 -176 -5 -281q0 -42 9.5 -79t30 -70.5t59 -53
t91.5 -19.5q42 0 74 11t48 26t26 30.5t12 26.5l2 11l6 -61q4 -5 12 -13.5t39 -22t69 -13.5q24 0 43.5 5.5t31 13.5t20 16.5t11.5 13.5l3 6q14 218 14 317q0 159 -133 159q-24 0 -45 -3t-34.5 -8t-23.5 -10.5t-14.5 -10t-4.5 -7.5v-113.5t0.5 -72t0.5 -37v-18v-5.5
q0 -69 -38 -69q-37 0 -37 56v150q0 69 -38.5 108.5t-108.5 39.5q-42 0 -72 -6t-39 -12z" />
    <glyph glyph-name="Uogonek" unicode="&#x172;" horiz-adv-x="689" 
d="M674 514q0 -45 -1.5 -80t-7.5 -88t-17 -93.5t-32 -86.5t-49.5 -77.5t-73 -55t-100.5 -30.5q8 -55 39 -61q37 -6 52 -6h5q5 -14 5 -32q0 -60 -66 -66q-20 -2 -29 -2q-114 0 -132 100q0 26 -22 74l-1 1v2q-45 13 -81 40t-59.5 59.5t-41 76t-26.5 82t-14 87.5t-6 82t-1 74
q0 44 4 73.5t17 60t41.5 46t73.5 15.5q23 0 48 -3.5t40.5 -7.5t34.5 -9t22 -6v-409q0 -80 48 -80q51 0 51 88v401q76 26 144 26q35 0 60 -10.5t39 -26.5t22.5 -43t11 -52.5t2.5 -62.5z" />
    <glyph glyph-name="uogonek" unicode="&#x173;" horiz-adv-x="642" 
d="M36 497q25 23 120 23q70 0 108.5 -39.5t38.5 -108.5v-150q0 -56 37 -56q38 0 38 69v5.5v18t-0.5 37t-0.5 72v113.5q0 3 4.5 7.5t14.5 10t23.5 10.5t34.5 8t45 3q133 0 133 -159q0 -44 -3.5 -123.5t-6.5 -136.5l-4 -57q-2 -4 -6 -10.5t-21.5 -19.5t-39.5 -19q8 -55 39 -61
q37 -6 52 -6h5q5 -14 5 -32q0 -60 -66 -66q-20 -2 -29 -2q-114 0 -132 100q-5 30 -5 52q0 16 3 29q-10 6 -18.5 13t-12.5 12l-3 4l-6 61q-1 -4 -2.5 -11t-12 -25.5t-26 -32t-47.5 -25t-74 -11.5q-53 0 -91.5 19.5t-59 53t-30 70.5t-9.5 79z" />
    <glyph glyph-name="Wcircumflex" unicode="&#x174;" horiz-adv-x="933" 
d="M-27 623q61 81 155 81q111 0 126 -109q6 -48 18 -116t20 -112l9 -44l71 357q17 27 84 27q75 0 114 -28.5t60 -108t27 -236.5l82 349q26 24 74 24q62 0 103.5 -40.5t41.5 -113.5q0 -35 -12.5 -99.5t-39 -143.5t-61 -149t-86 -117.5t-106.5 -47.5q-198 0 -211 321
q0 -7 -1 -18.5t-6.5 -44.5t-14 -63.5t-26 -67t-39.5 -63.5t-57.5 -45t-77.5 -18q-58 0 -105 64.5t-72.5 156.5t-42 184t-22.5 156zM568 848q20 -28 20 -54q0 -20 -18.5 -32t-38.5 -12q-35 0 -66 55q-31 -55 -65 -55q-21 0 -38 12t-17 32q0 28 18 54q1 3 4 7.5t12.5 16
t21 20.5t29.5 16.5t37 7.5q29 0 54 -17t36 -34z" />
    <glyph glyph-name="wcircumflex" unicode="&#x175;" horiz-adv-x="901" 
d="M461 722q67 -5 106.5 -44.5t39.5 -88.5q0 -21 -18 -35.5t-42 -14.5q-38 0 -74 70q-35 -69 -74 -69q-22 0 -41 14t-19 36q0 43 38.5 85.5t83.5 46.5zM-3 461q1 -10 2.5 -26.5t9.5 -64.5t18 -92t29 -97.5t42 -92t58 -65t75 -26.5q55 0 97 24.5t62.5 59.5t33.5 69.5t16 59.5
l2 24q5 -182 121 -225q36 -13 77 -13q53 0 101.5 35t81.5 87t58 111t37 106.5t12 73.5q0 54 -39.5 84t-97.5 30q-20 0 -37.5 -4.5t-25.5 -8.5l-8 -5l-78 -258q-5 116 -24.5 175t-56.5 80t-109 21q-28 0 -48 -5t-26 -10l-6 -5l-66 -264q-31 120 -45 201q-13 81 -120 81
q-87 0 -146 -60z" />
    <glyph glyph-name="Ycircumflex" unicode="&#x176;" horiz-adv-x="621" 
d="M396 792q16 -22 16 -44q0 -16 -14.5 -26t-31.5 -10q-29 0 -53 45q-26 -45 -53 -45q-17 0 -31 10t-14 26q0 23 15 44q1 2 3.5 6t10 13.5t16.5 16.5t23.5 13t30.5 6q15 0 29 -5.5t23 -13.5t16 -16.5t10 -13.5zM20 668q-5 -132 -5 -239q0 -81 50 -126.5t141 -45.5
q53 0 90 9.5t48 18.5l10 9q-1 -40 -31 -71.5t-104 -31.5q-49 0 -95.5 14.5t-67.5 28.5l-22 15q-19 -40 -19 -88q0 -34 12.5 -63.5t41.5 -57t85 -43.5t135 -16q63 0 113.5 19t82 47t54.5 66.5t34 71t17 69t7 51t1 24.5q8 143 8 229q0 68 -34.5 108.5t-101.5 40.5
q-24 0 -44 -4.5t-32.5 -10.5t-21.5 -12.5t-12.5 -11t-2.5 -5.5v-177q0 -77 -41 -77q-36 0 -36 77q0 29 1.5 41.5t1.5 61.5q0 46 -32.5 82t-102.5 36q-45 0 -77 -9.5t-41 -19.5z" />
    <glyph glyph-name="ycircumflex" unicode="&#x177;" horiz-adv-x="651" 
d="M323 722q67 -5 106.5 -44.5t39.5 -88.5q0 -21 -18 -35.5t-42 -14.5q-38 0 -74 70q-35 -69 -74 -69q-22 0 -41 14t-19 36q0 43 38.5 85.5t83.5 46.5zM44 490q0 1 0 -17t-0.5 -49t-1 -67.5t-0.5 -78v-74.5q0 -60 14 -100t42 -60.5t60 -29.5t78 -11q51 0 87 10t46 20l10 10
q0 -53 -33.5 -86.5t-103.5 -33.5q-54 0 -100.5 17.5t-65.5 35.5l-19 17q-42 -45 -42 -102q0 -100 77.5 -147.5t201.5 -47.5q64 0 116 22t86.5 56.5t61 83.5t41 97t23.5 104t11.5 97t2.5 82q0 9 -1 40.5t-1 59.5q0 178 -137 178q-24 0 -46 -3.5t-36 -8.5t-23.5 -10
t-13.5 -8.5t-2 -3.5v-229q0 -80 -40 -80q-37 0 -37 67q0 19 3.5 63.5t3.5 72.5q0 62 -36.5 102.5t-93.5 43.5q-37 0 -70 -8t-48 -16z" />
    <glyph glyph-name="Ydieresis" unicode="&#x178;" horiz-adv-x="621" 
d="M219 852q67 0 67 -62q0 -13 -2.5 -24t-18 -25t-43.5 -14q-66 0 -66 65q0 10 3 21.5t18.5 25t41.5 13.5zM392 873q68 0 68 -63q0 -12 -2.5 -23.5t-18.5 -25.5t-44 -14q-65 0 -65 65q0 10 3 21.5t18 25.5t41 14zM20 668q-5 -132 -5 -239q0 -81 50 -126.5t141 -45.5
q53 0 90 9.5t48 18.5l10 9q-1 -40 -31 -71.5t-104 -31.5q-49 0 -95.5 14.5t-67.5 28.5l-22 15q-19 -40 -19 -88q0 -34 12.5 -63.5t41.5 -57t85 -43.5t135 -16q63 0 113.5 19t82 47t54.5 66.5t34 71t17 69t7 51t1 24.5q8 143 8 229q0 68 -34.5 108.5t-101.5 40.5
q-24 0 -44 -4.5t-32.5 -10.5t-21.5 -12.5t-12.5 -11t-2.5 -5.5v-177q0 -77 -41 -77q-36 0 -36 77q0 29 1.5 41.5t1.5 61.5q0 46 -32.5 82t-102.5 36q-45 0 -77 -9.5t-41 -19.5z" />
    <glyph glyph-name="Zacute" unicode="&#x179;" horiz-adv-x="608" 
d="M376 863q4 2 13 2q21 0 38.5 -13.5t17.5 -36.5q0 -31 -35 -60.5t-67 -29.5q-15 0 -24 8t-11 16l-1 8zM89 496q-9 41 -9 76q0 132 179 132q43 0 171 -8t148 -8q20 -47 20 -133q0 -40 -22.5 -86.5t-49 -81t-70.5 -76.5t-64 -58.5t-53 -42.5q14 -1 40 -1q48 0 96.5 5.5
t72.5 10.5l24 5q15 -47 15 -100q0 -29 -9 -51.5t-26 -36t-36.5 -23t-47.5 -13.5t-51 -5.5t-53 -1.5q-92 0 -149 4t-106.5 15.5t-71.5 35t-22 60.5q0 43 30.5 98.5t66 97.5t86 90t66.5 61.5t33 26.5q-22 3 -74 5t-93 3h-41z" />
    <glyph glyph-name="zacute" unicode="&#x17a;" horiz-adv-x="547" 
d="M337 762q8 4 21 4q34 0 62.5 -22.5t28.5 -59.5q0 -50 -56.5 -97.5t-108.5 -47.5q-24 0 -38.5 12.5t-17.5 25.5l-2 13zM489 524q-28 -14 -86 -14q-33 0 -112 6.5t-119 6.5q-74 -4 -98.5 -37.5t-24.5 -90.5q0 -15 2.5 -29.5t4.5 -21.5l2 -6q31 6 102 6l64 -1
q-8 -4 -22.5 -11t-50.5 -31t-63.5 -49t-50 -62t-22.5 -74q0 -23 8 -42t26.5 -32t36.5 -22.5t49 -15.5t53.5 -9.5t60.5 -4.5t58.5 -1.5t58.5 -0.5q178 0 178 130q0 33 -14.5 53.5t-29.5 24.5l-14 5q-34 -14 -80.5 -22t-75.5 -9l-30 -1q120 81 155 116q5 5 27 25.5t31.5 31.5
t20 35.5t10.5 52.5q0 35 -14 58.5t-28 29.5z" />
    <glyph glyph-name="Zdotaccent" unicode="&#x17b;" horiz-adv-x="608" 
d="M362 855q70 0 70 -65q0 -9 -2 -17t-7.5 -20.5t-20.5 -20t-37 -7.5q-68 0 -68 67q0 11 3 23t19 26t43 14zM89 496q-9 41 -9 76q0 132 179 132q43 0 171 -8t148 -8q20 -47 20 -133q0 -40 -22.5 -86.5t-49 -81t-70.5 -76.5t-64 -58.5t-53 -42.5q14 -1 40 -1q48 0 96.5 5.5
t72.5 10.5l24 5q15 -47 15 -100q0 -29 -9 -51.5t-26 -36t-36.5 -23t-47.5 -13.5t-51 -5.5t-53 -1.5q-92 0 -149 4t-106.5 15.5t-71.5 35t-22 60.5q0 43 30.5 98.5t66 97.5t86 90t66.5 61.5t33 26.5q-22 3 -74 5t-93 3h-41z" />
    <glyph glyph-name="zdotaccent" unicode="&#x17c;" horiz-adv-x="547" 
d="M294 682q70 0 70 -65q0 -9 -2 -17t-7.5 -20.5t-20.5 -20t-37 -7.5q-68 0 -68 67q0 11 3 23t19 26t43 14zM489 524q-28 -14 -86 -14q-33 0 -112 6.5t-119 6.5q-74 -4 -98.5 -37.5t-24.5 -90.5q0 -15 2.5 -29.5t4.5 -21.5l2 -6q31 6 102 6l64 -1q-8 -4 -22.5 -11t-50.5 -31
t-63.5 -49t-50 -62t-22.5 -74q0 -23 8 -42t26.5 -32t36.5 -22.5t49 -15.5t53.5 -9.5t60.5 -4.5t58.5 -1.5t58.5 -0.5q178 0 178 130q0 33 -14.5 53.5t-29.5 24.5l-14 5q-34 -14 -80.5 -22t-75.5 -9l-30 -1q120 81 155 116q5 5 27 25.5t31.5 31.5t20 35.5t10.5 52.5
q0 35 -14 58.5t-28 29.5z" />
    <glyph glyph-name="Zcaron" unicode="&#x17d;" horiz-adv-x="608" 
d="M351 724q-35 3 -65 36.5t-30 66.5q0 17 15 28t31 11q30 0 58 -53q31 54 58 54q19 0 33 -11.5t14 -27.5q0 -40 -30.5 -70t-83.5 -34zM89 496q-9 41 -9 76q0 132 179 132q43 0 171 -8t148 -8q20 -47 20 -133q0 -40 -22.5 -86.5t-49 -81t-70.5 -76.5t-64 -58.5t-53 -42.5
q14 -1 40 -1q48 0 96.5 5.5t72.5 10.5l24 5q15 -47 15 -100q0 -29 -9 -51.5t-26 -36t-36.5 -23t-47.5 -13.5t-51 -5.5t-53 -1.5q-92 0 -149 4t-106.5 15.5t-71.5 35t-22 60.5q0 43 30.5 98.5t66 97.5t86 90t66.5 61.5t33 26.5q-22 3 -74 5t-93 3h-41z" />
    <glyph glyph-name="zcaron" unicode="&#x17e;" horiz-adv-x="547" 
d="M195 646q-7 16 -7 29q0 21 18 35.5t42 14.5q38 0 74 -70q34 69 74 69q22 0 41 -14t19 -36q0 -43 -38.5 -85.5t-83.5 -46.5q-33 0 -58 9.5t-41 28.5t-23 31.5t-17 34.5zM489 524q-28 -14 -86 -14q-33 0 -112 6.5t-119 6.5q-74 -4 -98.5 -37.5t-24.5 -90.5q0 -15 2.5 -29.5
t4.5 -21.5l2 -6q31 6 102 6l64 -1q-8 -4 -22.5 -11t-50.5 -31t-63.5 -49t-50 -62t-22.5 -74q0 -23 8 -42t26.5 -32t36.5 -22.5t49 -15.5t53.5 -9.5t60.5 -4.5t58.5 -1.5t58.5 -0.5q178 0 178 130q0 33 -14.5 53.5t-29.5 24.5l-14 5q-34 -14 -80.5 -22t-75.5 -9l-30 -1
q120 81 155 116q5 5 27 25.5t31.5 31.5t20 35.5t10.5 52.5q0 35 -14 58.5t-28 29.5z" />
    <glyph glyph-name="Ohorn" unicode="&#x1a0;" 
d="M340 164q40 0 64.5 39t31 81t6.5 86q0 62 -23.5 113t-70.5 51q-96 0 -96 -189q0 -22 2.5 -45.5t10 -58t27 -56t48.5 -21.5zM606 606l2 -2q24 -31 37 -61.5t21 -65.5t10.5 -60.5t2.5 -51.5q0 -17 -1.5 -36.5t-9 -58.5t-20 -73t-39.5 -73t-62.5 -67t-93 -46.5t-127.5 -18.5
q-60 0 -109 15.5t-80.5 39.5t-55 57.5t-36 65t-19.5 67.5t-9 58.5t-2 43.5q0 25 1 43.5t7.5 58.5t19 70.5t38 68t61.5 62.5t93 44t128 21q37 0 58 -0.5t28 -0.5q85 1 92 41q5 37 5 52v5q14 5 32 5q60 1 67 -65q2 -20 2 -29q1 -75 -41 -109z" />
    <glyph glyph-name="ohorn" unicode="&#x1a1;" horiz-adv-x="572" 
d="M291 182q29 0 50 24t21 59q0 34 -21 57t-50 23q-31 0 -52.5 -23t-21.5 -57q0 -35 21.5 -59t52.5 -24zM524 412q14 -23 21 -51q8 -34 10 -54t2 -43q0 -28 -3 -54t-18.5 -67t-42 -70t-80 -51t-126.5 -22q-272 0 -272 267q0 24 3.5 49t19 65t42 69.5t78 51.5t121.5 22
q48 0 87 -8q5 2 9 2q85 1 92 41q5 37 5 52v5q14 5 32 5q60 1 67 -65q2 -20 2 -29q1 -82 -49 -115z" />
    <glyph glyph-name="Uhorn" unicode="&#x1af;" horiz-adv-x="689" 
d="M670 590q1 -7 2 -13q2 -26 2 -63q0 -48 -1.5 -85t-8.5 -93.5t-19.5 -99t-37.5 -89.5t-59 -77t-86 -50t-118 -20q-65 0 -117 20t-86 50.5t-58.5 77t-37 89t-20 99t-9 93.5t-1.5 85q0 44 4 73.5t17 60t41.5 46t73.5 15.5q23 0 48 -3.5t40.5 -7.5t34.5 -9t22 -6v-409
q0 -80 48 -80q51 0 51 88v401q76 26 144 26q14 0 27 -2q61 6 67 40q5 37 5 52v5q14 5 32 5q60 1 67 -65q2 -20 2 -29q2 -96 -69 -125z" />
    <glyph glyph-name="uhorn" unicode="&#x1b0;" horiz-adv-x="642" 
d="M629 404q3 -20 3 -43q0 -44 -3.5 -123.5t-6.5 -136.5l-4 -57l-3 -6t-11 -13.5t-20 -16.5t-31 -13t-44 -6t-45 5t-34 12.5t-23 14.5t-14 12l-4 5l-6 61q-1 -4 -2.5 -11t-12 -25.5t-26 -32t-47.5 -25t-74 -11.5q-53 0 -91.5 19.5t-59 53t-30 70.5t-9.5 79l5 281
q25 23 120 23q70 0 108.5 -39.5t38.5 -108.5v-150q0 -56 37 -56q38 0 38 69v5.5v18t-0.5 37t-0.5 72v113.5q0 3 4.5 7.5t14.5 10t23.5 10.5t34.5 8t45 3q10 0 20 -1q63 6 69 40q5 37 5 52v5q14 5 32 5q60 1 67 -65q2 -20 2 -29q2 -93 -65 -123z" />
    <glyph glyph-name="AEacute" unicode="&#x1fc;" horiz-adv-x="996" 
d="M10 158l5 265v8q0 13 1 28t6.5 41t15 49t27.5 49t42 45t62 33t84 17q153 10 524 10h172q18 -53 18 -111q0 -121 -111 -135q-34 -2 -67 -2q-54 0 -67 8l2 -53q148 2 186 10q11 -35 11 -74q0 -96 -83 -106h-111v-50h42q129 0 196 35q6 0 13.5 -46t7.5 -77q0 -28 -21 -49.5
t-50.5 -32.5t-71.5 -18t-75.5 -9t-69.5 -2q-243 0 -254 148l-5 65h-170v-178q-40 -27 -114 -27q-67 0 -106 32.5t-39 126.5zM354 491q-33 0 -52.5 -16t-23.5 -31.5t-4 -33.5v-14h151q3 11 3 27q0 68 -74 68zM530 889q4 2 13 2q21 0 38.5 -13.5t17.5 -36.5q0 -31 -35 -60.5
t-67 -29.5q-15 0 -24 8t-11 16l-1 8z" />
    <glyph glyph-name="aeacute" unicode="&#x1fd;" horiz-adv-x="1080" 
d="M660 771q8 4 21 4q34 0 62.5 -22.5t28.5 -59.5q0 -50 -56.5 -97.5t-108.5 -47.5q-24 0 -38.5 13t-16.5 25l-3 13zM812 0q-114 0 -179 62v-28q-2 -5 -8 -12t-33 -19.5t-64 -13.5h-5q-58 0 -89 32t-31 81q-3 -8 -6.5 -15t-17.5 -24.5t-31.5 -30t-50 -22.5t-71.5 -10
q-90 0 -150.5 68t-60.5 158q0 111 67.5 185.5t179.5 74.5q98 0 140 -36q-4 24 -11 33q38 41 126 41q78 0 110 -81q71 81 188 81q127 0 188.5 -54t61.5 -146q0 -40 -16.5 -66.5t-47 -37t-55 -14t-59.5 -3.5q-31 0 -57.5 7t-37.5 14l-11 7q1 -40 31 -58.5t75 -18.5
q54 0 129 25q12 -24 12 -48q0 -52 -50 -91.5t-166 -39.5zM332 166q37 0 56 25.5t19 70.5q0 42 -12.5 62t-49.5 20q-87 0 -87 -94q0 -36 19 -60t55 -24zM838 399q-27 0 -43.5 -20.5t-16.5 -49.5q0 -13 1 -22q27 -16 71 -16q25 1 40.5 16t15.5 36q0 24 -20.5 39.5t-47.5 16.5z
" />
    <glyph glyph-name="Oslashacute" unicode="&#x1fe;" 
d="M363 707q22 0 33 -1q4 7 10 16l5 8q20 21 61 27q20 3 32 3q29 0 55.5 -8t38.5 -16l11 -8l-40 -85q45 -36 71 -92.5t32.5 -97.5t6.5 -83q0 -98 -38 -182t-120.5 -140t-194.5 -56q-48 0 -87 9q-32 -15 -77 -15q-29 0 -53.5 9t-34.5 19l-9 9l30 64q-79 96 -79 278
q0 16 1.5 35t9 54.5t21 66.5t39.5 66.5t61.5 61t91 42t123.5 16.5zM440 339q1 9 1 22q0 25 -3 49.5t-11.5 55t-29 49.5t-49.5 19t-49.5 -18.5t-29.5 -48.5t-13 -57t-4 -56q0 -26 3 -52t11 -60.5t27 -56t47 -21.5q43 0 68 44t28 88zM381 899q4 2 15 2q24 0 44 -16t20 -41
q0 -36 -40 -70t-77 -34q-17 0 -27.5 9t-12.5 19l-2 9z" />
    <glyph glyph-name="oslashacute" unicode="&#x1ff;" horiz-adv-x="572" 
d="M291 182q29 0 50 24t21 59q0 34 -21 57t-50 23q-31 0 -52.5 -23t-21.5 -57q0 -35 21.5 -59t52.5 -24zM320 625q20 22 62 28q19 3 32 3q29 0 55.5 -8t38.5 -16l11 -9l-66 -140q104 -64 104 -219q0 -28 -3 -54t-18.5 -67t-42 -70t-80 -51t-126.5 -22h-24l-16 -26
q-20 -22 -62 -28q-19 -3 -32 -3q-29 0 -55.5 8.5t-37.5 16.5l-12 8l40 86q-73 68 -73 205q0 23 3 47.5t18 63.5t40 68.5t74 52t115 24.5q40 83 55 102zM283 853q6 2 19 2q30 0 54 -19t24 -51q0 -42 -49 -84t-94 -42q-20 0 -32.5 11.5t-14.5 22.5l-3 11z" />
    <glyph glyph-name="uni0218" unicode="&#x218;" horiz-adv-x="577" 
d="M294 -20q31 0 48 -21.5t17 -52.5q0 -45 -37.5 -81t-69.5 -36q-14 0 -26 7.5t-16 14.5l-5 7q37 13 61 40q-35 18 -35 58q0 26 18.5 45t44.5 19zM254 471q6 -19 32 -28t60 -9t72 -8.5t70 -24t53 -58t21 -108.5q0 -57 -24.5 -101t-60.5 -68.5t-83.5 -40t-86 -20.5t-76.5 -5
q-60 0 -106 10.5t-78 40.5t-32 77q0 27 7 48.5t16.5 32.5t19.5 18t17 9l7 2q20 -14 83 -37t100 -23q62 0 62 25q0 13 -32 27.5t-77 27t-47 13.5q-1 0 -18.5 5t-29 10t-30.5 19t-31 32.5t-21 50.5t-9 72q0 240 279 240q121 0 186 -42t65 -105q0 -22 -8.5 -40t-20.5 -27.5
t-24 -15.5t-21 -8l-8 -2q-54 41 -169 41q-57 0 -57 -30z" />
    <glyph glyph-name="uni0219" unicode="&#x219;" horiz-adv-x="487" 
d="M233 -19q31 0 48 -21.5t17 -52.5q0 -45 -37.5 -81t-69.5 -36q-14 0 -26 7t-17 15l-4 7q37 13 61 40q-35 18 -35 58q0 26 18.5 45t44.5 19zM233 345q1 -5 7.5 -9t18 -6t21.5 -3.5t23 -2t18 -1.5q12 -1 26.5 -3t41 -10.5t47 -22.5t36 -42t15.5 -64q0 -181 -281 -181
q-61 0 -99.5 7t-57 23t-25 32t-8.5 44q0 28 17.5 46t34.5 22l18 3q71 -37 134 -37q48 0 48 13q0 6 -14 10.5t-28 6.5l-15 1q-8 0 -20.5 1.5t-44.5 12t-57 27t-45 51.5t-20 82t22.5 82.5t54.5 52t63.5 26t53.5 10.5l23 2q66 0 113 -9.5t69.5 -21t35 -32t14 -33t1.5 -32.5
q0 -21 -17 -36.5t-35 -20.5l-17 -5q-45 29 -139 29q-32 0 -33 -12z" />
    <glyph glyph-name="uni021A" unicode="&#x21a;" horiz-adv-x="450" 
d="M232 -20q31 0 48 -21.5t17 -52.5q0 -45 -37.5 -81t-69.5 -36q-14 0 -26 7.5t-16 14.5l-5 7q37 13 61 40q-35 18 -35 58q0 26 18.5 45t44.5 19zM514 715q6 -11 6 -81q0 -150 -74 -156q-41 0 -85 1q-4 -72 -4 -184q0 -182 7 -258q-36 -37 -133 -37q-43 0 -74 16t-45 42.5
t-20 50.5t-6 49q0 5 0.5 12t1 25t1 48t1 93t1.5 148l-143 -6q-31 30 -31 123q0 35 13 60.5t33.5 38t40.5 17.5t41 5l31 -1q30 -1 141 -3t297 -3z" />
    <glyph glyph-name="uni021B" unicode="&#x21b;" horiz-adv-x="513" 
d="M273 -41q31 0 48 -21.5t17 -52.5q0 -45 -37.5 -81t-69.5 -36q-14 0 -26 7t-17 15l-4 7q37 13 61 40q-35 18 -35 58q0 26 18.5 45t44.5 19zM453 254q3 0 8 -1t18 -6.5t22.5 -15.5t17.5 -31t8 -50q0 -75 -75 -122t-175 -47q-52 0 -90.5 11t-71.5 38t-50.5 79.5t-17.5 129.5
v96q-69 0 -69 97q0 20 3 43t5 35l3 13q24 -2 61 -4v175q96 13 151 13q54 0 88.5 -36.5t34.5 -96.5q0 -13 -2 -54l123 10q30 -31 30 -106q0 -101 -155 -101h-12q-3 -24 -3 -49q0 -72 40 -90q12 -5 23 -5q34 0 55 18.5t25 37.5z" />
    <glyph glyph-name="circumflex" unicode="&#x2c6;" horiz-adv-x="227" 
d="M196 802q16 -22 16 -44q0 -16 -14.5 -26t-31.5 -10q-29 0 -53 45q-26 -45 -53 -45q-17 0 -31 10t-14 26q0 23 15 44q1 2 3.5 6t10 13.5t16.5 16.5t23.5 13t30.5 6q15 0 29 -5.5t23 -13.5t16 -16.5t10 -13.5z" />
    <glyph glyph-name="caron" unicode="&#x2c7;" horiz-adv-x="227" 
d="M31 777q-16 22 -16 44q0 16 14.5 26t31.5 10q29 0 53 -45q26 45 53 45q17 0 31 -10t14 -26q0 -23 -15 -44q-1 -2 -3.5 -6t-10 -13.5t-16.5 -16.5t-23.5 -13t-30.5 -6q-24 0 -44.5 14t-28.5 28z" />
    <glyph glyph-name="uni02C9" unicode="&#x2c9;" horiz-adv-x="367" 
d="M37 740q-3 1 -7.5 4.5t-9.5 14.5t-5 25q0 37 52 45q14 2 19 2q16 0 87.5 0.5t87.5 0.5q47 0 78 -4q13 -18 13 -42q0 -38 -35 -46h-280z" />
    <glyph glyph-name="breve" unicode="&#x2d8;" horiz-adv-x="213" 
d="M106 732q-38 0 -64.5 19.5t-26.5 56.5q0 36 44 36q5 0 23 -2v-13q0 -43 27 -43q22 0 22 39l-1 17q10 2 25 2q43 0 43 -37q0 -36 -25 -55.5t-67 -19.5z" />
    <glyph glyph-name="dotaccent" unicode="&#x2d9;" horiz-adv-x="165" 
d="M80 873q70 0 70 -65q0 -9 -2 -17t-7.5 -20.5t-20.5 -20t-37 -7.5q-68 0 -68 67q0 11 3 23t19 26t43 14z" />
    <glyph glyph-name="ring" unicode="&#x2da;" horiz-adv-x="170" 
d="M83 864q72 0 72 -68t-70 -68t-70 69q0 12 3 24.5t19.5 27.5t45.5 15zM86 775q19 0 19 22q0 20 -19 20q-8 0 -13.5 -5.5t-5.5 -14.5q0 -10 5.5 -16t13.5 -6z" />
    <glyph glyph-name="ogonek" unicode="&#x2db;" horiz-adv-x="262" 
d="M146 31q-1 -12 -1 -29q0 -85 40 -92q37 -6 52 -6h5q5 -14 5 -32q0 -60 -66 -66q-20 -2 -29 -2q-114 0 -132 100q-5 30 -5 52q0 37 19 58t68 21q10 0 44 -4z" />
    <glyph glyph-name="tilde" unicode="&#x2dc;" horiz-adv-x="266" 
d="M52 731q-37 22 -37 53q0 27 21.5 47t46.5 20q16 0 46.5 -12.5t46.5 -12.5q10 0 16 5.5t7.5 11t2.5 5.5q49 0 49 -57q0 -23 -20 -38t-44 -15q-18 0 -53 10.5t-47 11.5q-11 0 -19.5 -7t-11.5 -15z" />
    <glyph glyph-name="hungarumlaut" unicode="&#x2dd;" horiz-adv-x="375" 
d="M105 916q5 3 17 3q28 0 50.5 -18t22.5 -48q0 -40 -45.5 -78.5t-87.5 -38.5q-19 0 -31 10t-14 20l-2 11zM270 916q4 3 17 3q28 0 50.5 -18t22.5 -48q0 -40 -45.5 -78.5t-87.5 -38.5q-19 0 -31 10t-14 20l-2 11z" />
    <glyph glyph-name="gravecomb" unicode="&#x300;" horiz-adv-x="0" 
d="M-273 879l69 -106q0 -4 -1.5 -9t-10.5 -14t-24 -9q-32 0 -67 29.5t-35 60.5q0 23 17.5 36.5t38.5 13.5q9 0 13 -2z" />
    <glyph glyph-name="acutecomb" unicode="&#x301;" horiz-adv-x="0" 
d="M-258 879q4 2 13 2q21 0 38.5 -13.5t17.5 -36.5q0 -31 -35 -60.5t-67 -29.5q-15 0 -24 8t-11 16l-1 8z" />
    <glyph glyph-name="tildecomb" unicode="&#x303;" horiz-adv-x="443" 
d="M79 550q-64 33 -64 80q0 40 38.5 69.5t81.5 29.5q28 0 81 -18.5t81 -18.5q18 0 28 8t11 16l1 9q2 1 6 1q37 0 61 -20t24 -66q0 -36 -34.5 -58t-77.5 -22q-32 0 -93 16t-81 18q-19 0 -35 -11t-22 -22z" />
    <glyph glyph-name="hookabovecomb" unicode="&#x309;" horiz-adv-x="0" 
d="M165 817q12 0 26 -2t32 -8t32.5 -15.5t24 -27t9.5 -40.5t-5.5 -40t-17 -27t-20.5 -15t-10 -24q-23 -5 -37 -5q-17 0 -29 5t-17.5 13.5t-3.5 21.5t19 27.5t17 22.5q0 21 -39 21q-17 0 -30.5 -5t-19.5 -10l-5 -5q-16 29 -16 51q0 17 10 30.5t25 19.5t29 9t26 3z" />
    <glyph glyph-name="uni031B" unicode="&#x31b;" horiz-adv-x="0" 
 />
    <glyph glyph-name="dotbelowcomb" unicode="&#x323;" horiz-adv-x="0" 
d="M162 -229q-53 0 -79 26t-26 69q0 4 0.5 10t6 21t14.5 27t29.5 21.5t49 9.5t50 -8t33 -19t18.5 -26t8.5 -25.5t1.5 -20.5q0 -25 -28.5 -55t-77.5 -30z" />
    <glyph glyph-name="uni037E" unicode="&#x37e;" horiz-adv-x="296" 
d="M166 204q53 0 82 -33.5t29 -82.5q0 -72 -63.5 -129t-118.5 -57q-25 0 -45 12t-28 24l-7 11q67 21 103 63q-27 12 -43 36t-16 53q0 43 31.5 73t75.5 30zM69 356q0 40 31.5 68.5t75.5 28.5t74.5 -28.5t30.5 -68.5q0 -41 -31 -69.5t-74 -28.5q-44 0 -75.5 28.5t-31.5 69.5z
" />
    <glyph glyph-name="tonos" unicode="&#x384;" horiz-adv-x="182" 
d="M83 709q55 0 60 -50q0 -5 0.5 -12t0.5 -10q0 -79 1 -84q-11 -10 -44 -10q-38 0 -50 11.5t-15 35.5v108q0 6 47 11z" />
    <glyph glyph-name="dieresistonos" unicode="&#x385;" horiz-adv-x="334" 
d="M290 810q68 0 68 -63q0 -12 -2.5 -23.5t-18.5 -25.5t-44 -14q-65 0 -65 65q0 10 3 21.5t18 25.5t41 14zM78 808q67 0 67 -62q0 -13 -2.5 -24t-18 -25t-43.5 -14q-66 0 -66 65q0 10 3 21.5t18.5 25t41.5 13.5zM155 780v110h60v-110h-60z" />
    <glyph glyph-name="uni0401" unicode="&#x401;" horiz-adv-x="558" 
d="M176 859q67 0 67 -62q0 -13 -2.5 -24t-18 -25t-43.5 -14q-66 0 -66 65q0 10 3 21.5t18.5 25t41.5 13.5zM349 880q68 0 68 -63q0 -12 -2.5 -23.5t-18.5 -25.5t-44 -14q-65 0 -65 65q0 10 3 21.5t18 25.5t41 14zM36 679q-16 -196 -16 -319l11 -340q61 -20 236 -20h110
q45 0 77.5 8t49.5 19.5t26.5 30t11.5 33.5t2 37q0 24 -8 47t-16 33l-8 11q-76 -26 -164 -26q-11 0 -22.5 0.5t-19 1t-13.5 1t-9 0.5l-2 1v55l82 -1h3q63 0 87 21.5t25 72.5v4q0 27 -8 46.5t-16 24.5l-8 6q-47 -8 -102 -8l-66 3v57q40 -4 95 -4l55 1q111 9 111 123
q0 23 -5 49t-10 41l-5 14q-17 5 -121 5q-19 0 -107 -2q-90 -2 -154 -8.5t-83 -12.5z" />
    <glyph glyph-name="uni0402" unicode="&#x402;" horiz-adv-x="764" 
d="M45 472q-30 30 -30 119q0 34 12.5 58.5t32.5 36.5t39 17t39 5q4 0 15 -0.5t38 -1.5t71 -2t130 -1.5t199 -1.5q6 -10 6 -78q0 -144 -71 -151q-28 0 -61 1q1 -4 1 -14q0 -25 -2 -51q42 16 87 16q84 -7 128 -41q70 -54 70 -176q0 -103 -47.5 -155t-133.5 -52q-67 0 -93 54
q-12 25 -12 57q0 14 6 40l28 -3q15 0 24.5 18.5t11.5 34.5t2 28q0 30 -14 40t-38 10q-28 0 -40 -26q-13 -74 -13 -119q0 -23 6 -57t11 -41q-35 -35 -129 -35q-42 0 -71.5 15.5t-43.5 41t-19.5 48.5t-5.5 47q0 2 1 22t2 96.5t2 207.5z" />
    <glyph glyph-name="uni0403" unicode="&#x403;" horiz-adv-x="510" 
d="M38 669q-23 -112 -23 -334q0 -72 2.5 -148t4.5 -117l3 -40q29 -12 65 -19t57 -9l21 -1q143 0 143 177q0 1 -0.5 19.5t-1.5 82t-1 168.5h49q109 0 140 22t31 113q0 35 -7.5 63.5t-14.5 39.5l-8 12h-113h-122q-16 0 -46 -2q-46 -3 -90.5 -10t-66.5 -12zM275 880q4 2 14 2
q23 0 42.5 -15t19.5 -40q0 -33 -39 -66t-74 -33q-16 0 -25.5 8.5t-11.5 17.5l-2 9z" />
    <glyph glyph-name="uni0404" unicode="&#x404;" horiz-adv-x="623" 
d="M467 288h-191q22 -63 102 -63q35 0 73 8.5t62 17.5t26 9q32 0 50.5 -32.5t18.5 -69.5q0 -71 -80 -114.5t-199 -43.5q-130 0 -222 93t-92 249q0 164 100.5 258.5t245.5 94.5q106 0 169 -58t63 -125q0 -36 -14.5 -65t-28.5 -39l-14 -11q-77 37 -180 37q-61 0 -81 -55
q26 0 76.5 0.5t59.5 0.5q47 0 78 -4q13 -18 13 -42q0 -38 -35 -46z" />
    <glyph glyph-name="uni0405" unicode="&#x405;" horiz-adv-x="577" 
d="M254 471q6 -19 32 -28t60 -9t72 -8.5t70 -24t53 -58t21 -108.5q0 -57 -24.5 -101t-60.5 -68.5t-83.5 -40t-86 -20.5t-76.5 -5q-60 0 -106 10.5t-78 40.5t-32 77q0 27 7 48.5t16.5 32.5t19.5 18t17 9l7 2q20 -14 83 -37t100 -23q62 0 62 25q0 13 -32 27.5t-77 27t-47 13.5
q-1 0 -18.5 5t-29 10t-30.5 19t-31 32.5t-21 50.5t-9 72q0 240 279 240q121 0 186 -42t65 -105q0 -22 -8.5 -40t-20.5 -27.5t-24 -15.5t-21 -8l-8 -2q-54 41 -169 41q-57 0 -57 -30z" />
    <glyph glyph-name="uni0406" unicode="&#x406;" horiz-adv-x="331" 
d="M34 695q36 11 141 11q66 0 103.5 -31t37.5 -90v-30l-4 -513q-1 -2 -3.5 -4.5t-14 -10t-27 -13t-44 -10t-63.5 -4.5q-45 0 -75.5 15t-44.5 43t-19.5 57.5t-5.5 68.5q0 92 7 285t12 226z" />
    <glyph glyph-name="uni0407" unicode="&#x407;" horiz-adv-x="331" 
d="M75 852q67 0 67 -62q0 -13 -2.5 -24t-18 -25t-43.5 -14q-66 0 -66 65q0 10 3 21.5t18.5 25t41.5 13.5zM248 873q68 0 68 -63q0 -12 -2.5 -23.5t-18.5 -25.5t-44 -14q-65 0 -65 65q0 10 3 21.5t18 25.5t41 14zM34 695q-5 -33 -12 -226t-7 -285q0 -39 5.5 -68.5t19.5 -57.5
t44.5 -43t75.5 -15q56 0 94 10.5t48 21.5l10 10q4 386 4 513v30q0 59 -37.5 90t-103.5 31q-47 0 -82 -3t-47 -5z" />
    <glyph glyph-name="uni0408" unicode="&#x408;" horiz-adv-x="414" 
d="M393 606q6 -27 6 -136q0 -66 -7 -152q-7 -80 -18.5 -132.5t-37 -97.5t-69.5 -66t-109 -21q-180 0 -180 124q0 11 1.5 22t2.5 17l2 5q24 -5 51 -5q78 0 78 52l11 478q62 8 108 8q35 0 55 -2t45.5 -10.5t40 -29t20.5 -54.5z" />
    <glyph glyph-name="uni0409" unicode="&#x409;" horiz-adv-x="997" 
d="M664 560q130 0 224 -79t94 -217q0 -50 -19 -97t-57 -86.5t-103 -63t-148 -23.5q-148 0 -200 88q-85 264 -98 292l-31 -205q0 -7 -1 -18t-8.5 -40t-20 -51.5t-39 -40.5t-62.5 -19q-27 0 -49 3q-42 5 -74.5 18.5t-44.5 23.5t-12 13q0 25 9 89t35 162.5t63.5 185t105 149.5
t149.5 63q106 0 206 -153q41 6 81 6zM691 190q4 0 11 1.5t24.5 7.5t30.5 15t24 27t11 41q0 10 -3 27q-16 70 -87 70q-14 0 -28.5 -3t-22.5 -6l-8 -3q11 -17 23 -61.5t18 -79.5z" />
    <glyph glyph-name="uni040A" unicode="&#x40a;" horiz-adv-x="988" 
d="M33 696q35 11 134 11q62 0 98 -31t36 -90q0 -118 -1 -165q10 0 30 -0.5t30 -0.5q21 0 31 1q8 246 13 275q35 11 134 11q62 0 98 -31t36 -90v-83q42 19 90 19q31 -2 55 -7t55 -21t51.5 -41.5t35 -72.5t14.5 -109q0 -73 -25 -128t-69.5 -86.5t-98.5 -47t-117 -15.5
q-258 0 -258 198v30h-106l-2 -180q-1 -2 -3.5 -4.5t-13 -10t-25 -13t-42 -10t-60.5 -4.5q-43 0 -72 15t-42.5 43.5t-18.5 57.5t-5 68q0 90 7 284.5t11 227.5zM700 166q36 0 55 24t19 60q0 94 -87 94q-37 0 -49.5 -20t-12.5 -62q0 -45 19 -70.5t56 -25.5z" />
    <glyph glyph-name="uni040B" unicode="&#x40b;" horiz-adv-x="789" 
d="M581 447q53 0 92 -14t57.5 -32.5t29.5 -45t12.5 -41t1.5 -31.5l-9 -251q-56 -33 -112 -33q-63 0 -103 27.5t-40 80.5q0 146 3 146q0 48 -46 48q-13 0 -21 -6v-7q0 -179 7 -252q-34 -36 -132 -36q-34 0 -60 11t-41 27t-24.5 38t-12.5 40.5t-3 37.5v11t0.5 24.5t1 47
t1 91.5t1.5 145l-140 -5q-29 30 -29 121q0 34 12.5 59t32.5 37t39.5 17t39.5 5q1 0 31 -1t139 -3t291 -3q6 -10 6 -79q0 -148 -73 -153h-83l-3 -69q57 48 134 48z" />
    <glyph glyph-name="uni040C" unicode="&#x40c;" horiz-adv-x="702" 
d="M673 500q-13 -33 -44.5 -64.5t-56.5 -47.5l-25 -15q3 0 7.5 -0.5t18 -2.5t25.5 -5.5t27 -11.5t25.5 -18t18 -26.5t7.5 -36.5q0 -182 8 -216q-6 -6 -18 -15.5t-53 -25t-86 -15.5q-75 0 -104.5 28.5t-29.5 90.5q0 12 1 36.5t1 36.5q0 46 -14.5 72t-57.5 26l-7 -249
q-3 -5 -11.5 -11.5t-48.5 -18t-96 -11.5q-45 0 -75.5 15.5t-45 44t-19.5 58t-5 68.5q0 76 10.5 277.5t17.5 234.5q36 9 143 9q77 0 109.5 -31t32.5 -92q0 -38 -3 -128q79 65 128 223q42 17 91 17q54 0 98.5 -37.5t44.5 -92.5q0 -32 -14 -66zM392 838q4 2 13 2
q21 0 38.5 -13.5t17.5 -36.5q0 -31 -35 -60.5t-67 -29.5q-15 0 -24 8t-11 16l-1 8z" />
    <glyph glyph-name="uni040E" unicode="&#x40e;" horiz-adv-x="621" 
d="M20 668q3 4 10.5 10.5t40 17.5t77.5 11q70 0 102.5 -36t32.5 -82q0 -49 -1.5 -61.5t-1.5 -41.5q0 -77 36 -77q41 0 41 77v177q-2 3 8.5 13t38.5 20.5t66 10.5q67 0 101.5 -40.5t34.5 -108.5l-8 -229q0 -10 -1 -24.5t-7 -51t-17 -69t-34 -71t-54.5 -66.5t-82 -47
t-113.5 -19q-79 0 -135 16t-85 43.5t-41.5 57t-12.5 63.5q0 48 19 88q8 -6 23.5 -16t64 -26t97.5 -16q74 0 104 31.5t31 71.5q-3 -4 -11 -10t-46 -16.5t-91 -10.5q-91 0 -141 45.5t-50 126.5zM319 707q-38 0 -64.5 19.5t-26.5 56.5q0 36 44 36q5 0 23 -2v-13q0 -43 27 -43
q22 0 22 39l-1 17q10 2 25 2q43 0 43 -37q0 -36 -25 -55.5t-67 -19.5z" />
    <glyph glyph-name="uni040F" unicode="&#x40f;" horiz-adv-x="711" 
d="M558 707q45 0 75 -19.5t42.5 -50t16.5 -51.5t4 -40v-194q0 -65 -4 -150.5t-8 -137.5l-4 -53q-35 -8 -190 -12q-11 -68 -50 -113q-33 -38 -100 -38q-34 0 -74.5 9.5t-63.5 18.5l-23 10l58 115h-56q-47 0 -81.5 17t-52 43t-25 51t-7.5 48v500q20 21 58 32.5t66 13.5l28 1
q41 0 69 -20.5t39.5 -52.5t15.5 -55t4 -45q0 -18 8 -268q9 2 41 2q48 0 70 -2v391q55 50 144 50z" />
    <glyph glyph-name="uni0410" unicode="&#x410;" horiz-adv-x="658" 
d="M166 0q-67 0 -109 42.5t-42 112.5q0 22 2 109.5t2 99.5q0 94 26.5 163t61 102t83 52.5t76.5 22.5t59 3q62 0 112.5 -14.5t83 -36t56.5 -52.5t36.5 -58.5t19.5 -58.5t8.5 -48.5t1.5 -32.5v-338q-28 -68 -140 -68q-38 0 -64 14.5t-37.5 38.5t-16 45t-4.5 44l2 34h-106
q0 -30 2.5 -66t5.5 -57l3 -21q-40 -32 -122 -32zM406 330q2 18 2 45q0 125 -80 125q-73 0 -73 -120q0 -47 6 -55z" />
    <glyph glyph-name="uni0411" unicode="&#x411;" horiz-adv-x="611" 
d="M358 431q55 -3 98 -15.5t67.5 -32.5t40.5 -40t22 -45.5t8 -39.5t2 -31q0 -113 -88.5 -172.5t-220.5 -59.5q-63 0 -130 9t-103 18l-36 9q-3 29 -3 102q0 84 3.5 217.5t7.5 225.5l4 92q91 39 313 39l179 -6q22 -11 29 -121q0 -38 -23 -65.5t-59 -30.5q-17 -2 -75 -2l-128 1
l-5 -61q39 9 97 9zM376 216q0 74 -84 74l-35 -2q-3 -48 -3 -90q0 -34 3 -54q15 -4 34 -4q84 0 85 76z" />
    <glyph glyph-name="uni0412" unicode="&#x412;" horiz-adv-x="634" 
d="M500 364q10 0 21.5 -2.5t30 -12t32.5 -24.5t24.5 -44t10.5 -68q0 -109 -91.5 -165t-230.5 -56q-76 0 -145.5 7t-101.5 15l-32 7q-3 66 -3 170q0 259 19 480q1 4 42.5 10.5t105 12.5t113.5 6q39 0 73.5 -3t77.5 -14.5t73.5 -30t51.5 -53.5t21 -81q0 -40 -8 -70.5
t-18.5 -45.5t-25 -24.5t-23 -11.5t-17.5 -2zM279 515q-6 -53 -6 -127q7 -2 18 -2q86 0 86 65q0 37 -19.5 54t-45.5 17q-19 0 -33 -7zM271 135q14 -3 32 -3q88 0 88 77q0 43 -22 61t-54 18q-24 0 -44 -8q-4 -38 -4 -82q0 -38 4 -63z" />
    <glyph glyph-name="uni0413" unicode="&#x413;" horiz-adv-x="510" 
d="M38 669q76 20 179 27q30 2 46 2h122h113q30 -37 30 -115q0 -91 -31 -113t-140 -22h-49q0 -105 1 -168.5t1.5 -82t0.5 -19.5q0 -177 -143 -177q-77 2 -143 29q-10 144 -10 305q0 222 23 334z" />
    <glyph glyph-name="uni0414" unicode="&#x414;" horiz-adv-x="766" 
d="M712 203q77 -32 77 -101v-172q-48 -7 -102 -7q-139 0 -146 56q-6 29 -7 45q-32 2 -95 2q-102 0 -209 -8q0 -15 -6 -39q-7 -56 -146 -56q-24 0 -49.5 1.5t-38.5 3.5l-14 2v172q0 67 74 101q9 55 22.5 111.5t42 130.5t64.5 129.5t92.5 94t122.5 38.5q80 0 156.5 -82.5
t119.5 -195t43 -209.5q0 -11 -1 -17zM306 213l142 3q-51 150 -73 196q-14 -45 -39.5 -107t-29.5 -92z" />
    <glyph glyph-name="uni0415" unicode="&#x415;" horiz-adv-x="554" 
d="M31 679q54 22 256 26q88 2 107 2q46 0 76.5 -1.5t37.5 -2.5l7 -1q20 -52 20 -104q0 -114 -111 -123q-24 -1 -55 -1q-55 0 -95 4v-57q27 -3 66 -3q55 0 102 8q4 -2 9 -6t14 -24t9 -47v-4q-1 -51 -25 -72.5t-87 -21.5l-85 1v-55l3 -1q2 0 8 -0.5t13.5 -1t19 -1t22.5 -0.5
q88 0 164 26q32 -36 32 -91q0 -22 -2 -37t-11.5 -33.5t-26.5 -30t-49.5 -19.5t-77.5 -8h-110q-175 0 -236 20q-10 212 -11 340q0 55 4 134.5t8 131.5z" />
    <glyph glyph-name="uni0416" unicode="&#x416;" horiz-adv-x="999" 
d="M149 372q-11 6 -27.5 17t-51 44t-47.5 66q-15 36 -15 66q0 54 45 91.5t98 37.5q22 0 44.5 -4t34.5 -8l12 -5q40 -128 101 -197l1 24q-1 37 -1 82q0 61 32 91.5t109 30.5h24q77 0 109 -30.5t32 -91.5q0 -45 -1 -82l1 -24q61 69 101 197q42 17 91 17q53 0 98 -37.5
t45 -91.5q0 -30 -15 -66q-13 -33 -44.5 -64.5t-56.5 -46.5l-25 -16q5 0 14 -1t31 -6.5t39 -15t31 -30t14 -47.5q0 -181 8 -216q-6 -6 -18 -15t-53 -24.5t-85 -15.5q-75 0 -104 28t-29 90q0 12 0.5 36.5t0.5 36.5q0 68 -44 90q4 -45 4 -83q0 -35 -3 -70t-7 -53l-3 -17
q-12 -30 -50 -44t-80 -14q-47 0 -92 13t-61 45q-13 61 -13 140q0 38 4 83q-47 -24 -47 -90q0 -12 0.5 -36.5t0.5 -36.5q0 -62 -29 -90t-104 -28q-44 0 -83 13.5t-56 27.5l-17 14q8 35 8 216q0 27 13.5 47.5t32.5 30t37.5 15t32.5 6.5z" />
    <glyph glyph-name="uni0417" unicode="&#x417;" horiz-adv-x="548" 
d="M413 370q63 0 97 -42.5t34 -102.5q0 -73 -47 -126t-111.5 -76t-134.5 -23q-47 0 -87 9t-74.5 28.5t-54.5 55t-20 83.5q0 19 5 52q98 -35 171 -35q32 0 54.5 12.5t22.5 39.5q0 43 -42 43h-6q-26 0 -42 1t-39.5 5.5t-35.5 17t-12 31.5q0 25 3.5 42.5t7.5 22.5l3 5
q6 1 16.5 3t37.5 9t47.5 15t37.5 22.5t17 31.5q0 8 -2 12q-7 26 -39 26q-33 0 -81 -25t-57 -39h-1q-1 1 -4 2.5t-5.5 3.5t-6 5l-7 6t-7 7.5t-6.5 9.5t-5.5 11t-3.5 13q-2 10 -2 18q0 23 8 46.5t27.5 50.5t60 46.5t96.5 24.5q28 2 43 2q67 -1 116 -17.5t72.5 -37.5t37.5 -50
t16 -44t2 -30q0 -119 -100 -165z" />
    <glyph glyph-name="uni0418" unicode="&#x418;" horiz-adv-x="707" 
d="M683 573q0 -71 4.5 -216.5t4.5 -220.5q0 -55 -37.5 -95.5t-107.5 -40.5q-27 0 -50.5 5.5t-38 13.5t-24.5 15.5t-15 13.5l-5 5l-1 213q-4 -14 -9.5 -28t-21.5 -49.5t-37.5 -64t-50.5 -59t-69.5 -47.5t-85.5 -17q-66 0 -89 30q-28 36 -33 176q-2 57 -2 223q0 33 1 80.5
t1 58.5q0 19 1 28q7 109 157 109q27 0 59 -3t51 -7l19 -3l-12 -265q44 131 104 205t150 74q47 0 80.5 -27t45 -55.5t11.5 -51.5z" />
    <glyph glyph-name="uni0419" unicode="&#x419;" horiz-adv-x="707" 
d="M683 573q0 -71 4.5 -216.5t4.5 -220.5q0 -55 -37.5 -95.5t-107.5 -40.5q-27 0 -50.5 5.5t-38 13.5t-24.5 15.5t-15 13.5l-5 5l-1 213q-4 -14 -9.5 -28t-21.5 -49.5t-37.5 -64t-50.5 -59t-69.5 -47.5t-85.5 -17q-66 0 -89 30q-28 36 -33 176q-2 57 -2 223q0 33 1 80.5
t1 58.5q0 19 1 28q7 109 157 109q27 0 59 -3t51 -7l19 -3l-12 -265q44 131 104 205t150 74q47 0 80.5 -27t45 -55.5t11.5 -51.5zM367 732q-47 0 -79.5 24t-32.5 70q0 44 54 44q11 0 28 -3v-16q0 -53 34 -53q27 0 27 49l-1 20q12 3 30 3q54 0 54 -46q0 -44 -31 -68t-83 -24z
" />
    <glyph glyph-name="uni041A" unicode="&#x41a;" horiz-adv-x="702" 
d="M673 500q-13 -33 -44.5 -64.5t-56.5 -47.5l-25 -15q3 0 7.5 -0.5t18 -2.5t25.5 -5.5t27 -11.5t25.5 -18t18 -26.5t7.5 -36.5q0 -182 8 -216q-6 -6 -18 -15.5t-53 -25t-86 -15.5q-75 0 -104.5 28.5t-29.5 90.5q0 12 1 36.5t1 36.5q0 46 -14.5 72t-57.5 26l-7 -249
q-3 -5 -11.5 -11.5t-48.5 -18t-96 -11.5q-45 0 -75.5 15.5t-45 44t-19.5 58t-5 68.5q0 76 10.5 277.5t17.5 234.5q36 9 143 9q77 0 109.5 -31t32.5 -92q0 -38 -3 -128q79 65 128 223q42 17 91 17q54 0 98.5 -37.5t44.5 -92.5q0 -32 -14 -66z" />
    <glyph glyph-name="uni041B" unicode="&#x41b;" horiz-adv-x="727" 
d="M197 0q-37 0 -69.5 6t-52 14t-34 17t-20.5 14.5t-6 6.5q0 15 4.5 53t16.5 99t29.5 126t47 132t65.5 119.5t88.5 86t113.5 33.5q63 0 126 -56t107 -139.5t71.5 -180.5t27.5 -179q0 -71 -40.5 -111t-113.5 -40q-78 0 -83 19q-83 281 -115 351l-30 -201q0 -4 -0.5 -10
t-3.5 -23.5t-7.5 -33t-14.5 -35.5t-23.5 -34t-35 -24t-48.5 -10z" />
    <glyph glyph-name="uni041C" unicode="&#x41c;" horiz-adv-x="862" 
d="M41 674q33 26 139 26q44 0 81.5 -16t61 -37t46.5 -58.5t33.5 -62t27.5 -67.5t23 -57q2 8 10 33.5t30 73t50 88.5t73.5 72t96.5 31q75 0 134 -56v-622q-35 -22 -122 -22q-61 0 -85.5 23.5t-24.5 67.5v284l-75 -243q-40 -130 -99 -130q-32 0 -67 36.5t-63.5 90.5t-49.5 108
t-32 96q-3 -251 -3 -305q-40 -28 -113 -28q-53 0 -75.5 21.5t-22.5 65.5q0 97 7.5 322.5t18.5 264.5z" />
    <glyph glyph-name="uni041D" unicode="&#x41d;" horiz-adv-x="721" 
d="M33 696q35 11 134 11q62 0 98 -31t36 -90q0 -102 -1 -149q58 0 125 3q8 222 13 256q35 11 134 11q62 0 98 -31t36 -90l-4 -544q-1 -2 -3.5 -4.5t-13 -10t-25 -13t-42 -10t-60.5 -4.5q-43 0 -72 15t-42.5 43.5t-18.5 57.5t-5 68v33l-121 5l-2 -180q-1 -2 -3.5 -4.5
t-13 -10t-25 -13t-42 -10t-60.5 -4.5q-43 0 -72 15t-42.5 43.5t-18.5 57.5t-5 68q0 90 7 284.5t11 227.5z" />
    <glyph glyph-name="uni041E" unicode="&#x41e;" 
d="M363 707q73 0 130 -20.5t89.5 -54t54.5 -73.5t29.5 -79.5t10.5 -73t1 -54.5l-1 -20q0 -7 -1 -19.5t-9 -47.5t-20.5 -67t-39.5 -71.5t-62 -67.5t-92 -47.5t-127 -19.5q-69 0 -123.5 20t-86 52.5t-54 71.5t-31 78t-13 71.5t-3.5 52.5l1 20v19.5t5.5 49t16.5 69.5t36 73
t60.5 69t95 49t133.5 20zM440 339q1 8 1 21t-3 46.5t-11.5 59.5t-28.5 47t-50 21q-44 0 -68 -45t-26 -90l-2 -45v-20.5t4 -45.5t12 -58t26.5 -45.5t45.5 -20.5q43 0 68 44t28 88z" />
    <glyph glyph-name="uni041F" unicode="&#x41f;" horiz-adv-x="742" 
d="M304 440l7 -389q-51 -50 -132 -50h-12q-45 0 -75 19.5t-42 50t-16 51.5t-4 40v7v186q0 65 3.5 150t7.5 137l4 53q55 12 279 12q48 0 100 -0.5t84.5 -1t34.5 -0.5q45 -1 78.5 -14.5t49.5 -31t25.5 -42t11 -39.5t1.5 -31v-499q-20 -21 -57.5 -32.5t-65.5 -13.5l-28 -1
q-34 0 -59 14.5t-37.5 34.5t-20.5 46.5t-9.5 43.5t-1.5 34q0 18 -8 266q-8 -1 -40 -1z" />
    <glyph glyph-name="uni0420" unicode="&#x420;" horiz-adv-x="576" 
d="M622 494q0 -49 -12.5 -101t-39.5 -84q-79 -93 -285 -93v-165q-1 -2 -2.5 -5.5t-10.5 -12.5t-22 -16t-38 -12.5t-56 -5.5q-83 0 -118.5 38t-35.5 121q0 126 3.5 311.5t10.5 209.5q67 28 273 28q333 0 333 -213zM265 526v-150q15 -3 32 -3q97 0 97 86q0 74 -75 74
q-12 0 -25.5 -1.5t-21.5 -3.5z" />
    <glyph glyph-name="uni0421" unicode="&#x421;" horiz-adv-x="623" 
d="M269 334q0 -51 28 -80t81 -29q35 0 73 8.5t62 17.5t26 9q32 0 50.5 -32.5t18.5 -69.5q0 -71 -80 -114.5t-199 -43.5q-130 0 -222 93t-92 249q0 164 100.5 258.5t245.5 94.5q106 0 169 -58t63 -125q0 -36 -14.5 -65t-28.5 -39l-14 -11q-77 37 -180 37q-27 0 -45.5 -10.5
t-27 -27.5t-11.5 -31.5t-3 -30.5z" />
    <glyph glyph-name="uni0422" unicode="&#x422;" horiz-adv-x="450" 
d="M514 715q6 -11 6 -81q0 -150 -74 -156q-41 0 -85 1q-4 -72 -4 -184q0 -182 7 -258q-36 -37 -133 -37q-43 0 -74 16t-45 42.5t-20 50.5t-6 49q0 5 0.5 12t1 25t1 48t1 93t1.5 148l-143 -6q-31 30 -31 123q0 35 13 60.5t33.5 38t40.5 17.5t41 5l31 -1q30 -1 141 -3t297 -3z
" />
    <glyph glyph-name="uni0423" unicode="&#x423;" horiz-adv-x="621" 
d="M20 668q3 4 10.5 10.5t40 17.5t77.5 11q70 0 102.5 -36t32.5 -82q0 -49 -1.5 -61.5t-1.5 -41.5q0 -77 36 -77q41 0 41 77v177q-2 3 8.5 13t38.5 20.5t66 10.5q67 0 101.5 -40.5t34.5 -108.5l-8 -229q0 -10 -1 -24.5t-7 -51t-17 -69t-34 -71t-54.5 -66.5t-82 -47
t-113.5 -19q-79 0 -135 16t-85 43.5t-41.5 57t-12.5 63.5q0 48 19 88q8 -6 23.5 -16t64 -26t97.5 -16q74 0 104 31.5t31 71.5q-3 -4 -11 -10t-46 -16.5t-91 -10.5q-91 0 -141 45.5t-50 126.5z" />
    <glyph glyph-name="uni0424" unicode="&#x424;" horiz-adv-x="962" 
d="M736 643q55 0 95.5 -22t62 -52.5t34.5 -72t16 -71.5t3 -60q0 -20 -2 -41.5t-8.5 -61.5t-22.5 -73.5t-40 -66t-66.5 -51.5t-96.5 -19q-43 0 -74 12v-46q-3 -5 -11 -12t-47.5 -19t-95.5 -12q-121 0 -142 116q-51 -33 -119 -33q-55 0 -95.5 24.5t-61 57t-33 77t-15 72.5
t-2.5 55q0 24 2 46.5t8.5 61.5t22.5 70.5t40 61.5t65 47.5t94 17.5q57 0 102 -25q3 55 6 71q36 11 143 11q113 0 137 -84q45 21 101 21zM298 345q0 161 -61 161q-64 0 -64 -156q0 -18 1.5 -37.5t7 -47.5t18 -46t31.5 -18q29 0 45.5 36t19.5 72zM787 339q0 161 -61 161
q-64 0 -64 -156q0 -18 1.5 -37.5t7 -47.5t18 -46t31.5 -18q29 0 45.5 36t18.5 72z" />
    <glyph glyph-name="uni0425" unicode="&#x425;" horiz-adv-x="710" 
d="M537 299q4 -25 24.5 -52.5t43.5 -46.5t41.5 -36t18.5 -25q0 -9 -2 -21.5t-8.5 -35t-24.5 -43.5t-45 -33q-35 -16 -78 -16q-112 0 -206 147q-20 -21 -35 -49t-20 -45l-5 -17q-59 -33 -106 -33q-38 0 -64 14t-37 36t-15 38.5t-4 30.5q0 101 165 241l-137 255q3 4 9 10.5
t25.5 23t41 29.5t54.5 24t66 12h4q22 -2 41 -7t32.5 -11t26 -17.5t19.5 -19t16 -24t12.5 -24t11.5 -27t11 -26.5q30 25 48 52.5t21 42.5l3 15q37 16 80 16q51 0 90.5 -36.5t39.5 -113.5q0 -108 -158 -228z" />
    <glyph glyph-name="uni0426" unicode="&#x426;" horiz-adv-x="766" 
d="M697 221q7 0 17 -1.5t28 -5.5t29.5 -16t11.5 -29v-224q-16 -16 -46.5 -25.5t-52.5 -10.5l-23 -1q-53 0 -81 25.5t-32 67.5h-148q-48 0 -100 0.5t-84.5 1t-34.5 0.5q-45 1 -78.5 14.5t-49.5 31t-25.5 42t-11 39.5t-1.5 31v499q20 21 57.5 32.5t65.5 13.5l28 1
q34 0 59 -14.5t37.5 -34.5t20.5 -46.5t9.5 -43.5t1.5 -34q0 -18 8 -266q8 1 40 1q48 0 71 -1v389q51 50 132 50h12q45 0 75 -19.5t42 -50t16 -51.5t4 -40v-193q0 -66 -3 -132h6z" />
    <glyph glyph-name="uni0427" unicode="&#x427;" horiz-adv-x="653" 
d="M212 183q-54 0 -94 17t-59 38.5t-30 52.5t-12.5 48.5t-1.5 37.5l8 290q58 40 115 40q63 0 104.5 -33t41.5 -96q0 -165 -3 -165q0 -57 47 -57q17 0 26.5 12.5t11.5 22.5t2 20v113v132q4 6 13 14.5t40.5 22.5t67.5 14q138 0 149 -168q-5 -435 -10 -504q-55 -35 -126 -35
q-32 0 -52 3t-41 12.5t-31 31.5t-10 56v161q-62 -81 -156 -81z" />
    <glyph glyph-name="uni0428" unicode="&#x428;" horiz-adv-x="879" 
d="M147 2q-5 0 -14 0.5t-32 7.5t-40 19.5t-31.5 40t-14.5 64.5v505q5 5 13.5 12.5t39 20t63.5 12.5q60 0 96.5 -41.5t36.5 -121.5v-273h59v383q1 2 2.5 5.5t9.5 13t18 16.5t29 12.5t41 5.5q137 0 137 -132v-304h54q0 311 -9 376q0 2 1.5 6.5t9 14.5t18.5 18t34.5 14.5
t53.5 6.5q50 0 83.5 -26.5t45 -58.5t11.5 -66t0.5 -129.5t1 -178t0.5 -86.5q0 -21 -4.5 -40.5t-16 -42.5t-38.5 -38t-66 -16q-35 -1 -196 -1h-105.5t-106 0.5t-89.5 0.5h-67h-28z" />
    <glyph glyph-name="uni0429" unicode="&#x429;" horiz-adv-x="918" 
d="M867 170q7 0 17.5 -1.5t28.5 -5.5t29.5 -16t11.5 -29v-189q-16 -16 -46.5 -25.5t-53.5 -10.5l-22 -1q-45 0 -73 21.5t-28 57.5v29h-188h-105.5t-106 0.5t-89.5 1t-67 0.5h-28q-5 0 -14 0.5t-32 7.5t-40 19.5t-31.5 40t-14.5 64.5v505q5 5 13.5 12.5t39 20t63.5 12.5
q60 0 96.5 -41.5t36.5 -121.5v-273h59v383q1 2 2.5 5.5t9.5 13t18 16.5t29 12.5t41 5.5q137 0 137 -132v-304h54q0 311 -9 376q0 2 1.5 6.5t9 14.5t18.5 18t34.5 14.5t53.5 6.5q50 0 83.5 -26.5t45 -58.5t11.5 -66q0 -20 0.5 -163.5t0.5 -199.5h4z" />
    <glyph glyph-name="uni042A" unicode="&#x42a;" horiz-adv-x="625" 
d="M-60 608q0 18 3 35.5t18 39t41 24.5h164q104 -9 104 -101q0 -115 -5 -136q11 16 46 34t88 18q31 -2 55 -7t55 -21t51.5 -41.5t35 -72.5t14.5 -109q0 -73 -25 -128t-69.5 -86.5t-98.5 -47t-117 -15.5q-258 0 -258 198v324l-90 2l-8 35q-4 26 -4 55zM337 166q36 0 55 24
t19 60q0 94 -87 94q-37 0 -49.5 -20t-12.5 -62q0 -45 19 -70.5t56 -25.5z" />
    <glyph glyph-name="uni042B" unicode="&#x42b;" horiz-adv-x="901" 
d="M16 690q77 18 123 18q16 -1 31.5 -5.5t33 -15t28.5 -31.5t11 -50q0 -139 -6 -139q0 5 14 17t47.5 25t73.5 13q31 -2 55 -7t55 -21t51.5 -41.5t35 -72.5t14.5 -109q0 -73 -25 -128t-69.5 -86.5t-98.5 -47t-117 -15.5q-258 0 -258 198v171zM310 166q36 0 55 24t19 60
q0 94 -87 94q-37 0 -49.5 -20t-12.5 -62q0 -45 19 -70.5t56 -25.5zM613 671q49 36 131 36q142 0 142 -118v-538q-1 -2 -3 -5.5t-11.5 -13t-23 -16.5t-40 -13t-59.5 -6q-86 0 -118.5 51.5t-32.5 177.5q0 72 4 183t8 187z" />
    <glyph glyph-name="uni042C" unicode="&#x42c;" horiz-adv-x="598" 
d="M16 690q77 18 123 18q16 -1 31.5 -5.5t33 -15t28.5 -31.5t11 -50q0 -139 -6 -139q0 5 14 17t47.5 25t73.5 13q31 -2 55 -7t55 -21t51.5 -41.5t35 -72.5t14.5 -109q0 -73 -25 -128t-69.5 -86.5t-98.5 -47t-117 -15.5q-258 0 -258 198v171zM310 166q36 0 55 24t19 60
q0 94 -87 94q-37 0 -49.5 -20t-12.5 -62q0 -45 19 -70.5t56 -25.5z" />
    <glyph glyph-name="uni042D" unicode="&#x42d;" horiz-adv-x="623" 
d="M347 288h-191q-35 8 -35 46q0 11 3 21.5t6 15.5l4 5q31 4 78 4q9 0 59.5 -0.5t76.5 -0.5q-20 55 -81 55q-46 0 -91 -9t-67 -19l-22 -9q-6 4 -15.5 11.5t-25.5 37.5t-16 66q0 67 63 125t169 58q145 0 245.5 -94.5t100.5 -258.5q0 -156 -92 -249t-222 -93q-119 0 -199 43.5
t-80 114.5q0 37 18.5 69.5t50.5 32.5q2 0 26 -9t62 -17.5t73 -8.5q80 0 102 63z" />
    <glyph glyph-name="uni042E" unicode="&#x42e;" horiz-adv-x="939" 
d="M638 707q74 0 129 -26.5t84 -63.5t46.5 -87.5t22 -86.5t4.5 -73l-2 -38q0 -7 -1 -19.5t-8 -47.5t-18.5 -67t-36 -71.5t-56.5 -67.5t-83.5 -47.5t-114.5 -19.5q-212 0 -266 222h-24l-2 -172q-1 -2 -3.5 -4.5t-14 -10t-27 -13t-44 -10t-63.5 -4.5q-45 0 -75.5 15t-44.5 43
t-19.5 57.5t-5.5 68.5q0 92 7 285t12 226q36 11 141 11q66 0 103.5 -31t37.5 -90v-136h16q7 35 18.5 67t35 68t55.5 62t83 43.5t114 17.5zM707 339q1 9 1 23q0 25 -2.5 49.5t-10.5 55t-26 49t-45 18.5q-26 0 -44.5 -19.5t-27 -50t-11.5 -57t-3 -53.5v-10q0 -22 2.5 -45.5
t9 -57.5t24 -55.5t43.5 -21.5q39 0 61.5 44t25.5 88z" />
    <glyph glyph-name="uni042F" unicode="&#x42f;" horiz-adv-x="648" 
d="M102 297q-4 2 -9.5 6t-20.5 20t-26.5 36t-21 56t-9.5 78q0 213 332 213q92 0 160 -7t90 -14l22 -7q7 -24 10.5 -209t3.5 -311q0 -82 -35.5 -120t-117.5 -38q-32 0 -56.5 5.5t-37.5 13t-21.5 14.5t-10.5 13l-3 5v209q-13 3 -25 3q-42 0 -42 -37v-96q0 -67 -39 -98.5
t-103 -31.5q-35 0 -66.5 8t-45.5 16l-13 8q1 4 1 16q0 2 -1 45t-1 90q0 31 9 54t21.5 34t25 17.5t21.5 7.5zM370 376v149q-25 8 -53 8q-75 0 -75 -74q0 -86 97 -86z" />
    <glyph glyph-name="uni0430" unicode="&#x430;" horiz-adv-x="659" 
d="M643 369q0 -36 -4.5 -155.5t-4.5 -179.5q-2 -5 -8 -12t-33 -19.5t-64 -13.5h-5q-58 0 -88.5 32t-31.5 83q-1 -4 -4 -11t-16 -25t-31 -32t-51.5 -25t-74.5 -11q-90 0 -150.5 68t-60.5 158q0 111 67.5 185.5t179.5 74.5q98 0 140 -36q-4 24 -11 33q38 41 126 41
q60 0 91.5 -46t33.5 -109zM333 166q37 0 56 25.5t19 70.5q0 42 -12.5 62t-49.5 20q-87 0 -87 -94q0 -36 19 -60t55 -24z" />
    <glyph glyph-name="uni0431" unicode="&#x431;" horiz-adv-x="577" 
d="M262 428l-5 -18q29 29 134 29q48 0 83.5 -22.5t52.5 -55t24.5 -59.5t7.5 -46q0 -41 -3 -70t-17.5 -67t-40.5 -61.5t-75 -40.5t-118 -17q-70 0 -120.5 10.5t-92.5 37t-63.5 76t-21.5 122.5q0 110 8 182t26.5 126.5t53.5 85t83.5 48t122.5 24.5l245 9q17 -46 17 -97
q0 -68 -41 -103.5t-134 -35.5q-42 0 -82 -13t-44 -44zM296 170q26 0 44 21t18 52q0 29 -18 49.5t-44 20.5q-27 0 -46 -20.5t-19 -49.5q0 -31 19 -52t46 -21z" />
    <glyph glyph-name="uni0432" unicode="&#x432;" horiz-adv-x="559" 
d="M442 274q12 -1 25 -4.5t32.5 -14t32 -35t12.5 -60.5q0 -83 -78.5 -125.5t-198.5 -42.5q-65 0 -125 5.5t-88 10.5l-27 6q-2 50 -2 129q0 203 16 364q1 3 36.5 8t90 9.5t97.5 4.5q256 0 256 -138q0 -112 -79 -117zM252 389q-5 -41 -5 -97q6 -1 15 -1q74 0 74 49
q0 29 -16.5 41.5t-39.5 12.5q-16 0 -28 -5zM245 100q12 -2 27 -2q76 0 76 59t-65 59q-22 0 -38 -6q-4 -28 -4 -62q0 -28 4 -48z" />
    <glyph glyph-name="uni0433" unicode="&#x433;" horiz-adv-x="497" 
d="M38 488q76 20 179 27q30 2 46 2h122h78q30 -37 30 -115q0 -38 -7 -62.5t-18.5 -39t-37 -22t-52 -9.5t-73.5 -2h-14v-51q0 -41 1.5 -66.5t1.5 -32.5q0 -15 -1 -26.5t-8 -29.5t-19.5 -30t-37.5 -21t-60 -9q-77 2 -143 29q-10 0 -10 124q0 222 23 334z" />
    <glyph glyph-name="uni0434" unicode="&#x434;" horiz-adv-x="716" 
d="M669 151q69 -26 69 -83v-140q-43 -5 -90 -5q-67 0 -102.5 15t-35.5 59v8q-27 3 -83 3q-63 0 -185 -7v-8q0 -41 -36 -55.5t-100 -14.5l-91 5v140q0 58 67 83q5 35 15 74t26.5 88t41 91.5t55 79.5t74 58.5t92.5 21.5q71 0 139 -67.5t106.5 -159.5t38.5 -170q0 -11 -1 -16z
M309 161l126 2q-54 140 -65 160q-12 -38 -35 -87.5t-26 -74.5z" />
    <glyph glyph-name="uni0435" unicode="&#x435;" horiz-adv-x="535" 
d="M267 0q-71 0 -122.5 23.5t-78.5 63.5t-39 83t-12 91q0 46 15.5 91.5t45.5 84.5t80.5 63t113.5 24q127 0 188.5 -54t61.5 -146q0 -40 -16.5 -66.5t-47 -37t-55 -14t-59.5 -3.5q-31 0 -57.5 7t-37.5 14l-11 7q1 -40 31 -58.5t75 -18.5q54 0 129 25q12 -24 12 -48
q0 -52 -50 -91.5t-166 -39.5zM293 399q-27 0 -43.5 -20.5t-16.5 -49.5q0 -13 1 -22q27 -16 71 -16q25 1 40.5 16t15.5 36q0 24 -20.5 39.5t-47.5 16.5z" />
    <glyph glyph-name="uni0436" unicode="&#x436;" horiz-adv-x="847" 
d="M134 285q-9 4 -23 12.5t-43.5 33.5t-41.5 50q-11 28 -11 50q0 42 37.5 70t82.5 28q18 0 37 -2.5t29 -5.5l10 -3q31 -97 84 -152l1 19q-1 28 -1 62q0 46 27 70t92 24h20q65 0 91.5 -24t26.5 -70v-81q52 52 84 152q36 11 76 11q46 0 83 -28t37 -70q0 -25 -11 -50t-37.5 -49
t-47.5 -36l-22 -11q4 0 11.5 -0.5t26 -5.5t33 -12t26 -23t11.5 -37q0 -124 7 -164q-5 -5 -15 -12t-44 -18.5t-71 -11.5q-64 0 -88 21t-24 68v56q0 51 -35 70q3 -40 3 -64q0 -27 -3 -53.5t-6 -40.5l-3 -13q-10 -23 -41.5 -33.5t-67.5 -10.5q-103 0 -127 44q-12 47 -12 107
q0 30 5 64q-39 -20 -39 -70v-56q0 -47 -24.5 -68t-88.5 -21q-37 0 -69.5 10.5t-46.5 20.5l-14 11q7 24 7 164q0 33 27 52.5t54 22.5z" />
    <glyph glyph-name="uni0437" unicode="&#x437;" horiz-adv-x="516" 
d="M381 271q58 0 89 -31.5t31 -74.5q0 -54 -43 -93t-102.5 -55.5t-124.5 -16.5q-92 0 -154 30.5t-62 97.5q0 9 4 39q91 -25 158 -25q70 0 70 37q0 31 -38 31h-6q-24 0 -38.5 1t-36 4t-32.5 12.5t-11 23.5q0 18 3 30.5t6 16.5l3 3q6 1 15.5 2.5t34.5 7t44 11.5t34.5 17
t15.5 23q0 6 -2 8q-6 20 -36 20t-74 -18.5t-53 -29.5q-34 13 -42 44q0 2 -0.5 6t-0.5 7q0 40 39.5 77.5t136.5 44.5q26 2 39 2q61 -1 106.5 -13t67 -27.5t34 -36.5t14.5 -32t2 -22q0 -88 -91 -121z" />
    <glyph glyph-name="uni0438" unicode="&#x438;" horiz-adv-x="643" 
d="M585 501q14 -6 23.5 -59t13 -129t5 -126t1.5 -90q0 -50 -23 -73.5t-76 -23.5q-32 0 -59.5 7t-39.5 15l-12 7q1 7 1 56l-1 125q-34 -88 -112 -149t-173 -61q-111 0 -111 80q0 3 -2 62.5t-3.5 133t-1.5 108.5q0 125 103 125q34 0 59.5 -5.5t34.5 -11.5l9 -5l10 -170
q18 34 41 65t56 63t77 51.5t92 19.5q25 0 47 -4t32 -8z" />
    <glyph glyph-name="uni0439" unicode="&#x439;" horiz-adv-x="643" 
d="M585 501q-32 15 -88 15q-48 0 -92 -19.5t-77 -51.5t-56 -63t-41 -65l-10 170q-27 22 -103 22q-103 0 -103 -125q0 -35 1.5 -108.5t3.5 -133t2 -62.5q0 -80 111 -80q95 0 173 61t112 149q1 -69 1 -125q0 -49 -1 -56q39 -29 111 -29q53 0 76 23.5t23 73.5q0 40 -1.5 90
t-5 126t-13 129t-23.5 59zM312 500q-58 0 -99 29.5t-41 87.5q0 55 68 55q14 0 35 -3v-20q0 -66 41 -66q18 0 26 18t8 42l-1 26q15 3 38 3q38 0 52 -14.5t14 -42.5q0 -55 -38.5 -85t-102.5 -30z" />
    <glyph glyph-name="uni043A" unicode="&#x43a;" horiz-adv-x="631" 
d="M605 370q-13 -24 -41.5 -47.5t-50.5 -34.5l-22 -12q5 0 12.5 -0.5t27.5 -5t35.5 -12t28 -22.5t12.5 -35q0 -138 7 -159q-6 -5 -17 -12t-47 -18.5t-76 -11.5q-67 0 -94 21.5t-27 66.5q0 8 1 26.5t1 27.5q0 35 -13 54t-51 19l-7 -184q-3 -3 -10.5 -8.5t-43 -14t-85.5 -8.5
q-77 0 -103.5 37.5t-26.5 99.5q0 57 9.5 206t15.5 174q33 6 128 6q70 0 98.5 -23t28.5 -67q0 -6 -2 -96q71 50 114 165q37 13 82 13q47 0 87 -28t40 -68q0 -24 -11 -49z" />
    <glyph glyph-name="uni043B" unicode="&#x43b;" horiz-adv-x="685" 
d="M186 0q-55 0 -98 11.5t-58 21t-15 11.5q0 11 4 40t15.5 75t27.5 95.5t44 100t62 90.5t83.5 65t106.5 25q79 0 153 -71t116.5 -168t42.5 -181q0 -53 -38 -83.5t-107 -30.5q-73 0 -78 14q-78 213 -108 266l-28 -152q0 -5 -1 -13.5t-8 -31t-19 -39.5t-37.5 -31t-59.5 -14z
" />
    <glyph glyph-name="uni043C" unicode="&#x43c;" horiz-adv-x="760" 
d="M38 507q30 20 122 20q39 0 71.5 -12t53.5 -27.5t41 -44t29.5 -47t24 -51t19.5 -42.5q2 7 9 25.5t26.5 54.5t44 66.5t64.5 54t85 23.5q65 0 117 -42v-468q-30 -17 -107 -17q-54 0 -75 17.5t-21 51.5v214l-66 -184q-35 -98 -87 -98q-36 0 -77.5 47.5t-68.5 102.5t-40 100
q-3 -189 -3 -230q-35 -21 -99 -21q-47 0 -66.5 16.5t-19.5 49.5q0 78 6 245t17 196z" />
    <glyph glyph-name="uni043D" unicode="&#x43d;" horiz-adv-x="643" 
d="M31 500q32 8 119 8q55 0 87 -22.5t32 -64.5q0 -74 -2 -107q30 0 112 2q8 171 11 184q32 8 119 8q55 0 87 -22t32 -65l-4 -390q-2 -3 -8.5 -8.5t-38.5 -14t-80 -8.5q-38 0 -64 10.5t-38 31t-16.5 41.5t-4.5 50v23l-107 4l-2 -129q-2 -3 -9 -8.5t-39 -14t-79 -8.5
q-38 0 -64 10.5t-38 31t-16.5 41.5t-4.5 50q0 62 6 202t10 165z" />
    <glyph glyph-name="uni043E" unicode="&#x43e;" horiz-adv-x="572" 
d="M279 524q64 0 113.5 -14t78.5 -39t47.5 -51t26.5 -59.5t10 -53.5t2 -43q0 -28 -3 -54t-18.5 -67t-42 -70t-80 -51t-126.5 -22q-272 0 -272 267q0 24 3.5 49t19 65t42 69.5t78 51.5t121.5 22zM291 182q29 0 50 24t21 59q0 34 -21 57t-50 23q-31 0 -52.5 -23t-21.5 -57
q0 -35 21.5 -59t52.5 -24z" />
    <glyph glyph-name="uni043F" unicode="&#x43f;" horiz-adv-x="625" 
d="M255 331l6 -293q-45 -37 -116 -37h-11q-31 0 -54.5 10.5t-35.5 25t-19 33t-8.5 30.5t-1.5 22v5v141q0 49 3.5 113.5t7.5 104.5l3 39q44 9 244 9h87t74 -0.5t31 -0.5q145 -3 145 -120v-377q-17 -16 -49.5 -24.5t-56.5 -9.5l-25 -1q-37 0 -61.5 15.5t-34.5 40t-13.5 41.5
t-3.5 34q0 11 -7 199q-8 -1 -35 -1z" />
    <glyph glyph-name="uni0440" unicode="&#x440;" horiz-adv-x="586" 
d="M17 499q50 23 106 23q10 0 17 -1q36 0 72.5 -28.5t37.5 -65.5q1 3 3 8t12.5 18t25.5 22.5t44 17.5t66 8h5q65 -1 111.5 -38t66.5 -88t20 -109q0 -32 -7.5 -65t-25 -66.5t-43 -59.5t-66 -42t-90.5 -16q-32 0 -84 10q2 -167 7 -193q-4 -4 -12 -10.5t-42.5 -17t-78.5 -10.5
h-7q-73 1 -106.5 49t-33.5 124v6zM306 163q35 0 53 23t18 57q0 90 -82 90q-36 0 -48 -18.5t-12 -59.5q0 -42 18.5 -67t52.5 -25z" />
    <glyph glyph-name="uni0441" unicode="&#x441;" horiz-adv-x="536" 
d="M268 251q0 -38 19.5 -60t58.5 -22q26 0 53 6.5t44.5 13.5t19.5 7q47 0 57 -68q0 -38 -23.5 -64.5t-62 -39.5t-75.5 -18.5t-77 -5.5q-111 0 -189 70t-78 187q0 119 85 192t211 73q90 0 144 -43.5t54 -93.5q0 -28 -12.5 -49.5t-24.5 -29.5l-13 -7q-29 27 -117 27
q-43 0 -58.5 -23.5t-15.5 -51.5z" />
    <glyph glyph-name="uni0442" unicode="&#x442;" horiz-adv-x="561" 
d="M547 494q5 -8 5 -56q0 -150 -67 -154q-76 0 -76 -1l3 -257q-33 -26 -120 -26q-39 0 -66.5 11t-40 29.5t-18 35t-5.5 33.5v4q1 2 1.5 8.5t1.5 48.5t1 118l-128 -4q-28 21 -28 132q0 32 21 52t44.5 25.5t49.5 5.5q2 0 28 -0.5t126.5 -2t267.5 -2.5z" />
    <glyph glyph-name="uni0443" unicode="&#x443;" horiz-adv-x="651" 
d="M44 490q48 32 132 32q57 -3 93.5 -43.5t36.5 -102.5q0 -28 -3.5 -72.5t-3.5 -63.5q0 -67 37 -67q40 0 40 80v229q-2 0 2 3.5t13.5 8.5t23.5 10t36 8.5t46 3.5q137 0 137 -178q0 -28 1 -59.5t1 -40.5q0 -41 -2.5 -82t-11.5 -97t-23.5 -104t-41 -97t-61 -83.5t-86.5 -56.5
t-116 -22q-124 0 -201.5 47.5t-77.5 147.5q0 57 42 102q3 -3 8 -7.5t22 -16.5t37 -21.5t52 -17t66 -7.5q70 0 103.5 33.5t33.5 86.5q-3 -4 -11 -11t-44.5 -18t-87.5 -11q-46 2 -78 11t-60 29.5t-42 60.5t-14 100v74.5t0.5 78t1 67.5t0.5 49t0 17z" />
    <glyph glyph-name="uni0444" unicode="&#x444;" horiz-adv-x="991" 
d="M728 614q60 0 105 -22.5t69 -54t38 -74.5t17.5 -74.5t3.5 -63.5q0 -15 -1 -31.5t-6.5 -49.5t-15 -61.5t-29.5 -62t-46.5 -57t-68.5 -39t-94 -15.5q-17 0 -47 4v-79q-1 -3 -3 -7.5t-12.5 -16t-25.5 -20.5t-44 -16.5t-65 -7.5q-71 0 -108 37t-50 119q-39 -13 -85 -13
q-61 0 -106 25t-68 59t-36.5 79t-16.5 74t-3 56q0 21 0.5 37t5.5 50t14 59.5t28.5 57.5t45.5 53.5t68 37t95 17.5q19 0 28 -1q4 0 35 -6l4 105q6 5 17.5 12.5t48.5 20t77 12.5q156 0 156 -148v-6q37 10 75 11zM270 155q52 0 69 96q0 18 0.5 38.5t1.5 46t1 39.5
q-16 93 -66 93q-71 0 -71 -160q0 -18 2 -38t7.5 -49t20 -47.5t35.5 -18.5zM711 155q23 0 38.5 18t23 47t10.5 55.5t3 53.5q0 52 -17.5 95.5t-51.5 43.5q-47 0 -64 -75v-165q15 -73 58 -73z" />
    </font>
</defs>
</svg>
